<svg xmlns="http://www.w3.org/2000/svg" width="72" height="72" viewBox="0 0 512 512">
  <g id="app_icon_red" data-name="app icon red" transform="translate(8280 13347)">
    <g id="Group_161681" data-name="Group 161681" transform="translate(547)">
      <rect id="Rectangle_22617" data-name="Rectangle 22617" width="512" height="512" transform="translate(-8827 -13347)" fill="#ed1c24"/>
      <g id="app_lite_logo_red" transform="translate(-5579.292 -19839.824)">
        <g id="Group_161679" data-name="Group 161679" transform="translate(-3110.75 6769.749)">
          <path id="path22" d="M2.48,0A15.627,15.627,0,0,0-13.008,15.716,15.358,15.358,0,0,0,2.264,31.461,15.312,15.312,0,0,0,17.543,15.824a15.462,15.462,0,0,0-4.182-11.1A14.718,14.718,0,0,0,2.48,0" transform="translate(70.038 0)" fill="#fff"/>
          <path id="path26" d="M0,15.753H24.017V-82.661L0-78.632Z" transform="translate(61.51 122)" fill="#fff"/>
          <path id="path30" d="M7.149,13.421C.561,13.421-3.881,11.2-6.8,7.977c-4.321-4.818-6.239-14.7-5.721-25.182h51.79v-2.451c-.456-34.881-12-50.768-37.327-50.768-28.237,0-39.237,26.721-39.454,51.847C-37.68-2.7-31.853,13.293-21.187,22.4-14.71,27.946-5.725,31.021,4.7,31.021a56.521,56.521,0,0,0,17.031-2.6A67.881,67.881,0,0,0,39.8,19.393L33.017,5.059A45.6,45.6,0,0,1,7.149,13.421m-5.2-65.439c10.673,0,12.257,11.906,12.257,19.324h-26c.41-9.525,4.263-19.324,13.748-19.324" transform="translate(198.112 106.731)" fill="#fff"/>
          <path id="path34" d="M5.79,17.638C-4.2,16.853-6.3,12.343-6.3,4.812V-92.55l-24.085,4.227V3.208c0,21.707,11.457,31,30.623,31a57.527,57.527,0,0,0,9.191-1V17.681s-2.256.058-3.641-.043" transform="translate(30.383 103.545)" fill="#fff"/>
          <path id="path38" d="M3.942,0-20.685,4.068V96.053c0,20.605,11.706,30.351,31.318,30.351a51.624,51.624,0,0,0,9.145-.908V110.182c-.258-.032-2.078-.032-3.466-.081-10.335-.362-12.37-6.223-12.37-13V45.333H19.777V27.177H3.942Z" transform="translate(131.834 10.431)" fill="#fff"/>
        </g>
        <path id="path42" d="M10.891,26.5c10.729-3.863,19.24-9.25,27.45-14.455l2.23-1.38a206.037,206.037,0,0,0,25.893-19.5C85.791-25.734,97.374-42.3,104.018-62.527c2.7-8.226,6.5-24.207,1.83-39.219a50.623,50.623,0,0,0-19.674-26.731c-1.106-.932-13.119-10.554-35.789-10.554-20.73,0-43.456,8.009-67.554,23.8l-.761.476-.113.094c-.7.413-1.387.852-2.153,1.361a16.018,16.018,0,0,1-1.868,1.22,139.6,139.6,0,0,0-14,10.844c-10.166,9.834-21.77,26.3-21.055,40.28a18.746,18.746,0,0,0,7.34,14.35A24.184,24.184,0,0,0-34.484-41.74c12.344,0,25.877-6.721,35.122-12.4.575-.419,1.163-.818,1.758-1.185,1.614-1.072,3.215-2.132,4.837-3.223l1.587-1.072C21.963-68.41,35.574-77.546,50.886-82.859a32.869,32.869,0,0,1,10.657-2.018,20.308,20.308,0,0,1,4.6.487A14.321,14.321,0,0,1,76.263-76.5c3.549,7.263,2.7,18.677-2.137,29.137C67.534-33.122,56.189-19.071,40.457-5.615A133.474,133.474,0,0,1,18.439,10.107l-.6.31A78.882,78.882,0,0,1,7.632,15.394l-.506.2c-1.087.41-2,.766-2.857,1.044C-11.117,20.763-1.759,7.2-1.759,7.2A114.976,114.976,0,0,1,8.753-3.444c2.075-1.961,4.232-3.978,6.395-6.149l.482-.492c2.685-2.691,6.373-6.358,6.149-11.63-.32-7.024-7.423-11.407-14.117-11.6H7.175c-6.429,0-12.519,3.782-16.5,6.939A54.064,54.064,0,0,0-20.378-13.9c-4.092,6.5-12.706,23.078-4.315,36.313,3.357,5.3,8.971,7.977,16.674,7.977A56.753,56.753,0,0,0,10.891,26.5" transform="translate(-3017.884 6706.653)" fill="#fff"/>
      </g>
    </g>
  </g>
</svg>
