<svg xmlns="http://www.w3.org/2000/svg" width="16.527" height="21.697" viewBox="0 0 16.527 21.697"><defs><style>.a{opacity:0.8;}</style></defs><g class="a"><path d="M77.093,5.023,72.5.435A1.473,1.473,0,0,0,71.455,0H62.483A1.485,1.485,0,0,0,61,1.483V20.214A1.485,1.485,0,0,0,62.483,21.7H76.044a1.485,1.485,0,0,0,1.483-1.483V6.072A1.474,1.474,0,0,0,77.093,5.023Zm-1.736.062h-2.7a.212.212,0,0,1-.212-.212V2.17Zm.687,15.341H62.483a.212.212,0,0,1-.212-.212V1.483a.212.212,0,0,1,.212-.212h8.687v3.6a1.485,1.485,0,0,0,1.483,1.483h3.6V20.214A.212.212,0,0,1,76.044,20.426Z" transform="translate(-61)"/><path d="M257.736,200.271h4.05a.636.636,0,0,0,0-1.271h-4.05a.636.636,0,0,0,0,1.271Z" transform="translate(-248.789 -190.567)"/><path d="M257.736,300.271h4.05a.636.636,0,0,0,0-1.271h-4.05a.636.636,0,0,0,0,1.271Z" transform="translate(-248.789 -286.329)"/><path d="M261.8,399h-4.068a.636.636,0,0,0,0,1.271H261.8a.636.636,0,1,0,0-1.271Z" transform="translate(-248.789 -382.091)"/><path d="M131.8,168.95l-1.466,1.466-.346-.346a.636.636,0,1,0-.9.9l.8.8a.636.636,0,0,0,.9,0l1.915-1.915a.636.636,0,1,0-.9-.9Z" transform="translate(-126.023 -161.612)"/><path d="M131.8,276.587l-1.466,1.466-.346-.346a.636.636,0,0,0-.9.9l.8.8a.636.636,0,0,0,.9,0l1.915-1.915a.636.636,0,1,0-.9-.9Z" transform="translate(-126.023 -264.688)"/><path d="M131.8,376.587l-1.466,1.466-.346-.346a.636.636,0,0,0-.9.9l.8.8a.636.636,0,0,0,.9,0l1.915-1.915a.636.636,0,1,0-.9-.9Z" transform="translate(-126.023 -360.45)"/></g></svg>