<svg width="21" height="20" viewBox="0 0 21 20" fill="none" xmlns="http://www.w3.org/2000/svg">
<path d="M9.30289 10.6574C9.08068 10.647 8.85847 10.6374 8.62292 10.6374C6.26006 10.6356 3.94089 11.2743 1.91208 12.4855C1.47455 12.7546 1.11442 13.1328 0.866942 13.583C0.619464 14.0331 0.493123 14.5399 0.500289 15.0535V16.729C0.50107 16.9981 0.608313 17.2559 0.798589 17.4462C0.988866 17.6365 1.24671 17.7437 1.5158 17.7445H9.90139C9.06773 16.5544 8.62106 15.1363 8.62218 13.6832C8.62593 12.637 8.85825 11.6044 9.30289 10.6574Z" stroke="#4A5565" stroke-linecap="square" stroke-linejoin="round"/>
<path d="M8.62284 8.62263C10.8658 8.62263 12.6842 6.80432 12.6842 4.56132C12.6842 2.31831 10.8658 0.5 8.62284 0.5C6.37984 0.5 4.56152 2.31831 4.56152 4.56132C4.56152 6.80432 6.37984 8.62263 8.62284 8.62263Z" stroke="#4A5565" stroke-linecap="square" stroke-linejoin="round"/>
<path d="M19.5367 13.6832C19.5321 13.4687 19.5118 13.2548 19.476 13.0432L20.3285 12.3025C20.4169 12.2241 20.4754 12.1174 20.4939 12.0007C20.5124 11.884 20.4898 11.7645 20.43 11.6625L19.8308 10.6255C19.7731 10.5238 19.6813 10.4458 19.5717 10.4051C19.4621 10.3645 19.3416 10.3638 19.2315 10.4033L18.1553 10.7685C17.8294 10.4937 17.4586 10.2772 17.059 10.1285L16.8368 9.02191C16.8129 8.90747 16.7504 8.80472 16.6598 8.73083C16.5692 8.65695 16.456 8.61641 16.3391 8.616H15.1406C15.0237 8.61641 14.9105 8.65695 14.8199 8.73083C14.7292 8.80472 14.6668 8.90747 14.6428 9.02191L14.4206 10.1285C14.0211 10.2772 13.6502 10.4937 13.3244 10.7685L12.2481 10.4033C12.1379 10.3653 12.018 10.3667 11.9087 10.4072C11.7995 10.4477 11.7076 10.5249 11.6489 10.6255L11.0496 11.6625C10.9899 11.7645 10.9673 11.884 10.9858 12.0007C11.0043 12.1174 11.0627 12.2241 11.1511 12.3025L12.0037 13.0432C11.9679 13.2548 11.9476 13.4687 11.9429 13.6832C11.9476 13.8977 11.9679 14.1116 12.0037 14.3232L11.1511 15.0639C11.0627 15.1423 11.0043 15.249 10.9858 15.3657C10.9673 15.4824 10.9899 15.6019 11.0496 15.7039L11.6489 16.7409C11.7066 16.8425 11.7983 16.9206 11.908 16.9613C12.0176 17.0019 12.1381 17.0026 12.2481 16.9631L13.3244 16.5979C13.6502 16.8727 14.0211 17.0892 14.4206 17.2379L14.6428 18.3445C14.6668 18.4589 14.7292 18.5617 14.8199 18.6356C14.9105 18.7095 15.0237 18.75 15.1406 18.7504H16.3383C16.4552 18.75 16.5685 18.7095 16.6591 18.6356C16.7497 18.5617 16.8122 18.4589 16.8361 18.3445L17.0583 17.2379C17.4578 17.0892 17.8287 16.8727 18.1545 16.5979L19.2308 16.9631C19.341 17.0011 19.4609 16.9997 19.5702 16.9592C19.6794 16.9187 19.7713 16.8415 19.83 16.7409L20.4293 15.7039C20.4891 15.6019 20.5116 15.4824 20.4931 15.3657C20.4746 15.249 20.4162 15.1423 20.3278 15.0639L19.4752 14.3232C19.5113 14.1116 19.5318 13.8977 19.5367 13.6832ZM15.7295 15.7135C15.3279 15.7135 14.9354 15.5944 14.6015 15.3713C14.2676 15.1482 14.0074 14.8311 13.8537 14.4602C13.7 14.0892 13.6598 13.6809 13.7382 13.2871C13.8165 12.8933 14.0099 12.5315 14.2938 12.2476C14.5778 11.9636 14.9395 11.7703 15.3334 11.6919C15.7272 11.6136 16.1354 11.6538 16.5064 11.8075C16.8774 11.9611 17.1945 12.2214 17.4176 12.5552C17.6407 12.8891 17.7597 13.2816 17.7597 13.6832C17.7582 14.2212 17.5438 14.7367 17.1634 15.1171C16.7829 15.4975 16.2674 15.7119 15.7295 15.7135Z" stroke="#4A5565" stroke-linecap="square" stroke-linejoin="round"/>
<path d="M15.5 11.1252C16.8807 11.1252 18 12.2445 18 13.6252C18 15.0059 16.8807 16.1252 15.5 16.1252C14.1193 16.1252 13 15.0059 13 13.6252C13 12.2445 14.1193 11.1252 15.5 11.1252ZM15.5 12.1252C14.6716 12.1252 14 12.7968 14 13.6252C14 14.4536 14.6716 15.1252 15.5 15.1252C16.3284 15.1252 17 14.4536 17 13.6252C17 12.7968 16.3284 12.1252 15.5 12.1252Z" fill="#ED1C24"/>
</svg>
