<svg width="106" height="35" viewBox="0 0 106 35" fill="none" xmlns="http://www.w3.org/2000/svg">
<g clip-path="url(#clip0_4071_1247)">
<path d="M104.127 26.6445C103.937 26.6378 103.75 26.5936 103.577 26.5145C103.404 26.4355 103.248 26.3231 103.119 26.1837C102.989 26.0444 102.889 25.8809 102.823 25.7025C102.756 25.5242 102.726 25.3345 102.733 25.1445V8.52246L98.9642 9.09046V25.0445C98.9533 25.5837 99.049 26.1197 99.2456 26.6219C99.4422 27.1241 99.7359 27.5825 100.11 27.971C100.484 28.3595 100.931 28.6703 101.426 28.8858C101.92 29.1012 102.452 29.217 102.991 29.2265H105.108V26.6445H104.127Z" fill="white"/>
<path d="M60.499 29.275H64.268V13.375L60.499 13.995V29.275Z" fill="white"/>
<path d="M66.6431 16.1631V29.2771H70.4121V17.6601C70.4121 15.6981 74.7491 16.1111 74.7491 16.1111L76.0911 13.1681C74.3974 12.6643 72.5915 12.6804 70.907 13.2144C69.2226 13.7484 67.7372 14.7756 66.6431 16.1631Z" fill="white"/>
<path d="M81.0999 25.1995V16.0095H83.3719V13.1225H81.0999V8.52246L77.3309 9.09046V25.0445C77.32 25.5837 77.4156 26.1197 77.6123 26.6219C77.8089 27.1241 78.1026 27.5825 78.4767 27.971C78.8508 28.3595 79.2978 28.6703 79.7922 28.8858C80.2866 29.1012 80.8187 29.217 81.3579 29.2265H83.4749V26.6445H82.5459C82.356 26.6449 82.1679 26.6078 81.9923 26.5353C81.8168 26.4628 81.6572 26.3564 81.5229 26.2222C81.3886 26.0879 81.282 25.9285 81.2095 25.753C81.1369 25.5775 81.0996 25.3894 81.0999 25.1995Z" fill="white"/>
<path d="M62.3572 7.1283C61.8977 7.1283 61.4486 7.26455 61.0666 7.5198C60.6846 7.77505 60.3868 8.13786 60.211 8.56233C60.0352 8.9868 59.9892 9.45388 60.0788 9.9045C60.1685 10.3551 60.3897 10.769 60.7146 11.0939C61.0395 11.4188 61.4534 11.64 61.904 11.7297C62.3546 11.8193 62.8217 11.7733 63.2462 11.5975C63.6706 11.4217 64.0334 11.1239 64.2887 10.7419C64.5439 10.3599 64.6802 9.91075 64.6802 9.45131C64.6857 9.14472 64.6295 8.84015 64.5147 8.5558C64.3999 8.27144 64.229 8.01314 64.0122 7.79631C63.7953 7.57948 63.537 7.40858 63.2527 7.29381C62.9683 7.17903 62.6638 7.12275 62.3572 7.1283Z" fill="white"/>
<path d="M90.5991 26.3344C88.1211 25.3534 88.276 21.6344 88.276 21.6344H97.3111C97.3111 16.9344 96.175 12.8574 91.632 12.8574C87.089 12.8574 84.3521 16.2134 84.3521 20.9114C84.3521 25.6094 87.243 29.2754 91.787 29.2754C93.7741 29.2674 95.7209 28.7139 97.4151 27.6754L96.1241 25.4554C96.1751 25.4054 93.0781 27.2594 90.5991 26.3344ZM91.1151 15.7504C93.2831 15.7504 93.6971 18.7964 93.6971 18.7964H88.5341C88.4821 18.7964 88.9521 15.7504 91.1161 15.7504H91.1151Z" fill="white"/>
<path d="M53.0119 12.962C51.9384 12.9757 50.868 13.0794 49.8119 13.272C48.7305 13.5513 47.7018 14.0045 46.7659 14.614L47.9539 17.092C49.07 16.1611 50.4765 15.6496 51.9299 15.646C55.1299 15.646 54.6659 18.846 54.6659 18.846C48.4189 17.555 45.3209 20.756 45.4239 24.112C45.354 24.9201 45.4985 25.7323 45.843 26.4666C46.1875 27.2009 46.7198 27.8313 47.3859 28.294C52.8589 31.908 58.1769 26.642 58.1769 26.642V17.862C58.1343 16.5298 57.5681 15.2682 56.6011 14.3509C55.6342 13.4335 54.3445 12.9345 53.0119 12.962ZM54.6639 26.128C54.6639 26.128 52.1859 27.264 50.5849 26.335C50.2319 26.0898 49.9452 25.761 49.7504 25.3779C49.5556 24.9947 49.4589 24.5693 49.4688 24.1396C49.4787 23.71 49.595 23.2894 49.8072 22.9157C50.0194 22.542 50.321 22.2267 50.6849 21.998C52.1849 21.172 54.6609 21.688 54.6609 21.688L54.6639 26.128Z" fill="white"/>
<path d="M7.08077 7.21656C-3.56923 16.8626 0.270773 20.0946 2.82077 21.3206C5.37077 22.5466 8.75877 20.8686 13.0208 17.5446C17.2488 14.2206 27.0918 7.79756 29.4208 10.9926C31.7498 14.1876 31.7768 20.5136 21.8368 28.8726C11.8968 37.2316 9.83077 32.3256 14.7368 28.5176C19.6428 24.6766 18.7368 22.3856 16.4148 22.0626C13.9938 21.7076 11.8968 22.2886 9.70177 26.2626C9.70177 26.2626 6.37777 32.6526 10.6378 34.2986C13.5748 35.4286 22.3208 31.9106 28.7108 25.4876C33.4228 20.7436 36.8758 15.0636 35.4238 7.47856C33.5778 -2.46544 17.7308 -2.43744 7.08077 7.21656Z" fill="white"/>
</g>
<defs>
<clipPath id="clip0_4071_1247">
<rect width="105.108" height="34.504" fill="white"/>
</clipPath>
</defs>
</svg>
