<svg xmlns="http://www.w3.org/2000/svg" width="27.5" height="25.293" viewBox="0 0 27.5 25.293">
  <g id="Group_16979" data-name="Group 16979" transform="translate(0.002)">
    <path id="Path_11705" data-name="Path 11705" d="M26.53,3.767c-.592-.108-1.076-.215-1.614-.323-.269-1.668-.269-1.668-2.1-1.668H3.874a3.068,3.068,0,0,0-1.184.215,1.7,1.7,0,0,0-.969,1.884A1.938,1.938,0,0,0,3.659,5.328H24.646A2.574,2.574,0,0,1,27.5,8.234v4.789c-.323,0-.538.054-.807.054H21.525a2.608,2.608,0,0,0-2.583,2.045,2.641,2.641,0,0,0,1.345,2.96,3.328,3.328,0,0,0,1.453.269c1.668.054,3.283,0,4.951,0a3.069,3.069,0,0,1,.7.054,48.1,48.1,0,0,1-.054,4.843,2.355,2.355,0,0,1-2.422,2.045H4.2A4.39,4.39,0,0,1,0,20.88C.107,15.391,0,9.848.053,4.359A6.528,6.528,0,0,1,.43,2.045C1.183.431,2.69,0,4.251,0H23.462a2.894,2.894,0,0,1,2.475,1.076,3.651,3.651,0,0,1,.484,1.345c0,.431.108.915.108,1.345" transform="translate(0 0)" fill="#fff"/>
    <circle id="Ellipse_15" data-name="Ellipse 15" cx="1.238" cy="1.238" r="1.238" transform="translate(21.417 14.53)" fill="#fff"/>
    <rect id="Rectangle_927" data-name="Rectangle 927" width="20.073" height="1.238" transform="translate(3.659 3.067)" fill="#fff"/>
    <path id="Path_11706" data-name="Path 11706" d="M14.664,18.476a4.2,4.2,0,0,1,4.09,1.776,4.923,4.923,0,0,1-.484,4.789,12.412,12.412,0,0,1-4.036,3.982,5.84,5.84,0,0,1-3.067,1.184,1.4,1.4,0,0,1-1.184-1.83,4.052,4.052,0,0,1,1.453-2.26,1.557,1.557,0,0,1,1.668,0,.576.576,0,0,1,.054.753c-.538.807-1.453,1.345-1.884,2.206a.485.485,0,0,0,0,.592c.215.161.484.054.753,0a8.84,8.84,0,0,0,2.691-1.722,7.126,7.126,0,0,0,2.8-4.036,1.814,1.814,0,0,0-.807-1.991,3.562,3.562,0,0,0-2.422.592,31.173,31.173,0,0,0-3.121,2.045,5.121,5.121,0,0,1-2.314,1.238,1.611,1.611,0,0,1-1.668-1.776A4.393,4.393,0,0,1,8.1,22.136a10.735,10.735,0,0,1,3.713-2.852,11.7,11.7,0,0,1,2.852-.807Z" transform="translate(-3.31 -8.521)" fill="#eb2027"/>
  </g>
</svg>
