<svg xmlns="http://www.w3.org/2000/svg" width="19.149" height="23.5" viewBox="0 0 19.149 23.5">
  <g id="Group_22445" data-name="Group 22445" transform="translate(-125.9 -625.5)">
    <g id="Group_22398" data-name="Group 22398" transform="translate(125.9 625.5)">
      <path id="Subtraction_23" data-name="Subtraction 23" d="M17.069,21.869l-1.2,0a.5.5,0,0,1-.367-.122.327.327,0,0,1-.088-.246c.005-.224.165-.348.45-.348h2.081c.372,0,.486-.113.486-.482v-.111q0-1.334,0-2.667c0-3.739,0-7.605.005-11.408a.172.172,0,0,0-.214-.217h-.01c-.461,0-.955.005-1.6.005H15.051a.534.534,0,0,1-.394-.1.529.529,0,0,1-.1-.392q0-.211,0-.422V5.139c0-.834,0-1.7,0-2.549a.224.224,0,0,0-.038-.162.207.207,0,0,0-.151-.04h0c-2.769,0-5.585,0-8.308,0H2.836a.45.45,0,0,0-.332.1.46.46,0,0,0-.1.334c0,.348,0,.714,0,1.007,0,.237,0,.506,0,.763a.523.523,0,0,1-.093.328.319.319,0,0,1-.259.119H2.04c-.22,0-.357-.167-.358-.436V4.44c0-.548,0-1.114,0-1.671A1.182,1.182,0,0,1,1.77,2.33a1.03,1.03,0,0,1,.582-.573A1.206,1.206,0,0,1,2.8,1.676H8.728l6.1,0h0a.522.522,0,0,1,.4.169c.287.293.58.588.864.873l.018.018.056.057.267.268a.088.088,0,0,0,.062-.118.2.2,0,0,1,0-.032c0-.559,0-1.13,0-1.7a.52.52,0,0,0-.109-.382.508.508,0,0,0-.379-.108H1.2a.506.506,0,0,0-.379.1.523.523,0,0,0-.1.384c0,5.9,0,11.878,0,17.776a.531.531,0,0,0,.1.392.539.539,0,0,0,.394.1h.072c.2,0,.3-.007.344-.068s.049-.182.049-.4c0-4.078,0-8.294,0-12.441,0-.022,0-.044,0-.066v0a.781.781,0,0,1,.01-.192.4.4,0,0,1,.118-.216.331.331,0,0,1,.226-.078h.032a.347.347,0,0,1,.227.092.371.371,0,0,1,.1.226,1.193,1.193,0,0,1,0,.173c0,.021,0,.044,0,.066,0,4.681,0,9.441,0,14.043,0,.438.1.539.528.539H4.985a.524.524,0,0,1,.378.123.347.347,0,0,1-.034.5.568.568,0,0,1-.346.1H3.77l-.939,0A1.15,1.15,0,0,1,2,21.552a1.171,1.171,0,0,1-.314-.84c0-.516,0-.516-.512-.518a1.191,1.191,0,0,1-.855-.312A1.157,1.157,0,0,1,0,19.036c0-1.53,0-3.091,0-4.6v-.887C0,9.492,0,5.3,0,1.164A1.4,1.4,0,0,1,.058.749,1.023,1.023,0,0,1,.226.423,1.33,1.33,0,0,1,.866,0h15.5c.054.031.11.059.165.086h0A1.188,1.188,0,0,1,16.9.331a1.2,1.2,0,0,1,.31.853c0,.3,0,.594,0,.882,0,.51,0,1.038,0,1.559a.446.446,0,0,0,.15.353c.264.26.528.524.784.78s.534.535.81.806a.6.6,0,0,1,.2.463c0,3.461,0,7.015,0,10.152v.95c0,1.178,0,2.4,0,3.588A1.076,1.076,0,0,1,18,21.868ZM15.27,2.947h0c0,.226,0,.449,0,.638v.007c0,.585,0,1.19,0,1.783a.144.144,0,0,0,.179.179h.011c.29,0,.6,0,1.007,0h1.415L16.312,3.987,16.3,3.975l-.007-.007L15.27,2.947Z" fill="#eb0e15"/>
      <path id="Path_78760" data-name="Path 78760" d="M905.208,512.835H909.3a1.543,1.543,0,0,1,.262.011.328.328,0,0,1,.284.309.336.336,0,0,1-.215.362.711.711,0,0,1-.306.035h-8.247a.722.722,0,0,1-.306-.034.334.334,0,0,1-.214-.362.319.319,0,0,1,.28-.31,1.494,1.494,0,0,1,.262-.011Z" transform="translate(-894.771 -505.32)" fill="#eb0e15"/>
      <path id="Path_78761" data-name="Path 78761" d="M903.5,546.665h2.485c.307,0,.461.121.46.357s-.161.36-.463.36q-2.5,0-4.994,0c-.268,0-.413-.1-.443-.3-.036-.244.119-.411.4-.412C901.793,546.663,902.645,546.665,903.5,546.665Z" transform="translate(-894.758 -536.991)" fill="#eb0e15"/>
      <path id="Path_78762" data-name="Path 78762" d="M1009.674,546.657c.271,0,.541,0,.812,0a.357.357,0,1,1,.019.713q-.836.012-1.671,0a.35.35,0,0,1-.364-.361.343.343,0,0,1,.369-.351C1009.117,546.652,1009.4,546.657,1009.674,546.657Z" transform="translate(-995.801 -536.982)" fill="#eb0e15"/>
      <g id="Group_22397" data-name="Group 22397" transform="translate(-1 -3.095)">
        <path id="Subtraction_22" data-name="Subtraction 22" d="M6.162,11.105h-1.3a6.042,6.042,0,0,0-.639-.182h0a5.4,5.4,0,0,1-.723-.214,5.508,5.508,0,0,1-1.561-.95A5.619,5.619,0,0,1,.128,6.723,5.5,5.5,0,0,1,.547,3.155,5.6,5.6,0,0,1,2.979.632,5.455,5.455,0,0,1,4.7.066,5.747,5.747,0,0,1,5.564,0a5.557,5.557,0,0,1,5.545,5.845A5.507,5.507,0,0,1,9.62,9.333,5.465,5.465,0,0,1,6.25,11.05c-.041,0-.076.009-.088.055ZM5.553.883A4.664,4.664,0,0,0,1.687,8.155,4.709,4.709,0,0,0,2.946,9.419a4.673,4.673,0,0,0,.791.432,4.611,4.611,0,0,0,1.812.37h.006a4.634,4.634,0,0,0,1.813-.367A4.7,4.7,0,0,0,9.858,7.376a4.666,4.666,0,0,0,.008-3.632A4.666,4.666,0,0,0,5.559.883Z" transform="translate(5.916 15.49)" fill="#eb0e15"/>
        <path id="Path_78765" data-name="Path 78765" d="M945.912,623.107c0,1.408,0,2.732,0,4.056a2.163,2.163,0,0,1-.008.294.4.4,0,0,1-.4.368.414.414,0,0,1-.44-.276.855.855,0,0,1-.04-.348q0-2,0-4c-.112-.026-.141.068-.19.115-.33.322-.65.655-.984.973a.414.414,0,0,1-.607.018.423.423,0,0,1-.036-.608q.977-1,1.978-1.977a.39.39,0,0,1,.583.009q.987.97,1.956,1.958a.417.417,0,0,1-.01.607.427.427,0,0,1-.632-.013C946.706,623.913,946.339,623.534,945.912,623.107Z" transform="translate(-934.002 -603.678)" fill="#eb0e15"/>
      </g>
    </g>
  </g>
</svg>
