<svg xmlns="http://www.w3.org/2000/svg" width="90.05" height="114.933" viewBox="0 0 90.05 114.933">
  <g id="Group_22393" data-name="Group 22393" transform="translate(-809.477 -347.576)">
    <path id="Subtraction_23" data-name="Subtraction 23" d="M79.379,101.7c-1.98,0-3.925,0-5.592-.008a2.34,2.34,0,0,1-1.708-.569,1.521,1.521,0,0,1-.41-1.144c.025-1.043.767-1.618,2.09-1.62,1.676,0,3.382,0,5.032,0h1.836l2.81,0c1.731,0,2.259-.525,2.259-2.242V95.6q0-6.2,0-12.4c0-17.387,0-35.367.023-53.053a.8.8,0,0,0-1-1.008h-.045c-2.145.017-4.442.025-7.447.025l-4.033,0-3.2,0a2.483,2.483,0,0,1-1.83-.486,2.461,2.461,0,0,1-.488-1.824q0-.981,0-1.962V23.9c0-3.878-.006-7.888.015-11.853a1.042,1.042,0,0,0-.176-.752.961.961,0,0,0-.7-.185h0c-12.875.019-25.971.02-38.636.021h-.71l-14.274,0a2.094,2.094,0,0,0-1.545.479,2.137,2.137,0,0,0-.48,1.555c-.007,1.62-.006,3.318,0,4.683,0,1.1,0,2.353,0,3.55a2.434,2.434,0,0,1-.43,1.527,1.484,1.484,0,0,1-1.2.552H9.488c-1.021,0-1.658-.777-1.663-2.029l0-.753v-.045c-.01-2.547-.02-5.18.007-7.769a5.5,5.5,0,0,1,.4-2.043,4.792,4.792,0,0,1,2.707-2.665A5.608,5.608,0,0,1,13,7.794c8.617,0,17.381-.006,25.857-.006h1.731c9.3,0,18.92,0,28.368-.009h.005a2.429,2.429,0,0,1,1.864.784c1.334,1.363,2.7,2.733,4.017,4.059l.085.085.261.263,1.24,1.246a.411.411,0,0,0,.289-.547.948.948,0,0,1-.016-.15c.014-2.6.016-5.256.006-7.9a2.419,2.419,0,0,0-.5-1.779,2.364,2.364,0,0,0-1.76-.5H5.583a2.355,2.355,0,0,0-1.762.477A2.43,2.43,0,0,0,3.35,5.6c0,27.425,0,55.237,0,82.662a2.47,2.47,0,0,0,.479,1.824,2.507,2.507,0,0,0,1.831.48h.335c.917,0,1.374-.031,1.6-.315s.229-.847.229-1.865c0-18.962,0-38.57,0-57.854,0-.1,0-.207-.005-.308V30.21a3.631,3.631,0,0,1,.047-.894,1.842,1.842,0,0,1,.548-1.006,1.539,1.539,0,0,1,1.05-.364c.048,0,.1,0,.15.005a1.612,1.612,0,0,1,1.055.428,1.724,1.724,0,0,1,.473,1.051,5.55,5.55,0,0,1,.022.8c0,.1,0,.2,0,.306,0,21.769,0,43.9,0,65.307,0,2.038.459,2.507,2.455,2.508h6.529c.756,0,1.894,0,3.038,0a2.437,2.437,0,0,1,1.757.571,1.615,1.615,0,0,1-.156,2.321,2.641,2.641,0,0,1-1.607.443l-.94,0c-1.374,0-3.084.005-4.7.005s-3.042,0-4.367-.009a5.348,5.348,0,0,1-3.883-1.468,5.448,5.448,0,0,1-1.459-3.908c-.014-2.4-.014-2.4-2.379-2.408a5.538,5.538,0,0,1-3.974-1.45A5.38,5.38,0,0,1,.013,88.522c0-7.116,0-14.376,0-21.4V63C.013,44.14.013,24.64,0,5.413A6.524,6.524,0,0,1,.268,3.485a4.756,4.756,0,0,1,.783-1.517A6.187,6.187,0,0,1,4.028,0H76.119c.25.145.513.275.768.4l.007,0a5.524,5.524,0,0,1,1.714,1.133A5.558,5.558,0,0,1,80.051,5.5c0,1.379,0,2.762,0,4.1,0,2.372,0,4.825-.018,7.248a2.073,2.073,0,0,0,.7,1.642c1.227,1.207,2.456,2.438,3.645,3.628,1.165,1.167,2.485,2.489,3.767,3.748a2.776,2.776,0,0,1,.91,2.153c-.013,16.094-.013,32.624-.014,47.208v4.419c0,5.476,0,11.138,0,16.684a5,5,0,0,1-5.345,5.357C82.37,101.7,80.961,101.7,79.379,101.7Zm-8.366-88h0c0,1.049,0,2.087,0,2.965V16.7c0,2.721.008,5.536-.022,8.291a.667.667,0,0,0,.831.833h.049c1.35-.013,2.794-.018,4.682-.018l2.607,0,2.607,0h1.365l-7.28-7.272-.056-.055-.03-.031L71.013,13.7Z" transform="translate(809.977 348.076)" fill="#eb0e15" stroke="#fff" stroke-width="1"/>
    <path id="Subtraction_22" data-name="Subtraction 22" d="M23.249,41.9h-4.9a22.8,22.8,0,0,0-2.412-.687l-.007,0a20.358,20.358,0,0,1-2.729-.806,20.784,20.784,0,0,1-5.889-3.583A21.2,21.2,0,0,1,.484,25.366,20.738,20.738,0,0,1,2.063,11.9a21.122,21.122,0,0,1,9.178-9.519A20.583,20.583,0,0,1,17.722.251,21.683,21.683,0,0,1,20.994,0,20.967,20.967,0,0,1,41.915,22.054,20.777,20.777,0,0,1,36.3,35.213a20.621,20.621,0,0,1-12.717,6.479c-.154.017-.288.033-.333.209Zm-2.3-38.568A17.6,17.6,0,0,0,6.367,30.771a17.767,17.767,0,0,0,4.75,4.767,17.631,17.631,0,0,0,2.986,1.63,17.4,17.4,0,0,0,6.836,1.4h.022A17.484,17.484,0,0,0,27.8,37.18a17.744,17.744,0,0,0,9.392-9.35,17.607,17.607,0,0,0,.029-13.7A17.606,17.606,0,0,0,20.977,3.333Z" transform="translate(837.481 420.108)" fill="#eb0e15" stroke="#fff" stroke-width="1"/>
    <path id="Path_78759" data-name="Path 78759" d="M922.084,482.952q-9.5,0-19.008,0a6.6,6.6,0,0,1-1.217-.067,1.631,1.631,0,0,1-.064-3.176,5.435,5.435,0,0,1,1.213-.089q19.175-.006,38.35,0a5.32,5.32,0,0,1,1.1.075,1.627,1.627,0,0,1-.04,3.2,7.314,7.314,0,0,1-1.218.061Q931.643,482.955,922.084,482.952Z" transform="translate(-63.702 -92.499)" fill="#eb0e15" stroke="#fff" stroke-width="1"/>
    <path id="Path_78760" data-name="Path 78760" d="M922.2,512.836q9.505,0,19.01,0a7.164,7.164,0,0,1,1.219.049,1.525,1.525,0,0,1,1.322,1.438,1.56,1.56,0,0,1-1,1.685,3.3,3.3,0,0,1-1.423.165H902.979a3.36,3.36,0,0,1-1.423-.159,1.554,1.554,0,0,1-.994-1.686,1.484,1.484,0,0,1,1.3-1.441,6.931,6.931,0,0,1,1.219-.05Q912.644,512.834,922.2,512.836Z" transform="translate(-63.694 -115.86)" fill="#eb0e15" stroke="#fff" stroke-width="1"/>
    <path id="Path_78761" data-name="Path 78761" d="M914.3,546.668q5.779,0,11.557,0c1.43,0,2.145.565,2.14,1.659s-.75,1.674-2.155,1.675q-11.613.007-23.225,0c-1.246,0-1.922-.482-2.06-1.414-.168-1.136.554-1.912,1.852-1.917C906.377,546.659,910.341,546.668,914.3,546.668Z" transform="translate(-63.683 -139.65)" fill="#eb0e15" stroke="#fff" stroke-width="1"/>
    <path id="Path_78762" data-name="Path 78762" d="M1014.07,546.663c1.259,0,2.518-.018,3.776,0a1.662,1.662,0,1,1,.088,3.316q-3.885.055-7.772,0a1.627,1.627,0,0,1-1.691-1.68,1.594,1.594,0,0,1,1.714-1.632C1011.479,546.641,1012.775,546.664,1014.07,546.663Z" transform="translate(-139.583 -139.643)" fill="#eb0e15" stroke="#fff" stroke-width="1"/>
    <path id="Path_78765" data-name="Path 78765" d="M953.718,627.31c0,5.314,0,10.31,0,15.305a8.086,8.086,0,0,1-.032,1.109,1.519,1.519,0,0,1-1.492,1.388,1.563,1.563,0,0,1-1.661-1.041,3.223,3.223,0,0,1-.151-1.313q0-7.554,0-15.11c-.423-.1-.531.256-.716.436-1.246,1.216-2.452,2.472-3.714,3.671a1.562,1.562,0,0,1-2.292.067,1.594,1.594,0,0,1-.136-2.293q3.686-3.776,7.464-7.461a1.472,1.472,0,0,1,2.2.035q3.723,3.661,7.382,7.388a1.572,1.572,0,0,1-.039,2.291,1.611,1.611,0,0,1-2.383-.049C956.714,630.352,955.327,628.922,953.718,627.31Z" transform="translate(-93.612 -192.339)" fill="#eb0e15" stroke="#fff" stroke-width="1"/>
  </g>
</svg>
