<svg xmlns="http://www.w3.org/2000/svg" width="27.607" height="31.573" viewBox="0 0 27.607 31.573"><defs><style>.a{fill:#ed1c26;}</style></defs><g transform="translate(-1030 -241)"><path class="a" d="M.466,30.9A.409.409,0,0,0,.9,30.852l2.293-1.834,2.293,1.834a.408.408,0,0,0,.511,0l2.293-1.834,2.292,1.834a.409.409,0,0,0,.513,0l2.688-2.18.494.294a1.96,1.96,0,0,0,1.848,2.609h.013l9.76-.06a1.959,1.959,0,0,0,1.648-3L22.614,20.07l-.007-.012a1.945,1.945,0,0,0-1.174-.854v-7.9h5.362A.409.409,0,0,0,27.2,10.9v-7.6A3.3,3.3,0,0,0,24.067,0V0H3.956A3.725,3.725,0,0,0,.234,3.722V30.533A.408.408,0,0,0,.466,30.9ZM21.911,20.489l4.929,8.445.007.012a1.141,1.141,0,0,1-.958,1.75l-9.761.06h-.007a1.141,1.141,0,0,1-.972-1.738l.007-.012,4.825-8.5a1.135,1.135,0,0,1,.962-.538h.007a1.135,1.135,0,0,1,.961.527ZM26.386,3.294v7.194H21.432V3.294a2.477,2.477,0,0,1,4.954,0ZM1.052,3.722a2.907,2.907,0,0,1,2.9-2.9H21.74a3.286,3.286,0,0,0-1.126,2.477v15.88a1.944,1.944,0,0,0-1.333.9l-.007.012-4.622,8.148-.7-.417a.409.409,0,0,0-.467.034l-2.654,2.152-2.29-1.832a.409.409,0,0,0-.511,0L5.739,30.009,3.446,28.175a.409.409,0,0,0-.511,0L1.051,29.682Zm0,0" transform="translate(1029.766 241)"/><path class="a" d="M39.467,192.282h.182a.409.409,0,0,0,0-.817h-.182a.409.409,0,1,0,0,.817Zm0,0" transform="translate(993.586 59.127)"/><path class="a" d="M68.827,192.282H70.2a.409.409,0,1,0,0-.817H68.827a.409.409,0,0,0,0,.817Zm0,0" transform="translate(966.228 59.127)"/><path class="a" d="M116.151,192.282h9.867a.409.409,0,0,0,0-.817h-9.867a.409.409,0,1,0,0,.817Zm0,0" transform="translate(922.126 59.127)"/><path class="a" d="M39.467,135.3h.182a.409.409,0,0,0,0-.818h-.182a.409.409,0,0,0,0,.818Zm0,0" transform="translate(993.586 115.677)"/><path class="a" d="M68.827,135.3H70.2a.409.409,0,1,0,0-.818H68.827a.409.409,0,0,0,0,.818Zm0,0" transform="translate(966.228 115.677)"/><path class="a" d="M116.151,135.3h9.867a.409.409,0,0,0,0-.818h-9.867a.409.409,0,1,0,0,.818Zm0,0" transform="translate(922.126 115.677)"/><path class="a" d="M39.467,78.318h.182a.409.409,0,0,0,0-.817h-.182a.409.409,0,1,0,0,.817Zm0,0" transform="translate(993.586 168.78)"/><path class="a" d="M68.827,78.318H70.2a.409.409,0,1,0,0-.817H68.827a.409.409,0,0,0,0,.817Zm0,0" transform="translate(966.228 168.78)"/><path class="a" d="M116.151,78.318h9.867a.409.409,0,0,0,0-.817h-9.867a.409.409,0,1,0,0,.817Zm0,0" transform="translate(922.126 168.78)"/><path class="a" d="M39.467,249.267h.182a.409.409,0,0,0,0-.818h-.182a.409.409,0,0,0,0,.818Zm0,0" transform="translate(993.586 6.025)"/><path class="a" d="M68.827,249.267H70.2a.409.409,0,1,0,0-.818H68.827a.409.409,0,0,0,0,.818Zm0,0" transform="translate(966.228 6.025)"/><path class="a" d="M116.151,249.267h5.985a.409.409,0,0,0,0-.818h-5.985a.409.409,0,1,0,0,.818Zm0,0" transform="translate(922.126 6.025)"/><path class="a" d="M111.116,364.048h3.455a.409.409,0,0,0,0-.818h-3.455a.409.409,0,0,0,0,.818Zm0,0" transform="translate(926.819 -100.937)"/><path class="a" d="M298.5,332.88l.026,4.186a.408.408,0,0,0,.409.406h0a.409.409,0,0,0,.406-.411l-.025-4.186a.409.409,0,1,0-.818.005Zm0,0" transform="translate(751.819 -68.82)"/><path class="a" d="M299.413,414.238h0a.409.409,0,0,0-.406.411l0,.4a.409.409,0,0,0,.409.406h0a.409.409,0,0,0,.406-.411l0-.4A.409.409,0,0,0,299.413,414.238Zm0,0" transform="translate(751.351 -145.019)"/></g></svg>