<svg xmlns="http://www.w3.org/2000/svg" width="50.499" height="37.997" viewBox="0 0 50.499 37.997">
  <path id="Union_6" data-name="Union 6" d="M27.03,35.01a1.752,1.752,0,0,1-1.695-1.694V20.55a1.752,1.752,0,0,1,1.695-1.694H48.3A1.752,1.752,0,0,1,50,20.55V33.316A1.752,1.752,0,0,1,48.3,35.01Zm-.355-1.694a.344.344,0,0,0,.118.237c.026.078.105.118.237.118H48.3c.131,0,.211-.04.237-.118a.341.341,0,0,0,.118-.237V26.933H26.675Zm.118-13a.344.344,0,0,0-.118.237v4.364H48.659V20.55a.344.344,0,0,0-.118-.237c-.027-.078-.105-.118-.237-.118H27.03C26.9,20.2,26.819,20.235,26.793,20.313Zm5.28,12.018V30.952h4.019v1.379Zm-4.058,0V30.952h2.719v1.379Zm-9.356-.788h-2.09c-2.648,0-4.966-.006-7.089-.006-1.782,0-3.342,0-4.77,0H4.7A4.531,4.531,0,0,1,.231,28.133,5.528,5.528,0,0,1,0,26.507V25.34q0-1.166,0-2.333c0-.687.267-.98.888-.982l.452,0,.224,0,1.172,0c.539,0,1.026,0,1.534.012H4.3c.257,0,.328-.084.329-.391.023-5.619.056-11.684.1-19.086,0-.167,0-.338,0-.49A8.207,8.207,0,0,1,4.8.609,3.493,3.493,0,0,1,8.258-2.473q1.405,0,2.812,0h4.5q1.971,0,3.944-.005c1.474,0,2.765-.006,3.946-.006,2.235,0,4.088.009,5.83.028a3.714,3.714,0,0,1,3.648,3.476.138.138,0,0,0,.023.053.221.221,0,0,1,.022.037V13.736a.9.9,0,0,1-.927.611h-.022c-.46,0-.911-.006-1.51-.006H29.377c-.473,0-1.01,0-1.544-.007a1.417,1.417,0,0,1-1.061-.405c-.929-.94-.9-3.514-.854-7.778.012-1.079.025-2.3.023-3.62A4.864,4.864,0,0,1,26.66-.41l-.1-.009a.807.807,0,0,0-.091-.006H17.307c-3.544,0-6.456,0-9.164,0A2,2,0,0,0,6.186,1.8q-.019,2.992-.039,5.983v.032c-.029,4.566-.059,9.286-.094,13.929a.475.475,0,0,0,.076.338.374.374,0,0,0,.274.075c2.707-.009,5.44-.01,7.756-.01h4.65c.779,0,1.005.252,1.01,1.126,0,.363,0,.732,0,1.088,0,.837-.009,1.7.036,2.542.1,1.85,1.177,3.047,2.743,3.047a3.7,3.7,0,0,0,1.033-.157,7.933,7.933,0,0,1-.755,1.709c-.025.028-.047.042-.065.042ZM1.483,23.784a.3.3,0,0,0-.046.208c.013.394.011.795.008,1.184v.079c0,.5-.008,1.131.031,1.725a3.107,3.107,0,0,0,2.86,2.949h7.748q3.565,0,7.131,0h.344a5.586,5.586,0,0,1-1.2-3.733c.006-.324,0-.653,0-.96,0-.373-.005-.759.006-1.14a.412.412,0,0,0-.059-.29c-.048-.055-.125-.076-.276-.076-2.113.007-4.152.008-5.5.008H10.47l-2.063,0H1.643A.2.2,0,0,0,1.483,23.784Zm25.9-21.746c-.007,1.256-.005,2.508,0,3.719q0,.776,0,1.55V8.652c0,1.439,0,2.72,0,4.03,0,.177,0,.294.226.294.541-.006,1.112-.009,1.854-.009.391,0,.955,0,1.852.006.179,0,.231-.059.231-.259,0-1.254,0-2.686,0-4.642,0-1.98,0-4.028-.005-6.036A2.283,2.283,0,0,0,30.153-.215a2.046,2.046,0,0,0-.715-.131A2.2,2.2,0,0,0,27.385,2.039ZM9.6,16.411a2.793,2.793,0,0,1-.417-.025A.7.7,0,0,1,9.135,15a1.4,1.4,0,0,1,.318-.033q6.214,0,12.428,0c.623,0,.966.35.863.873a.639.639,0,0,1-.526.536,2.057,2.057,0,0,1-.447.036H9.6ZM9.55,11.238c-.643,0-.979-.245-.983-.713S8.9,9.8,9.539,9.8h6.149q3.123,0,6.245,0c.535,0,.86.306.832.76a.7.7,0,0,1-.6.658,2.617,2.617,0,0,1-.385.018H9.55Zm4.279-5.164H9.409a.772.772,0,0,1-.72-.335.7.7,0,0,1,.477-1.084,1.906,1.906,0,0,1,.32-.023q3.218,0,6.437,0c.489,0,.781.166.883.489a.729.729,0,0,1-.768.952q-.593,0-1.187,0Z" transform="translate(0.25 2.737)" fill="#eb0e15" stroke="#fff" stroke-width="0.5"/>
</svg>
