<svg xmlns="http://www.w3.org/2000/svg" width="99.425" height="113.485" viewBox="0 0 99.425 113.485"><defs><style>.a,.b{fill:#ed1c26;}.a{stroke:#fff;}.b{font-size:32px;font-family:Lato-Regular, Lato;}</style></defs><g transform="translate(-124.287 -403.5)"><path class="a" d="M73.354,38.432A24.606,24.606,0,1,0,97.96,13.826,24.634,24.634,0,0,0,73.354,38.432Zm45.463,0A20.857,20.857,0,1,1,97.96,17.576,20.88,20.88,0,0,1,118.817,38.432ZM97.96,25.778Zm30.465,49.681v23.9A13.138,13.138,0,0,1,115.3,112.485H43.123A13.138,13.138,0,0,1,30,99.362V7.5A7.507,7.507,0,0,1,37.5,0h60.93a7.507,7.507,0,0,1,7.5,7.5,1.875,1.875,0,0,1-3.75,0,3.754,3.754,0,0,0-3.75-3.75H37.5A3.754,3.754,0,0,0,33.75,7.5V99.362a9.384,9.384,0,0,0,9.374,9.374H106.13a13.081,13.081,0,0,1-3.952-9.374V70.069a1.875,1.875,0,0,1,3.75,0V99.362a9.374,9.374,0,0,0,18.748,0v-23.9a3.754,3.754,0,0,0-3.75-3.75h-7.968a1.875,1.875,0,0,1,0-3.75h7.968A7.507,7.507,0,0,1,128.425,75.459ZM46.4,50.384a1.875,1.875,0,0,1,1.875-1.875H64.214a1.875,1.875,0,0,1,0,3.75H48.279A1.875,1.875,0,0,1,46.4,50.384Zm0-21.091a1.875,1.875,0,0,1,1.875-1.875H64.214a1.875,1.875,0,0,1,0,3.75H48.279A1.875,1.875,0,0,1,46.4,29.293ZM89.523,71.475a1.875,1.875,0,0,1-1.875,1.875H48.279a1.875,1.875,0,0,1,0-3.75h39.37A1.875,1.875,0,0,1,89.523,71.475Zm0,19.685a1.875,1.875,0,0,1-1.875,1.875H48.279a1.875,1.875,0,0,1,0-3.75h39.37A1.875,1.875,0,0,1,89.523,91.16Z" transform="translate(94.787 404)"/><text class="b" transform="translate(189 453)"><tspan x="0" y="0">!</tspan></text></g></svg>