<svg xmlns="http://www.w3.org/2000/svg" width="24" height="27.448" viewBox="0 0 24 27.448"><defs><style>.a{fill:#ed1c26;}</style></defs><g transform="translate(-1030 -241)"><path class="a" d="M.436,26.864a.355.355,0,0,0,.376-.043L2.8,25.227,4.8,26.821a.355.355,0,0,0,.444,0l1.993-1.594,1.993,1.594a.356.356,0,0,0,.446,0l2.337-1.9.429.256a1.7,1.7,0,0,0,1.607,2.268h.011l8.485-.052a1.7,1.7,0,0,0,1.433-2.606L19.69,17.448l-.006-.01a1.691,1.691,0,0,0-1.021-.742V9.829h4.662a.355.355,0,0,0,.355-.355V2.864A2.867,2.867,0,0,0,20.953,0V0H3.469A3.239,3.239,0,0,0,.234,3.235V26.544A.355.355,0,0,0,.436,26.864Zm18.643-9.051,4.285,7.341.006.011a.992.992,0,0,1-.833,1.521l-8.485.052h-.006a.992.992,0,0,1-.845-1.511l.006-.011L17.4,17.823a.986.986,0,0,1,.836-.468h.006a.986.986,0,0,1,.836.458Zm3.89-14.948V9.118H18.663V2.864a2.153,2.153,0,0,1,4.306,0ZM.945,3.235A2.527,2.527,0,0,1,3.469.711H18.931a2.857,2.857,0,0,0-.979,2.153V16.67a1.69,1.69,0,0,0-1.159.786l-.006.011-4.018,7.083-.608-.363a.355.355,0,0,0-.406.029L9.448,26.087,7.457,24.494a.356.356,0,0,0-.444,0L5.02,26.088,3.027,24.494a.356.356,0,0,0-.444,0L.945,25.8Zm0,0" transform="translate(1029.766 241)"/><path class="a" d="M39.414,192.176h.158a.355.355,0,0,0,0-.711h-.158a.355.355,0,1,0,0,.711Zm0,0" transform="translate(993.24 57.874)"/><path class="a" d="M68.773,192.176h1.2a.355.355,0,1,0,0-.711h-1.2a.355.355,0,0,0,0,.711Zm0,0" transform="translate(965.621 57.874)"/><path class="a" d="M116.1,192.176h8.577a.355.355,0,0,0,0-.711H116.1a.355.355,0,1,0,0,.711Zm0,0" transform="translate(921.098 57.874)"/><path class="a" d="M39.414,135.2h.158a.355.355,0,0,0,0-.711h-.158a.355.355,0,0,0,0,.711Zm0,0" transform="translate(993.24 114.48)"/><path class="a" d="M39.414,78.211h.158a.355.355,0,0,0,0-.711h-.158a.355.355,0,1,0,0,.711Zm0,0" transform="translate(993.24 168.09)"/><path class="a" d="M68.773,78.211h1.2a.355.355,0,1,0,0-.711h-1.2a.355.355,0,0,0,0,.711Zm0,0" transform="translate(965.621 168.09)"/><path class="a" d="M116.1,78.211h8.577a.355.355,0,0,0,0-.711H116.1a.355.355,0,1,0,0,.711Zm0,0" transform="translate(921.098 168.09)"/><path class="a" d="M39.414,249.16h.158a.355.355,0,0,0,0-.711h-.158a.355.355,0,1,0,0,.711Zm0,0" transform="translate(993.24 4.265)"/><path class="a" d="M68.773,249.16h1.2a.355.355,0,1,0,0-.711h-1.2a.355.355,0,0,0,0,.711Zm0,0" transform="translate(965.621 4.265)"/><path class="a" d="M116.1,249.16h5.2a.355.355,0,0,0,0-.711h-5.2a.355.355,0,1,0,0,.711Zm0,0" transform="translate(921.098 4.265)"/><path class="a" d="M111.062,363.941h3a.355.355,0,0,0,0-.711h-3a.355.355,0,0,0,0,.711Zm0,0" transform="translate(925.836 -103.719)"/><path class="a" d="M298.5,332.826l.023,3.639a.355.355,0,0,0,.355.353h0a.355.355,0,0,0,.353-.357l-.022-3.639a.355.355,0,1,0-.711,0Zm0,0" transform="translate(749.164 -71.779)"/><path class="a" d="M299.359,414.238h0a.355.355,0,0,0-.353.357l0,.346a.355.355,0,0,0,.355.353h0a.355.355,0,0,0,.353-.357l0-.346A.355.355,0,0,0,299.359,414.238Zm0,0" transform="translate(748.691 -148.706)"/></g></svg>