<svg xmlns="http://www.w3.org/2000/svg" width="54.855" height="54.461" viewBox="0 0 54.855 54.461"><defs><style>.a{opacity:0.7;}.b{fill:#1c293b;stroke:#fff;stroke-width:1.5px;}</style></defs><g class="a" transform="translate(0.75 0.756)"><path class="b" d="M14.612,9.09,34.2,12.981a3.285,3.285,0,0,1,2.646,3.246V38.9a3.33,3.33,0,0,1-3.335,3.335H13.5a1.1,1.1,0,0,0,1.112-1.112V40.014h18.9A1.115,1.115,0,0,0,34.62,38.9V16.226a1.117,1.117,0,0,0-.867-1.089L14.612,11.358Z" transform="translate(16.512 10.717)"/><path class="b" d="M22.558,14a1.112,1.112,0,1,1,0,2.223H18.112a1.112,1.112,0,0,1,0-2.223Z" transform="translate(20.793 16.723)"/><path class="b" d="M22.558,17a1.112,1.112,0,1,1,0,2.223H18.112a1.112,1.112,0,1,1,0-2.223Z" transform="translate(20.793 20.392)"/><path class="b" d="M22.558,20a1.112,1.112,0,1,1,0,2.223H18.112a1.112,1.112,0,1,1,0-2.223Z" transform="translate(20.793 24.062)"/><path class="b" d="M15.223,41.235a1.112,1.112,0,0,1-2.223,0V10.111a1.182,1.182,0,0,1,.4-.867,1.168,1.168,0,0,1,.934-.222l.889.178V41.235Z" transform="translate(15.901 10.607)"/><path class="b" d="M17.281,23v1.112a1.1,1.1,0,0,0,1.112,1.112H9.5a1.1,1.1,0,0,0,1.112-1.112V23Z" transform="translate(11.62 27.731)"/><path class="b" d="M13.558,5a1.112,1.112,0,0,1,0,2.223H9.112A1.112,1.112,0,1,1,9.112,5Z" transform="translate(9.785 5.714)"/><path class="b" d="M14.669,9.112a1.1,1.1,0,0,1-1.112,1.112H9.112A1.112,1.112,0,0,1,9.112,8h4.446A1.1,1.1,0,0,1,14.669,9.112Z" transform="translate(9.785 9.384)"/><path class="b" d="M13.558,11a1.112,1.112,0,0,1,0,2.223H9.112a1.112,1.112,0,1,1,0-2.223Z" transform="translate(9.785 13.053)"/><path class="b" d="M13.558,14a1.112,1.112,0,0,1,0,2.223H9.112a1.112,1.112,0,0,1,0-2.223Z" transform="translate(9.785 16.723)"/><path class="b" d="M9.669,15.112a1.1,1.1,0,0,1-1.112,1.112H4.112a1.112,1.112,0,0,1,0-2.223H8.558A1.1,1.1,0,0,1,9.669,15.112Z" transform="translate(3.669 16.723)"/><path class="b" d="M8.558,5a1.112,1.112,0,1,1,0,2.223H4.112A1.112,1.112,0,1,1,4.112,5Z" transform="translate(3.669 5.714)"/><path class="b" d="M8.558,8a1.112,1.112,0,0,1,0,2.223H4.112A1.112,1.112,0,0,1,4.112,8Z" transform="translate(3.669 9.384)"/><path class="b" d="M8.558,11a1.112,1.112,0,0,1,0,2.223H4.112a1.112,1.112,0,1,1,0-2.223Z" transform="translate(3.669 13.053)"/><path class="b" d="M15.116,20.335A1.115,1.115,0,0,0,14,19.223H7.335a1.1,1.1,0,0,0-1.112,1.112v10H4v-10A3.33,3.33,0,0,1,7.335,17H14a3.33,3.33,0,0,1,3.335,3.335v10H15.116Z" transform="translate(4.893 20.392)"/><path class="b" d="M6.223,23H17.339v1.112a1.1,1.1,0,0,1-1.112,1.112H5.112A1.1,1.1,0,0,1,4,24.112V23Z" transform="translate(4.893 27.731)"/><path class="b" d="M3.891.224,28.323,3.936a3.322,3.322,0,0,1,2.8,3.29V19.988l-.889-.178a1.168,1.168,0,0,0-.934.222,1.182,1.182,0,0,0-.4.867V7.227a1.124,1.124,0,0,0-.934-1.112L3.535,2.425a.616.616,0,0,0-.2-.022,1.049,1.049,0,0,0-.711.267,1.063,1.063,0,0,0-.4.845V49.8a1.115,1.115,0,0,0,1.112,1.112H8.893v1.112A1.1,1.1,0,0,0,10,53.135H3.335A3.33,3.33,0,0,1,0,49.8V3.514A3.274,3.274,0,0,1,1.178.98,3.337,3.337,0,0,1,3.891.224Z" transform="translate(0 -0.181)"/></g></svg>