<svg xmlns="http://www.w3.org/2000/svg" width="102.13" height="88.18" viewBox="0 0 102.13 88.18">
  <g id="Group_22370" data-name="Group 22370" transform="translate(-755.791 -363.753)">
    <path id="Subtraction_17" data-name="Subtraction 17" d="M51.049,46.427c-2.541,0-4.584,0-6.43-.005a2.944,2.944,0,0,1-2.173-.641,3.011,3.011,0,0,1-.654-2.194l0-.474V43c-.015-1.8-.031-3.653.021-5.5.019-.709-.273-.9-.855-1.03-10.846-2.4-21.622-4.794-31.651-7.026-.322-.072-.656-.143-.94-.2l-.008,0-.009,0c-1.057-.228-2.15-.464-3.2-.768A7.079,7.079,0,0,1,1.431,26a6.956,6.956,0,0,1-1.4-4.221C-.01,16.533-.011,11.74.031,7.13A7.012,7.012,0,0,1,2.1,1.948,7.755,7.755,0,0,1,7.527.009C9.107,0,10.854,0,13.024,0l4.141,0h.189c.695,0,2.507,0,4.33,0H50.226C67.338.007,81.362,0,94.361,0h.007a9.443,9.443,0,0,1,3.588.61,6.482,6.482,0,0,1,1.534.879,6.917,6.917,0,0,1,1.325,1.367,8.243,8.243,0,0,1,1.093,2.415v0l.017.049c.054.166.126.385.2.606V22.083a.768.768,0,0,0-.1.542v.008a.843.843,0,0,1-.068.485,7.092,7.092,0,0,1-1.874,3.638,7.245,7.245,0,0,1-3.6,1.873c-12.428,2.8-24.74,5.52-35.145,7.809a1.363,1.363,0,0,0-.79.376,1.177,1.177,0,0,0-.206.843c.05,1.669.036,3.35.023,4.976v0h0l0,.441c0,.147,0,.294,0,.441v.02a5.081,5.081,0,0,1-.161,1.35,2,2,0,0,1-.494.891,1.977,1.977,0,0,1-.887.493,4.971,4.971,0,0,1-1.338.151C54.812,46.426,52.829,46.427,51.049,46.427ZM53.262,41.8c.638,0,1.161.006,1.645.02h.109a.729.729,0,0,0,.551-.148.812.812,0,0,0,.15-.591c-.044-2.835-.027-5.563-.005-7.858a.8.8,0,0,0-.147-.593.724.724,0,0,0-.536-.149H55c-1.194.014-2.446.021-3.83.021-1.186,0-2.467-.005-4.029-.016h-.03a.739.739,0,0,0-.54.139.687.687,0,0,0-.136.5c.028,2.745.027,5.456,0,8.058a.515.515,0,0,0,.636.629h.077c.487-.009,1.016-.013,1.665-.013l1.034,0h.129l1.051,0c.385,0,.791,0,1.117,0S52.877,41.8,53.262,41.8Zm-2.135-13.93c2.546,0,4.824,0,6.332,0a5.082,5.082,0,0,1,1.343.151A1.859,1.859,0,0,1,60.193,29.4a5.131,5.131,0,0,1,.169,1.342c0,.02,0,.043,0,.072v.016l0,.028a.78.78,0,0,1-.007.182.915.915,0,0,0,.06.743.477.477,0,0,0,.393.145,2.5,2.5,0,0,0,.581-.091c1.379-.337,2.837-.661,4.009-.921l.021,0,.047-.011.462-.1.367-.082.232-.052.78-.174.669-.149,5.268-1.176,1.512-.337,1.677-.374,2.428-.542.1-.022c5.309-1.185,10.8-2.41,16.3-3.642a2.993,2.993,0,0,0,1.69-.857,2.565,2.565,0,0,0,.536-1.749c.035-5.412.034-10.141,0-14.457-.015-1.667-.8-2.44-2.548-2.5-.1,0-.21-.005-.357-.005h-.269c-.084,0-.179,0-.27,0H7.6a3.134,3.134,0,0,0-2.3.646,3.028,3.028,0,0,0-.655,2.265c-.007,4.532-.007,9.128,0,13.659a3.168,3.168,0,0,0,.523,2.086,3.194,3.194,0,0,0,1.915.95C17.473,26.6,28.426,29.053,40.57,31.774l.033.008a4.277,4.277,0,0,0,.8.141.288.288,0,0,0,.328-.234,3.842,3.842,0,0,0,.053-.833v-.024a3.151,3.151,0,0,1,.666-2.32,3.2,3.2,0,0,1,2.341-.645h6.33Z" transform="translate(755.791 379.974)" fill="#fff"/>
    <path id="Path_78747" data-name="Path 78747" d="M1163.684,518.087a1.094,1.094,0,0,1,.172-1.034v1A.216.216,0,0,1,1163.684,518.087Z" transform="translate(-305.935 -114.995)" fill="#fff"/>
    <path id="Path_78748" data-name="Path 78748" d="M813.955,598.266q-20.635,0-41.271.006c-3.01,0-5.347-1.105-6.769-3.849a7.188,7.188,0,0,1-.709-3.373q0-14.754,0-29.508c0-2.022,1.129-2.99,2.919-2.6a1.953,1.953,0,0,1,1.562,1.479,5.22,5.22,0,0,1,.153,1.48q0,14.305,0,28.61c0,2.434.7,3.136,3.133,3.136H854.92c2.373,0,3.09-.716,3.09-3.079q0-14.455,0-28.91c0-1.777.69-2.66,2.144-2.805a2.156,2.156,0,0,1,2.434,1.939,8.894,8.894,0,0,1,.055,1.094c0,9.6-.014,19.207.012,28.81.009,3.088-1.1,5.486-3.944,6.9a8.071,8.071,0,0,1-3.686.676Q834.491,598.258,813.955,598.266Z" transform="translate(-7.06 -146.339)" fill="#fff"/>
    <path id="Path_78749" data-name="Path 78749" d="M904.377,363.756q5.53,0,11.06,0c4.686.008,7.486,2.813,7.5,7.5,0,.631.028,1.265-.02,1.892a2.292,2.292,0,0,1-4.579-.019c-.041-.629-.014-1.262-.021-1.893-.02-2.024-.822-2.847-2.828-2.858-2.192-.013-4.384,0-6.576,0q-7.722,0-15.444,0c-2.259,0-3.016.777-3.028,3.061a15.6,15.6,0,0,1-.071,2.087,2.1,2.1,0,0,1-2.077,1.8,2.036,2.036,0,0,1-2.294-1.5c-.485-3.205-.331-6.5,2.55-8.675a7.3,7.3,0,0,1,4.572-1.4C896.87,363.764,900.624,363.756,904.377,363.756Z" transform="translate(-97.511)" fill="#fff"/>
  </g>
</svg>
