<svg width="104" height="98" viewBox="0 0 104 98" fill="none" xmlns="http://www.w3.org/2000/svg">
<path d="M51.6899 0.00987346C55.3766 0.00987346 59.0633 0.00987346 62.7499 0.00987346C67.4359 0.0178735 70.2359 2.82287 70.2499 7.50987C70.2499 8.14087 70.2779 8.77487 70.2299 9.40187C70.2001 9.99054 69.9446 10.5451 69.5165 10.9503C69.0885 11.3555 68.5208 11.5802 67.9313 11.5777C67.3419 11.5753 66.7761 11.3459 66.3514 10.9371C65.9268 10.5284 65.6759 9.97175 65.6509 9.38286C65.6099 8.75386 65.6369 8.12085 65.6299 7.48985C65.6099 5.46585 64.8079 4.64285 62.8019 4.63185C60.6099 4.61885 58.418 4.63185 56.226 4.63185C51.078 4.63185 45.9299 4.63185 40.7819 4.63185C38.5229 4.63185 37.7659 5.40886 37.7539 7.69286C37.7769 8.38933 37.7532 9.08656 37.6829 9.77986C37.6108 10.2794 37.3612 10.7363 36.9798 11.0668C36.5984 11.3974 36.1107 11.5795 35.606 11.5799C35.1055 11.6603 34.593 11.5511 34.1687 11.2737C33.7445 10.9963 33.439 10.5706 33.312 10.0799C32.827 6.87485 32.9809 3.57986 35.8619 1.40486C37.1856 0.438161 38.7959 -0.0549661 40.4339 0.00486858C44.1829 0.0178686 47.9369 0.00987346 51.6899 0.00987346Z" fill="white"/>
<path d="M51.0491 58.0355C48.5081 58.0355 46.4651 58.0355 44.6191 58.0305C44.2325 58.0725 43.8415 58.0375 43.4685 57.9274C43.0955 57.8174 42.748 57.6346 42.4461 57.3895C41.9478 56.7728 41.7127 55.9845 41.7921 55.1955V54.7215V54.6085C41.7771 52.8085 41.7611 50.9555 41.8131 49.1085C41.8321 48.3995 41.5401 48.2085 40.9581 48.0785C30.1121 45.6785 19.3361 43.2845 9.30713 41.0525C8.98513 40.9805 8.65113 40.9095 8.36713 40.8525H8.35913H8.35013C7.29313 40.6245 6.20013 40.3885 5.15013 40.0845C3.67568 39.6823 2.37101 38.8137 1.43113 37.6085C0.515153 36.3926 0.0233413 34.9098 0.0311261 33.3875C-0.00987387 28.1415 -0.0108739 23.3485 0.0311261 18.7385C0.00298601 17.7792 0.172097 16.8242 0.527988 15.9329C0.883878 15.0415 1.41897 14.2327 2.10013 13.5565C3.59289 12.2371 5.53622 11.5428 7.52713 11.6175C9.10713 11.6085 10.8541 11.6085 13.0241 11.6085H17.1651H17.3541C18.0491 11.6085 19.8611 11.6085 21.6841 11.6085H50.2261C67.3381 11.6155 81.3621 11.6085 94.3611 11.6085H94.3681C95.5924 11.5773 96.811 11.7845 97.9561 12.2185C98.5052 12.4401 99.0213 12.7359 99.4901 13.0975C99.9927 13.49 100.439 13.95 100.815 14.4645C101.307 15.2053 101.676 16.0208 101.908 16.8795L101.925 16.9285C101.979 17.0945 102.051 17.3135 102.125 17.5345V33.6915C102.026 33.8536 101.99 34.0467 102.025 34.2335V34.2415C102.051 34.4064 102.027 34.5752 101.957 34.7265C101.704 36.097 101.052 37.3624 100.083 38.3645C99.0861 39.3191 97.8371 39.9689 96.4831 40.2375C84.0551 43.0375 71.7431 45.7575 61.3381 48.0465C61.0406 48.0817 60.763 48.2138 60.5481 48.4225C60.3746 48.667 60.3009 48.9686 60.3421 49.2655C60.3921 50.9345 60.3781 52.6155 60.3651 54.2415V54.6825C60.3651 54.8295 60.3651 54.9765 60.3651 55.1235V55.1435C60.3722 55.5987 60.318 56.0528 60.2041 56.4935C60.1191 56.8282 59.9489 57.1352 59.7101 57.3845C59.4624 57.6233 59.1567 57.7932 58.8231 57.8775C58.386 57.9883 57.9359 58.0391 57.4851 58.0285C54.8121 58.0345 52.8291 58.0355 51.0491 58.0355ZM53.2621 53.4085C53.9001 53.4085 54.4231 53.4145 54.9071 53.4285H55.0161C55.1132 53.4422 55.212 53.4361 55.3067 53.4107C55.4014 53.3853 55.49 53.341 55.5671 53.2805C55.692 53.1105 55.7458 52.8986 55.7171 52.6895C55.6731 49.8545 55.6901 47.1265 55.7121 44.8315C55.7435 44.6222 55.6906 44.409 55.5651 44.2385C55.49 44.1796 55.404 44.1361 55.312 44.1105C55.22 44.0849 55.1239 44.0778 55.0291 44.0895H55.0001C53.8061 44.1035 52.5541 44.1105 51.1701 44.1105C49.9841 44.1105 48.7031 44.1055 47.1411 44.0945H47.1111C46.9199 44.0686 46.7261 44.1185 46.5711 44.2335C46.4623 44.3761 46.4135 44.5555 46.4351 44.7335C46.4631 47.4785 46.4621 50.1895 46.4351 52.7915C46.4117 52.8793 46.4118 52.9717 46.4356 53.0593C46.4594 53.147 46.5059 53.2268 46.5705 53.2907C46.6351 53.3545 46.7154 53.4002 46.8033 53.423C46.8913 53.4458 46.9836 53.445 47.0711 53.4205H47.1481C47.6351 53.4115 48.1641 53.4075 48.8131 53.4075H49.8471H49.9761H51.0271C51.4121 53.4075 51.8181 53.4075 52.1441 53.4075C52.4701 53.4075 52.8771 53.4085 53.2621 53.4085ZM51.1271 39.4785C53.6731 39.4785 55.9511 39.4785 57.4591 39.4785C57.9115 39.4689 58.3632 39.5196 58.8021 39.6295C59.1394 39.7072 59.4482 39.8774 59.694 40.121C59.9397 40.3646 60.1126 40.672 60.1931 41.0085C60.3084 41.4465 60.3653 41.8977 60.3621 42.3505C60.3621 42.3705 60.3621 42.3935 60.3621 42.4225V42.4385V42.4665C60.3669 42.5273 60.3646 42.5884 60.3551 42.6485C60.3124 42.7697 60.2957 42.8984 60.306 43.0264C60.3164 43.1544 60.3535 43.2788 60.4151 43.3915C60.4653 43.444 60.5268 43.4844 60.5949 43.5095C60.663 43.5346 60.7359 43.5439 60.8081 43.5365C61.0047 43.5292 61.1997 43.4986 61.3891 43.4455C62.7681 43.1085 64.2261 42.7845 65.3981 42.5245H65.4191L65.4661 42.5135L65.9281 42.4135L66.2951 42.3315L66.5271 42.2795L67.3071 42.1055L67.9761 41.9565L73.2441 40.7805L74.7561 40.4435L76.4331 40.0695L78.8611 39.5275L78.9611 39.5055C84.2701 38.3205 89.7611 37.0955 95.2611 35.8635C95.9024 35.7684 96.4955 35.4677 96.9511 35.0065C97.3387 34.5092 97.5295 33.8866 97.4871 33.2575C97.5221 27.8455 97.5211 23.1165 97.4871 18.8005C97.4721 17.1335 96.6871 16.3605 94.9391 16.3005C94.8391 16.3005 94.7291 16.2955 94.5821 16.2955H94.3131C94.2291 16.2955 94.1341 16.2955 94.0431 16.2955H7.60013C6.77824 16.1988 5.95143 16.431 5.30013 16.9415C5.04503 17.2561 4.85562 17.6186 4.74311 18.0077C4.6306 18.3967 4.59729 18.8044 4.64513 19.2065C4.63813 23.7385 4.63813 28.3345 4.64513 32.8655C4.5709 33.6006 4.7559 34.3385 5.16813 34.9515C5.6784 35.4788 6.35463 35.8142 7.08313 35.9015C17.4731 38.2085 28.4261 40.6615 40.5701 43.3825L40.6031 43.3905C40.8647 43.4628 41.1326 43.51 41.4031 43.5315C41.4775 43.5432 41.5535 43.5252 41.6149 43.4814C41.6762 43.4377 41.7179 43.3717 41.7311 43.2975C41.779 43.0226 41.7968 42.7433 41.7841 42.4645V42.4405C41.7372 42.029 41.7719 41.6123 41.8862 41.2142C42.0005 40.8162 42.1921 40.4445 42.4501 40.1205C43.1154 39.6063 43.9564 39.3746 44.7911 39.4755H51.1211L51.1271 39.4785Z" fill="white"/>
<path d="M103.186 35.3406C103.126 35.1677 103.11 34.9824 103.14 34.8017C103.17 34.621 103.245 34.4508 103.358 34.3066V35.3066C103.333 35.324 103.305 35.3361 103.275 35.3419C103.246 35.3478 103.215 35.3473 103.186 35.3406Z" fill="white"/>
<path d="M51.7056 97.48C37.9489 97.48 24.1919 97.482 10.4346 97.486C7.42456 97.486 5.08752 96.381 3.66552 93.637C3.15913 92.5868 2.91582 91.4292 2.95653 90.264C2.95653 80.428 2.95653 70.592 2.95653 60.756C2.95653 58.734 4.08554 57.766 5.87554 58.156C6.2521 58.2226 6.60086 58.3982 6.87853 58.6611C7.1562 58.924 7.35058 59.2627 7.43755 59.635C7.55896 60.1185 7.6105 60.6169 7.59057 61.115C7.59057 70.6517 7.59057 80.1883 7.59057 89.725C7.59057 92.159 8.29056 92.861 10.7236 92.861H92.6705C95.0435 92.861 95.7606 92.145 95.7606 89.782C95.7606 80.1454 95.7606 70.5087 95.7606 60.872C95.7606 59.095 96.4505 58.2121 97.9045 58.0671C98.1926 58.0283 98.4856 58.0483 98.7658 58.1257C99.046 58.2031 99.3077 58.3364 99.535 58.5175C99.7624 58.6986 99.9508 58.9239 100.089 59.1797C100.227 59.4355 100.312 59.7165 100.339 60.006C100.379 60.3692 100.398 60.7346 100.394 61.1C100.394 70.7 100.38 80.307 100.406 89.91C100.415 92.998 99.3055 95.396 96.4615 96.81C95.3029 97.3214 94.0403 97.553 92.7756 97.486C79.0862 97.4767 65.3962 97.4747 51.7056 97.48Z" fill="white"/>
</svg>
