<svg xmlns="http://www.w3.org/2000/svg" width="30.5" height="32.092" viewBox="0 0 30.5 32.092"><defs><style>.a,.b{fill:#ed1c26;}.b{stroke:rgba(0,0,0,0);stroke-miterlimit:10;}</style></defs><g transform="translate(-1185.797 -596.784)"><path class="a" d="M14.3,13.84a7.017,7.017,0,0,1-1.955-.282,8.457,8.457,0,0,1-1.918-.841c-.767-.452-1.564-.933-2.266-1.358l-.042-.025-.1-.061-.008,0c-.127-.078-.261-.158-.392-.237A5.227,5.227,0,0,0,5.8,10.437a.287.287,0,0,0-.051-.005c-.085,0-.126.047-.17.128a1.78,1.78,0,0,1-.681.734,1.943,1.943,0,0,1-.975.234H3.886c-.487-.006-.99-.009-1.5-.009-.608,0-1.146,0-1.641.013H.725A.727.727,0,0,1,0,11.12V.408A.781.781,0,0,1,.762,0H.784c.477.007.954.008,1.317.008H3.949a1.691,1.691,0,0,1,1.639,1,.245.245,0,0,0,.269.148H8.095c.518,0,.988,0,1.475,0H9.6a4.559,4.559,0,0,1,1.162.146,4.424,4.424,0,0,1,1.082.446c.421.24.909.516,1.493.842l.01.006c.453.253.861.482,1.272.718a1.1,1.1,0,0,0,.562.15h.01c.425,0,.892,0,1.565,0h1.775a2.548,2.548,0,0,1,1.912.717,2.588,2.588,0,0,1,.617,1.989l.208-.071.021-.008.087-.03.274-.093.062-.021h0l.03-.011.1-.033.2-.069.038-.013.735-.252.373-.129.036-.012.321-.111h0c.915-.315,1.89-.651,2.82-.975a2.782,2.782,0,0,1,.917-.169,2.231,2.231,0,0,1,1.67.755,2.246,2.246,0,0,1,.518,1.247,2.166,2.166,0,0,1-.286,1.318,2.2,2.2,0,0,1-1.019.915c-1.1.491-2.2.976-3.271,1.444l-.068.03-.123.054-1.579.694L22,11.13l-.066.029-.121.053-.461.2-.139.061c-1.187.525-2.53,1.12-3.854,1.693a8.341,8.341,0,0,1-1.541.5A7.1,7.1,0,0,1,14.3,13.84ZM6,1.871A.262.262,0,0,0,5.8,1.92a.271.271,0,0,0-.048.2c.009.78.008,1.759.007,2.777v.05c0,.108,0,.21,0,.312v.96c0,.133,0,.26,0,.374,0,.777,0,1.6-.008,2.41a1.342,1.342,0,0,0,.059.4c.035.11.1.243.214.258A6.571,6.571,0,0,1,8.59,10.787c.7.441,1.438.879,2.095,1.266l.008,0,.052.031.189.113.065.038.026.016a7.177,7.177,0,0,0,1.62.714,5.874,5.874,0,0,0,1.654.241,6.445,6.445,0,0,0,2.56-.558c1.34-.579,2.739-1.2,3.864-1.7l.016-.007.2-.088,1.571-.693c.281-.124.595-.26.9-.391h0l.036-.015.2-.087h0l.027-.011h0a45.711,45.711,0,0,0,4.633-2.2,1.193,1.193,0,0,0,.49-.794,1.59,1.59,0,0,0-.112-.871,1.921,1.921,0,0,0-.495-.676,1.406,1.406,0,0,0-.922-.292,2.708,2.708,0,0,0-.368.028c-4.37,1.461-5.56,1.873-6.691,2.6a6.008,6.008,0,0,1-2.077.412c-.073,0-.134,0-.192,0-.232-.009-.476-.014-.764-.014-.2,0-.414,0-.612,0-.225,0-.426,0-.612,0h-1.7l-1.267,0a.668.668,0,0,1-.4-.083.383.383,0,0,1-.128-.327.389.389,0,0,1,.06-.288c.065-.069.187-.071.356-.074l.106,0H18.74a2.3,2.3,0,0,0,.892-.136,1.112,1.112,0,0,0,.4-.285,1.294,1.294,0,0,0,.268-.53,2.657,2.657,0,0,0-.033-.908,1.314,1.314,0,0,0-.285-.575,1.82,1.82,0,0,0-1.38-.473c-.522,0-1.088-.007-1.732-.007-.606,0-1.216,0-1.81.008H15.05a1.278,1.278,0,0,1-.741-.287h0l0,0c-.081-.053-.16-.106-.246-.154-.486-.277-.989-.539-1.434-.771h0l-.045-.023h0c-.454-.238-.925-.483-1.375-.739a2.866,2.866,0,0,0-1.528-.33H9.607c-.629,0-1.136,0-1.6,0-.692,0-1.363,0-2-.008H6ZM.963.739A.35.35,0,0,0,.709.805a.333.333,0,0,0-.06.249c.007,1.2.006,2.408.006,3.579v2.3c0,1.165,0,2.369-.009,3.56a.321.321,0,0,0,.061.232.375.375,0,0,0,.269.066H1c.512-.007,1.019-.008,1.405-.008h.825l.869,0a1,1,0,0,0,.673-.178.716.716,0,0,0,.206-.58c0-2.547,0-5.325,0-8.494a.747.747,0,0,0-.207-.6A1.018,1.018,0,0,0,4.088.747H2.3c-.528,0-.934,0-1.314-.01Z" transform="translate(1185.797 615.036)"/><g transform="translate(1197.086 597.284)"><path class="b" d="M9.434,19.935H9.279l-.674-.326L8.373,19.5l-.355-.172-.274-.13-.085-.041-.254-.123-.089-.044-.435-.21-.089-.044-.329-.157c-1.372-.663-2.5-1.212-3.458-1.676l-.039-.019-.015-.007L2.9,16.85l-.092-.045c-.066-.032-.136-.064-.2-.1l-.06-.027-.2-.1-.214-.1-.146-.071C1.232,16.042.7,15.788.275,15.587A.424.424,0,0,1,0,15.149C0,11.706,0,8.212,0,4.764a.421.421,0,0,1,.277-.435C2.492,3.266,5.41,1.855,9.109.064a.509.509,0,0,1,.495,0c2.5,1.215,5.475,2.65,8.832,4.265a.425.425,0,0,1,.275.435c0,3.448,0,6.942,0,10.385a.407.407,0,0,1-.24.42c-3.207,1.542-6.129,2.953-8.936,4.314a.421.421,0,0,0-.047.022h0l0,0-.01.007-.008,0-.007,0-.01,0a.042.042,0,0,1-.012.007ZM11.589,8.264l-.007.005-.018.007-.011.007-.042.02-.02.01-.034.017c-.061.027-.106.049-.145.069l-.123.059-.029.015-.128.061c-.345.169-.794.388-1.211.583a.257.257,0,0,0-.175.275c0,1.635,0,3.41,0,5.467,0,1.345,0,2.736,0,4.1v.02a.074.074,0,0,0,0,.022v0a.2.2,0,0,0,.032.152l.01,0c.023-.01.046-.021.068-.029l.008-.005.011,0,.01,0a.479.479,0,0,0,.064-.03l.053-.025.017-.008c.068-.033.133-.065.2-.094l.151-.074.077-.037.026-.015.032-.015a.793.793,0,0,0,.074-.034l.011-.005c.03-.015.062-.031.092-.044l.034-.018.016-.007.033-.016.021-.01c.194-.091.415-.2.718-.347l.115-.056L12,18.042c1.783-.862,3.884-1.877,5.965-2.876a.248.248,0,0,0,.165-.261c-.006-2.492-.006-5.024-.006-7.473V6.9l0,0V5.113L17.7,5.32l-.083.04-.336.163-.017.007L17.2,5.56l-.061.03c-.134.065-.273.133-.409.2l-.043.022-.214.1-.07.033-.223.106-.025.012-.158.076-.179.086c-.119.059-.215.1-.3.145a.144.144,0,0,0-.083.165v.026a.074.074,0,0,1,0,.022v.951c0,1.023,0,1.684,0,2.284a.428.428,0,0,1-.275.44c-.329.153-.668.316-1.036.5l-.021.01-.012,0-.069.032-.054.027c-.172.085-.336.164-.5.241l-.117.056L13.2,11.2a.686.686,0,0,1-.283.081.205.205,0,0,1-.194-.106.672.672,0,0,1-.061-.317v-.509c0-.057,0-.114,0-.17v-.27c0-.725,0-1.475.008-2.21a.289.289,0,0,0-.19-.307C9.186,5.812,6.665,4.6,4.045,3.326a.4.4,0,0,0-.177-.049.358.358,0,0,0-.162.044c-.5.242-1.008.493-1.621.787-.065.033-.132.065-.19.093l-.014.006-.053.025-.038.019-.131.061-.091.044-.152.074-.027.013-.017.009c-.1.048-.21.1-.329.161l-.02.01-.046.025.012.007,0,0,0,0a.152.152,0,0,1,.025.013l0,0,.01,0,.032.013.019.01L1.1,4.7l.047.024.007,0,.025.012.187.091L4.582,6.39l.068.033L5.6,6.88l.112.054.266.128,1.165.563.021.012a1.116,1.116,0,0,1,.18.1.28.28,0,0,1,.09.349.251.251,0,0,1-.24.165.353.353,0,0,1-.05,0H7.13a.761.761,0,0,1-.2-.074l-.017-.007c-.236-.112-.439-.21-.6-.293-.23-.108-.424-.2-.578-.275l-.121-.059-.1-.049-.006,0c-.206-.1-.365-.173-.487-.234L4.9,7.195l-.036-.018-.025-.012-.045-.022-.016-.008-.06-.029c-.055-.026-.1-.047-.135-.067l-.047-.022-.308-.149-.388-.188c-.557-.269-1.18-.57-1.966-.949l-.648-.315-.62-.3L.6,5.133a.04.04,0,0,0-.008.024c0,.612,0,1.237,0,1.841V8.915l0,3.631c0,.4,0,.814,0,1.219v1.212c0,.1.047.128.123.167.157.078.328.161.553.268l.252.122c.132.065.258.126.377.182s.247.119.341.165l.2.1.039.02.208.1.412.2.394.19.416.2.952.461C6,17.7,7.3,18.327,8.442,18.882l.465.225a.232.232,0,0,0,.1.032c.047,0,.056-.051.056-.133,0-3.205,0-6.457,0-9.665a.2.2,0,0,0-.133-.2c-.2-.089-.406-.188-.595-.283a.377.377,0,0,1-.185-.185.282.282,0,0,1,.255-.388.515.515,0,0,1,.189.047s0,0,0,0l0,0,0,0a.046.046,0,0,0,.017.005l.018.01.02.011.009,0h0l.052.025,0,0,0,0,.048.023c.127.058.263.122.391.191a.349.349,0,0,0,.178.054.4.4,0,0,0,.179-.049c.4-.2.772-.378,1.233-.6l.011-.005L10.788,8l.023-.011.012,0,.034-.016.01,0,.012-.006.037-.017.012,0,.019-.01.01,0,.012-.006h0l.019-.009.018-.01.06-.027.1-.051.017-.008.1-.051a1.238,1.238,0,0,1,.179-.069l.012,0a.307.307,0,0,1,.071-.01.262.262,0,0,1,.241.162.286.286,0,0,1-.1.361.609.609,0,0,1-.113.064ZM14.846,6.7h0l-.234.113-.137.066c-.4.192-.777.374-1.161.556-.071.035-.071.09-.071.149v.391c0,.126,0,.253,0,.38,0,.563,0,1.3,0,2.025,0,.071,0,.12.05.12a.215.215,0,0,0,.086-.029c.453-.226.922-.449,1.362-.659a.153.153,0,0,0,.11-.155c0-.738,0-1.461,0-2.132,0-.136,0-.272,0-.409V6.7Zm-2.029.216a.206.206,0,0,0,.115.039.131.131,0,0,0,.077-.02c.249-.122.592-.288,1.023-.494l.152-.074.143-.069.081-.039.213-.1-.008-.008v0l0,0,0,0h0v0s0,0,0,0l0,0a0,0,0,0,1,0,0s0,0,0,0l0,0-1.377-.665L10.867,4.319,10.12,3.96l-.757-.366-.319-.154-.265-.127c-.745-.361-1.589-.769-2.406-1.166a.211.211,0,0,0-.1-.025.305.305,0,0,0-.135.039c-.245.121-.453.222-.656.32l-.026.013L5.437,2.5,5.4,2.52l-.222.108-.042.021-.015.007-.012.006-.044.022-.055.027-.057.027-.224.111h0A.117.117,0,0,1,4.7,2.86h0l0,0a.145.145,0,0,0-.1.079c.089.044.189.094.337.165.131.064.277.135.45.216l.179.087.114.055.277.134.216.1,2.2,1.062.615.3.49.237c.183.087.361.173.544.262l.216.1.136.065.335.163.112.053c.282.136.574.276.87.421l.186.089.509.245.169.081.226.108a.029.029,0,0,0,.017.01l.006,0,0,0,0,0h0l.006,0ZM9.352.62a.3.3,0,0,0-.127.034c-.326.161-.659.323-.983.479l-.118.057-.335.162-.116.054-.3.145-.122.06-.081.04-.2.1a.117.117,0,0,0,.09.079.085.085,0,0,0,.018.008l.007,0,1.562.755.26.125,1.347.651,1.421.686,1.769.855,1.77.856a.2.2,0,0,0,.1.027.3.3,0,0,0,.127-.037c.462-.226.916-.445,1.317-.639l.145-.07.274-.132L17.3,4.86c.083-.042.171-.085.277-.135l.064-.029.1-.049-1.893-.914-1.824-.88-1.77-.857-.629-.3-.694-.336L9.479.651A.281.281,0,0,0,9.352.62Z"/><path class="a" d="M797.423,581.533a.279.279,0,0,1-.311.292.561.561,0,0,1-.2-.069l-2.359-1.14a.613.613,0,0,1-.164-.1.261.261,0,0,1-.065-.319.268.268,0,0,1,.278-.17.419.419,0,0,1,.148.04q1.234.591,2.465,1.187A.312.312,0,0,1,797.423,581.533Z" transform="translate(-793.043 -568.122)"/><path class="a" d="M795.874,609.68a1.765,1.765,0,0,1-.187-.067q-.594-.283-1.186-.572c-.213-.1-.284-.248-.21-.412s.244-.216.46-.113q.612.29,1.221.588a.3.3,0,0,1-.1.576Z" transform="translate(-793.013 -595.17)"/></g></g></svg>