<svg xmlns="http://www.w3.org/2000/svg" width="27.4" height="25.535" viewBox="0 0 27.4 25.535"><defs><style>.a{fill:#ed1c26;}</style></defs><path class="a" d="M34.731,36.636H33.35a1.361,1.361,0,0,0-1.3-1H30.576V32.031a.38.38,0,0,0-.186-.336l-10.4-6.009a.384.384,0,0,0-.386,0L9.193,31.7A.387.387,0,0,0,9,32.031V44.05a.388.388,0,0,0,.194.336L19.6,50.4a.388.388,0,0,0,.194.052A.408.408,0,0,0,20,50.4l5.477-3.159V49.52a1.644,1.644,0,0,0,1.658,1.648h7.6A1.653,1.653,0,0,0,36.4,49.52V38.31A1.675,1.675,0,0,0,34.731,36.636Zm-2.667-.222a.564.564,0,0,1,.564.564v.038a.564.564,0,0,1-.564.564H29.808a.564.564,0,0,1-.564-.564v-.038a.564.564,0,0,1,.564-.564ZM19.8,26.47l4.325,2.5L14.49,34.528l-4.325-2.5Zm-.369,22.916L9.776,43.826V32.7l9.651,5.561Zm.369-11.8-4.53-2.615,9.631-5.56,4.53,2.615Zm5.677.719V46.34L20.2,49.387V38.264L29.8,32.7v2.935h.012a1.361,1.361,0,0,0-1.3,1H27.131A1.666,1.666,0,0,0,25.473,38.31Zm10.15,11.21a.876.876,0,0,1-.892.872h-7.6a.867.867,0,0,1-.881-.872V38.31a.889.889,0,0,1,.881-.9h1.4a1.328,1.328,0,0,0,1.284.943h2.239a1.328,1.328,0,0,0,1.284-.943h1.4a.9.9,0,0,1,.892.9Z" transform="translate(-9 -25.634)"/><path class="a" d="M337.385,280.607h.406a.388.388,0,1,0,0-.776h-.015v-1.054h1.071a.374.374,0,0,0,.369.262.39.39,0,0,0,.39-.387v-.261a.393.393,0,0,0-.393-.39h-1.829a.387.387,0,0,0-.385.39v1.829a.385.385,0,0,0,.385.388Z" transform="translate(-318.807 -264.002)"/><path class="a" d="M337.388,344.607h1.83a.388.388,0,0,0,.388-.388v-1.83a.388.388,0,0,0-.388-.388h-1.83a.388.388,0,0,0-.388.388v1.83A.388.388,0,0,0,337.388,344.607Zm.388-1.83h1.054v1.054h-1.054Z" transform="translate(-318.807 -324.453)"/><path class="a" d="M337.791,407.83h-.016v-1.054h1.05a.39.39,0,0,0,.781,0V406.4a.4.4,0,0,0-.392-.4h-1.829a.4.4,0,0,0-.385.4v1.829a.374.374,0,0,0,.385.375h.407a.388.388,0,0,0,0-.776Z" transform="translate(-318.807 -384.903)"/><path class="a" d="M356.5,284.652l-1.137,1.137-.346-.346a.388.388,0,0,0-.549.549l.62.62a.388.388,0,0,0,.549,0l1.412-1.412a.388.388,0,0,0-.549-.549Z" transform="translate(-335.199 -270.178)"/><path class="a" d="M356.5,413.9l-1.137,1.137-.346-.346a.388.388,0,1,0-.549.549l.62.621a.388.388,0,0,0,.549,0l1.412-1.412a.388.388,0,1,0-.549-.549Z" transform="translate(-335.199 -392.258)"/><path class="a" d="M416.718,295h-2.439a.388.388,0,0,0,0,.777h2.439a.388.388,0,0,0,0-.777Z" transform="translate(-391.433 -280.059)"/><path class="a" d="M416.718,359h-2.439a.388.388,0,1,0,0,.776h2.439a.388.388,0,1,0,0-.776Z" transform="translate(-391.433 -340.51)"/><path class="a" d="M416.718,423h-2.439a.388.388,0,0,0,0,.777h2.439a.388.388,0,0,0,0-.777Z" transform="translate(-391.433 -400.96)"/></svg>