<svg width="18" height="28" viewBox="0 0 18 28" fill="none" xmlns="http://www.w3.org/2000/svg">
<path d="M15.9597 2.80007C15.9597 2.05389 15.3686 1.45007 14.6381 1.45007H13.3396L12.8027 2.27273C12.3122 3.02421 11.4875 3.47507 10.6034 3.47507H6.77775C5.92203 3.47507 5.1205 3.05188 4.62487 2.34259L4.57841 2.27272L4.04147 1.45006H2.74303C2.0125 1.45006 1.42135 2.05388 1.42135 2.80006V24.4001C1.42135 25.1462 2.0125 25.7501 2.74303 25.7501H14.6381C15.3687 25.7501 15.9598 25.1462 15.9598 24.4001L15.9597 2.80007ZM5.67808 1.52392L5.72584 1.59247C5.97495 1.92734 6.36345 2.12508 6.77776 2.12508H10.6034C11.0448 2.12508 11.4578 1.89964 11.703 1.52393L11.7508 1.4501H5.63042L5.67808 1.52392ZM17.2814 24.4C17.2814 25.8911 16.0979 27.1 14.6381 27.1H2.74297C1.28317 27.1 0.0996094 25.8911 0.0996094 24.4V2.80001C0.0996094 1.30893 1.28317 0.100006 2.74297 0.100006H14.6381C16.0979 0.100006 17.2814 1.30893 17.2814 2.80001V24.4Z" fill="#1F2436" stroke="#1F2436" stroke-width="0.2"/>
<path d="M5.3164 13.7469L8.27839 7.78031C8.36433 7.60844 8.53397 7.48343 8.73822 7.46557C9.05074 7.43767 9.32862 7.6687 9.35653 7.9812L9.71256 11.8683L11.5898 11.846C11.7092 11.8337 11.8331 11.8594 11.9436 11.9275C12.2114 12.0927 12.2963 12.4442 12.1311 12.7132L6.96481 21.1183C6.83534 21.327 6.58087 21.4375 6.33087 21.3706C6.02618 21.2902 5.84538 20.9766 5.92684 20.6719L7.56189 14.5705H5.82753C5.7427 14.5682 5.65677 14.5504 5.5753 14.5102C5.29293 14.3718 5.17801 14.0292 5.3164 13.7469Z" fill="#ED1C24"/>
</svg>
