<svg xmlns="http://www.w3.org/2000/svg"  width="99" height="113" viewBox="0 0 29 30.95">
  <g id="Group_22707" data-name="Group 22707" transform="translate(-176 -473)">
    <path id="Path_79007" data-name="Path 79007" d="M7.989,179.646a7.986,7.986,0,1,0,8.01,8.01,8,8,0,0,0-8.01-8.01M7.968,194.62A6.988,6.988,0,1,1,15,187.615a7,7,0,0,1-7.031,7.006" transform="translate(176 308.332)" fill="#ed1c26"/>
    <path id="Path_79009" data-name="Path 79009" d="M102.213,1.582Q100.969.81,99.7.077a.486.486,0,0,0-.748.44,5.308,5.308,0,0,0,0,.717c.019.219-.048.275-.269.273-1.28-.012-2.561-.006-3.841-.006q-1.889,0-3.779,0a1.014,1.014,0,0,0-1.115,1.123q0,2.323,0,4.645c0,.723,0,.712.716.726.23,0,.292-.048.29-.285-.012-1.652,0-3.3-.011-4.957,0-.194.037-.261.25-.26q3.748.013,7.495,0c.187,0,.285.022.265.245a5.266,5.266,0,0,0,0,.748.488.488,0,0,0,.753.432q1.267-.732,2.51-1.506a.475.475,0,0,0,0-.831M99.966,2.606V1.4l1.014.6-1.014.608" transform="translate(93.549 478)" fill="#ed1c26"/>
    <path id="Path_79010" data-name="Path 79010" d="M208.829,180.279c-.043-1.027-.01-2.057-.01-3.086v-2.931c0-.688,0-.674-.687-.694-.26-.007-.321.059-.32.319.012,2.141,0,4.282.011,6.422,0,.2-.039.26-.251.259q-3-.013-6,0c-.232,0-.278-.074-.262-.28a5.874,5.874,0,0,0,0-.686.494.494,0,0,0-.783-.445q-1.237.722-2.457,1.474a.479.479,0,0,0-.02.848q1.243.772,2.511,1.5a.487.487,0,0,0,.748-.441,4.6,4.6,0,0,0,0-.685c-.024-.245.058-.3.3-.3,1.967.011,3.935-.021,5.9.018a1.142,1.142,0,0,0,1.311-1.295m-8.521,1.39-1.018-.606,1.018-.606Z" transform="translate(-5.319 318.903)" fill="#ed1c26"/>
    <path id="Path_79011" data-name="Path 79011" d="M259.244,26.479a5.418,5.418,0,0,0-.687,0c-.227.022-.269-.063-.267-.275.011-1.195.005-2.39.005-3.585q0-1.746,0-3.492a1.017,1.017,0,0,0-1.131-1.139q-2.327,0-4.653,0c-.719,0-.707,0-.722.721-.005.241.065.285.292.283,1.645-.01,3.289,0,4.934-.012.235,0,.288.056.287.288-.01,2.1,0,4.2-.009,6.3,0,.3.132.693-.057.863-.163.146-.553.04-.843.046h-.062a.494.494,0,0,0-.441.786q.714,1.222,1.46,2.427a.487.487,0,0,0,.883.013q.755-1.216,1.476-2.453a.493.493,0,0,0-.465-.771M257.8,28.5l-.612-1.013H258.4l-.6,1.013" transform="translate(-54.797 461.508)" fill="#ed1c26"/>
    <path id="Path_79013" data-name="Path 79013" d="M46.268,215.541c.968,0,1.937,0,2.905,0a1.5,1.5,0,0,1,1.587,1.581c0,.384.006.77-.022,1.152-.021.284-.3.52-.308.756s.3.47.3.754c0,.734.212,1.5-.3,2.167-.079.1,0,.148.047.211a1.579,1.579,0,0,1,.283.968c-.007.3,0,.6,0,.9a1.487,1.487,0,0,1-1.493,1.485q-3,.013-6,0a1.485,1.485,0,0,1-1.505-1.5c0-.415,0-.831.024-1.246.018-.286.315-.518.307-.753s-.3-.453-.3-.725c-.009-.735-.219-1.5.289-2.168.073-.1.024-.144-.026-.212a1.574,1.574,0,0,1-.3-1.026c.009-.291,0-.582,0-.873a1.489,1.489,0,0,1,1.475-1.47c1.01-.011,2.02,0,3.03,0" transform="translate(137.739 275.432)" fill="#ed1c26"/>
    <path id="Path_79014" data-name="Path 79014" d="M57.466,227.531q1.42,0,2.84,0c.45,0,.624.173.627.617,0,.27,0,.54,0,.81a.5.5,0,0,1-.552.567q-2.949.006-5.9,0a.5.5,0,0,1-.547-.539c-.007-.3-.007-.6,0-.9a.5.5,0,0,1,.567-.551c.988,0,1.976,0,2.964,0" transform="translate(126.566 264.439)" fill="#fefefe"/>
    <path id="Path_79015" data-name="Path 79015" d="M57.446,265.452H54.637c-.545,0-.694-.152-.694-.707,0-.26-.007-.52,0-.779a.483.483,0,0,1,.514-.507q2.98-.008,5.96,0a.489.489,0,0,1,.521.532c.008.291.005.582,0,.872a.516.516,0,0,1-.594.588c-.967,0-1.935,0-2.9,0" transform="translate(126.557 231.511)" fill="#fefefe"/>
    <path id="Path_79016" data-name="Path 79016" d="M57.419,301.373q-1.42,0-2.84,0c-.45,0-.624-.174-.628-.617,0-.27,0-.54,0-.81.007-.372.187-.566.551-.567q2.949-.006,5.9,0a.5.5,0,0,1,.549.537c.008.291.005.582,0,.872-.006.4-.189.583-.6.584-.978,0-1.955,0-2.933,0" transform="translate(126.549 198.584)" fill="#fefefe"/>
    <g id="Group_22708" data-name="Group 22708" transform="translate(2 -2)">
      <path id="Path_79008" data-name="Path 79008" d="M159.4,89.356c-.095-.054-.251-.072-.264-.194a2.452,2.452,0,0,1,0-.681c.028-.16.236-.181.366-.258.213-.125.412-.25.416-.57-.009-.036-.027-.106-.046-.175a4.812,4.812,0,0,0-1.117-1.989c-.423-.458-.525-.47-1.069-.171-.106.058-.211.182-.337.129a2.678,2.678,0,0,1-.625-.342c-.139-.11-.053-.313-.058-.473-.012-.414-.117-.562-.513-.659a5.032,5.032,0,0,0-2.2-.054c-.731.144-.768.195-.783.937,0,.1.039.213-.084.277-.356.184-.684.485-1.111.1a.474.474,0,0,0-.679.042,4.927,4.927,0,0,0-1.356,2.27.483.483,0,0,0,.241.584c.133.081.27.155.406.23a.2.2,0,0,1,.128.158.758.758,0,0,1-.472.951.511.511,0,0,0-.275.7,4.8,4.8,0,0,0,1.1,1.963c.433.474.531.485,1.093.179.106-.058.212-.178.338-.122a2.53,2.53,0,0,1,.62.349c.128.109.048.316.048.477a.543.543,0,0,0,.407.615,5.1,5.1,0,0,0,2.682,0,.5.5,0,0,0,.4-.522c0-.135,0-.27,0-.405a.22.22,0,0,1,.069-.194.852.852,0,0,1,1.107-.107.537.537,0,0,0,.776-.117A4.867,4.867,0,0,0,159.8,90.4c.215-.618.173-.718-.4-1.045m-1.288-.867a1.9,1.9,0,0,1-.011.775.61.61,0,0,0,.376.73c.367.186.363.2.172.567a3.4,3.4,0,0,1-.2.348,1.533,1.533,0,0,1-.321.416c-.152.106-.29-.085-.442-.125a1.875,1.875,0,0,0-2.011,1.381c-.014.137-.064.164-.182.185a3.427,3.427,0,0,1-.715.041,1.915,1.915,0,0,1-.494-.057c-.221-.068-.049-.295-.135-.427a.63.63,0,0,1-.041-.117,1.9,1.9,0,0,0-2.181-.894c-.151.071-.223.042-.3-.077-.1-.156-.221-.3-.315-.463-.308-.523-.306-.527.2-.861a.51.51,0,0,0,.243-.531,2.763,2.763,0,0,1-.017-.931.647.647,0,0,0-.439-.84c-.242-.089-.285-.224-.15-.438.094-.149.167-.31.262-.458a1.623,1.623,0,0,1,.3-.4c.166-.135.292.074.439.114a1.876,1.876,0,0,0,2.027-1.363c.011-.121.03-.178.167-.2a4.067,4.067,0,0,1,1.119-.011c.139.018.215.05.216.223a1.021,1.021,0,0,0,.588.922c.181.1.361.2.543.3a1.067,1.067,0,0,0,1.072.036c.185-.1.27-.052.375.094a4.614,4.614,0,0,1,.476.8c.026.056.047.115.07.174-.023.112-.127.134-.207.166a.7.7,0,0,0-.479.912" transform="translate(38.58 401.166)" fill="#ed1c26"/>
      <path id="Path_79017" data-name="Path 79017" d="M182.464,113.791a2.5,2.5,0,1,0,2.451,2.511,2.5,2.5,0,0,0-2.451-2.511m-.049,3.992a1.5,1.5,0,1,1,1.5-1.512,1.5,1.5,0,0,1-1.5,1.512" transform="translate(11.084 373.697)" fill="#ed1c26"/>
    </g>
    <path id="Path_79018" data-name="Path 79018" d="M85.9,233.481c.594,0,1.187.007,1.78,0,.177,0,.222.047.224.223.009.78.015.78-.755.78-1,0-2-.006-3,.005-.2,0-.257-.052-.256-.255,0-.748,0-.748.756-.748H85.9" transform="translate(99.102 258.989)" fill="#ed1c26"/>
    <path id="Path_79019" data-name="Path 79019" d="M60.969,234.006c0,.522,0,.522-.54.522-.46,0-.46,0-.46-.445,0-.553,0-.553.54-.553.46,0,.46,0,.46.477" transform="translate(121.031 258.941)" fill="#ed1c26"/>
    <path id="Path_79020" data-name="Path 79020" d="M85.864,270.4c-.573,0-1.146-.008-1.718,0-.195,0-.263-.036-.261-.249.006-.753,0-.753.752-.753,1,0,2,0,3,0,.194,0,.263.036.261.249-.006.753,0,.753-.752.753H85.864" transform="translate(99.109 226.062)" fill="#ed1c26"/>
    <path id="Path_79021" data-name="Path 79021" d="M60.482,269.45c.487,0,.487,0,.487.481,0,.517,0,.517-.513.517-.487,0-.487,0-.487-.481,0-.518,0-.518.513-.518" transform="translate(121.031 226.015)" fill="#ed1c26"/>
    <path id="Path_79022" data-name="Path 79022" d="M85.886,306.315c-.594,0-1.187-.007-1.78,0-.178,0-.221-.049-.223-.224-.009-.779-.015-.779.756-.779,1,0,2,.006,3-.005.205,0,.256.054.255.256,0,.748,0,.748-.757.748h-1.25" transform="translate(99.112 193.143)" fill="#ed1c26"/>
    <path id="Path_79023" data-name="Path 79023" d="M60.969,305.873c0,.5,0,.5-.5.5s-.5,0-.5-.5,0-.5.5-.5.5,0,.5.5" transform="translate(121.031 193.087)" fill="#ed1c26"/>
    <rect id="Rectangle_19106" data-name="Rectangle 19106" width="29" height="30.95" transform="translate(176 473)" fill="none"/>
  </g>
</svg>
