<svg xmlns="http://www.w3.org/2000/svg" width="25.5" height="25.972" viewBox="0 0 25.5 25.972">
  <g id="call-issue" transform="translate(-1.25 -0.814)">
    <path id="Path_16765" data-name="Path 16765" d="M26,21.625a3.059,3.059,0,0,1-.3,1.31,4.959,4.959,0,0,1-.817,1.226,5.418,5.418,0,0,1-1.971,1.418,6.035,6.035,0,0,1-2.344.457,10.015,10.015,0,0,1-3.918-.877,21.109,21.109,0,0,1-4.134-2.38,34.552,34.552,0,0,1-3.942-3.365,34.148,34.148,0,0,1-3.353-3.93,21.426,21.426,0,0,1-2.356-4.1A10.122,10.122,0,0,1,2,7.456a6.217,6.217,0,0,1,.433-2.319A5.532,5.532,0,0,1,3.815,3.13,3.521,3.521,0,0,1,6.314,2a2.258,2.258,0,0,1,.973.216,1.959,1.959,0,0,1,.805.673l2.788,3.93a4.113,4.113,0,0,1,.481.841,1.9,1.9,0,0,1,.168.733,1.631,1.631,0,0,1-.252.853,4.088,4.088,0,0,1-.673.853l-.913.949a.643.643,0,0,0-.192.481,1.091,1.091,0,0,0,.036.276c.036.1.072.168.1.24a9.973,9.973,0,0,0,1.118,1.538c.541.625,1.118,1.262,1.743,1.9.649.637,1.274,1.226,1.911,1.767a9.224,9.224,0,0,0,1.55,1.106c.06.024.132.06.216.1a.83.83,0,0,0,.3.048.661.661,0,0,0,.493-.2l.913-.9a3.687,3.687,0,0,1,.865-.673,1.6,1.6,0,0,1,.853-.252,1.918,1.918,0,0,1,.733.156,4.648,4.648,0,0,1,.841.469l3.978,2.824a1.823,1.823,0,0,1,.661.769A2.466,2.466,0,0,1,26,21.625Z" transform="translate(0 0)" fill="none" stroke="#ed1c26" stroke-width="1.5"/>
    <g id="Group_22124" data-name="Group 22124" transform="translate(16.905 1.875)" opacity="0.6">
      <path id="Path_16766" data-name="Path 16766" d="M16.23,12.48l8.25-8.25" transform="translate(-16.23 -4.23)" fill="none" stroke="#ed1c26" stroke-linecap="round" stroke-linejoin="round" stroke-width="1.5"/>
      <path id="Path_16767" data-name="Path 16767" d="M24.48,12.48,16.23,4.23" transform="translate(-16.23 -4.23)" fill="none" stroke="#ed1c26" stroke-linecap="round" stroke-linejoin="round" stroke-width="1.5"/>
    </g>
  </g>
</svg>
