<svg xmlns="http://www.w3.org/2000/svg" width="23.65" height="27.945" viewBox="0 0 23.65 27.945">
  <g id="CDRS" transform="translate(-587.047 -392.714)">
    <path id="Path_16765" data-name="Path 16765" d="M23.144,19.29a2.7,2.7,0,0,1-.265,1.154,4.369,4.369,0,0,1-.72,1.08,4.773,4.773,0,0,1-1.736,1.249,5.317,5.317,0,0,1-2.065.4,8.824,8.824,0,0,1-3.452-.773,18.6,18.6,0,0,1-3.642-2.1,30.441,30.441,0,0,1-3.473-2.965A30.085,30.085,0,0,1,4.838,13.88a18.876,18.876,0,0,1-2.075-3.611A8.918,8.918,0,0,1,2,6.807a5.477,5.477,0,0,1,.381-2.043A4.873,4.873,0,0,1,3.6,3,3.1,3.1,0,0,1,5.8,2a1.99,1.99,0,0,1,.858.191,1.726,1.726,0,0,1,.709.593L9.825,6.246a3.623,3.623,0,0,1,.424.741,1.674,1.674,0,0,1,.148.646,1.437,1.437,0,0,1-.222.752,3.6,3.6,0,0,1-.593.752l-.8.836a.567.567,0,0,0-.169.424.961.961,0,0,0,.032.244c.032.085.064.148.085.212a8.786,8.786,0,0,0,.985,1.355c.476.551.985,1.112,1.535,1.673.572.561,1.122,1.08,1.684,1.556a8.126,8.126,0,0,0,1.366.974c.053.021.116.053.191.085a.731.731,0,0,0,.265.042.583.583,0,0,0,.434-.18l.8-.794a3.249,3.249,0,0,1,.762-.593,1.41,1.41,0,0,1,.752-.222,1.69,1.69,0,0,1,.646.138,4.1,4.1,0,0,1,.741.413l3.5,2.488a1.606,1.606,0,0,1,.582.678A2.172,2.172,0,0,1,23.144,19.29Z" transform="translate(585.797 396.732)" fill="none" stroke="#ed1c26" stroke-width="1.5"/>
    <path id="Path_16772" data-name="Path 16772" d="M600.517,400.625v-2.878s-.2-2.117.46-2.264,12.4,0,12.4,0,.775-.034.775,1.469V415.4" transform="translate(-4.153 -2)" fill="none" stroke="#ed1c26" stroke-linecap="round" stroke-linejoin="round" stroke-width="1.4"/>
    <line id="Line_3" data-name="Line 3" x2="7.929" transform="translate(598.988 399.657)" fill="none" stroke="#ed1c26" stroke-linecap="round" stroke-width="1"/>
    <line id="Line_4" data-name="Line 4" x2="6.167" transform="translate(599.87 402.3)" fill="none" stroke="#ed1c26" stroke-linecap="round" stroke-width="1"/>
    <line id="Line_5" data-name="Line 5" x2="4.405" transform="translate(600.751 404.944)" fill="none" stroke="#ed1c26" stroke-linecap="round" stroke-width="1"/>
  </g>
</svg>
