<svg xmlns="http://www.w3.org/2000/svg" width="29.471" height="26.311" viewBox="0 0 29.471 26.311">
  <g id="Group_160527" data-name="Group 160527" transform="translate(-1026.529 -702.689)">
    <g id="Group_22709" data-name="Group 22709" transform="translate(1026.529 702.689)">
      <path id="Path_79024" data-name="Path 79024" d="M206.271,106.25c0-.365-.125-.489-.492-.489-.883,0-1.765-.007-2.648,0-.195,0-.24-.045-.239-.239.008-2.253.005-4.506,0-6.759,0-.367-.124-.492-.489-.492-.883,0-1.766-.006-2.648,0-.19,0-.243-.037-.243-.237.009-2,.005-3.991.005-5.987,0-.4-.115-.518-.511-.518h-6.468c-.411,0-.521.112-.521.53,0,2,0,3.991,0,5.987,0,.189-.055.225-.231.223-.875-.009-1.75,0-2.625,0-.414,0-.524.111-.524.527q0,3.379,0,6.759c0,.164-.04.2-.2.2-.883-.009-1.765,0-2.648,0-.416,0-.527.11-.527.524q0,3.578,0,7.156c0,.449.1.553.546.553h19.942c.387,0,.512-.12.512-.494q0-3.625,0-7.25m-4,.256c.622-.033.622-.037.622.576v.187c0,.2-.005.406,0,.608,0,.1-.028.127-.131.133-.622.034-.622.037-.622-.576,0-.265,0-.53,0-.795,0-.1.028-.127.131-.132m-3.387-7.482a.123.123,0,0,0,.023,0c.61-.03.61-.03.61.584v.351c0,.618,0,.616-.632.565-.089-.007-.12-.027-.12-.119q.006-.631,0-1.262c0-.09.026-.131.118-.118m-3.122-6.736c.38,0,.38,0,.38.369s0,.379-.394.379c-.356,0-.356,0-.356-.369s0-.379.37-.379m-3,.2c0-.139.015-.2.183-.2.507.013,1.016.012,1.523,0,.154,0,.179.049.175.185-.01.288,0,.577,0,.865,0,.309.135.448.437.45q.691,0,1.383,0a.382.382,0,0,0,.429-.434c0-.3.008-.608,0-.912,0-.128.041-.153.159-.152.515.006,1.031.009,1.547,0,.151,0,.177.045.176.183-.006.943,0,1.887,0,2.83,0,.92,0,1.84,0,2.76,0,.157-.012.226-.206.225q-2.8-.014-5.6,0c-.17,0-.2-.049-.2-.207q.009-2.795,0-5.59m3.38,15.393c0,.1-.028.127-.131.132-.622.033-.621.036-.621-.576v-.187c0-.2.005-.406,0-.608,0-.1.028-.127.131-.133.622-.034.622-.037.622.576,0,.265,0,.53,0,.795m-4.127-8.127v-.164c0-.619,0-.616.633-.564.09.007.12.028.119.12q-.006.631,0,1.262c0,.091-.027.131-.119.118a.121.121,0,0,0-.023,0c-.61.03-.61.03-.61-.585Zm-3.246,6.756c.622-.033.621-.037.621.576v.187c0,.2-.005.406,0,.608,0,.1-.028.127-.131.133-.622.034-.622.037-.622-.576,0-.265,0-.53,0-.795,0-.1.028-.127.131-.132m3.06,6.743q-2.812-.009-5.625,0c-.15,0-.193-.035-.193-.19q.008-3.181,0-6.362c0-.151.035-.2.19-.192.508.01,1.016.008,1.523,0,.132,0,.17.034.168.167-.008.538,0,1.076,0,1.614,0,.336.132.466.467.468q.668,0,1.336,0c.306,0,.445-.138.446-.441,0-.546,0-1.092,0-1.637,0-.128.029-.172.165-.17.508.008,1.016.013,1.523,0,.182-.005.194.067.193.214-.005,1.06,0,2.121,0,3.181s0,2.1,0,3.157c0,.15-.034.193-.19.193m-2.274-7.484c-.165,0-.167-.068-.166-.192,0-1.06,0-2.121,0-3.181s0-2.105,0-3.157c0-.175.041-.22.216-.215.5.013,1,.009,1.5,0,.133,0,.169.037.167.168-.007.538,0,1.076,0,1.614,0,.334.132.465.468.466q.668,0,1.336,0c.306,0,.444-.138.445-.442,0-.546.005-1.092,0-1.637,0-.13.031-.171.166-.168q.773.012,1.547,0c.131,0,.168.033.168.166q-.006,3.2,0,6.409c0,.131-.034.168-.167.167q-2.836-.007-5.672,0m9.213,7.316c0,.131-.034.168-.167.167q-2.836-.007-5.671,0c-.165,0-.167-.068-.166-.192,0-1.068,0-2.136,0-3.2,0-1.045,0-2.089,0-3.134,0-.175.041-.22.216-.215.5.013,1,.009,1.5,0,.134,0,.168.037.167.168-.007.538,0,1.076,0,1.614,0,.334.132.465.468.467.445,0,.891,0,1.336,0,.305,0,.443-.138.445-.442,0-.546.005-1.092,0-1.637,0-.13.032-.171.166-.169q.773.012,1.547,0c.131,0,.168.033.168.166q-.006,3.2,0,6.408m-2.421-7.315c-.183,0-.212-.053-.211-.22q.009-3.157,0-6.315c0-.184.054-.215.221-.211.484.011.969.015,1.453,0,.186-.006.214.056.211.221-.011.522-.005,1.044,0,1.567,0,.324.133.46.448.462q.68,0,1.359,0c.3,0,.44-.14.441-.446,0-.538.008-1.076,0-1.614,0-.158.047-.191.195-.188.5.009,1,.011,1.5,0,.16,0,.189.049.188.195-.006,1.06,0,2.121,0,3.181s-.005,2.1.005,3.157c0,.182-.052.212-.22.211q-2.789-.009-5.578,0m9.171,7.315c0,.131-.034.168-.167.167q-2.836-.007-5.672,0c-.165,0-.167-.068-.166-.192,0-1.068,0-2.136,0-3.2,0-1.045,0-2.089,0-3.134,0-.175.041-.22.216-.215.5.013,1,.01,1.5,0,.134,0,.168.037.167.168-.007.538,0,1.076,0,1.614,0,.334.133.465.468.466.445,0,.891,0,1.336,0,.305,0,.443-.138.445-.442,0-.546,0-1.092,0-1.637,0-.13.032-.171.166-.168q.773.012,1.547,0c.131,0,.168.033.168.166q-.006,3.2,0,6.408" transform="translate(-185.271 -91.539)" fill="#ed1c26"/>
      <path id="Path_79025" data-name="Path 79025" d="M207.637,149.77c-.132,0-.265.008-.4,0a.37.37,0,0,1-.358-.383.364.364,0,0,1,.358-.358c.264-.01.529-.011.793,0a.363.363,0,0,1,.346.369.37.37,0,0,1-.347.37c-.131.011-.264,0-.4,0" transform="translate(-202.382 -137.048)" fill="#ed1c26"/>
      <path id="Path_79026" data-name="Path 79026" d="M207.635,155.161c-.132,0-.265.008-.4,0a.369.369,0,0,1-.356-.362.365.365,0,0,1,.36-.38c.256-.011.513-.01.77,0a.365.365,0,0,1,.368.373.371.371,0,0,1-.372.37c-.124.008-.249,0-.373,0h0" transform="translate(-202.381 -141.316)" fill="#ed1c26"/>
      <path id="Path_79027" data-name="Path 79027" d="M240.047,149.77c-.132,0-.265.008-.4,0a.37.37,0,0,1-.358-.383.363.363,0,0,1,.358-.358c.264-.01.529-.011.793,0a.363.363,0,0,1,.346.369.377.377,0,0,1-.346.372.386.386,0,0,1-.047,0h-.35Z" transform="translate(-228.042 -137.048)" fill="#ed1c26"/>
      <path id="Path_79028" data-name="Path 79028" d="M240.041,154.425c.124,0,.249-.006.373,0a.372.372,0,0,1,.376.366.366.366,0,0,1-.364.377c-.256.01-.513.01-.77,0a.365.365,0,0,1-.364-.376.371.371,0,0,1,.375-.367c.124-.007.249,0,.373,0" transform="translate(-228.042 -141.326)" fill="#ed1c26"/>
      <path id="Path_79029" data-name="Path 79029" d="M191.4,185.708c-.124,0-.249.008-.373,0a.369.369,0,0,1-.353-.364.365.365,0,0,1,.363-.377c.256-.01.514-.01.77,0a.365.365,0,0,1,.365.376.372.372,0,0,1-.375.368c-.132.007-.264,0-.4,0h0" transform="translate(-189.552 -165.501)" fill="#ed1c26"/>
      <path id="Path_79030" data-name="Path 79030" d="M191.428,191.1c-.124,0-.249.006-.373,0a.372.372,0,0,1-.376-.367.365.365,0,0,1,.363-.377c.256-.01.513-.01.77,0a.365.365,0,0,1,.364.376.372.372,0,0,1-.375.367c-.124.007-.249,0-.373,0" transform="translate(-189.553 -169.768)" fill="#ed1c26"/>
      <path id="Path_79031" data-name="Path 79031" d="M223.83,184.972c.132,0,.265-.007.4,0a.37.37,0,0,1,.36.381.365.365,0,0,1-.356.36c-.264.011-.529.011-.793,0a.363.363,0,0,1-.348-.368.374.374,0,0,1,.344-.374.388.388,0,0,1,.047,0h.35Z" transform="translate(-215.213 -165.51)" fill="#ed1c26"/>
      <path id="Path_79032" data-name="Path 79032" d="M223.837,191.1c-.124,0-.249.006-.373,0a.372.372,0,0,1-.375-.367.364.364,0,0,1,.363-.377c.256-.01.514-.01.77,0a.365.365,0,0,1,.364.376.372.372,0,0,1-.375.367c-.124.007-.249,0-.373,0" transform="translate(-215.212 -169.769)" fill="#ed1c26"/>
      <path id="Path_79033" data-name="Path 79033" d="M256.245,185.709c-.124,0-.249.006-.373,0a.372.372,0,0,1-.374-.368.365.365,0,0,1,.365-.375c.256-.01.513-.01.77,0a.365.365,0,0,1,.363.377.37.37,0,0,1-.353.364c-.132.01-.264,0-.4,0Z" transform="translate(-240.872 -165.501)" fill="#ed1c26"/>
      <path id="Path_79034" data-name="Path 79034" d="M256.238,191.1c-.132,0-.265.009-.4,0a.368.368,0,0,1-.344-.373.362.362,0,0,1,.348-.367c.264-.012.529-.011.793,0a.364.364,0,0,1,.356.361.37.37,0,0,1-.36.381c-.132.009-.264,0-.4,0Z" transform="translate(-240.872 -169.768)" fill="#ed1c26"/>
      <path id="Path_79035" data-name="Path 79035" d="M223.845,113.1c.124,0,.249-.007.373,0a.37.37,0,0,1,.367.374.363.363,0,0,1-.349.367c-.264.012-.529.011-.793,0a.363.363,0,0,1-.355-.361.369.369,0,0,1,.36-.38c.132-.009.264,0,.4,0" transform="translate(-215.212 -108.605)" fill="#ed1c26"/>
      <path id="Path_79036" data-name="Path 79036" d="M223.837,118.487c.124,0,.249-.006.373,0a.371.371,0,0,1,.375.367.366.366,0,0,1-.365.376c-.256.01-.513.01-.77,0a.365.365,0,0,1-.363-.378.371.371,0,0,1,.376-.366c.124-.007.249,0,.373,0" transform="translate(-215.212 -112.873)" fill="#ed1c26"/>
    </g>
    <circle id="Ellipse_540" data-name="Ellipse 540" cx="8.5" cy="8.5" r="8.5" transform="translate(1039 712)" fill="#fff"/>
    <g id="random" transform="translate(1042 663.803)">
      <g id="Group_19708" data-name="Group 19708" transform="translate(0 51.197)">
        <g id="Group_19707" data-name="Group 19707" transform="translate(0 0)">
          <path id="Path_16258" data-name="Path 16258" d="M12.211,53.084h0l-1.763-1.763a.441.441,0,0,0-.623.623l1.011,1.011H8.373A3.088,3.088,0,0,0,5.288,56.04a2.206,2.206,0,0,1-2.2,2.2H.441a.441.441,0,1,0,0,.881H3.085A3.088,3.088,0,0,0,6.17,56.04a2.206,2.206,0,0,1,2.2-2.2h2.462L9.825,54.847a.441.441,0,1,0,.612.634l.011-.011,1.763-1.763A.441.441,0,0,0,12.211,53.084Z" transform="translate(0 -51.197)" fill="#ed1c26" stroke="#fff" stroke-width="0.2"/>
        </g>
      </g>
      <g id="Group_19710" data-name="Group 19710" transform="translate(6.172 56.486)">
        <g id="Group_19709" data-name="Group 19709" transform="translate(0 0)">
          <path id="Path_16259" data-name="Path 16259" d="M245.075,257.885h0l-1.763-1.763a.441.441,0,0,0-.623.623l1.011,1.011h-2.462a2.2,2.2,0,0,1-1.469-.561.441.441,0,0,0-.588.657,3.08,3.08,0,0,0,2.057.786H243.7l-1.01,1.01a.441.441,0,0,0,.612.634l.011-.011,1.763-1.763A.441.441,0,0,0,245.075,257.885Z" transform="translate(-239.036 -255.998)" fill="#ed1c26" stroke="#fff" stroke-width="0.2"/>
        </g>
      </g>
      <g id="Group_19712" data-name="Group 19712" transform="translate(0 52.955)">
        <g id="Group_19711" data-name="Group 19711" transform="translate(0 0)">
          <path id="Path_16260" data-name="Path 16260" d="M5.142,120.058a3.08,3.08,0,0,0-2.057-.786H.441a.441.441,0,1,0,0,.881H3.085a2.2,2.2,0,0,1,1.469.561.441.441,0,0,0,.588-.657Z" transform="translate(0 -119.272)" fill="#ed1c26" stroke="#fff" stroke-width="0.2"/>
        </g>
      </g>
    </g>
  </g>
</svg>
