<svg xmlns="http://www.w3.org/2000/svg" width="106" height="106" viewBox="0 0 26.425 20.91"><defs><style>.a{fill:#ed1c26;stroke:#fff;}</style></defs><g transform="translate(0.5 -50.697)"><g transform="translate(0 51.197)"><g transform="translate(0 0)"><path class="a" d="M25.076,55.072l0,0h0l-3.62-3.62a.9.9,0,0,0-1.28,1.28l2.076,2.076H17.195a6.342,6.342,0,0,0-6.335,6.335,4.53,4.53,0,0,1-4.525,4.525H.905a.9.9,0,1,0,0,1.81h5.43a6.342,6.342,0,0,0,6.335-6.335,4.53,4.53,0,0,1,4.525-4.525H22.25l-2.075,2.075a.9.9,0,0,0,1.257,1.3l.022-.022,3.62-3.62A.9.9,0,0,0,25.076,55.072Z" transform="translate(0 -51.197)"/></g></g><g transform="translate(12.675 62.057)"><g transform="translate(0 0)"><path class="a" d="M251.437,259.873l0,0h0l-3.62-3.62a.9.9,0,0,0-1.28,1.28l2.076,2.076h-5.055a4.518,4.518,0,0,1-3.017-1.152.9.9,0,0,0-1.207,1.348,6.325,6.325,0,0,0,4.224,1.614h5.055l-2.075,2.075a.905.905,0,1,0,1.257,1.3l.022-.022,3.62-3.62A.905.905,0,0,0,251.437,259.873Z" transform="translate(-239.036 -255.998)"/></g></g><g transform="translate(0 54.807)"><g transform="translate(0 0)"><path class="a" d="M10.559,120.886a6.325,6.325,0,0,0-4.224-1.614H.9a.9.9,0,1,0,0,1.81h5.43a4.518,4.518,0,0,1,3.017,1.152.9.9,0,0,0,1.207-1.348Z" transform="translate(0 -119.272)"/></g></g></g></svg>