<svg xmlns="http://www.w3.org/2000/svg" width="24" height="22.37" viewBox="0 0 24 22.37">
  <path id="connection-links-sm" d="M21.63,26.989V23.064a1.052,1.052,0,0,0-1.051-1.051h-8V18.631a4.1,4.1,0,1,0-1.168,0v3.382h-8A1.052,1.052,0,0,0,2.37,23.064v3.925a2.954,2.954,0,1,0,1.168,0V23.18h7.878c-.025-.018,8.966.065,9.046,0v3.808a2.954,2.954,0,1,0,1.168,0ZM9.065,14.57A2.935,2.935,0,1,1,12,17.505,2.938,2.938,0,0,1,9.065,14.57ZM4.74,29.884A1.786,1.786,0,1,1,2.954,28.1,1.788,1.788,0,0,1,4.74,29.884ZM21.046,31.67a1.786,1.786,0,1,1,1.786-1.786A1.788,1.788,0,0,1,21.046,31.67Z" transform="translate(0 -10.468)" fill="#ed1c24"/>
</svg>
