<svg xmlns="http://www.w3.org/2000/svg" width="102" height="95.208" viewBox="0 0 102 95.208">
  <path id="connection-links-lg" d="M90.126,79.3V62.95a4.385,4.385,0,0,0-4.38-4.38H52.433V44.479a17.094,17.094,0,1,0-4.866,0V58.571H14.253a4.385,4.385,0,0,0-4.38,4.38V79.3a12.306,12.306,0,1,0,4.866,0V63.437H47.567c-.1-.074,37.358.272,37.693,0V79.3a12.308,12.308,0,1,0,4.866,0ZM37.773,27.562A12.227,12.227,0,1,1,50,39.789,12.241,12.241,0,0,1,37.773,27.562ZM19.748,91.369a7.441,7.441,0,1,1-7.441-7.441A7.449,7.449,0,0,1,19.748,91.369Zm67.945,7.44a7.441,7.441,0,1,1,7.441-7.44A7.449,7.449,0,0,1,87.693,98.81Z" transform="translate(1 -9.468)" fill="#ed1c24" stroke="#fff" stroke-width="2"/>
</svg>
