<svg xmlns="http://www.w3.org/2000/svg" width="26.598" height="25.238" viewBox="0 0 26.598 25.238">
  <g id="data-center-visit-sm" transform="translate(-115.152 -420.152)">
    <path id="Subtraction_53" data-name="Subtraction 53" d="M10.917,23.718a19.247,19.247,0,0,1-7.431-1.281A7.929,7.929,0,0,1,1.208,21.02,4.032,4.032,0,0,1,.04,19.247l-.027-.091v-.1L0,15.21c0-3.778,0-7.6.009-11.368C.007,3.8,0,3.765,0,3.712A1.925,1.925,0,0,1,.846,2.267a7.557,7.557,0,0,1,2.3-1.18A24.033,24.033,0,0,1,10.715,0a24.028,24.028,0,0,1,7.573,1.087,7.554,7.554,0,0,1,2.3,1.18,1.923,1.923,0,0,1,.842,1.445,1.377,1.377,0,0,1-.021.239.574.574,0,0,1,.025.177l-.015,4.693a8.058,8.058,0,0,0-1.479.217L19.948,5.6a12.873,12.873,0,0,1-3.842,1.325,27.721,27.721,0,0,1-5.391.5,27.72,27.72,0,0,1-5.372-.5A12.974,12.974,0,0,1,1.507,5.61l0,2.332,0,1.185v0a7.677,7.677,0,0,0,2.491,1.525A15.6,15.6,0,0,0,8.105,11.7a21.092,21.092,0,0,0,2.43.142,19.986,19.986,0,0,0,3.047-.231,17.847,17.847,0,0,0,2.808-.666,8.046,8.046,0,0,0-1.634,2.114,21.754,21.754,0,0,1-4.077.377,23.481,23.481,0,0,1-2.718-.159,18.641,18.641,0,0,1-3.75-.818A10.305,10.305,0,0,1,1.5,11.138v3.211a7.654,7.654,0,0,0,2.491,1.527,15.623,15.623,0,0,0,4.114,1.05,21.067,21.067,0,0,0,2.425.141A19.906,19.906,0,0,0,13.81,16.8v.048a8.127,8.127,0,0,0,.153,1.57,22.159,22.159,0,0,1-3.3.243A23.489,23.489,0,0,1,7.961,18.5a18.7,18.7,0,0,1-3.747-.819A10.3,10.3,0,0,1,1.5,16.36l.007,2.592a2.861,2.861,0,0,0,1,1.27,7.3,7.3,0,0,0,1.977,1.031,19.365,19.365,0,0,0,6.425.946,19.82,19.82,0,0,0,4.547-.469,8.089,8.089,0,0,0,1.165,1.229A17.671,17.671,0,0,1,10.917,23.718Zm-.2-22.22a25.472,25.472,0,0,0-3.6.247,16.3,16.3,0,0,0-2.98.687,5.937,5.937,0,0,0-1.744.881c-.248.2-.336.338-.336.4s.088.2.336.4a5.963,5.963,0,0,0,1.744.879,16.2,16.2,0,0,0,2.98.688,25.509,25.509,0,0,0,3.6.246,25.46,25.46,0,0,0,3.6-.247,16.3,16.3,0,0,0,2.98-.687,5.938,5.938,0,0,0,1.744-.881c.248-.2.336-.341.336-.4s-.088-.2-.336-.4a5.966,5.966,0,0,0-1.744-.879,16.211,16.211,0,0,0-2.98-.688A25.5,25.5,0,0,0,10.715,1.5Zm7.467,7.6h-.006a.654.654,0,1,1,.006,0Z" transform="translate(115.502 420.502)" fill="#ed1c24" stroke="#fff" stroke-linecap="round" stroke-linejoin="round" stroke-width="0.7"/>
    <path id="visit" d="M-131.923,71.82a1.245,1.245,0,0,1-1.328-1.142,1.245,1.245,0,0,1,1.142-1.328,1.245,1.245,0,0,1,1.328,1.142,1.256,1.256,0,0,1-1.142,1.328m1.046.5a1.34,1.34,0,0,0-.86-.258,1.345,1.345,0,0,0-.974.6l-1.232,2.453-1.677,1.172a.6.6,0,0,0-.222.481.531.531,0,0,0,.6.493.546.546,0,0,0,.258-.084l1.809-1.232a.656.656,0,0,0,.138-.174l.469-.914.553,2.441-2.182,2.585a1.181,1.181,0,0,0-.108.258l-.589,3.114v.174a.848.848,0,0,0,.9.775.865.865,0,0,0,.751-.655l.553-2.9,1.773-1.972.409,1.894a1.835,1.835,0,0,0,.174.343l1.689,2.879a.821.821,0,0,0,.775.4.832.832,0,0,0,.775-.9,1.144,1.144,0,0,0-.12-.367l-1.587-2.645-1.317-5.837.86.691.469,2.08a.6.6,0,0,0,.589.469.564.564,0,0,0,.517-.6.179.179,0,0,0-.012-.072l-.529-2.423a.511.511,0,0,0-.174-.258Z" transform="translate(268.593 360.93)" fill="rgba(0,0,0,0)" stroke="#ed1c24" stroke-width="0.5"/>
  </g>
</svg>
