<svg xmlns="http://www.w3.org/2000/svg" width="103.793" height="103.607" viewBox="0 0 103.793 103.607">
  <g id="data-center-visit-lg" transform="translate(-113.503 -418.502)">
    <path id="Subtraction_53" data-name="Subtraction 53" d="M15576.85-1487.392c-12.221,0-23.013-1.86-31.21-5.378a33.308,33.308,0,0,1-9.563-5.952,16.942,16.942,0,0,1-4.908-7.444l-.114-.381v-.4l-.043-16.173c-.02-15.867-.008-31.929.035-47.741-.017-.158-.026-.327-.031-.546,0-2.105,1.192-4.148,3.539-6.07a31.748,31.748,0,0,1,9.642-4.956c8.5-2.944,19.791-4.566,31.806-4.566s23.31,1.621,31.8,4.566a31.739,31.739,0,0,1,9.64,4.956c2.345,1.923,3.534,3.965,3.534,6.07a5.761,5.761,0,0,1-.087,1,2.408,2.408,0,0,1,.106.743l-.062,19.71a33.844,33.844,0,0,0-6.21.912l.052-14.453c-3.917,2.3-9.5,4.22-16.137,5.563a116.423,116.423,0,0,1-22.641,2.115,116.407,116.407,0,0,1-22.56-2.1c-6.618-1.333-12.19-3.242-16.112-5.521l-.016,9.795-.008,4.976v.008c2.067,2.172,5.882,4.506,10.464,6.4a65.531,65.531,0,0,0,17.272,4.4,88.57,88.57,0,0,0,10.205.6,83.943,83.943,0,0,0,12.795-.971,74.944,74.944,0,0,0,11.791-2.8,33.779,33.779,0,0,0-6.861,8.876,91.369,91.369,0,0,1-17.121,1.583,98.617,98.617,0,0,1-11.414-.668,78.3,78.3,0,0,1-15.748-3.435,43.292,43.292,0,0,1-11.383-5.553v13.484c2.062,2.173,5.875,4.51,10.461,6.411a65.615,65.615,0,0,0,17.275,4.41,88.479,88.479,0,0,0,10.186.593,83.6,83.6,0,0,0,13.771-1.128v.2a34.114,34.114,0,0,0,.644,6.6,93.072,93.072,0,0,1-13.844,1.021,98.657,98.657,0,0,1-11.362-.661,78.541,78.541,0,0,1-15.734-3.439,43.27,43.27,0,0,1-11.381-5.553l.03,10.885a12.019,12.019,0,0,0,4.212,5.333,30.639,30.639,0,0,0,8.3,4.331c7.175,2.6,16.5,3.971,26.982,3.971a83.24,83.24,0,0,0,19.1-1.969,33.945,33.945,0,0,0,4.894,5.159C15594.218-1488.374,15586.818-1487.392,15576.85-1487.392Zm-.849-93.316a106.978,106.978,0,0,0-15.107,1.035,68.458,68.458,0,0,0-12.516,2.886,24.923,24.923,0,0,0-7.324,3.7c-1.04.846-1.41,1.421-1.41,1.678s.369.831,1.41,1.686a25.035,25.035,0,0,0,7.324,3.693,68.067,68.067,0,0,0,12.516,2.889,107.117,107.117,0,0,0,15.107,1.032,106.936,106.936,0,0,0,15.106-1.035,68.451,68.451,0,0,0,12.517-2.886,24.935,24.935,0,0,0,7.323-3.7c1.042-.847,1.411-1.433,1.411-1.678s-.369-.831-1.411-1.686a25.046,25.046,0,0,0-7.323-3.693,68.067,68.067,0,0,0-12.517-2.889A107.1,107.1,0,0,0,15576-1580.708Zm31.359,31.933h-.026a2.705,2.705,0,0,1-2.7-2.664,2.7,2.7,0,0,1,2.727-2.66,2.7,2.7,0,0,1,2.73,2.66A2.7,2.7,0,0,1,15607.36-1548.775Z" transform="translate(-15415.5 2007.5)" fill="#ed1c24" stroke="#fff" stroke-linecap="round" stroke-linejoin="round" stroke-width="4"/>
    <path id="visit" d="M-123.139,77.363a4.034,4.034,0,0,1-4.305-3.7,4.034,4.034,0,0,1,3.7-4.305,4.034,4.034,0,0,1,4.305,3.7,4.069,4.069,0,0,1-3.7,4.305m3.39,1.636a4.344,4.344,0,0,0-2.786-.838,4.357,4.357,0,0,0-3.156,1.948l-3.994,7.948-5.435,3.8a1.947,1.947,0,0,0-.721,1.558,1.72,1.72,0,0,0,1.948,1.6,1.77,1.77,0,0,0,.838-.273l5.864-3.994a2.125,2.125,0,0,0,.448-.565l1.52-2.961,1.792,7.909-7.071,8.377a3.831,3.831,0,0,0-.351.838l-1.909,10.091V115a2.749,2.749,0,0,0,2.9,2.513,2.8,2.8,0,0,0,2.435-2.123l1.792-9.409,5.747-6.39,1.325,6.136a5.954,5.954,0,0,0,.565,1.11l5.474,9.331a2.661,2.661,0,0,0,2.513,1.286,2.7,2.7,0,0,0,2.513-2.9,3.708,3.708,0,0,0-.39-1.188l-5.143-8.571-4.266-18.916,2.786,2.24,1.52,6.74a1.929,1.929,0,0,0,1.909,1.52,1.829,1.829,0,0,0,1.675-1.948.58.58,0,0,0-.039-.234l-1.714-7.851a1.655,1.655,0,0,0-.565-.838Z" transform="translate(323.782 396.406)" fill="rgba(0,0,0,0)" stroke="#ed1c24" stroke-width="2"/>
  </g>
</svg>
