<svg xmlns="http://www.w3.org/2000/svg" width="28.896" height="27.363" viewBox="0 0 28.896 27.363">
  <g id="data-center-upgrade-sm" transform="translate(-256.104 -457.099)">
    <path id="Subtraction_52" data-name="Subtraction 52" d="M15543.226-1560.437a21.541,21.541,0,0,1-8.32-1.434c-2.09-.9-3.424-2.133-3.857-3.573l-.031-.1v-.105l-.012-4.316c-.008-3.915,0-8.079.008-12.729,0-.05-.008-.1-.008-.145,0-2.294,5.385-4.16,11.994-4.16s12,1.866,12,4.16a1.477,1.477,0,0,1-.023.266.671.671,0,0,1,.031.2l-.021,6.427a9.165,9.165,0,0,0-.983-.053,9.029,9.029,0,0,0-2.277.291,14.253,14.253,0,0,0,1.605-.943l.016-4.078c-2.151,1.263-6.115,2.047-10.343,2.047-4.2,0-8.152-.778-10.311-2.031,0,.656,0,1.323,0,1.968s0,1.313,0,1.969c1.075,1.132,3.962,2.486,7.4,2.882a23.64,23.64,0,0,0,2.729.159,21.286,21.286,0,0,0,6.653-1.037,9.119,9.119,0,0,0-2.788,2.547,24.7,24.7,0,0,1-3.705.276,26.191,26.191,0,0,1-3.049-.179,16.15,16.15,0,0,1-7.237-2.4v3.6c1.072,1.129,3.958,2.482,7.4,2.882a23.63,23.63,0,0,0,2.718.158c.758,0,1.518-.038,2.259-.112a9.027,9.027,0,0,0-.056,1c0,.269.012.541.036.809-.691.057-1.395.086-2.091.086a26.315,26.315,0,0,1-3.026-.176,16.217,16.217,0,0,1-7.229-2.4l.007,2.9c.358,1.011,1.544,1.926,3.339,2.576a21.658,21.658,0,0,0,7.191,1.06,25.961,25.961,0,0,0,3.092-.173,9.058,9.058,0,0,0,1.2,1.551A24.8,24.8,0,0,1,15543.226-1560.437Zm-.227-24.884a23.9,23.9,0,0,0-7.366,1.043,6.746,6.746,0,0,0-1.953.988c-.347.286-.374.416-.374.449,0,.052.079.205.374.449a6.788,6.788,0,0,0,1.953.984,23.429,23.429,0,0,0,7.366,1.047,23.852,23.852,0,0,0,7.367-1.047,6.632,6.632,0,0,0,1.952-.988c.3-.239.375-.393.375-.445,0-.068-.1-.222-.375-.449a6.648,6.648,0,0,0-1.952-.988A23.408,23.408,0,0,0,15543-1585.321Zm8.362,8.515h-.007a.721.721,0,0,1-.72-.711.72.72,0,0,1,.727-.711.722.722,0,0,1,.73.711A.722.722,0,0,1,15551.361-1576.806Z" transform="translate(-15274.5 2044.5)" fill="#ed1c24" stroke="#fff" stroke-linecap="round" stroke-linejoin="round" stroke-width="0.8"/>
    <path id="up-arrow-1" d="M9.5,15.375a.687.687,0,0,0,.486-.2L14.8,10.361a.687.687,0,0,0-.972-.972l-3.639,3.639V3.687a.688.688,0,1,0-1.375,0v9.34L5.174,9.389a.687.687,0,0,0-.972.972l4.813,4.813A.687.687,0,0,0,9.5,15.375Z" transform="translate(270 467.781)" fill="#ed1c24" fill-rule="evenodd"/>
  </g>
</svg>
