<svg xmlns="http://www.w3.org/2000/svg" width="99" height="113" viewBox="0 0 38 27.974">
  <g id="Group_22711" data-name="Group 22711" transform="translate(-151.5 -560)">
    <path id="Path_79038" data-name="Path 79038" d="M9.37,267.712H.509c-.371,0-.478.108-.478.482q0,2.2,0,4.391,0,2.217,0,4.434c0,.374.108.483.477.483H9.37c.355,0,.467-.113.467-.472q0-4.423,0-8.847c0-.359-.111-.472-.467-.472m-5.837,1.046c0-.347,0-.347.353-.347.765,0,1.53,0,2.294,0,.121,0,.159.028.158.154-.006.814,0,1.629,0,2.477-.407-.163-.791-.312-1.172-.471a.557.557,0,0,0-.461,0c-.379.161-.764.308-1.169.469Zm5.428,8.049q-4.027-.006-8.054,0c-.143,0-.179-.037-.178-.179.006-1.348,0-2.7,0-4.043,0-1.326,0-2.651,0-3.977,0-.164.038-.2.2-.2.576.011,1.153.009,1.729,0,.144,0,.179.038.178.179-.006.954,0,1.908,0,2.862,0,.4.209.54.58.394.453-.179.906-.358,1.356-.544a.4.4,0,0,1,.332,0c.456.191.915.373,1.375.555.341.135.558-.014.559-.382,0-.954.005-1.908,0-2.863,0-.165.04-.2.2-.2.576.011,1.153.01,1.729,0,.145,0,.178.039.178.18q-.006,4.021,0,8.042c0,.144-.038.178-.179.178" transform="translate(151.469 310.471)" fill="#ed1c26"/>
    <path id="Path_79040" data-name="Path 79040" d="M9.37,267.712H.509c-.371,0-.478.108-.478.482q0,2.2,0,4.391,0,2.217,0,4.434c0,.374.108.483.477.483H9.37c.355,0,.467-.113.467-.472q0-4.423,0-8.847c0-.359-.111-.472-.467-.472m-5.837,1.046c0-.347,0-.347.353-.347.765,0,1.53,0,2.294,0,.121,0,.159.028.158.154-.006.814,0,1.629,0,2.477-.407-.163-.791-.312-1.172-.471a.557.557,0,0,0-.461,0c-.379.161-.764.308-1.169.469Zm5.428,8.049q-4.027-.006-8.054,0c-.143,0-.179-.037-.178-.179.006-1.348,0-2.7,0-4.043,0-1.326,0-2.651,0-3.977,0-.164.038-.2.2-.2.576.011,1.153.009,1.729,0,.144,0,.179.038.178.179-.006.954,0,1.908,0,2.862,0,.4.209.54.58.394.453-.179.906-.358,1.356-.544a.4.4,0,0,1,.332,0c.456.191.915.373,1.375.555.341.135.558-.014.559-.382,0-.954.005-1.908,0-2.863,0-.165.04-.2.2-.2.576.011,1.153.01,1.729,0,.145,0,.178.039.178.18q-.006,4.021,0,8.042c0,.144-.038.178-.179.178" transform="translate(164.953 310.471)" fill="#ed1c26"/>
    <path id="Path_79041" data-name="Path 79041" d="M9.37,267.712H.509c-.371,0-.478.108-.478.482q0,2.2,0,4.391,0,2.217,0,4.434c0,.374.108.483.477.483H9.37c.355,0,.467-.113.467-.472q0-4.423,0-8.847c0-.359-.111-.472-.467-.472m-5.837,1.046c0-.347,0-.347.353-.347.765,0,1.53,0,2.294,0,.121,0,.159.028.158.154-.006.814,0,1.629,0,2.477-.407-.163-.791-.312-1.172-.471a.557.557,0,0,0-.461,0c-.379.161-.764.308-1.169.469Zm5.428,8.049q-4.027-.006-8.054,0c-.143,0-.179-.037-.178-.179.006-1.348,0-2.7,0-4.043,0-1.326,0-2.651,0-3.977,0-.164.038-.2.2-.2.576.011,1.153.009,1.729,0,.144,0,.179.038.178.179-.006.954,0,1.908,0,2.862,0,.4.209.54.58.394.453-.179.906-.358,1.356-.544a.4.4,0,0,1,.332,0c.456.191.915.373,1.375.555.341.135.558-.014.559-.382,0-.954.005-1.908,0-2.863,0-.165.04-.2.2-.2.576.011,1.153.01,1.729,0,.145,0,.178.039.178.18q-.006,4.021,0,8.042c0,.144-.038.178-.179.178" transform="translate(179.662 310.471)" fill="#ed1c26"/>
    <path id="Path_79039" data-name="Path 79039" d="M13.075,2.963c0-.426-.065-.525-.455-.676Q9.731,1.174,6.841.062a.766.766,0,0,0-.59,0Q3.338,1.189.419,2.3A.577.577,0,0,0,0,2.919c.006,2.4,0,4.8,0,7.207,0,.383.081.492.45.606,1.76.543,3.518,1.092,5.283,1.619l1.483.05q2.657-.806,5.31-1.629c.483-.149.546-.236.546-.747q0-3.531,0-7.061m-7,8.522L4.35,10.956c-1.074-.33-2.146-.665-3.223-.987A.223.223,0,0,1,.934,9.71q.007-3.09,0-6.18a1.061,1.061,0,0,1,.014-.111l2.082.643c.944.291,1.887.584,2.833.869.136.041.21.082.209.248-.006,2.089,0,4.178,0,6.305M6.321,4.1C4.877,3.648,3.431,3.207,1.9,2.738L3.37,2.173q1.478-.57,2.956-1.14a.491.491,0,0,1,.389-.019C8.14,1.57,9.57,2.117,11,2.668c.034.013.066.034.154.079L9.661,3.2c-.963.3-1.927.592-2.889.893a.717.717,0,0,1-.452,0M12,9.957c-1.657.5-3.313,1.014-5,1.532v-.276c0-1.982,0-3.965-.005-5.947,0-.214.063-.292.267-.353,1.539-.463,3.074-.942,4.61-1.416.081-.025.165-.042.264-.066V7.877c0,.612,0,1.224,0,1.837,0,.111,0,.2-.138.244" transform="translate(163.554 560)" fill="#ed1c26"/>
    <line id="Line_912" data-name="Line 912" y2="7.355" transform="translate(170.091 567.151)" fill="none" stroke="#ed1c26" stroke-width="0.6"/>
    <line id="Line_914" data-name="Line 914" y2="3.987" transform="translate(156 574.5)" fill="none" stroke="#ed1c26" stroke-width="0.6"/>
    <line id="Line_915" data-name="Line 915" y2="3.987" transform="translate(170.091 574.097)" fill="none" stroke="#ed1c26" stroke-width="0.6"/>
    <line id="Line_916" data-name="Line 916" y2="3.987" transform="translate(184.193 574.5)" fill="none" stroke="#ed1c26" stroke-width="0.6"/>
    <line id="Line_913" data-name="Line 913" x2="28.194" transform="translate(156 574.5)" fill="none" stroke="#ed1c26" stroke-linecap="round" stroke-width="0.6"/>
  </g>
</svg>
