<svg xmlns="http://www.w3.org/2000/svg" width="150" height="150" viewBox="0 0 150 150">
  <g id="downgrade" transform="translate(-96.936 -326.736)">
    <g id="Group_160608" data-name="Group 160608" transform="translate(178.497 326.736) rotate(50)">
      <g id="Ellipse_563" data-name="Ellipse 563" transform="translate(0)" fill="rgba(255,255,255,0)" stroke="#ed1c26" stroke-width="1">
        <circle cx="53.236" cy="53.236" r="53.236" stroke="none"/>
        <circle cx="53.236" cy="53.236" r="52.736" fill="none"/>
      </g>
      <line id="Line_1060" data-name="Line 1060" y2="30.432" transform="translate(28.945 67.775)" fill="#fff" stroke="#ed1c26" stroke-linecap="round" stroke-width="1"/>
      <line id="Line_1061" data-name="Line 1061" y2="33.381" transform="translate(70.94 67.777)" fill="#fff" stroke="#ed1c26" stroke-linecap="round" stroke-width="1"/>
      <path id="Path_79120" data-name="Path 79120" d="M0,0S8.715.734,8.451,18.9" transform="translate(29.501 46.495)" fill="none" stroke="#ed1c26" stroke-linecap="round" stroke-width="1"/>
      <g id="Ellipse_562" data-name="Ellipse 562" transform="translate(22.76 42.356)" fill="#ed1c26" stroke="#ed1c26" stroke-width="1">
        <circle cx="4.032" cy="4.032" r="4.032" stroke="none"/>
        <circle cx="4.032" cy="4.032" r="3.532" fill="none"/>
      </g>
      <path id="Path_79120-2" data-name="Path 79120" d="M8.455,0S-.26.734.006,18.9" transform="translate(62.369 46.495)" fill="none" stroke="#ed1c26" stroke-linecap="round" stroke-width="1"/>
      <g id="Ellipse_562-2" data-name="Ellipse 562" transform="translate(66.908 44.245)" fill="#ed1c26" stroke="#ed1c26" stroke-width="1">
        <circle cx="4.032" cy="4.032" r="4.032" stroke="none"/>
        <circle cx="4.032" cy="4.032" r="3.532" fill="none"/>
      </g>
      <path id="Path_79120-3" data-name="Path 79120" d="M0,0S8.715.734,8.451,18.9c-.26,18.148,0,.574,0,.574" transform="translate(36.75 38.691)" fill="none" stroke="#ed1c26" stroke-linecap="round" stroke-width="1"/>
      <g id="Ellipse_562-3" data-name="Ellipse 562" transform="translate(30.01 34.069)" fill="#ed1c26" stroke="#ed1c26" stroke-width="1">
        <circle cx="4.032" cy="4.032" r="4.032" stroke="none"/>
        <circle cx="4.032" cy="4.032" r="3.532" fill="none"/>
      </g>
      <g id="Ellipse_562-4" data-name="Ellipse 562" transform="translate(46.874 28.893)" fill="#ed1c26" stroke="#ed1c26" stroke-width="1">
        <circle cx="4.032" cy="4.032" r="4.032" stroke="none"/>
        <circle cx="4.032" cy="4.032" r="3.532" fill="none"/>
      </g>
      <path id="Path_79120-4" data-name="Path 79120" d="M8.455,0S-.26.734.006,18.9c.26,18.148,0,.574,0,.574" transform="translate(56.674 38.691)" fill="none" stroke="#ed1c26" stroke-linecap="round" stroke-width="1"/>
      <g id="Ellipse_562-5" data-name="Ellipse 562" transform="translate(61.101 34.872)" fill="#ed1c26" stroke="#ed1c26" stroke-width="1">
        <circle cx="4.032" cy="4.032" r="4.032" stroke="none"/>
        <circle cx="4.032" cy="4.032" r="3.532" fill="none"/>
      </g>
      <path id="Path_79121" data-name="Path 79121" d="M0,0V31.551" transform="translate(50.981 34.752)" fill="none" stroke="#ed1c26" stroke-linecap="round" stroke-width="1"/>
      <path id="Path_79122" data-name="Path 79122" d="M4.773,0s-6,.4-4.547,4.324c1.451,3.875,31.479,8.922,42.033,0C44.367.391,38.275,0,38.275,0" transform="translate(28.556 63.297)" fill="none" stroke="#ed1c26" stroke-linecap="round" stroke-linejoin="round" stroke-width="1"/>
    </g>
    <g id="Group_160609" data-name="Group 160609" transform="translate(206.033 380.903)">
      <g id="Path_79125" data-name="Path 79125" transform="translate(-6443.704 16542.814)" fill="#fff" stroke-linecap="round" stroke-linejoin="round">
        <path d="M 6458.07275390625 -16479.01171875 L 6456.20361328125 -16483.916015625 L 6444.09423828125 -16515.6953125 L 6443.06103515625 -16518.408203125 L 6445.96337890625 -16518.408203125 L 6453.25341796875 -16518.408203125 L 6453.25341796875 -16550.77734375 L 6453.25341796875 -16552.77734375 L 6455.25341796875 -16552.77734375 L 6460.97509765625 -16552.77734375 L 6462.97509765625 -16552.77734375 L 6462.97509765625 -16550.77734375 L 6462.97509765625 -16518.408203125 L 6470.18212890625 -16518.408203125 L 6473.08447265625 -16518.408203125 L 6472.05126953125 -16515.6953125 L 6459.94189453125 -16483.916015625 L 6458.07275390625 -16479.01171875 Z" stroke="none"/>
        <path d="M 6455.25341796875 -16550.77734375 L 6455.25341796875 -16516.408203125 L 6445.96337890625 -16516.408203125 L 6458.07275390625 -16484.62890625 L 6470.18212890625 -16516.408203125 L 6460.97509765625 -16516.408203125 L 6460.97509765625 -16550.77734375 L 6455.25341796875 -16550.77734375 M 6455.25341796875 -16554.77734375 L 6460.97509765625 -16554.77734375 C 6463.18408203125 -16554.77734375 6464.97509765625 -16552.986328125 6464.97509765625 -16550.77734375 L 6464.97509765625 -16520.408203125 L 6470.18212890625 -16520.408203125 C 6471.49755859375 -16520.408203125 6472.7294921875 -16519.76171875 6473.47607421875 -16518.677734375 C 6474.22216796875 -16517.59375 6474.388671875 -16516.212890625 6473.919921875 -16514.984375 L 6461.810546875 -16483.205078125 C 6461.2197265625 -16481.654296875 6459.732421875 -16480.62890625 6458.07275390625 -16480.62890625 C 6456.4130859375 -16480.62890625 6454.92578125 -16481.654296875 6454.3349609375 -16483.205078125 L 6442.2255859375 -16514.984375 C 6441.7568359375 -16516.212890625 6441.92333984375 -16517.59375 6442.66943359375 -16518.677734375 C 6443.416015625 -16519.76171875 6444.64794921875 -16520.408203125 6445.96337890625 -16520.408203125 L 6451.25341796875 -16520.408203125 L 6451.25341796875 -16550.77734375 C 6451.25341796875 -16552.986328125 6453.04443359375 -16554.77734375 6455.25341796875 -16554.77734375 Z" stroke="none" fill="#fff"/>
      </g>
      <g id="Path_79123" data-name="Path 79123" transform="translate(-6445.962 16550.773)" fill="#fff" stroke-linecap="round" stroke-linejoin="round">
        <path d="M 6462.3232421875 -16507.99609375 L 6461.93505859375 -16508.474609375 L 6445.57373046875 -16528.646484375 L 6444.91259765625 -16529.4609375 L 6445.9619140625 -16529.4609375 L 6458.0146484375 -16529.4609375 L 6458.0146484375 -16550.7734375 L 6458.0146484375 -16551.2734375 L 6458.5146484375 -16551.2734375 L 6466.2412109375 -16551.2734375 L 6466.7412109375 -16551.2734375 L 6466.7412109375 -16550.7734375 L 6466.7412109375 -16529.4609375 L 6478.6845703125 -16529.4609375 L 6479.73388671875 -16529.4609375 L 6479.07275390625 -16528.646484375 L 6462.71142578125 -16508.474609375 L 6462.3232421875 -16507.99609375 Z" stroke="none"/>
        <path d="M 6458.5146484375 -16550.7734375 L 6458.5146484375 -16528.9609375 L 6445.9619140625 -16528.9609375 L 6462.3232421875 -16508.7890625 L 6478.6845703125 -16528.9609375 L 6466.2412109375 -16528.9609375 L 6466.2412109375 -16550.7734375 L 6458.5146484375 -16550.7734375 M 6458.5146484375 -16551.7734375 L 6466.2412109375 -16551.7734375 C 6466.79345703125 -16551.7734375 6467.2412109375 -16551.326171875 6467.2412109375 -16550.7734375 L 6467.2412109375 -16529.9609375 L 6478.6845703125 -16529.9609375 C 6479.0703125 -16529.9609375 6479.42138671875 -16529.73828125 6479.58740234375 -16529.390625 C 6479.75341796875 -16529.04296875 6479.7041015625 -16528.630859375 6479.46142578125 -16528.330078125 L 6463.10009765625 -16508.158203125 C 6462.91015625 -16507.92578125 6462.62451171875 -16507.7890625 6462.3232421875 -16507.7890625 C 6462.02197265625 -16507.7890625 6461.736328125 -16507.92578125 6461.54638671875 -16508.158203125 L 6445.18505859375 -16528.330078125 C 6444.9423828125 -16528.630859375 6444.89306640625 -16529.04296875 6445.05908203125 -16529.390625 C 6445.22509765625 -16529.73828125 6445.576171875 -16529.9609375 6445.9619140625 -16529.9609375 L 6457.5146484375 -16529.9609375 L 6457.5146484375 -16550.7734375 C 6457.5146484375 -16551.326171875 6457.96240234375 -16551.7734375 6458.5146484375 -16551.7734375 Z" stroke="none" fill="#ed1c26"/>
      </g>
    </g>
  </g>
</svg>
