<?xml version="1.0" encoding="UTF-8"?>
<svg viewBox="0 0 568 218" version="1.1" xmlns="http://www.w3.org/2000/svg" xmlns:xlink="http://www.w3.org/1999/xlink">
    <title>DPO</title>
    <g id="Page-1" stroke="none" stroke-width="1" fill="none" fill-rule="evenodd">
        <g id="DPO" transform="translate(0.388054, 0.728500)">
            <path d="M189.111946,102.2715 C203.333278,102.2715 216.208278,108.035834 225.527945,117.355501 C234.847612,126.675168 240.611946,139.550168 240.611946,153.7715 C240.611946,167.992833 234.847612,180.867833 225.527945,190.1875 C216.208278,199.507166 203.333278,205.2715 189.111946,205.2715 L189.111946,205.2715 L126.611946,205.2715 L126.611946,102.2715 Z" id="Rectangle" stroke="#233662" stroke-width="22"></path>
            <path d="M503.966628,102.2715 C518.18796,102.2715 531.06296,108.035834 540.382627,117.355501 C549.702294,126.675168 555.466628,139.550168 555.466628,153.7715 C555.466628,167.992833 549.702294,180.867833 540.382627,190.1875 C531.06296,199.507166 518.18796,205.2715 503.966628,205.2715 L503.966628,205.2715 L475.111946,205.2715 C460.890613,205.2715 448.015613,199.507166 438.695946,190.1875 C429.376279,180.867833 423.611946,167.992833 423.611946,153.7715 C423.611946,139.550168 429.376279,126.675168 438.695946,117.355501 C448.015613,108.035834 460.890613,102.2715 475.111946,102.2715 L475.111946,102.2715 Z" id="Rectangle" stroke="#233662" stroke-width="22"></path>
            <path d="M276.111946,172.447971 L276.111946,102.09503 L348.406063,102.09503 C368.954305,102.09503 385.611946,117.844072 385.611946,137.2715 C385.611946,156.698929 368.954305,172.447971 348.406063,172.447971 L307.000186,172.447971" id="Path" stroke="#233662" stroke-width="22"></path>
            <rect id="Rectangle" fill="#233662" x="264.611946" y="91.2715003" width="23" height="125"></rect>
            <path d="M34.506719,69.5568101 C34.506719,77.8864209 23.0044794,95.4579843 0,122.2715 L27.5031204,99.658705 L27.5031204,110.742702 C32.969765,106.341642 36.7986387,102.646976 38.9897417,99.658705 C41.1808446,96.6704337 43.2830936,92.2761118 45.2964887,86.4757394 C55.0684988,86.3422092 62.5943324,83.7858749 67.8739894,78.8067364 C75.793475,71.3380287 77.9450657,55.3484669 84.3403397,49.6542681 C88.1775041,46.2377489 94.588224,44.4424281 103.572499,44.2683056 C103.802573,44.1833202 103.98671,43.9919047 103.982221,43.760271 C103.978699,43.5785306 103.858526,43.4197376 103.684578,43.3669728 L95.1391474,40.7748276 L95.1391474,40.7748276 C93.7593002,35.6821455 90.6647335,32.4080218 85.8554473,30.9524566 C81.0461611,29.4968915 76.2158623,30.3724974 71.3645506,33.5792744 L60.8208901,3.80745425 C60.7287049,3.54715348 60.4429585,3.41086894 60.1826577,3.5030542 C59.9938343,3.56992582 59.8631471,3.74303728 59.8505617,3.94295653 L57.5319156,40.7748276 L57.5319156,40.7748276 C41.2186218,32.6723014 29.3300004,25.976061 21.8660514,20.6861062 C14.8703305,15.7280006 8.02857501,9.35958468 1.3407849,1.58085852 L1.34081764,1.58083037 C1.16077605,1.37141976 0.845062653,1.34761146 0.635652037,1.52765305 C0.493840021,1.64957649 0.431917298,1.84044332 0.475142416,2.02239816 C5.09888618,21.4859082 9.57476176,33.977682 13.9027692,39.4977196 C21.8660514,49.6542681 34.506719,64.2009019 34.506719,69.5568101 Z" id="Path-2" fill="#3675B1"></path>
        </g>
    </g>
</svg>