<svg xmlns="http://www.w3.org/2000/svg" width="106" height="106" viewBox="0 0 24.02 16.013"><defs><style>.a{fill:#ed1c26;}</style></defs><g transform="translate(0 -85.333)"><g transform="translate(0 85.333)"><path class="a" d="M22.788,85.333H1.232A1.235,1.235,0,0,0,0,86.565v13.55a1.235,1.235,0,0,0,1.232,1.232H22.788a1.235,1.235,0,0,0,1.232-1.232V86.565A1.235,1.235,0,0,0,22.788,85.333Zm-.462.924-9.607,7.206a1.288,1.288,0,0,1-1.417,0L1.694,86.257Zm-5.132,7.682,5.235,6.467c.005.006.012.011.017.017H1.574c.006-.006.012-.011.017-.017l5.235-6.467a.462.462,0,0,0-.718-.581l-5.184,6.4V86.834L10.747,94.2a2.2,2.2,0,0,0,2.525,0L23.1,86.834V99.761l-5.184-6.4a.462.462,0,0,0-.718.581Z" transform="translate(0 -85.333)"/></g></g></svg>