<svg width="21" height="21" viewBox="0 0 21 21" fill="none" xmlns="http://www.w3.org/2000/svg">
<path d="M9.25 14.2496H11.2496V16.2493H9.25V14.2496ZM10.2504 0.25C8.27248 0.25 6.33902 0.836511 4.69446 1.93537C3.04991 3.03422 1.76814 4.59606 1.01124 6.42339C0.254333 8.25072 0.0562924 10.2615 0.442159 12.2013C0.828025 14.1412 1.78047 15.9231 3.17904 17.3217C4.57762 18.7203 6.35951 19.6727 8.29939 20.0586C10.2393 20.4444 12.25 20.2464 14.0773 19.4895C15.9047 18.7326 17.4665 17.4508 18.5654 15.8063C19.6642 14.1617 20.2507 12.2282 20.2507 10.2504C20.2499 7.59837 19.196 5.05524 17.3207 3.18C15.4455 1.30475 12.9024 0.250867 10.2504 0.25ZM10.2504 18.25C8.66819 18.25 7.12154 17.7808 5.80601 16.9018C4.49047 16.0228 3.46514 14.7734 2.85967 13.3117C2.25419 11.8499 2.09577 10.2415 2.40444 8.68971C2.71311 7.13793 3.475 5.71254 4.59377 4.59377C5.71254 3.475 7.13794 2.71311 8.68972 2.40444C10.2415 2.09577 11.85 2.25419 13.3117 2.85966C14.7734 3.46514 16.0228 4.49047 16.9018 5.806C17.7808 7.12154 18.25 8.66819 18.25 10.2504C18.2471 12.3711 17.4034 14.4042 15.9038 15.9038C14.4042 17.4034 12.3711 18.2471 10.2504 18.25ZM10.2504 4.25036C9.72508 4.25022 9.20492 4.35356 8.71958 4.55448C8.23424 4.7554 7.79323 5.04996 7.42175 5.42134C7.05027 5.79272 6.75559 6.23364 6.55454 6.71893C6.35349 7.20421 6.25 7.72435 6.25 8.24964H8.24964C8.24964 7.71916 8.46037 7.2104 8.83548 6.83529C9.21059 6.46019 9.71934 6.24945 10.2498 6.24945C10.7803 6.24945 11.2891 6.46019 11.6642 6.83529C12.0393 7.2104 12.25 7.71916 12.25 8.24964C12.25 10.2493 9.25 9.99509 9.25 13.2493H11.2496C11.2496 10.9998 14.2496 10.7489 14.2496 8.24964C14.2496 7.72444 14.1462 7.20439 13.9452 6.71918C13.7442 6.23397 13.4496 5.79309 13.0783 5.42172C12.7069 5.05036 12.266 4.75577 11.7808 4.55479C11.2956 4.35381 10.7756 4.25036 10.2504 4.25036Z" fill="#1F2436" stroke="white" stroke-width="0.5"/>
</svg>
