<svg width="25" height="19" viewBox="0 0 25 19" fill="none" xmlns="http://www.w3.org/2000/svg">
<path d="M8.39731 3.07714C8.89133 2.58306 9.47784 2.19114 10.1233 1.92374C10.7688 1.65635 11.4607 1.51872 12.1594 1.51872C12.8581 1.51872 13.5499 1.65635 14.1954 1.92374C14.8409 2.19114 15.4274 2.58306 15.9214 3.07714C15.9913 3.15064 16.0752 3.20942 16.1682 3.24999C16.2612 3.29057 16.3613 3.31213 16.4628 3.31341C16.5642 3.31468 16.6648 3.29564 16.7588 3.25741C16.8528 3.21919 16.9381 3.16254 17.0098 3.09082C17.0816 3.01909 17.1382 2.93373 17.1764 2.83978C17.2147 2.74582 17.2337 2.64517 17.2324 2.54374C17.2311 2.44231 17.2096 2.34216 17.169 2.2492C17.1284 2.15623 17.0697 2.07233 16.9962 2.00243C15.713 0.720244 13.9733 0 12.1594 0C10.3454 0 8.60571 0.720244 7.32259 2.00243C7.18594 2.14613 7.11085 2.33754 7.11334 2.53583C7.11583 2.73412 7.19571 2.92358 7.33593 3.0638C7.47615 3.20402 7.66562 3.2839 7.86391 3.28639C8.06219 3.28888 8.25361 3.21379 8.39731 3.07714Z" fill="#ED1C24"/>
<path d="M10.5477 5.22809C10.9751 4.80181 11.5541 4.56242 12.1577 4.56242C12.7614 4.56242 13.3404 4.80181 13.7678 5.22809C13.9106 5.37024 14.1039 5.44995 14.3054 5.44973C14.5068 5.4495 14.7 5.36937 14.8425 5.22691C14.9849 5.08445 15.0651 4.89129 15.0653 4.68981C15.0655 4.48834 14.9858 4.29501 14.8436 4.15223C14.4908 3.79932 14.0719 3.51937 13.6108 3.32837C13.1498 3.13737 12.6556 3.03906 12.1566 3.03906C11.6575 3.03906 11.1634 3.13737 10.7023 3.32837C10.2413 3.51937 9.82236 3.79932 9.46951 4.15223C9.3353 4.29661 9.26242 4.48748 9.26625 4.68457C9.27008 4.88167 9.35033 5.06956 9.49005 5.20861C9.62978 5.34767 9.81806 5.42701 10.0152 5.42989C10.2123 5.43277 10.4028 5.35898 10.5465 5.22407L10.5477 5.22809ZM3.79924 15.1989C3.64889 15.1989 3.50192 15.1544 3.37691 15.0708C3.2519 14.9873 3.15446 14.8686 3.09693 14.7297C3.03939 14.5908 3.02434 14.4379 3.05367 14.2905C3.083 14.143 3.1554 14.0075 3.26171 13.9012C3.36803 13.7949 3.50348 13.7225 3.65094 13.6932C3.7984 13.6639 3.95124 13.6789 4.09015 13.7365C4.22905 13.794 4.34777 13.8914 4.4313 14.0164C4.51483 14.1414 4.55942 14.2884 4.55942 14.4388C4.55942 14.6404 4.47933 14.8337 4.33677 14.9763C4.1942 15.1188 4.00085 15.1989 3.79924 15.1989ZM10.642 14.4388C10.6423 14.5892 10.6873 14.7361 10.7711 14.8609C10.855 14.9858 10.974 15.0829 11.1131 15.1401C11.2522 15.1973 11.4051 15.2119 11.5526 15.1822C11.7 15.1524 11.8353 15.0796 11.9413 14.9729C12.0473 14.8663 12.1193 14.7305 12.1482 14.5829C12.1771 14.4353 12.1615 14.2825 12.1035 14.1437C12.0454 14.005 11.9476 13.8866 11.8222 13.8035C11.6969 13.7203 11.5497 13.6763 11.3993 13.6769C11.1977 13.6769 11.0043 13.757 10.8618 13.8995C10.7192 14.0421 10.6391 14.2354 10.6391 14.437L10.642 14.4388ZM14.4417 15.1989C14.2914 15.1989 14.1444 15.1544 14.0194 15.0708C13.8944 14.9873 13.7969 14.8686 13.7394 14.7297C13.6819 14.5908 13.6668 14.4379 13.6961 14.2905C13.7255 14.143 13.7979 14.0075 13.9042 13.9012C14.0105 13.7949 14.1459 13.7225 14.2934 13.6932C14.4409 13.6639 14.5937 13.6789 14.7326 13.7365C14.8715 13.794 14.9902 13.8914 15.0738 14.0164C15.1573 14.1414 15.2019 14.2884 15.2019 14.4388C15.2019 14.5388 15.1821 14.6379 15.1437 14.7303C15.1054 14.8228 15.0491 14.9067 14.9782 14.9773C14.9073 15.0479 14.8232 15.1039 14.7306 15.1419C14.6381 15.1799 14.5389 15.1993 14.4388 15.1989H14.4417ZM16.7217 14.4388C16.722 14.5892 16.767 14.7361 16.8508 14.8609C16.9347 14.9858 17.0537 15.0829 17.1928 15.1401C17.3319 15.1973 17.4848 15.2119 17.6323 15.1822C17.7797 15.1524 17.915 15.0796 18.021 14.9729C18.127 14.8663 18.199 14.7305 18.2279 14.5829C18.2567 14.4353 18.2412 14.2825 18.1832 14.1437C18.1251 14.005 18.0272 13.8866 17.9019 13.8035C17.7765 13.7203 17.6294 13.6763 17.479 13.6769C17.3789 13.6769 17.2799 13.6966 17.1875 13.7349C17.0951 13.7733 17.0112 13.8295 16.9406 13.9003C16.87 13.9712 16.8141 14.0552 16.776 14.1477C16.7379 14.2402 16.7185 14.3393 16.7188 14.4393L16.7217 14.4388ZM19.7618 14.4388C19.7621 14.5891 19.8071 14.736 19.8909 14.8609C19.9747 14.9857 20.0937 15.0829 20.2328 15.1401C20.3719 15.1973 20.5248 15.2119 20.6722 15.1822C20.8196 15.1525 20.9549 15.0797 21.0609 14.9731C21.167 14.8665 21.239 14.7309 21.2679 14.5833C21.2969 14.4357 21.2814 14.2829 21.2234 14.1441C21.1655 14.0054 21.0677 13.8869 20.9424 13.8037C20.8172 13.7206 20.67 13.6764 20.5197 13.6769C20.4196 13.6768 20.3205 13.6965 20.2281 13.7348C20.1356 13.7731 20.0516 13.8293 19.981 13.9001C19.9103 13.971 19.8543 14.0551 19.8162 14.1476C19.7781 14.2401 19.7586 14.3393 19.7589 14.4393L19.7618 14.4388Z" fill="#ED1C24"/>
<path d="M4.52081 2.04005C4.49267 1.94135 4.44483 1.84936 4.38018 1.76964C4.31553 1.68992 4.23541 1.62412 4.14465 1.57621C4.05388 1.52829 3.95435 1.49925 3.85206 1.49084C3.74976 1.48243 3.64683 1.49482 3.54945 1.52726C3.45208 1.55971 3.36228 1.61154 3.28548 1.67962C3.20868 1.74771 3.14646 1.83064 3.10257 1.92343C3.05869 2.01621 3.03404 2.11692 3.03013 2.21948C3.02622 2.32204 3.04312 2.42434 3.07981 2.52019L5.78527 10.64H2.27765C1.67337 10.6407 1.09405 10.8811 0.66697 11.3086C0.239893 11.7362 -3.07499e-07 12.3157 0 12.92L0 15.9601C0 16.5648 0.240209 17.1447 0.667783 17.5723C1.09536 17.9999 1.67527 18.2401 2.27995 18.2401H3.04013C3.04013 18.4417 3.12022 18.635 3.26278 18.7776C3.40534 18.9202 3.5987 19.0003 3.80031 19.0003H6.84274C6.94256 19.0003 7.04141 18.9806 7.13364 18.9424C7.22587 18.9042 7.30967 18.8482 7.38026 18.7776C7.45085 18.707 7.50685 18.6232 7.54505 18.531C7.58325 18.4388 7.60291 18.3399 7.60291 18.2401H16.7227C16.7229 18.4412 16.8027 18.6341 16.9448 18.7764C17.0868 18.9188 17.2795 18.9991 17.4806 18.9997H20.5207C20.7223 18.9997 20.9157 18.9196 21.0583 18.777C21.2008 18.6345 21.2809 18.4411 21.2809 18.2395H22.0411C22.6458 18.2395 23.2257 17.9993 23.6533 17.5717C24.0808 17.1442 24.321 16.5642 24.321 15.9596V12.92C24.321 12.3153 24.0808 11.7354 23.6533 11.3078C23.2257 10.8803 22.6458 10.64 22.0411 10.64H18.5352L21.2407 2.52019C21.2773 2.42434 21.2942 2.32204 21.2903 2.21948C21.2864 2.11692 21.2618 2.01621 21.2179 1.92343C21.174 1.83064 21.1118 1.74771 21.035 1.67962C20.9582 1.61154 20.8684 1.55971 20.771 1.52726C20.6736 1.49482 20.5707 1.48243 20.4684 1.49084C20.3661 1.49925 20.2666 1.52829 20.1758 1.57621C20.0851 1.62412 20.0049 1.68992 19.9403 1.76964C19.8756 1.84936 19.8278 1.94135 19.7997 2.04005L16.9372 10.64H7.38268L4.52081 2.04005ZM22.0399 12.1604C22.2415 12.1604 22.4349 12.2405 22.5775 12.3831C22.72 12.5256 22.8001 12.719 22.8001 12.9206V15.9607C22.8001 16.1623 22.72 16.3557 22.5775 16.4982C22.4349 16.6408 22.2415 16.7209 22.0399 16.7209H2.27995C2.07834 16.7209 1.88499 16.6408 1.74243 16.4982C1.59987 16.3557 1.51978 16.1623 1.51978 15.9607V12.92C1.51978 12.7184 1.59987 12.525 1.74243 12.3825C1.88499 12.2399 2.07834 12.1598 2.27995 12.1598L22.0399 12.1604Z" fill="#3F3D56"/>
<path d="M12.9188 6.83928C12.9188 6.98965 12.8742 7.13665 12.7906 7.26167C12.7071 7.38669 12.5883 7.48413 12.4494 7.54164C12.3105 7.59916 12.1576 7.61418 12.0101 7.58481C11.8626 7.55543 11.7272 7.48297 11.6209 7.3766C11.5146 7.27023 11.4422 7.13473 11.413 6.98723C11.3837 6.83973 11.3988 6.68687 11.4565 6.54797C11.5141 6.40908 11.6116 6.2904 11.7367 6.20694C11.8618 6.12347 12.0088 6.07899 12.1592 6.0791C12.3608 6.0791 12.5542 6.15919 12.6967 6.30175C12.8393 6.44431 12.9194 6.63767 12.9194 6.83928H12.9188Z" fill="#ED1C24"/>
</svg>
