<?xml version="1.0" ?><svg viewBox="0 0 512 512" xmlns="http://www.w3.org/2000/svg"><title/><g data-name="1" id="_1"><path d="M371.43,450H142.56a50.17,50.17,0,0,1-50.11-50.11V98.11A50.17,50.17,0,0,1,142.56,48h150.1a15,15,0,0,1,10.61,4.39L417.15,166.27a15,15,0,0,1,4.39,10.61v223A50.17,50.17,0,0,1,371.43,450ZM142.56,78a20.13,20.13,0,0,0-20.11,20.11V399.89A20.13,20.13,0,0,0,142.56,420H371.43a20.13,20.13,0,0,0,20.11-20.11V183.09L286.45,78Z"/><path d="M406.54,191.88H327.77a50.17,50.17,0,0,1-50.11-50.11V63a15,15,0,0,1,30,0v78.77a20.13,20.13,0,0,0,20.11,20.11h78.77a15,15,0,1,1,0,30Z"/><path d="M138.86,267.5c0-4.24,4.5-6.36,9-6.36H175c13.23,0,26.47,4.77,26.47,23.56,0,10.73-4.24,17.74-11.25,20.79,8.07,3,13.63,7.94,13.63,21.18v2.78c0,20.91-11.65,28.45-26.6,28.45H147.86c-5.56,0-9-2.91-9-6.22Zm20.52,30h13.9c5,0,7.54-4.63,7.54-9.13s-2.51-9.27-7.54-9.27h-13.9Zm13.23,42.36c6.62,0,10.59-3.7,10.59-12.18v-2.11c0-9-4-12.18-10.59-12.18H159.38V339.9Z"/><path d="M261.17,323.62a7.6,7.6,0,0,1-6.89,3.84,6.78,6.78,0,0,1-6.48-3.84l-12.58-23v51c0,4.24-5.16,6.35-10.32,6.35s-10.33-2.11-10.33-6.35V271.47c0-7.55,5.17-10.33,10.33-10.33,7.41,0,10.59.8,16,10.33l13.64,23.82,13.63-23.82c5.43-9.53,8.61-10.33,16-10.33,5.29,0,10.32,2.78,10.32,10.33v80.08c0,4.24-5.16,6.35-10.32,6.35s-10.33-2.11-10.33-6.35V301.91Z"/><path d="M308.82,267.36c0-3.31,3-6.22,7.67-6.22H343.9c17.47,0,31.23,8.21,31.23,30.45v.66c0,22.24-14.29,30.71-32.56,30.71h-13.1v28.59c0,4.24-5.17,6.35-10.33,6.35s-10.32-2.11-10.32-6.35Zm20.65,11.78v27.93h13.1c7.41,0,11.92-4.23,11.92-13.23v-1.46c0-9-4.51-13.24-11.92-13.24Z"/></g></svg>