<svg xmlns="http://www.w3.org/2000/svg" width="14.44" height="16.847" viewBox="0 0 14.44 16.847"><path d="M16.371,5.776a2.187,2.187,0,0,1,.451.714,2.17,2.17,0,0,1,.188.827v10.83a.9.9,0,0,1-.9.9H3.473a.9.9,0,0,1-.9-.9V3.106a.9.9,0,0,1,.9-.9H11.9a2.17,2.17,0,0,1,.827.188,2.188,2.188,0,0,1,.715.451ZM12.2,3.482V7.017h3.535a1.027,1.027,0,0,0-.207-.385L12.583,3.689a1.027,1.027,0,0,0-.385-.207Zm3.61,14.365V8.22H11.9a.9.9,0,0,1-.9-.9V3.407H3.774v14.44H15.807Zm-4.832-5.575a7.154,7.154,0,0,0,.79.526,9.329,9.329,0,0,1,1.1-.066q1.382,0,1.664.461a.454.454,0,0,1,.019.489.027.027,0,0,1-.009.019l-.019.019v.009q-.056.357-.667.357a3.878,3.878,0,0,1-1.081-.188,6.855,6.855,0,0,1-1.222-.5,16.928,16.928,0,0,0-3.685.78q-1.438,2.463-2.275,2.463a.547.547,0,0,1-.263-.066L5.1,16.465q-.009-.009-.056-.047a.388.388,0,0,1-.056-.338,2.042,2.042,0,0,1,.526-.86,4.543,4.543,0,0,1,1.241-.907.137.137,0,0,1,.216.056.054.054,0,0,1,.019.038q.489-.8,1.006-1.852a14.349,14.349,0,0,0,.978-2.463,7.6,7.6,0,0,1-.287-1.5,3.655,3.655,0,0,1,.061-1.2q.1-.376.395-.376h.207a.4.4,0,0,1,.329.141.751.751,0,0,1,.085.639.2.2,0,0,1-.038.075.245.245,0,0,1,.009.075V8.23a12.31,12.31,0,0,1-.132,1.8,4.756,4.756,0,0,0,1.373,2.237ZM5.56,16.136A4.151,4.151,0,0,0,6.848,14.65a5.359,5.359,0,0,0-.823.79A3.125,3.125,0,0,0,5.56,16.136ZM9.3,7.487a2.8,2.8,0,0,0-.019,1.241q.009-.066.066-.414,0-.028.066-.4a.211.211,0,0,1,.038-.075.027.027,0,0,1-.009-.019.019.019,0,0,0,0-.014.019.019,0,0,1,0-.014.541.541,0,0,0-.122-.338.027.027,0,0,1-.009.019v.019ZM8.136,13.7a13.789,13.789,0,0,1,2.67-.761,1.418,1.418,0,0,1-.122-.089,1.683,1.683,0,0,1-.15-.127,4.98,4.98,0,0,1-1.194-1.655,12.563,12.563,0,0,1-.78,1.852q-.282.526-.423.78Zm6.073-.15a2.25,2.25,0,0,0-1.316-.226,3.556,3.556,0,0,0,1.166.263.912.912,0,0,0,.169-.009q0-.009-.019-.028Z" transform="translate(-2.571 -2.203)"/></svg>