<svg width="18" height="24" viewBox="0 0 18 24" fill="none" xmlns="http://www.w3.org/2000/svg">
<g clip-path="url(#clip0_5660_4462)">
<path d="M16.3379 11.2348C16.335 13.1327 15.6191 14.9617 14.3271 16.3679C13.0351 17.775 11.2609 18.6589 9.3461 18.8493C9.3461 18.8646 9.35386 18.8723 9.35386 18.8876V21.9487H11.6818C12.1106 21.9487 12.4578 22.2912 12.4578 22.714C12.4578 23.1368 12.1106 23.4793 11.6818 23.4793H5.47392C5.04517 23.4793 4.69793 23.1368 4.69793 22.714C4.69793 22.2912 5.04517 21.9487 5.47392 21.9487H7.80188V18.8876C7.80188 18.8723 7.80964 18.8646 7.80964 18.8493C5.8949 18.659 4.1209 17.7751 2.82866 16.3679C1.53665 14.9617 0.820801 13.1327 0.817871 11.2348C0.817871 10.812 1.16512 10.4695 1.59386 10.4695C2.0226 10.4695 2.36985 10.812 2.36985 11.2348C2.36985 13.4216 3.55323 15.4429 5.4738 16.5371C7.39438 17.6305 9.76123 17.6305 11.6817 16.5371C13.6023 15.4427 14.7857 13.4214 14.7857 11.2348C14.7857 10.812 15.1329 10.4695 15.5617 10.4695C15.9904 10.4695 16.3379 10.812 16.3379 11.2348ZM8.57798 15.0612C9.60713 15.0612 10.5936 14.6575 11.3211 13.94C12.0487 13.2226 12.458 12.2497 12.458 11.2348V4.34726C12.458 2.98029 11.7188 1.71667 10.518 1.03367C9.31715 0.349697 7.83889 0.349697 6.63803 1.03367C5.4372 1.71669 4.69806 2.98034 4.69806 4.34726V11.2348C4.69806 12.2497 5.10739 13.2226 5.83488 13.94C6.56237 14.6575 7.54878 15.0612 8.57798 15.0612Z" fill="white"/>
<path d="M11.3211 13.94C10.5936 14.6575 9.60713 15.0612 8.57798 15.0612C7.54878 15.0612 6.56237 14.6575 5.83488 13.94C5.10739 13.2226 4.69806 12.2497 4.69806 11.2348V4.34726C4.69806 2.98034 5.4372 1.71669 6.63803 1.03367C7.83889 0.349697 9.31715 0.349697 10.518 1.03367C11.7188 1.71667 12.458 2.98029 12.458 4.34726V11.2348C12.458 12.2497 12.0487 13.2226 11.3211 13.94Z" fill="white"/>
</g>
<defs>
<clipPath id="clip0_5660_4462">
<rect width="17.1557" height="24" fill="white"/>
</clipPath>
</defs>
</svg>
