<svg width="26" height="26" viewBox="0 0 26 26" fill="none" xmlns="http://www.w3.org/2000/svg">
<path d="M3.29467 24.9208C2.95997 24.9255 2.62785 24.8617 2.31879 24.7331C2.00973 24.6045 1.73029 24.414 1.49769 24.1733C1.25698 23.9407 1.06647 23.6612 0.937916 23.3522C0.809364 23.0431 0.745494 22.711 0.750247 22.3762V17.2871C0.745494 16.9524 0.809364 16.6202 0.937916 16.3112C1.06647 16.0021 1.25698 15.7227 1.49769 15.4901C1.73029 15.2493 2.00973 15.0588 2.31879 14.9302C2.62785 14.8017 2.95997 14.7378 3.29467 14.7426H16.0177V9.65345H18.5621V14.7426H21.1065C21.4412 14.7378 21.7733 14.8017 22.0824 14.9302C22.3914 15.0588 22.6709 15.2493 22.9035 15.4901C23.1442 15.7227 23.3347 16.0021 23.4632 16.3112C23.5918 16.6202 23.6557 16.9524 23.6509 17.2871V22.3762C23.6557 22.711 23.5918 23.0431 23.4632 23.3522C23.3347 23.6612 23.1442 23.9407 22.9035 24.1733C22.6709 24.414 22.3914 24.6045 22.0824 24.7331C21.7733 24.8617 21.4412 24.9255 21.1065 24.9208H3.29467ZM3.29467 22.3762H21.1065V17.2871H3.29467V22.3762ZM5.83908 21.104C6.00705 21.1082 6.17411 21.078 6.32996 21.0152C6.48582 20.9524 6.62717 20.8584 6.74532 20.7389C6.86479 20.6207 6.95881 20.4794 7.02159 20.3235C7.08438 20.1676 7.11459 20.0006 7.11038 19.8326C7.11459 19.6646 7.08438 19.4975 7.02159 19.3417C6.95881 19.1858 6.86479 19.0444 6.74532 18.9263C6.62717 18.8068 6.48582 18.7128 6.32996 18.65C6.17411 18.5872 6.00705 18.557 5.83908 18.5612C5.6711 18.557 5.50405 18.5872 5.3482 18.65C5.19234 18.7128 5.05099 18.8068 4.93284 18.9263C4.81337 19.0444 4.71935 19.1858 4.65657 19.3417C4.59378 19.4975 4.56357 19.6646 4.56778 19.8326C4.56357 20.0006 4.59378 20.1676 4.65657 20.3235C4.71935 20.4794 4.81337 20.6207 4.93284 20.7389C5.05099 20.8584 5.19234 20.9524 5.3482 21.0152C5.50405 21.078 5.6711 21.1082 5.83908 21.104ZM10.2918 21.104C10.4598 21.1082 10.6268 21.078 10.7827 21.0152C10.9385 20.9524 11.0799 20.8584 11.1981 20.7389C11.3175 20.6207 11.4115 20.4794 11.4743 20.3235C11.5371 20.1676 11.5673 20.0006 11.5631 19.8326C11.5673 19.6646 11.5371 19.4975 11.4743 19.3417C11.4115 19.1858 11.3175 19.0444 11.1981 18.9263C11.0799 18.8068 10.9385 18.7128 10.7827 18.65C10.6268 18.5872 10.4598 18.557 10.2918 18.5612C10.1238 18.557 9.95679 18.5872 9.80093 18.65C9.64508 18.7128 9.50372 18.8068 9.38557 18.9263C9.2661 19.0444 9.17208 19.1858 9.1093 19.3417C9.04652 19.4975 9.0163 19.6646 9.02051 19.8326C9.0163 20.0006 9.04652 20.1676 9.1093 20.3235C9.17208 20.4794 9.2661 20.6207 9.38557 20.7389C9.50383 20.8585 9.64533 20.9526 9.80135 21.0154C9.95737 21.0781 10.1237 21.1083 10.2918 21.104ZM14.7445 21.104C14.9125 21.1082 15.0796 21.078 15.2354 21.0152C15.3913 20.9524 15.5326 20.8584 15.6508 20.7389C15.7702 20.6207 15.8643 20.4794 15.927 20.3235C15.9898 20.1676 16.0201 20.0006 16.0158 19.8326C16.0201 19.6646 15.9898 19.4975 15.927 19.3417C15.8643 19.1858 15.7702 19.0444 15.6508 18.9263C15.5326 18.8068 15.3913 18.7128 15.2354 18.65C15.0796 18.5872 14.9125 18.557 14.7445 18.5612C14.5766 18.557 14.4095 18.5872 14.2537 18.65C14.0978 18.7128 13.9564 18.8068 13.8383 18.9263C13.7188 19.0444 13.6248 19.1858 13.562 19.3417C13.4992 19.4975 13.469 19.6646 13.4732 19.8326C13.469 20.0006 13.4992 20.1676 13.562 20.3235C13.6248 20.4794 13.7188 20.6207 13.8383 20.7389C13.9566 20.8585 14.0981 20.9526 14.2541 21.0154C14.4101 21.0781 14.5773 21.1083 14.7455 21.104H14.7445ZM15.063 8.69787L13.2186 6.85334C13.7614 6.35007 14.3849 5.94156 15.063 5.64492C15.7662 5.34298 16.5247 5.1913 17.2899 5.19955C18.0551 5.1913 18.8135 5.34298 19.5167 5.64492C20.1948 5.94156 20.8183 6.35007 21.3611 6.85334L19.5167 8.69787C19.2269 8.40605 18.8868 8.16889 18.5128 7.99782C18.1278 7.82516 17.7099 7.73828 17.288 7.74318C16.8662 7.73831 16.4483 7.82519 16.0633 7.99782C15.6909 8.16936 15.3524 8.4065 15.064 8.69787H15.063ZM11.8825 5.51718L10.1011 3.7356C11.0329 2.80518 12.1342 2.06164 13.3455 1.54514C14.5916 1.01174 15.9344 0.741144 17.2899 0.750221C18.6453 0.741144 19.9881 1.01174 21.2343 1.54514C22.4455 2.06164 23.5468 2.80518 24.4787 3.7356L22.6972 5.51718C21.9998 4.81888 21.1735 4.26247 20.2641 3.87888C19.323 3.48272 18.311 3.28246 17.2899 3.29024C16.2688 3.28246 15.2568 3.48272 14.3156 3.87888C13.4069 4.26268 12.5813 4.81907 11.8843 5.51718H11.8825Z" fill="#2C3E50" stroke="white" stroke-width="1.5"/>
<path d="M5.84004 21.104C6.00801 21.1082 6.17507 21.078 6.33093 21.0152C6.48678 20.9524 6.62814 20.8584 6.74629 20.7389C6.86576 20.6207 6.95978 20.4794 7.02256 20.3235C7.08534 20.1676 7.11555 20.0006 7.11134 19.8326C7.11555 19.6646 7.08534 19.4975 7.02256 19.3417C6.95978 19.1858 6.86576 19.0444 6.74629 18.9263C6.62814 18.8068 6.48678 18.7128 6.33093 18.65C6.17507 18.5872 6.00801 18.557 5.84004 18.5612C5.67207 18.557 5.50502 18.5872 5.34916 18.65C5.19331 18.7128 5.05195 18.8068 4.9338 18.9263C4.81433 19.0444 4.72031 19.1858 4.65753 19.3417C4.59475 19.4975 4.56453 19.6646 4.56875 19.8326C4.56453 20.0006 4.59475 20.1676 4.65753 20.3235C4.72031 20.4794 4.81433 20.6207 4.9338 20.7389C5.05195 20.8584 5.19331 20.9524 5.34916 21.0152C5.50502 21.078 5.67207 21.1082 5.84004 21.104ZM10.2928 21.104C10.4607 21.1082 10.6278 21.078 10.7837 21.0152C10.9395 20.9524 11.0809 20.8584 11.199 20.7389C11.3185 20.6207 11.4125 20.4794 11.4753 20.3235C11.5381 20.1676 11.5683 20.0006 11.5641 19.8326C11.5683 19.6646 11.5381 19.4975 11.4753 19.3417C11.4125 19.1858 11.3185 19.0444 11.199 18.9263C11.0809 18.8068 10.9395 18.7128 10.7837 18.65C10.6278 18.5872 10.4607 18.557 10.2928 18.5612C10.1248 18.557 9.95775 18.5872 9.80189 18.65C9.64604 18.7128 9.50468 18.8068 9.38653 18.9263C9.26707 19.0444 9.17304 19.1858 9.11026 19.3417C9.04748 19.4975 9.01726 19.6646 9.02147 19.8326C9.01726 20.0006 9.04748 20.1676 9.11026 20.3235C9.17304 20.4794 9.26707 20.6207 9.38653 20.7389C9.50479 20.8585 9.64629 20.9526 9.80231 21.0154C9.95833 21.0781 10.1246 21.1083 10.2928 21.104ZM14.7455 21.104C14.9135 21.1082 15.0805 21.078 15.2364 21.0152C15.3922 20.9524 15.5336 20.8584 15.6517 20.7389C15.7712 20.6207 15.8652 20.4794 15.928 20.3235C15.9908 20.1676 16.021 20.0006 16.0168 19.8326C16.021 19.6646 15.9908 19.4975 15.928 19.3417C15.8652 19.1858 15.7712 19.0444 15.6517 18.9263C15.5336 18.8068 15.3922 18.7128 15.2364 18.65C15.0805 18.5872 14.9135 18.557 14.7455 18.5612C14.5775 18.557 14.4105 18.5872 14.2546 18.65C14.0988 18.7128 13.9574 18.8068 13.8393 18.9263C13.7198 19.0444 13.6258 19.1858 13.563 19.3417C13.5002 19.4975 13.47 19.6646 13.4742 19.8326C13.47 20.0006 13.5002 20.1676 13.563 20.3235C13.6258 20.4794 13.7198 20.6207 13.8393 20.7389C13.9575 20.8585 14.099 20.9526 14.255 21.0154C14.4111 21.0781 14.5783 21.1083 14.7464 21.104H14.7455ZM15.064 8.69787L13.2196 6.85334C13.7624 6.35007 14.3859 5.94156 15.064 5.64492C15.7672 5.34298 16.5256 5.1913 17.2908 5.19955C18.056 5.1913 18.8145 5.34298 19.5177 5.64492C20.1958 5.94156 20.8193 6.35007 21.3621 6.85334L19.5177 8.69787C19.2278 8.40605 18.8878 8.16889 18.5138 7.99782C18.1288 7.82516 17.7109 7.73828 17.289 7.74318C16.8671 7.73831 16.4492 7.82519 16.0643 7.99782C15.6919 8.16936 15.3534 8.4065 15.0649 8.69787H15.064ZM11.8835 5.51718L10.102 3.7356C11.0339 2.80518 12.1352 2.06164 13.3464 1.54514C14.5926 1.01174 15.9354 0.741144 17.2908 0.750221C18.6463 0.741144 19.9891 1.01174 21.2352 1.54514C22.4465 2.06164 23.5478 2.80518 24.4796 3.7356L22.6982 5.51718C22.0007 4.81888 21.1744 4.26247 20.2651 3.87888C19.3239 3.48272 18.3119 3.28246 17.2908 3.29024C16.2697 3.28246 15.2577 3.48272 14.3166 3.87888C13.4079 4.26268 12.5822 4.81907 11.8853 5.51718H11.8835Z" fill="#ED1C26" stroke="white"/>
</svg>
