<svg width="24" height="24" viewBox="0 0 24 24" fill="none" xmlns="http://www.w3.org/2000/svg">
<path d="M8.28661 5.66179C8.77411 5.17424 9.35287 4.78749 9.98985 4.52362C10.6268 4.25976 11.3095 4.12395 11.999 4.12395C12.6885 4.12395 13.3712 4.25976 14.0082 4.52362C14.6452 4.78749 15.2239 5.17424 15.7114 5.66179C15.7804 5.73433 15.8632 5.79233 15.9549 5.83237C16.0467 5.87241 16.1455 5.89368 16.2456 5.89494C16.3457 5.8962 16.445 5.87741 16.5377 5.83969C16.6304 5.80197 16.7147 5.74607 16.7854 5.67529C16.8562 5.60451 16.9121 5.52028 16.9498 5.42757C16.9876 5.33485 17.0064 5.23552 17.0051 5.13543C17.0038 5.03535 16.9826 4.93652 16.9425 4.84478C16.9025 4.75304 16.8445 4.67025 16.7719 4.60127C15.5058 3.33601 13.789 2.62527 11.999 2.62527C10.209 2.62527 8.49226 3.33601 7.22608 4.60127C7.09123 4.74307 7.01713 4.93196 7.01959 5.12763C7.02205 5.3233 7.10087 5.51026 7.23924 5.64863C7.37761 5.787 7.56458 5.86583 7.76025 5.86829C7.95592 5.87074 8.1448 5.79664 8.28661 5.66179Z" fill="#1F2436"/>
<path d="M10.4085 7.78436C10.8303 7.3637 11.4016 7.12747 11.9973 7.12747C12.593 7.12747 13.1644 7.3637 13.5861 7.78436C13.727 7.92463 13.9178 8.00328 14.1166 8.00306C14.3154 8.00285 14.506 7.92377 14.6466 7.78319C14.7872 7.6426 14.8663 7.452 14.8665 7.25318C14.8667 7.05437 14.7881 6.86359 14.6478 6.7227C14.2996 6.37444 13.8862 6.09819 13.4313 5.90971C12.9763 5.72123 12.4886 5.62422 11.9962 5.62422C11.5037 5.62422 11.0161 5.72123 10.5611 5.90971C10.1062 6.09819 9.69278 6.37444 9.34459 6.7227C9.21215 6.86517 9.14023 7.05352 9.14401 7.24801C9.14779 7.4425 9.22698 7.62792 9.36486 7.76513C9.50274 7.90235 9.68853 7.98064 9.88304 7.98349C10.0775 7.98634 10.2655 7.91351 10.4074 7.78038L10.4085 7.78436ZM3.74917 17.6236C3.6008 17.6236 3.45577 17.5796 3.33241 17.4972C3.20905 17.4147 3.1129 17.2976 3.05612 17.1605C2.99935 17.0234 2.98449 16.8726 3.01344 16.7271C3.04238 16.5816 3.11383 16.4479 3.21874 16.343C3.32364 16.2381 3.45731 16.1667 3.60282 16.1377C3.74833 16.1088 3.89916 16.1236 4.03623 16.1804C4.1733 16.2372 4.29046 16.3333 4.37289 16.4567C4.45531 16.58 4.49931 16.7251 4.49931 16.8734C4.49931 17.0724 4.42027 17.2632 4.2796 17.4039C4.13892 17.5446 3.94812 17.6236 3.74917 17.6236ZM10.5016 16.8734C10.5019 17.0219 10.5463 17.1668 10.629 17.29C10.7118 17.4132 10.8292 17.5091 10.9665 17.5655C11.1038 17.622 11.2547 17.6364 11.4002 17.607C11.5456 17.5777 11.6791 17.5058 11.7838 17.4006C11.8884 17.2953 11.9594 17.1614 11.9879 17.0157C12.0164 16.8701 12.001 16.7192 11.9438 16.5823C11.8865 16.4454 11.7899 16.3285 11.6662 16.2465C11.5425 16.1645 11.3973 16.121 11.2489 16.1216C11.0499 16.1216 10.8591 16.2006 10.7185 16.3413C10.5778 16.482 10.4987 16.6728 10.4987 16.8717L10.5016 16.8734ZM14.2512 17.6236C14.1028 17.6236 13.9578 17.5796 13.8344 17.4972C13.711 17.4147 13.6149 17.2976 13.5581 17.1605C13.5013 17.0234 13.4865 16.8726 13.5154 16.7271C13.5444 16.5816 13.6158 16.4479 13.7207 16.343C13.8256 16.2381 13.9593 16.1667 14.1048 16.1377C14.2503 16.1088 14.4011 16.1236 14.5382 16.1804C14.6753 16.2372 14.7924 16.3333 14.8749 16.4567C14.9573 16.58 15.0013 16.7251 15.0013 16.8734C15.0013 16.9722 14.9818 17.07 14.9439 17.1612C14.906 17.2524 14.8505 17.3352 14.7806 17.4049C14.7106 17.4746 14.6276 17.5298 14.5363 17.5673C14.4449 17.6048 14.3471 17.624 14.2483 17.6236H14.2512ZM16.501 16.8734C16.5013 17.0219 16.5457 17.1668 16.6285 17.29C16.7112 17.4132 16.8287 17.5091 16.9659 17.5655C17.1032 17.622 17.2541 17.6364 17.3996 17.607C17.5451 17.5777 17.6786 17.5058 17.7832 17.4006C17.8878 17.2953 17.9589 17.1614 17.9873 17.0157C18.0158 16.8701 18.0005 16.7192 17.9432 16.5823C17.8859 16.4454 17.7894 16.3285 17.6657 16.2465C17.542 16.1645 17.3967 16.121 17.2483 16.1216C17.1496 16.1216 17.0519 16.1411 16.9607 16.1789C16.8696 16.2168 16.7868 16.2722 16.7171 16.3421C16.6474 16.412 16.5922 16.495 16.5546 16.5862C16.5171 16.6775 16.4979 16.7753 16.4982 16.874L16.501 16.8734ZM19.501 16.8734C19.5013 17.0218 19.5457 17.1668 19.6284 17.29C19.7112 17.4132 19.8286 17.509 19.9658 17.5655C20.103 17.6219 20.2539 17.6364 20.3994 17.6071C20.5448 17.5778 20.6783 17.506 20.783 17.4008C20.8876 17.2956 20.9587 17.1617 20.9873 17.0161C21.0158 16.8704 21.0005 16.7196 20.9434 16.5827C20.8862 16.4458 20.7897 16.3289 20.6661 16.2468C20.5425 16.1647 20.3973 16.1211 20.2489 16.1216C20.1501 16.1215 20.0523 16.1409 19.9611 16.1788C19.8699 16.2166 19.787 16.272 19.7173 16.3419C19.6475 16.4118 19.5923 16.4948 19.5547 16.5861C19.5171 16.6774 19.4979 16.7753 19.4982 16.874L19.501 16.8734Z" fill="#1F2436"/>
<path d="M4.46113 4.63839C4.43336 4.54099 4.38616 4.45022 4.32236 4.37155C4.25857 4.29288 4.1795 4.22795 4.08994 4.18067C4.00037 4.13338 3.90215 4.10473 3.80121 4.09643C3.70027 4.08813 3.59869 4.10035 3.5026 4.13237C3.40651 4.16439 3.3179 4.21553 3.24211 4.28272C3.16632 4.34991 3.10492 4.43175 3.06162 4.5233C3.01831 4.61486 2.994 4.71424 2.99013 4.81545C2.98627 4.91666 3.00295 5.0176 3.03915 5.11219L5.70891 13.1249H2.24759C1.65128 13.1255 1.0796 13.3628 0.658165 13.7846C0.236726 14.2065 -3.0344e-07 14.7784 0 15.3747L0 18.3747C0 18.9714 0.237038 19.5437 0.658968 19.9656C1.0809 20.3875 1.65316 20.6246 2.24986 20.6246H3C3 20.8235 3.07903 21.0143 3.21971 21.155C3.36039 21.2957 3.55119 21.3747 3.75014 21.3747H6.75241C6.85092 21.3747 6.94847 21.3553 7.03948 21.3176C7.13049 21.2799 7.21318 21.2247 7.28284 21.155C7.3525 21.0854 7.40775 21.0027 7.44545 20.9116C7.48315 20.8206 7.50255 20.7231 7.50255 20.6246H16.502C16.5021 20.823 16.5809 21.0134 16.7211 21.1538C16.8613 21.2943 17.0514 21.3736 17.2499 21.3742H20.2499C20.4488 21.3742 20.6396 21.2951 20.7803 21.1544C20.921 21.0138 21 20.823 21 20.624H21.7501C22.3468 20.624 22.9191 20.387 23.341 19.965C23.763 19.5431 24 18.9709 24 18.3742V15.3747C24 14.778 23.763 14.2058 23.341 13.7838C22.9191 13.3619 22.3468 13.1249 21.7501 13.1249H18.2905L20.9603 5.11219C20.9965 5.0176 21.0132 4.91666 21.0093 4.81545C21.0054 4.71424 20.9811 4.61486 20.9378 4.5233C20.8945 4.43175 20.8331 4.34991 20.7573 4.28272C20.6815 4.21553 20.5929 4.16439 20.4968 4.13237C20.4007 4.10035 20.2992 4.08813 20.1982 4.09643C20.0973 4.10473 19.9991 4.13338 19.9095 4.18067C19.8199 4.22795 19.7409 4.29288 19.6771 4.37155C19.6133 4.45022 19.5661 4.54099 19.5383 4.63839L16.7136 13.1249H7.28523L4.46113 4.63839ZM21.749 14.6251C21.948 14.6251 22.1388 14.7042 22.2794 14.8449C22.4201 14.9855 22.4991 15.1763 22.4991 15.3753V18.3753C22.4991 18.5742 22.4201 18.765 22.2794 18.9057C22.1388 19.0464 21.948 19.1254 21.749 19.1254H2.24986C2.05091 19.1254 1.86011 19.0464 1.71943 18.9057C1.57875 18.765 1.49972 18.5742 1.49972 18.3753V15.3747C1.49972 15.1758 1.57875 14.985 1.71943 14.8443C1.86011 14.7036 2.05091 14.6246 2.24986 14.6246L21.749 14.6251Z" fill="#1F2436"/>
<path d="M12.7483 9.37427C12.7483 9.52266 12.7043 9.66772 12.6219 9.79109C12.5394 9.91446 12.4222 10.0106 12.2851 10.0674C12.148 10.1241 11.9972 10.1389 11.8516 10.11C11.7061 10.081 11.5724 10.0095 11.4676 9.9045C11.3627 9.79954 11.2913 9.66582 11.2624 9.52027C11.2335 9.37472 11.2484 9.22387 11.3053 9.08681C11.3622 8.94975 11.4584 8.83263 11.5818 8.75028C11.7053 8.66792 11.8504 8.62402 11.9988 8.62413C12.1977 8.62413 12.3885 8.70316 12.5292 8.84384C12.6699 8.98452 12.7489 9.17532 12.7489 9.37427H12.7483Z" fill="#1F2436"/>
</svg>
