<svg width="24" height="24" viewBox="0 0 24 24" fill="none" xmlns="http://www.w3.org/2000/svg">
<path d="M8.28661 5.66176C8.77411 5.17421 9.35287 4.78746 9.98985 4.52359C10.6268 4.25973 11.3095 4.12392 11.999 4.12392C12.6885 4.12392 13.3712 4.25973 14.0082 4.52359C14.6452 4.78746 15.2239 5.17421 15.7114 5.66176C15.7804 5.7343 15.8632 5.7923 15.9549 5.83234C16.0467 5.87238 16.1455 5.89365 16.2456 5.89491C16.3457 5.89617 16.445 5.87738 16.5377 5.83966C16.6304 5.80194 16.7147 5.74604 16.7854 5.67526C16.8562 5.60448 16.9121 5.52025 16.9498 5.42754C16.9876 5.33482 17.0064 5.23549 17.0051 5.1354C17.0038 5.03532 16.9826 4.93649 16.9425 4.84475C16.9025 4.75301 16.8445 4.67022 16.7719 4.60124C15.5058 3.33598 13.789 2.62524 11.999 2.62524C10.209 2.62524 8.49226 3.33598 7.22608 4.60124C7.09123 4.74304 7.01713 4.93193 7.01959 5.1276C7.02205 5.32327 7.10087 5.51023 7.23924 5.6486C7.37761 5.78697 7.56458 5.8658 7.76025 5.86825C7.95592 5.87071 8.1448 5.79661 8.28661 5.66176Z" fill="white"/>
<path d="M10.4085 7.78434C10.8303 7.36369 11.4016 7.12746 11.9973 7.12746C12.593 7.12746 13.1644 7.36369 13.5861 7.78434C13.727 7.92461 13.9178 8.00327 14.1166 8.00305C14.3154 8.00283 14.506 7.92375 14.6466 7.78317C14.7872 7.64259 14.8663 7.45198 14.8665 7.25317C14.8667 7.05435 14.7881 6.86357 14.6478 6.72268C14.2996 6.37443 13.8862 6.09817 13.4313 5.90969C12.9763 5.72122 12.4886 5.62421 11.9962 5.62421C11.5037 5.62421 11.0161 5.72122 10.5611 5.90969C10.1062 6.09817 9.69278 6.37443 9.34459 6.72268C9.21215 6.86516 9.14023 7.05351 9.14401 7.248C9.14779 7.44249 9.22698 7.6279 9.36486 7.76512C9.50274 7.90234 9.68853 7.98063 9.88304 7.98347C10.0775 7.98632 10.2655 7.9135 10.4074 7.78037L10.4085 7.78434ZM3.74917 17.6236C3.6008 17.6236 3.45577 17.5796 3.33241 17.4971C3.20905 17.4147 3.1129 17.2976 3.05612 17.1605C2.99935 17.0234 2.98449 16.8726 3.01344 16.7271C3.04238 16.5816 3.11383 16.4479 3.21874 16.343C3.32364 16.2381 3.45731 16.1666 3.60282 16.1377C3.74833 16.1088 3.89916 16.1236 4.03623 16.1804C4.1733 16.2372 4.29046 16.3333 4.37289 16.4567C4.45531 16.58 4.49931 16.7251 4.49931 16.8734C4.49931 17.0724 4.42027 17.2632 4.2796 17.4039C4.13892 17.5445 3.94812 17.6236 3.74917 17.6236ZM10.5016 16.8734C10.5019 17.0218 10.5463 17.1668 10.629 17.29C10.7118 17.4132 10.8292 17.5091 10.9665 17.5655C11.1038 17.6219 11.2547 17.6364 11.4002 17.607C11.5456 17.5777 11.6791 17.5058 11.7838 17.4005C11.8884 17.2953 11.9594 17.1614 11.9879 17.0157C12.0164 16.87 12.001 16.7192 11.9438 16.5823C11.8865 16.4454 11.7899 16.3285 11.6662 16.2465C11.5425 16.1645 11.3973 16.121 11.2489 16.1216C11.0499 16.1216 10.8591 16.2006 10.7185 16.3413C10.5778 16.482 10.4987 16.6728 10.4987 16.8717L10.5016 16.8734ZM14.2512 17.6236C14.1028 17.6236 13.9578 17.5796 13.8344 17.4971C13.711 17.4147 13.6149 17.2976 13.5581 17.1605C13.5013 17.0234 13.4865 16.8726 13.5154 16.7271C13.5444 16.5816 13.6158 16.4479 13.7207 16.343C13.8256 16.2381 13.9593 16.1666 14.1048 16.1377C14.2503 16.1088 14.4011 16.1236 14.5382 16.1804C14.6753 16.2372 14.7924 16.3333 14.8749 16.4567C14.9573 16.58 15.0013 16.7251 15.0013 16.8734C15.0013 16.9722 14.9818 17.07 14.9439 17.1612C14.906 17.2523 14.8505 17.3352 14.7806 17.4049C14.7106 17.4746 14.6276 17.5298 14.5363 17.5673C14.4449 17.6048 14.3471 17.6239 14.2483 17.6236H14.2512ZM16.501 16.8734C16.5013 17.0218 16.5457 17.1668 16.6285 17.29C16.7112 17.4132 16.8287 17.5091 16.9659 17.5655C17.1032 17.6219 17.2541 17.6364 17.3996 17.607C17.5451 17.5777 17.6786 17.5058 17.7832 17.4005C17.8878 17.2953 17.9589 17.1614 17.9873 17.0157C18.0158 16.87 18.0005 16.7192 17.9432 16.5823C17.8859 16.4454 17.7894 16.3285 17.6657 16.2465C17.542 16.1645 17.3967 16.121 17.2483 16.1216C17.1496 16.1216 17.0519 16.1411 16.9607 16.1789C16.8696 16.2167 16.7868 16.2722 16.7171 16.3421C16.6474 16.412 16.5922 16.495 16.5546 16.5862C16.5171 16.6775 16.4979 16.7753 16.4982 16.874L16.501 16.8734ZM19.501 16.8734C19.5013 17.0218 19.5457 17.1668 19.6284 17.29C19.7112 17.4131 19.8286 17.509 19.9658 17.5655C20.103 17.6219 20.2539 17.6364 20.3994 17.6071C20.5448 17.5778 20.6783 17.5059 20.783 17.4007C20.8876 17.2955 20.9587 17.1617 20.9873 17.016C21.0158 16.8704 21.0005 16.7196 20.9434 16.5827C20.8862 16.4458 20.7897 16.3289 20.6661 16.2468C20.5425 16.1647 20.3973 16.1211 20.2489 16.1216C20.1501 16.1215 20.0523 16.1409 19.9611 16.1787C19.8699 16.2165 19.787 16.272 19.7173 16.3419C19.6475 16.4118 19.5923 16.4948 19.5547 16.5861C19.5171 16.6774 19.4979 16.7752 19.4982 16.874L19.501 16.8734Z" fill="white"/>
<path d="M4.46113 4.63836C4.43336 4.54096 4.38616 4.45019 4.32236 4.37152C4.25857 4.29285 4.1795 4.22792 4.08994 4.18064C4.00037 4.13335 3.90215 4.1047 3.80121 4.0964C3.70027 4.08809 3.59869 4.10032 3.5026 4.13234C3.40651 4.16436 3.3179 4.2155 3.24211 4.28269C3.16632 4.34987 3.10492 4.43171 3.06162 4.52327C3.01831 4.61483 2.994 4.71421 2.99013 4.81542C2.98627 4.91663 3.00295 5.01757 3.03915 5.11216L5.70891 13.1248H2.24759C1.65128 13.1254 1.0796 13.3627 0.658165 13.7846C0.236726 14.2065 -3.0344e-07 14.7784 0 15.3747L0 18.3747C0 18.9714 0.237038 19.5437 0.658968 19.9656C1.0809 20.3875 1.65316 20.6245 2.24986 20.6245H3C3 20.8235 3.07903 21.0143 3.21971 21.155C3.36039 21.2957 3.55119 21.3747 3.75014 21.3747H6.75241C6.85092 21.3747 6.94847 21.3553 7.03948 21.3176C7.13049 21.2799 7.21318 21.2246 7.28284 21.155C7.3525 21.0853 7.40775 21.0026 7.44545 20.9116C7.48315 20.8206 7.50255 20.7231 7.50255 20.6245H16.502C16.5021 20.823 16.5809 21.0133 16.7211 21.1538C16.8613 21.2943 17.0514 21.3735 17.2499 21.3741H20.2499C20.4488 21.3741 20.6396 21.2951 20.7803 21.1544C20.921 21.0137 21 20.8229 21 20.624H21.7501C22.3468 20.624 22.9191 20.3869 23.341 19.965C23.763 19.5431 24 18.9708 24 18.3741V15.3747C24 14.778 23.763 14.2057 23.341 13.7838C22.9191 13.3619 22.3468 13.1248 21.7501 13.1248H18.2905L20.9603 5.11216C20.9965 5.01757 21.0132 4.91663 21.0093 4.81542C21.0054 4.71421 20.9811 4.61483 20.9378 4.52327C20.8945 4.43171 20.8331 4.34987 20.7573 4.28269C20.6815 4.2155 20.5929 4.16436 20.4968 4.13234C20.4007 4.10032 20.2992 4.08809 20.1982 4.0964C20.0973 4.1047 19.9991 4.13335 19.9095 4.18064C19.8199 4.22792 19.7409 4.29285 19.6771 4.37152C19.6133 4.45019 19.5661 4.54096 19.5383 4.63836L16.7136 13.1248H7.28523L4.46113 4.63836ZM21.749 14.6251C21.948 14.6251 22.1388 14.7042 22.2794 14.8448C22.4201 14.9855 22.4991 15.1763 22.4991 15.3753V18.3753C22.4991 18.5742 22.4201 18.765 22.2794 18.9057C22.1388 19.0464 21.948 19.1254 21.749 19.1254H2.24986C2.05091 19.1254 1.86011 19.0464 1.71943 18.9057C1.57875 18.765 1.49972 18.5742 1.49972 18.3753V15.3747C1.49972 15.1757 1.57875 14.9849 1.71943 14.8443C1.86011 14.7036 2.05091 14.6245 2.24986 14.6245L21.749 14.6251Z" fill="white"/>
<path d="M12.7483 9.37423C12.7483 9.52261 12.7043 9.66767 12.6219 9.79104C12.5394 9.91441 12.4222 10.0106 12.2851 10.0673C12.148 10.1241 11.9972 10.1389 11.8516 10.1099C11.7061 10.0809 11.5724 10.0094 11.4676 9.90446C11.3627 9.79949 11.2913 9.66577 11.2624 9.52022C11.2335 9.37467 11.2484 9.22383 11.3053 9.08677C11.3622 8.94971 11.4584 8.83259 11.5818 8.75023C11.7053 8.66787 11.8504 8.62397 11.9988 8.62408C12.1977 8.62408 12.3885 8.70312 12.5292 8.8438C12.6699 8.98447 12.7489 9.17528 12.7489 9.37423H12.7483Z" fill="white"/>
</svg>
