<svg xmlns="http://www.w3.org/2000/svg" width="33.91" height="21.531" viewBox="0 0 33.91 21.531"><defs><style>.a{opacity:0.8;}.b{fill:#ed1c26;}</style></defs><g class="a" transform="translate(0 -92.25)"><g transform="translate(0 92.25)"><path class="b" d="M29.327,101.724a3.871,3.871,0,1,0-4.442,0,6.708,6.708,0,0,0-2.288,1.342,8.68,8.68,0,0,0-3.14-1.711,4.9,4.9,0,1,0-5.072,0,8.752,8.752,0,0,0-3.107,1.691,6.762,6.762,0,0,0-2.261-1.315,3.871,3.871,0,1,0-4.442,0A6.8,6.8,0,0,0,0,108.152v.443a.029.029,0,0,0,.027.027H8.233a9.024,9.024,0,0,0-.074,1.134v.456a3.568,3.568,0,0,0,3.569,3.569h10.4a3.568,3.568,0,0,0,3.569-3.569v-.456a9.024,9.024,0,0,0-.074-1.134h8.259a.029.029,0,0,0,.027-.027v-.443A6.822,6.822,0,0,0,29.327,101.724ZM24.309,98.55a2.8,2.8,0,1,1,2.852,2.8h-.107A2.794,2.794,0,0,1,24.309,98.55Zm-11.232-1.4a3.831,3.831,0,1,1,4.053,3.824h-.443A3.837,3.837,0,0,1,13.077,97.155Zm-9.1,1.4a2.8,2.8,0,1,1,2.852,2.8H6.723A2.8,2.8,0,0,1,3.979,98.55Zm4.442,8.991H1.087a5.733,5.733,0,0,1,5.649-5.119h.081a5.673,5.673,0,0,1,3.657,1.362A8.81,8.81,0,0,0,8.42,107.541Zm16.19,2.67a2.5,2.5,0,0,1-2.5,2.5h-10.4a2.5,2.5,0,0,1-2.5-2.5v-.456a7.707,7.707,0,0,1,7.468-7.7c.074.007.154.007.228.007s.154,0,.228-.007a7.707,7.707,0,0,1,7.468,7.7Zm.8-2.67a8.786,8.786,0,0,0-2.033-3.73,5.7,5.7,0,0,1,3.69-1.389h.081a5.733,5.733,0,0,1,5.649,5.119Z" transform="translate(0 -92.25)"/></g></g></svg>