<svg width="22" height="22" viewBox="0 0 22 22" fill="none" xmlns="http://www.w3.org/2000/svg">
<path d="M11 21C16.5228 21 21 16.5228 21 11C21 5.47715 16.5228 1 11 1C5.47715 1 1 5.47715 1 11C1 16.5228 5.47715 21 11 21Z" stroke="black" stroke-miterlimit="10" stroke-linecap="round" stroke-linejoin="round"/>
<path d="M7 13.667V11C7 9.93913 7.42143 8.92172 8.17157 8.17157C8.92172 7.42143 9.93913 7 11 7C12.0609 7 13.0783 7.42143 13.8284 8.17157C14.5786 8.92172 15 9.93913 15 11V13.667" stroke="black" stroke-linecap="round" stroke-linejoin="round"/>
<path d="M15 14.1107C15 14.3464 14.9063 14.5726 14.7396 14.7393C14.5729 14.906 14.3468 14.9997 14.111 14.9997H13.667C13.4312 14.9997 13.2051 14.906 13.0384 14.7393C12.8717 14.5726 12.778 14.3464 12.778 14.1107V12.7777C12.778 12.5419 12.8717 12.3158 13.0384 12.1491C13.2051 11.9823 13.4312 11.8887 13.667 11.8887H15V14.1107ZM7 14.1107C7 14.3464 7.09366 14.5726 7.26038 14.7393C7.4271 14.906 7.65322 14.9997 7.889 14.9997H8.333C8.56878 14.9997 8.7949 14.906 8.96162 14.7393C9.12834 14.5726 9.222 14.3464 9.222 14.1107V12.7777C9.222 12.5419 9.12834 12.3158 8.96162 12.1491C8.7949 11.9823 8.56878 11.8887 8.333 11.8887H7V14.1107Z" stroke="black" stroke-linecap="round" stroke-linejoin="round"/>
</svg>
