<svg width="12" height="12" viewBox="0 0 12 12" fill="none" xmlns="http://www.w3.org/2000/svg">
<path d="M6 0C4.81331 0 3.65327 0.351894 2.66658 1.01118C1.67988 1.67047 0.910848 2.60754 0.456723 3.7039C0.00259686 4.80026 -0.116223 6.00666 0.115288 7.17054C0.346799 8.33443 0.918244 9.40353 1.75736 10.2426C2.59647 11.0818 3.66557 11.6532 4.82946 11.8847C5.99334 12.1162 7.19974 11.9974 8.2961 11.5433C9.39246 11.0892 10.3295 10.3201 10.9888 9.33342C11.6481 8.34673 12 7.18669 12 6C12 4.4087 11.3679 2.88258 10.2426 1.75736C9.11742 0.632141 7.5913 0 6 0ZM5.378 11.106C4.45533 10.9936 3.58035 10.6333 2.8461 10.0634C2.11185 9.49346 1.54579 8.73519 1.2081 7.86921C0.870405 7.00323 0.77371 6.06193 0.928293 5.14538C1.08288 4.22883 1.48296 3.37131 2.086 2.664C2.11971 2.89592 2.13908 3.1297 2.144 3.364C2.07628 3.6522 2.06679 3.95102 2.11607 4.24294C2.16535 4.53486 2.27242 4.814 2.431 5.064C2.56223 5.31855 2.65362 5.59173 2.702 5.874C2.777 6.129 3.074 6.263 3.279 6.421C3.693 6.739 4.089 7.108 4.529 7.387C4.819 7.571 5 7.663 4.915 8.017C4.87743 8.26622 4.79797 8.50728 4.68 8.73C4.70707 8.96162 4.78975 9.18325 4.921 9.376C5.137 9.592 5.352 9.791 5.588 9.985C5.954 10.279 5.553 10.672 5.378 11.106ZM9.636 9.637C8.90928 10.3676 7.9785 10.8612 6.966 11.053C7.10228 10.7221 7.31962 10.4309 7.598 10.206C7.83469 10.0154 8.02829 9.77687 8.166 9.506C8.27867 9.27261 8.40975 9.04857 8.558 8.836C8.758 8.522 8.058 8.047 7.827 7.948C7.34487 7.71478 6.88896 7.43084 6.467 7.101C6.141 6.872 5.479 7.221 5.111 7.06C4.62321 6.8022 4.16713 6.48841 3.752 6.125C3.3 5.784 3.322 5.387 3.322 4.885C3.676 4.898 4.18 4.785 4.416 5.072C4.49 5.162 4.745 5.564 4.916 5.421C5.056 5.304 4.816 4.837 4.766 4.727C4.622 4.389 5.095 4.257 5.337 4.027C5.653 3.727 6.331 3.259 6.278 3.045C6.225 2.831 5.598 2.225 5.231 2.318C5.176 2.332 4.692 2.84 4.598 2.918C4.598 2.752 4.60067 2.58533 4.606 2.418C4.606 2.318 4.406 2.206 4.42 2.138C4.443 1.967 4.92 1.658 5.036 1.522C4.953 1.47 4.671 1.228 4.585 1.263C4.378 1.349 4.144 1.409 3.937 1.495C3.93608 1.42594 3.92973 1.35706 3.918 1.289C4.335 1.1065 4.77458 0.980711 5.225 0.915L5.631 1.078L5.918 1.418L6.204 1.718L6.454 1.799L6.854 1.424L6.754 1.156V0.911C7.53735 1.02425 8.28346 1.31872 8.933 1.771C8.817 1.781 8.689 1.799 8.545 1.817C8.48055 1.78618 8.41365 1.76076 8.345 1.741C8.533 2.146 8.73 2.541 8.93 2.941C9.143 3.368 9.616 3.826 9.699 4.277C9.799 4.808 9.729 5.291 9.783 5.916C9.89212 6.39699 10.1264 6.84062 10.462 7.202C10.6327 7.25816 10.8128 7.27992 10.992 7.266C10.7637 8.1646 10.2954 8.98419 9.637 9.637H9.636Z" fill="black"/>
</svg>
