<svg xmlns="http://www.w3.org/2000/svg" width="106" height="106" viewBox="0 0 27.05 24.176"><defs><style>.a{fill:#ed1c26;}</style></defs><path class="a" d="M27.05,41.054v4.057A2.257,2.257,0,0,1,24.8,47.365H2.254A2.257,2.257,0,0,1,0,45.111V41.054A2.257,2.257,0,0,1,2.254,38.8h.9V27.162a1.662,1.662,0,1,1,3.325,0v10.4a.451.451,0,0,1-.9,0v-10.4a.761.761,0,1,0-1.522,0V38.8H17.789a.451.451,0,0,1,0,.9H2.254A1.354,1.354,0,0,0,.9,41.054v4.057a1.354,1.354,0,0,0,1.352,1.352H24.8a1.354,1.354,0,0,0,1.352-1.352V41.054A1.354,1.354,0,0,0,24.8,39.7H21.02a.451.451,0,0,1-.451-.451V27.162a1.662,1.662,0,1,1,3.325,0v10.4a.451.451,0,0,1-.9,0v-10.4a.761.761,0,1,0-1.522,0V38.8H24.8A2.257,2.257,0,0,1,27.05,41.054ZM4.17,42.632a.451.451,0,1,0,0,.9h1.2a.451.451,0,1,0,0-.9Zm3.175,0a.451.451,0,1,0,0,.9h3.193a.451.451,0,1,0,0-.9Zm-.7,6.143H3.494a.451.451,0,0,0,0,.9H6.65a.451.451,0,0,0,0-.9Zm16.906,0H20.4a.451.451,0,1,0,0,.9h3.156a.451.451,0,0,0,0-.9ZM14.142,33.957a.845.845,0,1,1-.6-.248A.846.846,0,0,1,14.142,33.957Zm1.474-.837a.451.451,0,0,0,0-.638,2.929,2.929,0,0,0-4.144,0,.451.451,0,0,0,.638.638,2.028,2.028,0,0,1,2.869,0A.451.451,0,0,0,15.617,33.12Zm-5.18-1.674a4.393,4.393,0,0,1,6.216,0,.451.451,0,0,0,.638-.638,5.294,5.294,0,0,0-7.491,0,.451.451,0,0,0,.638.638Z" transform="translate(0 -25.5)"/></svg>