<svg width="48" height="48" viewBox="0 0 48 48" fill="none" xmlns="http://www.w3.org/2000/svg">
<rect width="48" height="48" rx="8" fill="#F0F6FF"/>
<path d="M34.066 33.9319V13.8669C34.066 13.1067 33.7641 12.3776 33.2266 11.84C32.6892 11.3023 31.9602 11.0002 31.2 10.9999H22.354C21.5937 11.0001 20.8646 11.3022 20.327 11.8399L14.84 17.3269C14.3023 17.8645 14.0002 18.5936 14 19.3539V33.9319C13.9993 34.3083 14.0729 34.6811 14.2165 35.0291C14.3601 35.377 14.5709 35.6932 14.8368 35.9596C15.1027 36.226 15.4185 36.4373 15.7662 36.5815C16.1139 36.7257 16.4866 36.7999 16.863 36.7999H31.2C31.5765 36.7999 31.9494 36.7257 32.2972 36.5816C32.6451 36.4374 32.9611 36.2261 33.2273 35.9598C33.4934 35.6934 33.7045 35.3772 33.8484 35.0293C33.9923 34.6813 34.0663 34.3084 34.066 33.9319Z" stroke="#1F2436" stroke-width="1.7" stroke-linecap="round" stroke-linejoin="round"/>
<path d="M30.2192 21.2324L29.1972 20.1814C29.1764 20.1591 29.1511 20.1413 29.1231 20.1293C29.095 20.1172 29.0648 20.1111 29.0342 20.1114C29.0036 20.1105 28.9731 20.1164 28.945 20.1284C28.9168 20.1405 28.8917 20.1586 28.8712 20.1814L21.7862 27.3184L19.2082 24.7404C19.1872 24.7185 19.162 24.701 19.1341 24.6891C19.1061 24.6772 19.0761 24.671 19.0457 24.671C19.0153 24.671 18.9853 24.6772 18.9574 24.6891C18.9294 24.701 18.9042 24.7185 18.8832 24.7404L17.8462 25.7734C17.8241 25.7949 17.8065 25.8207 17.7945 25.8491C17.7825 25.8775 17.7764 25.9081 17.7764 25.9389C17.7764 25.9698 17.7825 26.0003 17.7945 26.0287C17.8065 26.0572 17.8241 26.0829 17.8462 26.1044L21.0982 29.3564C21.2743 29.5489 21.5171 29.6672 21.7772 29.6874C22.0327 29.6646 22.2716 29.5515 22.4512 29.3684H22.4572L30.2212 21.5684C30.2631 21.5224 30.2862 21.4623 30.2858 21.4C30.2854 21.3378 30.2617 21.2779 30.2192 21.2324Z" fill="#ED1C24"/>
</svg>
