<svg width="34" height="29" viewBox="0 0 34 29" fill="none" xmlns="http://www.w3.org/2000/svg">
<path d="M5.29989 10.2014V5.30069H10.1994V10.2014H5.29989ZM6.93306 8.56783H8.56623V6.93429H6.93306V8.56783ZM5.29989 15.1021V13.4686H3.66672C3.45189 13.4717 3.2387 13.4307 3.04031 13.3481C2.84192 13.2656 2.66254 13.1433 2.51325 12.9887C2.35873 12.8394 2.23644 12.66 2.15394 12.4615C2.07144 12.2631 2.03047 12.0499 2.03356 11.835V10.2014H0.400391V8.56783H2.03356V6.93429H0.400391V5.30069H2.03356V3.66714C2.03047 3.45225 2.07144 3.23901 2.15394 3.04057C2.23644 2.84213 2.35873 2.66271 2.51325 2.51338C2.66254 2.35883 2.84192 2.2365 3.04031 2.15398C3.2387 2.07145 3.45189 2.03045 3.66672 2.03355H5.29989V0.400002H6.93306V2.03355H8.56623V0.400002H10.1994V2.03355H11.8326C12.0474 2.03045 12.2606 2.07145 12.459 2.15398C12.6574 2.2365 12.8367 2.35883 12.986 2.51338C13.1406 2.66271 13.2628 2.84213 13.3453 3.04057C13.4278 3.23901 13.4688 3.45225 13.4657 3.66714V5.30069H15.0989V6.93429H13.4657V8.56783H15.0989V10.2014H13.4657V11.835C13.4688 12.0499 13.4278 12.2631 13.3453 12.4615C13.2628 12.66 13.1406 12.8394 12.986 12.9887C12.8367 13.1433 12.6574 13.2656 12.459 13.3481C12.2606 13.4307 12.0474 13.4717 11.8326 13.4686H10.1994V15.1021H8.56623V13.4686H6.93306V15.1021H5.29989ZM11.8326 11.835V3.66714H3.66672V11.835H11.8326Z" fill="#2C3E50" stroke="white" stroke-width="0.8"/>
<path d="M23.1017 23.3564V18.4557H28.0012V23.3564H23.1017ZM24.7348 21.7228H26.368V20.0893H24.7348V21.7228ZM23.1017 28.2571V26.6235H21.4685C21.2536 26.6266 21.0405 26.5856 20.8421 26.5031C20.6437 26.4206 20.4643 26.2983 20.315 26.1437C20.1605 25.9944 20.0382 25.815 19.9557 25.6165C19.8732 25.4181 19.8322 25.2048 19.8353 24.9899V23.3564H18.2021V21.7228H19.8353V20.0893H18.2021V18.4557H19.8353V16.8221C19.8322 16.6072 19.8732 16.394 19.9557 16.1955C20.0382 15.9971 20.1605 15.8177 20.315 15.6684C20.4643 15.5138 20.6437 15.3915 20.8421 15.309C21.0405 15.2264 21.2536 15.1854 21.4685 15.1885H23.1017V13.555H24.7348V15.1885H26.368V13.555H28.0012V15.1885H29.6343C29.8491 15.1854 30.0623 15.2264 30.2607 15.309C30.4591 15.3915 30.6385 15.5138 30.7878 15.6684C30.9423 15.8177 31.0646 15.9971 31.1471 16.1955C31.2296 16.394 31.2706 16.6072 31.2675 16.8221V18.4557H32.9007V20.0893H31.2675V21.7228H32.9007V23.3564H31.2675V24.9899C31.2706 25.2048 31.2296 25.4181 31.1471 25.6165C31.0646 25.815 30.9423 25.9944 30.7878 26.1437C30.6385 26.2983 30.4591 26.4206 30.2607 26.5031C30.0623 26.5856 29.8491 26.6266 29.6343 26.6235H28.0012V28.2571H26.368V26.6235H24.7348V28.2571H23.1017ZM29.6343 24.9899V16.8221H21.4685V24.9899H29.6343Z" fill="#2C3E50" stroke="white" stroke-width="0.8"/>
<path d="M18.2021 5.53379H24.9957V9.86318" stroke="#2C3E50" stroke-linecap="round"/>
<path d="M14.15 22.2472H7.35645V17.9178" stroke="#2C3E50" stroke-linecap="round"/>
<path d="M5.29989 10.2014V5.30069H10.1994V10.2014H5.29989ZM6.93306 8.56783H8.56623V6.93429H6.93306V8.56783ZM5.29989 15.1021V13.4686H3.66672C3.45189 13.4717 3.2387 13.4307 3.04031 13.3481C2.84192 13.2656 2.66254 13.1433 2.51325 12.9887C2.35873 12.8394 2.23644 12.66 2.15394 12.4615C2.07144 12.2631 2.03047 12.0499 2.03356 11.835V10.2014H0.400391V8.56783H2.03356V6.93429H0.400391V5.30069H2.03356V3.66714C2.03047 3.45225 2.07144 3.23901 2.15394 3.04057C2.23644 2.84213 2.35873 2.66271 2.51325 2.51338C2.66254 2.35883 2.84192 2.2365 3.04031 2.15398C3.2387 2.07145 3.45189 2.03045 3.66672 2.03355H5.29989V0.400002H6.93306V2.03355H8.56623V0.400002H10.1994V2.03355H11.8326C12.0474 2.03045 12.2606 2.07145 12.459 2.15398C12.6574 2.2365 12.8367 2.35883 12.986 2.51338C13.1406 2.66271 13.2628 2.84213 13.3453 3.04057C13.4278 3.23901 13.4688 3.45225 13.4657 3.66714V5.30069H15.0989V6.93429H13.4657V8.56783H15.0989V10.2014H13.4657V11.835C13.4688 12.0499 13.4278 12.2631 13.3453 12.4615C13.2628 12.66 13.1406 12.8394 12.986 12.9887C12.8367 13.1433 12.6574 13.2656 12.459 13.3481C12.2606 13.4307 12.0474 13.4717 11.8326 13.4686H10.1994V15.1021H8.56623V13.4686H6.93306V15.1021H5.29989ZM11.8326 11.835V3.66714H3.66672V11.835H11.8326Z" fill="#2C3E50" stroke="white" stroke-width="0.8"/>
<path d="M9.81242 5.53165H5.53711V9.80801H9.81242V5.53165Z" fill="white" stroke="#ED1C24"/>
<path d="M27.7587 18.3608H23.4834V22.6372H27.7587V18.3608Z" fill="white" stroke="#ED1C24"/>
</svg>
