<svg width="24" height="24" viewBox="0 0 24 24" fill="none" xmlns="http://www.w3.org/2000/svg">
<path d="M21.0005 16H17.0001C16.4478 16 16 16.4478 16 17.0001V21.0005C16 21.5528 16.4478 22.0005 17.0001 22.0005H21.0005C21.5528 22.0005 22.0005 21.5528 22.0005 21.0005V17.0001C22.0005 16.4478 21.5528 16 21.0005 16Z" stroke="#1F2436" stroke-width="1.5" stroke-linecap="round" stroke-linejoin="round"/>
<path d="M7.00046 16H3.00009C2.44776 16 2 16.4478 2 17.0001V21.0005C2 21.5528 2.44776 22.0005 3.00009 22.0005H7.00046C7.55279 22.0005 8.00055 21.5528 8.00055 21.0005V17.0001C8.00055 16.4478 7.55279 16 7.00046 16Z" stroke="#1F2436" stroke-width="1.5" stroke-linecap="round" stroke-linejoin="round"/>
<path d="M5 16V13C5 12.7348 5.10536 12.4804 5.29289 12.2929C5.48043 12.1054 5.73478 12 6 12H18C18.2652 12 18.5196 12.1054 18.7071 12.2929C18.8946 12.4804 19 12.7348 19 13V16" stroke="#1F2436" stroke-width="1.5" stroke-linecap="round" stroke-linejoin="round"/>
<path d="M12 12.0004V8" stroke="#1F2436" stroke-width="1.5" stroke-linecap="round" stroke-linejoin="round"/>
<path d="M14.0005 2H10.0001C9.44776 2 9 2.44776 9 3.00009V7.00046C9 7.55279 9.44776 8.00055 10.0001 8.00055H14.0005C14.5528 8.00055 15.0005 7.55279 15.0005 7.00046V3.00009C15.0005 2.44776 14.5528 2 14.0005 2Z" stroke="#1F2436" stroke-width="1.5" stroke-linecap="round" stroke-linejoin="round"/>
</svg>
