<svg id="Group_1011" data-name="Group 1011" xmlns="http://www.w3.org/2000/svg" width="48" height="48" viewBox="0 0 48 48">
  <rect id="Rectangle_202" data-name="Rectangle 202" width="48" height="48" fill="none"/>
  <g id="_24-hours" data-name="24-hours" transform="scale(2.8)">
    <g id="Group_22056" data-name="Group 22056">
      <g id="Group_22055" data-name="Group 22055">
        <path fill="#ED1C26" id="Path_16697" data-name="Path 16697" d="M325.07,277.339h-.8v-5.067a.267.267,0,0,0-.485-.153l-3.733,5.333a.267.267,0,0,0,.218.419h3.467v.8a.267.267,0,1,0,.533,0v-.8h.8a.267.267,0,0,0,0-.533Zm-1.333,0h-2.955l2.955-4.221Z" transform="translate(-309.337 -262.939)"/>
        <path  fill="#ED1C26" id="Path_16698" data-name="Path 16698" d="M212,278.387h-3.157l2.935-3.456.019-.025a1.855,1.855,0,0,0-.419-2.518A2.133,2.133,0,0,0,208,274.12a.267.267,0,1,0,.533,0,1.6,1.6,0,0,1,2.533-1.3,1.317,1.317,0,0,1,.293,1.777l-3.3,3.883a.267.267,0,0,0,.2.439H212a.267.267,0,0,0,0-.533Z" transform="translate(-201.067 -262.92)"/>
        <path  fill="#ED1C26" id="Path_16699" data-name="Path 16699" d="M7.206,14.138a.267.267,0,0,0-.256-.277h0a6.659,6.659,0,0,1-6.407-6.4H1.6a.267.267,0,1,0,0-.533H.543A6.651,6.651,0,0,1,6.933.543v.79a.267.267,0,1,0,.533,0V.543A6.655,6.655,0,0,1,13.854,6.81l-1.04-1.04a.267.267,0,0,0-.377.377l1.489,1.489a.262.262,0,0,0,.105.077l.032.008a.264.264,0,0,0,.057.014h.015a.257.257,0,0,0,.06-.012l.033-.006a.263.263,0,0,0,.1-.06l1.509-1.508a.267.267,0,0,0-.377-.377L14.388,6.835A7.189,7.189,0,0,0,7.219,0C7.212,0,7.207,0,7.2,0s-.012,0-.019,0A7.187,7.187,0,0,0,0,7.181c0,.007,0,.012,0,.019s0,.012,0,.019A7.193,7.193,0,0,0,6.93,14.395h.01A.267.267,0,0,0,7.206,14.138Z"/>
        <path  fill="#ED1C26" id="Path_16700" data-name="Path 16700" d="M157.262,106.256a.267.267,0,0,0-.377,0l-2.866,2.865a.835.835,0,0,0-.68,0l-1.357-1.357a.267.267,0,0,0-.377.377l1.354,1.354a.8.8,0,1,0,1.44,0l2.863-2.863A.267.267,0,0,0,157.262,106.256Zm-3.394,3.771h0a.273.273,0,0,1-.377,0,.267.267,0,1,1,.377,0Z" transform="translate(-146.479 -102.638)"/>
      </g>
    </g>
  </g>
</svg>
