<svg width="24" height="16" viewBox="0 0 24 16" fill="none" xmlns="http://www.w3.org/2000/svg">
<path d="M20.757 6.70284C21.2342 6.36854 21.5925 5.89081 21.7797 5.33904C21.9669 4.78726 21.9734 4.19016 21.7981 3.63447C21.6228 3.07878 21.275 2.59343 20.8051 2.24891C20.3352 1.90439 19.7677 1.71864 19.185 1.71864C18.6023 1.71864 18.0348 1.90439 17.5649 2.24891C17.095 2.59343 16.7472 3.07878 16.5719 3.63447C16.3966 4.19016 16.4031 4.78726 16.5903 5.33904C16.7775 5.89081 17.1358 6.36854 17.613 6.70284C17.0155 6.90858 16.4651 7.23156 15.994 7.65283C15.3454 7.09933 14.5887 6.68692 13.772 6.44183C14.4209 6.04975 14.9236 5.45598 15.2033 4.75127C15.4829 4.04655 15.5241 3.26966 15.3206 2.53931C15.1171 1.80897 14.6801 1.16534 14.0763 0.706795C13.4725 0.248249 12.7352 7.62939e-06 11.977 7.62939e-06C11.2188 7.62939e-06 10.4815 0.248249 9.87772 0.706795C9.27393 1.16534 8.83689 1.80897 8.63338 2.53931C8.42987 3.26966 8.47109 4.04655 8.75074 4.75127C9.03039 5.45598 9.53308 6.04975 10.182 6.44183C9.37463 6.68791 8.62601 7.09625 7.982 7.64183C7.51434 7.23033 6.97084 6.91408 6.382 6.71083C6.85924 6.37654 7.21749 5.89881 7.40471 5.34703C7.59193 4.79525 7.59837 4.19816 7.42311 3.64247C7.24785 3.08678 6.9 2.60143 6.43009 2.2569C5.96018 1.91238 5.39268 1.72664 4.81 1.72664C4.22732 1.72664 3.65982 1.91238 3.18991 2.2569C2.72 2.60143 2.37215 3.08678 2.19689 3.64247C2.02163 4.19816 2.02807 4.79525 2.21529 5.34703C2.40251 5.89881 2.76076 6.37654 3.238 6.71083C2.29401 7.03727 1.47507 7.64949 0.894826 8.4625C0.314587 9.27552 0.0018421 10.249 0 11.2478L0 11.5608C0.000242417 11.5658 0.00232201 11.5705 0.00583403 11.574C0.00934604 11.5775 0.0140392 11.5796 0.019 11.5798H5.827C5.79293 11.8451 5.77556 12.1123 5.775 12.3798V12.7028C5.77382 13.0352 5.83825 13.3645 5.96461 13.6719C6.09098 13.9793 6.27678 14.2587 6.51137 14.4941C6.74595 14.7295 7.02471 14.9163 7.33164 15.0438C7.63858 15.1712 7.96765 15.2368 8.3 15.2368H15.661C15.9928 15.237 16.3213 15.1717 16.6278 15.0448C16.9343 14.9179 17.2129 14.7319 17.4474 14.4973C17.682 14.2627 17.8681 13.9842 17.995 13.6777C18.1219 13.3711 18.1871 13.0426 18.187 12.7108V12.3878C18.1864 12.1203 18.1691 11.8531 18.135 11.5878H23.981C23.986 11.5876 23.9907 11.5855 23.9942 11.582C23.9977 11.5785 23.9998 11.5738 24 11.5688V11.2478C23.9968 10.2477 23.6831 9.27317 23.1021 8.459C22.5212 7.64483 21.7017 7.03118 20.757 6.70284ZM17.2 4.45683C17.2001 4.06686 17.3153 3.68559 17.5312 3.36086C17.7472 3.03612 18.0542 2.78238 18.4138 2.63147C18.7734 2.48056 19.1695 2.43919 19.5525 2.51256C19.9355 2.58593 20.2883 2.77076 20.5667 3.04388C20.8451 3.317 21.0366 3.66624 21.1172 4.04778C21.1978 4.42933 21.164 4.82619 21.02 5.18858C20.8759 5.55098 20.6281 5.86277 20.3075 6.08483C19.9869 6.3069 19.6079 6.42935 19.218 6.43684H19.142C18.6232 6.42765 18.1289 6.2149 17.7656 5.84448C17.4023 5.47407 17.1991 4.97568 17.2 4.45683ZM9.251 3.46883C9.2509 2.93907 9.40596 2.42088 9.69703 1.97825C9.9881 1.53562 10.4024 1.18792 10.8889 0.978104C11.3753 0.768284 11.9125 0.705524 12.4342 0.797577C12.9559 0.889629 13.4393 1.13247 13.8245 1.49609C14.2098 1.85972 14.4801 2.32822 14.6021 2.84373C14.7241 3.35925 14.6925 3.89922 14.5111 4.39696C14.3297 4.89469 14.0065 5.32839 13.5814 5.64452C13.1563 5.96065 12.6479 6.14536 12.119 6.17583H11.81C11.1194 6.13507 10.4704 5.83221 9.99557 5.32912C9.52072 4.82602 9.25584 4.16063 9.255 3.46883H9.251ZM2.812 4.45683C2.81207 4.06686 2.9273 3.68559 3.14323 3.36086C3.35916 3.03612 3.66618 2.78238 4.02577 2.63147C4.38536 2.48056 4.78151 2.43919 5.16452 2.51256C5.54752 2.58593 5.90034 2.77076 6.1787 3.04388C6.45706 3.317 6.64857 3.66624 6.72921 4.04778C6.80985 4.42933 6.77602 4.82619 6.63197 5.18858C6.48791 5.55098 6.24006 5.86277 5.91948 6.08483C5.59891 6.3069 5.2199 6.42935 4.83 6.43684H4.758C4.23948 6.42688 3.74557 6.21388 3.38243 5.84364C3.01929 5.47339 2.8159 4.97544 2.816 4.45683H2.812ZM5.956 10.8198H0.769C0.875412 9.83049 1.3417 8.91475 2.07921 8.24676C2.81671 7.57876 3.77398 7.2051 4.769 7.19683H4.826C5.77552 7.20203 6.69246 7.54359 7.414 8.16084C6.71803 8.9141 6.21861 9.82741 5.96 10.8198H5.956ZM17.415 12.7098C17.4145 13.1783 17.2281 13.6274 16.8969 13.9587C16.5656 14.29 16.1165 14.4763 15.648 14.4768H8.291C7.82253 14.4763 7.37339 14.29 7.04213 13.9587C6.71087 13.6274 6.52453 13.1783 6.524 12.7098V12.3868C6.52539 10.9704 7.07764 9.61012 8.06395 8.59357C9.05026 7.57703 10.3933 6.98397 11.809 6.93983C11.861 6.93983 11.918 6.93983 11.97 6.93983C12.022 6.93983 12.079 6.93983 12.131 6.93983C13.5467 6.98397 14.8897 7.57703 15.876 8.59357C16.8624 9.61012 17.4146 10.9704 17.416 12.3868L17.415 12.7098ZM17.98 10.8198C17.7235 9.83538 17.2294 8.92889 16.541 8.17983C17.267 7.55183 18.1931 7.20329 19.153 7.19683H19.21C20.205 7.2051 21.1623 7.57876 21.8998 8.24676C22.6373 8.91475 23.1036 9.83049 23.21 10.8198H17.98Z" fill="#1F2436"/>
</svg>
