<svg xmlns="http://www.w3.org/2000/svg" width="20" height="31.716" viewBox="0 0 20 31.716">
  <g id="Group_160600" data-name="Group 160600" transform="translate(-1024 -707)">
    <g id="Rectangle_19109" data-name="Rectangle 19109" transform="translate(1024 707)" fill="#fff" stroke="#ed1c26" stroke-width="1">
      <rect width="20" height="31.716" rx="2" stroke="none"/>
      <rect x="0.5" y="0.5" width="19" height="30.716" rx="1.5" fill="none"/>
    </g>
    <g id="Subtraction_51" data-name="Subtraction 51" transform="translate(1024 733.425)" fill="#ed1c26">
      <path d="M 18 4.218699932098389 L 10.37294960021973 4.218699932098389 C 11.20580959320068 4.010733127593994 11.82469940185547 3.256163358688354 11.82469940185547 2.359799861907959 C 11.82469940185547 1.462082743644714 11.20409297943115 0.7066263556480408 10.36932754516602 0.4999999701976776 L 19.49979972839355 0.4999999701976776 L 19.49979972839355 2.718899965286255 C 19.49979972839355 3.545889854431152 18.82699012756348 4.218699932098389 18 4.218699932098389 Z M 9.445050239562988 4.218699932098389 L 1.999799847602844 4.218699932098389 C 1.172809839248657 4.218699932098389 0.4999998509883881 3.545889854431152 0.4999998509883881 2.718899965286255 L 0.4999998509883881 0.4999999701976776 L 9.448671340942383 0.4999999701976776 C 8.613905906677246 0.7066263556480408 7.993299961090088 1.462082743644714 7.993299961090088 2.359799861907959 C 7.993299961090088 3.256163358688354 8.612189292907715 4.010733127593994 9.445050239562988 4.218699932098389 Z" stroke="none"/>
      <path d="M 18 3.718699932098389 C 18.55129051208496 3.718699932098389 18.99979972839355 3.270190000534058 18.99979972839355 2.718899965286255 L 18.99979972839355 0.9999999403953552 L 11.90470790863037 0.9999999403953552 C 12.16965198516846 1.387596011161804 12.32469940185547 1.855902314186096 12.32469940185547 2.359799861907959 C 12.32469940185547 2.863291263580322 12.16987609863281 3.331286430358887 11.90532398223877 3.718699932098389 L 18 3.718699932098389 M 7.912675857543945 3.718699932098389 C 7.648123741149902 3.331286430358887 7.493299961090088 2.863291263580322 7.493299961090088 2.359799861907959 C 7.493299961090088 1.855902314186096 7.648348331451416 1.387596011161804 7.913291454315186 0.9999999403953552 L 0.9999998807907104 0.9999999403953552 L 0.9999998807907104 2.718899965286255 C 0.9999998807907104 3.270190000534058 1.448509812355042 3.718699932098389 1.999799847602844 3.718699932098389 L 7.912675857543945 3.718699932098389 M 18 4.718699932098389 L 1.999799847602844 4.718699932098389 C 0.8971098661422729 4.718699932098389 -1.358032193365943e-07 3.821589946746826 -1.358032193365943e-07 2.718899965286255 L -1.358032193365943e-07 -3.395080483414858e-08 L 19.99979972839355 -3.395080483414858e-08 L 19.99979972839355 2.718899965286255 C 19.99979972839355 3.821589946746826 19.10268974304199 4.718699932098389 18 4.718699932098389 Z M 9.908999443054199 0.9440999627113342 C 9.128379821777344 0.9440999627113342 8.49329948425293 1.579180002212524 8.49329948425293 2.359799861907959 C 8.49329948425293 3.140419960021973 9.128379821777344 3.775500059127808 9.908999443054199 3.775500059127808 C 10.68962001800537 3.775500059127808 11.32469940185547 3.140419960021973 11.32469940185547 2.359799861907959 C 11.32469940185547 1.579180002212524 10.68962001800537 0.9440999627113342 9.908999443054199 0.9440999627113342 Z" stroke="none" fill="#ed1c26"/>
    </g>
    <path id="Rectangle_141016" data-name="Rectangle 141016" d="M0,0H16.987a1.887,1.887,0,0,1,1.887,1.887v0a0,0,0,0,1,0,0H0a0,0,0,0,1,0,0V0A0,0,0,0,1,0,0Z" transform="translate(1024.944 707.472)" fill="#ed1c26"/>
  </g>
</svg>
