<svg width="24" height="24" viewBox="0 0 24 24" fill="none" xmlns="http://www.w3.org/2000/svg">
<g clip-path="url(#clip0_5660_4421)">
<path d="M18.3076 2.62862C18.3076 1.98114 17.7947 1.45719 17.1608 1.45719H16.0341L15.5682 2.17103C15.1426 2.82311 14.4269 3.21434 13.6598 3.21434H10.3402C9.59767 3.21434 8.90216 2.84712 8.47209 2.23165L8.43177 2.17102L7.96586 1.45718H6.83917C6.20527 1.45718 5.69231 1.98113 5.69231 2.62861V21.3715C5.69231 22.0189 6.20527 22.5429 6.83917 22.5429H17.1608C17.7947 22.5429 18.3077 22.0189 18.3077 21.3715L18.3076 2.62862ZM9.38599 1.52127L9.42743 1.58076C9.64359 1.87133 9.9807 2.04291 10.3402 2.04291H13.6598C14.0428 2.04291 14.4012 1.84729 14.614 1.52128L14.6554 1.45721H9.34464L9.38599 1.52127ZM19.4545 21.3714C19.4545 22.6653 18.4275 23.7143 17.1608 23.7143H6.83912C5.57242 23.7143 4.54541 22.6653 4.54541 21.3714V2.62856C4.54541 1.33472 5.57242 0.285706 6.83912 0.285706H17.1608C18.4275 0.285706 19.4545 1.33472 19.4545 2.62856V21.3714Z" fill="#1F2436" stroke="#1F2436" stroke-width="0.2"/>
<path d="M14.198 21.063H9.41517C9.16411 21.063 8.96045 20.8467 8.96045 20.5809C8.96045 20.315 9.16411 20.0988 9.41517 20.0988H14.198C14.4491 20.0988 14.6527 20.315 14.6527 20.5809C14.6527 20.8467 14.4495 21.063 14.198 21.063Z" fill="#1F2436" stroke="#1F2436" stroke-width="0.5"/>
</g>
<defs>
<clipPath id="clip0_5660_4421">
<rect width="24" height="24" fill="white"/>
</clipPath>
</defs>
</svg>
