<svg width="21" height="29" viewBox="0 0 21 29" fill="none" xmlns="http://www.w3.org/2000/svg">
<path d="M13.763 28.3728H6.46598C4.95001 28.3728 3.49613 27.778 2.42417 26.7194C1.35222 25.6608 0.75 24.225 0.75 22.7278V6.27217C0.75 4.77503 1.35222 3.33922 2.42417 2.28058C3.49613 1.22195 4.95001 0.627216 6.46598 0.627216H13.7638C14.5144 0.627216 15.2577 0.773227 15.9512 1.05691C16.6447 1.3406 17.2748 1.7564 17.8056 2.28058C18.3364 2.80477 18.7574 3.42706 19.0447 4.11194C19.3319 4.79682 19.4798 5.53086 19.4798 6.27217V22.7278C19.4798 23.4692 19.3319 24.2033 19.0446 24.8883C18.7573 25.5732 18.3362 26.1955 17.8053 26.7197C17.2744 27.2439 16.6442 27.6597 15.9506 27.9433C15.257 28.227 14.5137 28.3729 13.763 28.3728Z" stroke="#2C3E50" stroke-width="1.5"/>
<path d="M6.99316 24.0809H13.2367" stroke="#EC1B25" stroke-width="1.5" stroke-linecap="round"/>
</svg>
