<svg width="24" height="24" viewBox="0 0 24 24" fill="none" xmlns="http://www.w3.org/2000/svg">
<g clip-path="url(#clip0_5655_4212)">
<path d="M18.3081 2.62864C18.3081 1.98116 17.7952 1.45721 17.1613 1.45721H16.0346L15.5687 2.17105C15.1431 2.82312 14.4274 3.21435 13.6603 3.21435H10.3407C9.59816 3.21435 8.90265 2.84714 8.47258 2.23167L8.43226 2.17104L7.96635 1.4572H6.83966C6.20576 1.4572 5.6928 1.98115 5.6928 2.62863V21.3715C5.6928 22.019 6.20576 22.5429 6.83966 22.5429H17.1613C17.7952 22.5429 18.3082 22.019 18.3082 21.3715L18.3081 2.62864ZM9.38648 1.52129L9.42792 1.58077C9.64407 1.87134 9.98119 2.04293 10.3407 2.04293H13.6603C14.0433 2.04293 14.4017 1.84731 14.6145 1.52129L14.6559 1.45723H9.34512L9.38648 1.52129ZM19.455 21.3714C19.455 22.6653 18.428 23.7143 17.1613 23.7143H6.8396C5.57291 23.7143 4.5459 22.6653 4.5459 21.3714V2.62858C4.5459 1.33474 5.57291 0.285721 6.8396 0.285721H17.1613C18.428 0.285721 19.455 1.33474 19.455 2.62858V21.3714Z" fill="white" stroke="white" stroke-width="0.2"/>
<path d="M14.1985 21.063H9.41566C9.1646 21.063 8.96094 20.8467 8.96094 20.5809C8.96094 20.315 9.1646 20.0988 9.41566 20.0988H14.1985C14.4496 20.0988 14.6532 20.315 14.6532 20.5809C14.6532 20.8467 14.45 21.063 14.1985 21.063Z" fill="white" stroke="white" stroke-width="0.5"/>
</g>
<defs>
<clipPath id="clip0_5655_4212">
<rect width="24" height="24" fill="white"/>
</clipPath>
</defs>
</svg>
