<svg xmlns="http://www.w3.org/2000/svg" width="29.08" height="23.909" viewBox="0 0 29.08 23.909"><defs><style>.a{fill:#ed1c26;stroke:#fff;stroke-width:0.3px;}</style></defs><g transform="translate(0.15 -45.85)"><path class="a" d="M246.562,386a.562.562,0,1,0,.562.562A.562.562,0,0,0,246.562,386Z" transform="translate(-232.172 -320.888)"/><path class="a" d="M26.368,46.864A13.967,13.967,0,0,0,21.3,46a13.967,13.967,0,0,0-5.064.864,4.989,4.989,0,0,0-1.85,1.183,4.989,4.989,0,0,0-1.85-1.183A13.966,13.966,0,0,0,7.476,46a13.967,13.967,0,0,0-5.064.864C.857,47.49,0,48.381,0,49.373V62.863c0,.991.857,1.882,2.412,2.509a13.671,13.671,0,0,0,4.67.859v0c0,1.923,3.142,3.373,7.307,3.373s7.307-1.45,7.307-3.373v0a13.671,13.671,0,0,0,4.67-.859c1.556-.627,2.412-1.517,2.412-2.509V49.373C28.78,48.381,27.923,47.49,26.368,46.864Zm1.288,12.627c0,.48-.654,1.042-1.708,1.466a12.707,12.707,0,0,1-4.25.777V59.491s0,0,0,0a13.67,13.67,0,0,0,4.671-.859,6.121,6.121,0,0,0,1.288-.688v1.552ZM13.828,52.745c0,.48-.654,1.042-1.708,1.466a13.016,13.016,0,0,1-4.644.783,13.016,13.016,0,0,1-4.644-.783c-1.054-.424-1.708-.986-1.708-1.466V51.193a6.121,6.121,0,0,0,1.288.688,13.967,13.967,0,0,0,5.064.864,13.967,13.967,0,0,0,5.064-.864,6.121,6.121,0,0,0,1.288-.688ZM2.412,55.254a13.967,13.967,0,0,0,5.064.864,13.967,13.967,0,0,0,5.064-.864,6.121,6.121,0,0,0,1.288-.688v1.562a13.669,13.669,0,0,0-3.977.685,4.837,4.837,0,0,0-2.388,1.553,13.007,13.007,0,0,1-4.631-.782c-1.054-.424-1.708-.986-1.708-1.466V54.566A6.121,6.121,0,0,0,2.412,55.254ZM1.124,57.938a6.12,6.12,0,0,0,1.288.688,13.672,13.672,0,0,0,4.671.859s0,0,0,0v2.243a12.707,12.707,0,0,1-4.25-.777c-1.054-.424-1.708-.986-1.708-1.466Zm7.142,1.276c.417-.969,2.821-1.972,6.124-1.972s5.707,1,6.123,1.971a.7.7,0,0,1,.06.277c0,.494-.609,1.043-1.63,1.468a12.234,12.234,0,0,1-4.553.78,12.234,12.234,0,0,1-4.553-.78c-1.021-.425-1.63-.974-1.63-1.468A.694.694,0,0,1,8.266,59.214Zm19.39-3.1c0,.48-.654,1.042-1.708,1.466a13.006,13.006,0,0,1-4.631.782,4.837,4.837,0,0,0-2.388-1.553,13.668,13.668,0,0,0-3.977-.685V54.566a6.121,6.121,0,0,0,1.288.688,13.967,13.967,0,0,0,5.064.864,13.967,13.967,0,0,0,5.064-.864,6.121,6.121,0,0,0,1.288-.688Zm0-3.373c0,.48-.654,1.042-1.708,1.466a13.016,13.016,0,0,1-4.644.783,13.016,13.016,0,0,1-4.644-.783c-1.054-.424-1.708-.986-1.708-1.466V51.193a6.121,6.121,0,0,0,1.288.688,13.967,13.967,0,0,0,5.064.864,13.967,13.967,0,0,0,5.064-.864,6.121,6.121,0,0,0,1.288-.688Zm-11-4.839a13.016,13.016,0,0,1,4.644-.783,13.016,13.016,0,0,1,4.644.783c1.054.424,1.708.986,1.708,1.466S27,50.414,25.948,50.839a13.016,13.016,0,0,1-4.644.783,13.016,13.016,0,0,1-4.644-.783c-1.054-.424-1.708-.986-1.708-1.466S15.607,48.331,16.66,47.907Zm-13.828,0a13.016,13.016,0,0,1,4.644-.783,13.016,13.016,0,0,1,4.644.783c1.054.424,1.708.986,1.708,1.466s-.654,1.042-1.708,1.466a13.016,13.016,0,0,1-4.644.783,13.016,13.016,0,0,1-4.644-.783c-1.054-.424-1.708-.986-1.708-1.466S1.779,48.331,2.832,47.907Zm0,16.422c-1.054-.424-1.708-.986-1.708-1.466V61.311A6.121,6.121,0,0,0,2.412,62a13.671,13.671,0,0,0,4.67.859v2.248A12.707,12.707,0,0,1,2.832,64.329ZM18.943,67.7a12.234,12.234,0,0,1-4.553.78,12.234,12.234,0,0,1-4.553-.78c-1.021-.425-1.63-.974-1.63-1.468V64.716a4.947,4.947,0,0,0,.424.274,9.844,9.844,0,0,0,3.435,1.08.571.571,0,0,0,.082.006.562.562,0,0,0,.081-1.118c-2.612-.384-4.022-1.366-4.022-2.1V61.339a10.973,10.973,0,0,0,6.183,1.524,10.973,10.973,0,0,0,6.183-1.524v1.524c0,.73-1.41,1.712-4.022,2.1a.562.562,0,0,0,.081,1.118.571.571,0,0,0,.082-.006,9.844,9.844,0,0,0,3.435-1.08,4.958,4.958,0,0,0,.424-.274v1.519C20.573,66.73,19.964,67.279,18.943,67.7Zm7-3.375a12.708,12.708,0,0,1-4.25.777V62.858A13.671,13.671,0,0,0,26.368,62a6.121,6.121,0,0,0,1.288-.688v1.552C27.656,63.343,27,63.9,25.948,64.329Z" transform="translate(0 0)"/></g></svg>