<svg xmlns="http://www.w3.org/2000/svg" width="117" height="96.516" viewBox="0 0 117 96.516"><defs><style>.a{fill:#ed1c26;stroke:#fff;stroke-width:3px;}</style></defs><g transform="translate(1.5 -44.5)"><path class="a" d="M248.226,386a2.227,2.227,0,1,0,2.227,2.227A2.228,2.228,0,0,0,248.226,386Z" transform="translate(-191.227 -264.297)"/><path class="a" d="M104.445,49.422A55.325,55.325,0,0,0,84.387,46a55.325,55.325,0,0,0-20.058,3.422A19.762,19.762,0,0,0,57,54.108a19.762,19.762,0,0,0-7.328-4.686A55.32,55.32,0,0,0,29.613,46,55.325,55.325,0,0,0,9.555,49.422C3.393,51.9,0,55.433,0,59.359V112.8c0,3.926,3.393,7.455,9.555,9.937a54.152,54.152,0,0,0,18.5,3.4v.019c0,7.616,12.444,13.359,28.945,13.359s28.945-5.743,28.945-13.359v-.019a54.152,54.152,0,0,0,18.5-3.4c6.162-2.482,9.555-6.011,9.555-9.937V59.359C114,55.433,110.607,51.9,104.445,49.422Zm5.1,50.015c0,1.9-2.592,4.126-6.765,5.806a50.334,50.334,0,0,1-16.836,3.078V99.438c0-.006,0-.013,0-.019a54.148,54.148,0,0,0,18.5-3.4,24.245,24.245,0,0,0,5.1-2.726v6.148ZM54.773,72.719c0,1.9-2.592,4.126-6.765,5.806a51.557,51.557,0,0,1-18.395,3.1,51.557,51.557,0,0,1-18.395-3.1c-4.173-1.681-6.765-3.906-6.765-5.806V66.57a24.246,24.246,0,0,0,5.1,2.726,55.324,55.324,0,0,0,20.058,3.422A55.324,55.324,0,0,0,49.672,69.3a24.246,24.246,0,0,0,5.1-2.726ZM9.555,82.656a55.325,55.325,0,0,0,20.058,3.422,55.325,55.325,0,0,0,20.058-3.422,24.245,24.245,0,0,0,5.1-2.726v6.188a54.146,54.146,0,0,0-15.752,2.714c-4.481,1.578-7.706,3.683-9.46,6.152a51.522,51.522,0,0,1-18.343-3.1C7.046,90.2,4.453,87.979,4.453,86.078V79.93A24.245,24.245,0,0,0,9.555,82.656Zm-5.1,10.633a24.243,24.243,0,0,0,5.1,2.726,54.157,54.157,0,0,0,18.5,3.4c0,.006,0,.013,0,.019v8.884a50.333,50.333,0,0,1-16.836-3.078c-4.173-1.681-6.766-3.906-6.766-5.806Zm28.29,5.055C34.393,94.5,43.918,90.531,57,90.531S79.607,94.5,81.255,98.339a2.755,2.755,0,0,1,.237,1.1c0,1.958-2.413,4.132-6.456,5.816-4.782,1.993-11.187,3.09-18.036,3.09s-13.254-1.1-18.036-3.09c-4.043-1.684-6.456-3.859-6.456-5.816A2.75,2.75,0,0,1,32.743,98.344Zm76.8-12.265c0,1.9-2.592,4.126-6.765,5.806a51.518,51.518,0,0,1-18.342,3.1c-1.752-2.468-4.977-4.573-9.46-6.152a54.139,54.139,0,0,0-15.752-2.714V79.93a24.245,24.245,0,0,0,5.1,2.726,55.325,55.325,0,0,0,20.058,3.422,55.325,55.325,0,0,0,20.058-3.422,24.244,24.244,0,0,0,5.1-2.726Zm0-13.359c0,1.9-2.592,4.126-6.765,5.806a51.557,51.557,0,0,1-18.395,3.1,51.557,51.557,0,0,1-18.395-3.1c-4.173-1.681-6.765-3.906-6.765-5.806V66.57a24.246,24.246,0,0,0,5.1,2.726,55.324,55.324,0,0,0,20.058,3.422A55.324,55.324,0,0,0,104.445,69.3a24.245,24.245,0,0,0,5.1-2.726ZM65.992,53.553a51.557,51.557,0,0,1,18.395-3.1,51.557,51.557,0,0,1,18.395,3.1c4.173,1.681,6.765,3.906,6.765,5.806s-2.592,4.126-6.765,5.806a51.557,51.557,0,0,1-18.395,3.1,51.557,51.557,0,0,1-18.395-3.1c-4.173-1.681-6.765-3.906-6.765-5.806S61.819,55.234,65.992,53.553Zm-54.773,0a51.557,51.557,0,0,1,18.395-3.1,51.557,51.557,0,0,1,18.395,3.1c4.173,1.681,6.765,3.906,6.765,5.806s-2.592,4.126-6.765,5.806a51.557,51.557,0,0,1-18.395,3.1,51.557,51.557,0,0,1-18.395-3.1c-4.173-1.681-6.765-3.906-6.765-5.806S7.046,55.234,11.219,53.553Zm0,65.05c-4.173-1.681-6.765-3.906-6.765-5.806v-6.148a24.245,24.245,0,0,0,5.1,2.726,54.152,54.152,0,0,0,18.5,3.4v8.9A50.334,50.334,0,0,1,11.219,118.6Zm63.818,13.37c-4.782,1.992-11.187,3.09-18.036,3.09s-13.254-1.1-18.036-3.09c-4.043-1.684-6.456-3.859-6.456-5.817v-6.019a19.59,19.59,0,0,0,1.68,1.085,39,39,0,0,0,13.605,4.28,2.259,2.259,0,0,0,.326.024,2.227,2.227,0,0,0,.321-4.43c-10.348-1.519-15.932-5.41-15.932-8.3v-6.038C37.547,110.446,46.443,112.8,57,112.8s19.453-2.351,24.492-6.038V112.8c0,2.89-5.584,6.78-15.932,8.3a2.227,2.227,0,0,0,.321,4.43,2.259,2.259,0,0,0,.326-.024,38.995,38.995,0,0,0,13.605-4.28,19.631,19.631,0,0,0,1.68-1.085v6.019C81.492,128.114,79.079,130.288,75.036,131.973Zm27.745-13.37a50.336,50.336,0,0,1-16.836,3.078v-8.9a54.154,54.154,0,0,0,18.5-3.4,24.245,24.245,0,0,0,5.1-2.726V112.8C109.547,114.7,106.954,116.922,102.781,118.6Z" transform="translate(0 0)"/></g></svg>