<svg xmlns="http://www.w3.org/2000/svg" width="23.54" height="36.308" viewBox="0 0 23.54 36.308"><defs><style>.a,.b{fill:#ed1c26;}.a{stroke:rgba(0,0,0,0);stroke-miterlimit:10;}</style></defs><g transform="translate(-863.649 -348.073)"><path class="a" d="M14.354,30.085h0l-1.625-.007-.262-.184-.055-.038-.327-.229-.318-.222-.012-.01-.051-.036-.179-.126c-1.364-.957-2.774-1.946-4.151-2.927a.371.371,0,0,0-.21-.082.375.375,0,0,0-.22.1l-.016.013-.005,0a.4.4,0,0,1-.036.026c-1.521,1.067-3.145,2.207-5.265,3.7l-.76,0H.811l-.811,0c.167-1.078.35-2.219.542-3.393L.6,26.28l.063-.386c.021-.128.041-.256.061-.384l.062-.38C1.242,22.363,1.7,19.567,2,17.7l.038-.232.334-2.055L2.438,15c.295-1.811.585-3.6.829-5.114l.022-.13c.195-1.191.4-2.462.587-3.682.045-.288.2-.406.525-.406h.038c.147,0,.321,0,.531,0H5.9c.172,0,.387,0,.593,0h.034a.361.361,0,0,0,.247-.058A.257.257,0,0,0,6.836,5.4c-.016-.49-.017-1.049,0-1.71.006-.19-.062-.27-.278-.328a1.685,1.685,0,0,1-1.433-1.92A1.921,1.921,0,0,1,7.119,0h.037A1.91,1.91,0,0,1,9.125,1.55,1.7,1.7,0,0,1,7.817,3.315c-.243.075-.315.166-.312.386.017.677.017,1.192,0,1.671a.269.269,0,0,0,.069.227.357.357,0,0,0,.243.058h.026c.189,0,.385-.007.615-.007.159,0,.309,0,.463,0h.032c.309,0,.627,0,.939,0H9.92c.324,0,.477.121.525.418.574,3.537,1.219,7.491,1.915,11.753l.247,1.5.131.8.21,1.285.039.229.084.517.01.062c.42,2.579.855,5.245,1.273,7.865Zm-1.929-7.6h0L7.7,25.8l3.7,2.592.653.458,1.6,1.12c-.173-1.054-.343-2.091-.512-3.123-.237-1.455-.474-2.9-.715-4.363Zm-10.521,0h0l-.091.552-.171,1.051c-.322,1.975-.635,3.883-.963,5.883L1.9,29.107l.719-.5c1.152-.807,2.241-1.57,3.349-2.348l.005,0c.312-.22.484-.341.484-.458s-.172-.239-.486-.46l-.006,0c-.952-.67-1.887-1.325-2.876-2.019l-.118-.083-1.07-.75Zm5.262-4.6a.289.289,0,0,0-.183.094C5.814,19,4.626,20.026,3.51,20.994l-.07.06-1.1.959,1.572,1.105c.993.7,2.05,1.442,3.1,2.186a.278.278,0,0,0,.159.063.381.381,0,0,0,.2-.089c.866-.612,1.751-1.233,2.607-1.834l.342-.241,1.462-1.026.033-.024c.066-.043.127-.085.131-.139s-.031-.094-.105-.158C10.269,20.518,8.751,19.2,7.344,17.97A.292.292,0,0,0,7.166,17.881ZM3.2,14.553h0q-.125.767-.251,1.543l-.159.973-.009.054q-.341,2.09-.693,4.254l.137-.112c.081-.064.138-.111.195-.161L5.7,18.265l.605-.524.005,0c.19-.166.287-.25.285-.334s-.1-.165-.3-.328c-.773-.634-1.557-1.269-2.315-1.883l-.273-.222L3.2,14.554Zm7.94.022h0l-.519.42-.228.184-.032.026c-.8.65-1.635,1.323-2.468,1.982-.105.084-.153.15-.154.212s.064.149.165.237c.831.711,1.671,1.439,2.483,2.144l.1.082.063.056q.712.617,1.425,1.234a.422.422,0,0,1,.039.04l.007.008a.23.23,0,0,0,.182.1h.032c-.142-.876-.284-1.752-.424-2.622l-.214-1.329c-.153-.938-.3-1.865-.451-2.777ZM7.168,9.709h0q-.685.768-1.354,1.522l-.059.067c-.634.714-1.371,1.544-2.1,2.354-.125.139-.121.209.016.328,1.177,1.007,2.253,1.938,3.291,2.847a.322.322,0,0,0,.2.1.31.31,0,0,0,.2-.1c1.122-.984,2.284-1.988,3.285-2.852.123-.1.159-.173.046-.3-1.078-1.2-2.155-2.418-3.2-3.594L7.168,9.71ZM9.846,6.691h0L9.6,6.966l-.109.123c-.61.687-1.186,1.336-1.764,1.981-.087.1-.132.166-.028.282.783.87,1.575,1.761,2.319,2.6l.769.864.068-.014c-.26-1.558-.527-3.178-.843-5.1L9.846,6.691Zm-5.366,0h0L4.43,7c-.349,2.125-.648,3.957-.942,5.768.025-.013.049-.023.071-.031l.012,0a.265.265,0,0,0,.093-.051q.762-.856,1.521-1.712L6.617,9.357c.079-.092.1-.156.015-.254-.7-.783-1.419-1.589-2.112-2.367L4.48,6.691Zm.494-.413h0l.611.686.375.421L7.168,8.744c.33-.374.657-.742.982-1.11l1.2-1.356H4.974Z" transform="translate(868.32 353.323)"/><path class="b" d="M1031.87,348.073a8.079,8.079,0,0,1-.309,11.1c-.169.168-.349.321-.608.142s-.115-.352.04-.529c2.787-3.169,2.967-6.843.482-10.109a.386.386,0,0,1,.029-.6Z" transform="translate(-146.738 0)"/><path class="b" d="M865.986,348.073c.289.183.3.362.1.63a7.454,7.454,0,0,0,.481,10.074c.156.174.3.358.059.531-.285.2-.465,0-.632-.17a8.061,8.061,0,0,1-.28-11.066Z" transform="translate(0 0)"/><path class="b" d="M1010.163,369.777a4.517,4.517,0,0,0-1.079-2.868c-.052-.062-.1-.125-.158-.186-.15-.167-.164-.328.05-.462a.388.388,0,0,1,.545.1,5.035,5.035,0,0,1,1.277,2.525,4.915,4.915,0,0,1-1.531,4.493c-.169.169-.342.375-.631.172s-.1-.384.078-.554A4.585,4.585,0,0,0,1010.163,369.777Z" transform="translate(-127.144 -16.279)"/><path class="b" d="M893.812,366.2a.436.436,0,0,1,.325.187c.1.151,0,.267-.1.38a4.567,4.567,0,0,0-1.078,2.027,4.35,4.35,0,0,0,1.236,4.131c.066.07.144.132.2.2.124.153.145.31-.042.439a.379.379,0,0,1-.517-.067,5.259,5.259,0,0,1-1.395-2.025,4.816,4.816,0,0,1,.953-5.017C893.568,366.252,893.671,366.2,893.812,366.2Z" transform="translate(-24.985 -16.289)"/><path class="b" d="M919.841,385.571a2.361,2.361,0,0,1,.716-1.735.42.42,0,0,1,.583-.1c.225.155.141.324-.014.5a1.649,1.649,0,0,0,.1,2.547c.172.167.326.336.077.518s-.441.05-.626-.109A2.3,2.3,0,0,1,919.841,385.571Z" transform="translate(-49.326 -31.971)"/><path class="b" d="M988.734,385.445a2.349,2.349,0,0,1-.857,1.769.446.446,0,0,1-.595.089c-.227-.161-.129-.324.039-.49a1.656,1.656,0,0,0,.108-2.605c-.143-.167-.2-.327.006-.468a.418.418,0,0,1,.583.1A2.237,2.237,0,0,1,988.734,385.445Z" transform="translate(-108.409 -31.976)"/></g></svg>