<svg xmlns="http://www.w3.org/2000/svg" xmlns:xlink="http://www.w3.org/1999/xlink" width="60" height="60" viewBox="0 0 60 60"><defs><style>.a,.b,.d{fill:none;}.b,.d{stroke:#ed1c24;}.b{stroke-width:1.5px;}.c{clip-path:url(#a);}.d{stroke-linecap:round;stroke-width:2px;}.e{fill:#ed1c24;stroke:#ed1c26;stroke-width:0.2px;}.f{stroke:none;}</style><clipPath id="a"><rect class="a" width="42.5" height="41.125"/></clipPath></defs><g transform="translate(-1218 -364)"><g class="b" transform="translate(1218 364)"><rect class="f" width="60" height="60"/><rect class="a" x="0.75" y="0.75" width="58.5" height="58.5"/></g><g class="c" transform="translate(1227 373.938)"><g transform="translate(-1228 -372.938)"><line class="d" x1="20" transform="translate(1249.5 377.5)"/><path class="e" d="M8.322,14.919,5.5,12.093l-1,.953,3.822,3.814L16.5,8.688l-1-.953Z" transform="translate(1223.5 365.203)"/></g><g transform="translate(-1228 -356.938)"><line class="d" x1="20" transform="translate(1249.5 377.5)"/><path class="e" d="M8.322,14.919,5.5,12.093l-1,.953,3.822,3.814L16.5,8.688l-1-.953Z" transform="translate(1223.5 365.203)"/></g><g transform="translate(-1228 -340.938)"><line class="d" x1="20" transform="translate(1249.5 377.5)"/><path class="e" d="M8.322,14.919,5.5,12.093l-1,.953,3.822,3.814L16.5,8.688l-1-.953Z" transform="translate(1223.5 365.203)"/></g></g></g></svg>