<svg xmlns="http://www.w3.org/2000/svg" width="67.749" height="67.749" viewBox="0 0 67.749 67.749"><defs><style>.a{fill:#ed1c26;stroke:#fff;stroke-width:3px;}</style></defs><path class="a" d="M62.219,0H2.529A2.529,2.529,0,0,0,0,2.529v59.69a2.529,2.529,0,0,0,2.529,2.529h59.69a2.529,2.529,0,0,0,2.529-2.529V2.529A2.529,2.529,0,0,0,62.219,0ZM59.69,59.69H5.058V5.058H59.69ZM10.352,17.349a2.529,2.529,0,1,1,3.577-3.577l1.638,1.638L20.975,10a2.529,2.529,0,0,1,3.577,3.577l-7.2,7.2a2.529,2.529,0,0,1-3.577,0Zm19.493-1.961a2.529,2.529,0,0,1,2.529-2.529H52.608a2.529,2.529,0,1,1,0,5.058H32.374A2.529,2.529,0,0,1,29.845,15.388ZM10.352,51.321a2.529,2.529,0,0,1,3.577-3.577l1.638,1.638,5.409-5.408a2.529,2.529,0,0,1,3.577,3.577l-7.2,7.2a2.529,2.529,0,0,1-3.577,0ZM29.845,49.36a2.529,2.529,0,0,1,2.529-2.529H52.608a2.529,2.529,0,1,1,0,5.058H32.374A2.529,2.529,0,0,1,29.845,49.36ZM10.352,34.335a2.529,2.529,0,0,1,3.577-3.577L15.566,32.4l5.409-5.409a2.529,2.529,0,0,1,3.577,3.577l-7.2,7.2a2.53,2.53,0,0,1-3.577,0Zm19.493-1.961a2.529,2.529,0,0,1,2.529-2.529H52.608a2.529,2.529,0,1,1,0,5.058H32.374A2.529,2.529,0,0,1,29.845,32.374Zm0,0" transform="translate(1.5 1.5)"/></svg>