<svg xmlns="http://www.w3.org/2000/svg" width="20.5" height="13.667" viewBox="0 0 20.5 13.667"><defs><style>.a{fill:#707070;}</style></defs><path class="a" d="M20.376,10.814A11.415,11.415,0,0,0,10.25,4.5,11.417,11.417,0,0,0,.124,10.814a1.151,1.151,0,0,0,0,1.039A11.415,11.415,0,0,0,10.25,18.167a11.417,11.417,0,0,0,10.126-6.314A1.151,1.151,0,0,0,20.376,10.814ZM10.25,16.458a5.125,5.125,0,1,1,5.125-5.125A5.125,5.125,0,0,1,10.25,16.458Zm0-8.542a3.392,3.392,0,0,0-.9.135,1.7,1.7,0,0,1-2.381,2.381A3.409,3.409,0,1,0,10.25,7.917Z" transform="translate(0 -4.5)"/></svg>