<svg width="19" height="21" viewBox="0 0 19 21" fill="none" xmlns="http://www.w3.org/2000/svg">
<path d="M17.3993 20.2983C17.2569 20.2983 17.1166 20.2703 16.99 20.2165L14.2724 19.0725L12.2562 20.176C12.1087 20.2569 11.9356 20.3 11.7587 20.3C11.5818 20.3 11.4087 20.2569 11.2612 20.176L9.30234 19.1039L7.34436 20.1753C7.19681 20.2562 7.02378 20.2993 6.84683 20.2993C6.66989 20.2993 6.49687 20.2562 6.34933 20.1753L4.33057 19.0718L1.61048 20.2186C1.47291 20.2767 1.31963 20.3045 1.16534 20.2994C1.01106 20.2943 0.860934 20.2565 0.729366 20.1896C0.597798 20.1228 0.4892 20.029 0.413982 19.9174C0.338764 19.8058 0.299449 19.6801 0.299807 19.5523V1.04696C0.299883 0.919352 0.339512 0.793892 0.414909 0.68258C0.490306 0.571267 0.59895 0.477823 0.730448 0.411182C0.861946 0.344541 1.01191 0.306934 1.16598 0.301954C1.32006 0.296973 1.4731 0.324788 1.61048 0.382737L4.32804 1.52679L6.3451 0.424642C6.49265 0.343816 6.66567 0.300718 6.84261 0.300718C7.01955 0.300718 7.19259 0.343816 7.34013 0.424642L9.29811 1.49466L11.2561 0.424642C11.4036 0.343963 11.5764 0.300949 11.7532 0.300949C11.93 0.300949 12.1028 0.343963 12.2503 0.424642L14.269 1.52819L16.9891 0.381341C17.1266 0.323365 17.2797 0.295551 17.4338 0.300563C17.588 0.305576 17.738 0.343245 17.8695 0.409967C18.0011 0.47669 18.1097 0.570234 18.185 0.681642C18.2603 0.79305 18.2999 0.918595 18.2998 1.04626V19.5516C18.2998 19.7495 18.2048 19.9392 18.0358 20.0791C17.8668 20.219 17.6375 20.2976 17.3985 20.2976L17.3993 20.2983ZM4.39049 18.4341C4.56725 18.4341 4.74012 18.4771 4.88758 18.5577L6.84726 19.6284L8.80524 18.557C8.9527 18.4763 9.12557 18.4333 9.30234 18.4333C9.47911 18.4333 9.65198 18.4763 9.79944 18.557L11.7557 19.6284L13.7137 18.557C13.8467 18.4842 14.0007 18.4419 14.16 18.4344C14.3192 18.4269 14.478 18.4545 14.6201 18.5144L17.3985 19.5523V1.27885L14.6176 2.08834C14.4755 2.14825 14.3167 2.17587 14.1574 2.16838C13.9982 2.1609 13.8442 2.11858 13.7112 2.04574L11.7549 0.972926L9.79521 2.04364C9.64767 2.12447 9.47464 2.16757 9.2977 2.16757C9.12076 2.16757 8.94773 2.12447 8.80018 2.04364L6.8422 0.972926L4.8842 2.04434C4.75118 2.11718 4.5972 2.1595 4.43795 2.16698C4.27871 2.17447 4.11992 2.14685 3.97779 2.08695L1.20791 0.969433V19.5481L3.98032 18.5095C4.10795 18.458 4.24849 18.4322 4.39049 18.4341Z" fill="#2B3E50" stroke="#2B3E50" stroke-width="0.6"/>
<path d="M13.501 7.29999H5.09865C4.65759 7.29999 4.2998 7.07572 4.2998 6.79998C4.2998 6.52424 4.65759 6.29999 5.09865 6.29999H13.501C13.942 6.29999 14.2998 6.52424 14.2998 6.79998C14.2998 7.07572 13.9428 7.29999 13.501 7.29999Z" fill="#EB1A22" stroke="#EB1A22" stroke-width="0.5"/>
<path d="M13.501 10.3H5.09865C4.65759 10.3 4.2998 10.0762 4.2998 9.79999C4.2998 9.52376 4.65759 9.29999 5.09865 9.29999H13.501C13.942 9.29999 14.2998 9.52376 14.2998 9.79999C14.2998 10.0762 13.9428 10.3 13.501 10.3Z" fill="#EB1A22" stroke="#EB1A22" stroke-width="0.5"/>
<path d="M13.501 14.3H5.09865C4.65759 14.3 4.2998 14.0757 4.2998 13.8C4.2998 13.5242 4.65759 13.3 5.09865 13.3H13.501C13.942 13.3 14.2998 13.5242 14.2998 13.8C14.2998 14.0757 13.9428 14.3 13.501 14.3Z" fill="#EB1A22" stroke="#EB1A22" stroke-width="0.5"/>
</svg>
