<svg width="20" height="23" viewBox="0 0 20 23" fill="none" xmlns="http://www.w3.org/2000/svg">
<path d="M18.5495 22.5203C18.3992 22.5204 18.2511 22.4892 18.1174 22.4295L15.2489 21.1583L13.1206 22.3845C12.9649 22.4743 12.7823 22.5222 12.5955 22.5222C12.4087 22.5222 12.2261 22.4743 12.0703 22.3845L10.0027 21.1932L7.93592 22.3837C7.78017 22.4735 7.59753 22.5214 7.41075 22.5214C7.22398 22.5214 7.04135 22.4735 6.88561 22.3837L4.75469 21.1575L1.88349 22.4318C1.73828 22.4963 1.57648 22.5272 1.41363 22.5216C1.25077 22.5159 1.0923 22.4739 0.953426 22.3996C0.814549 22.3253 0.699917 22.2211 0.62052 22.0971C0.541123 21.9731 0.499625 21.8334 0.500003 21.6915V1.12996C0.500082 0.98817 0.541913 0.84877 0.621499 0.72509C0.701085 0.601409 0.815765 0.497582 0.954568 0.423537C1.09337 0.349492 1.25166 0.307706 1.4143 0.302172C1.57694 0.296639 1.73848 0.327543 1.88349 0.391932L4.75202 1.66311L6.88115 0.438493C7.03689 0.348686 7.21952 0.300799 7.4063 0.300799C7.59307 0.300799 7.77571 0.348686 7.93146 0.438493L9.99822 1.62741L12.065 0.438493C12.2206 0.348849 12.4031 0.301056 12.5897 0.301056C12.7763 0.301056 12.9588 0.348849 13.1144 0.438493L15.2453 1.66466L18.1165 0.39038C18.2616 0.325962 18.4232 0.295057 18.5859 0.300627C18.7486 0.306196 18.907 0.348051 19.0458 0.422187C19.1846 0.496323 19.2993 0.600261 19.3788 0.724048C19.4584 0.847834 19.5001 0.987329 19.5 1.12918V21.6907C19.5 21.9105 19.3998 22.1213 19.2213 22.2768C19.0429 22.4322 18.8009 22.5195 18.5486 22.5195L18.5495 22.5203ZM4.81794 20.449C5.00452 20.449 5.187 20.4967 5.34266 20.5864L7.4112 21.776L9.47796 20.5856C9.63361 20.4959 9.81609 20.4481 10.0027 20.4481C10.1893 20.4481 10.3717 20.4959 10.5274 20.5856L12.5924 21.776L14.6591 20.5856C14.7995 20.5047 14.9621 20.4576 15.1302 20.4493C15.2983 20.441 15.4659 20.4717 15.6159 20.5383L18.5486 21.6915V1.38761L15.6132 2.28705C15.4632 2.35361 15.2956 2.3843 15.1275 2.37598C14.9594 2.36767 14.7969 2.32064 14.6565 2.23971L12.5915 1.0477L10.5229 2.23738C10.3672 2.32719 10.1846 2.37508 9.99778 2.37508C9.81101 2.37508 9.62836 2.32719 9.47262 2.23738L7.40586 1.0477L5.33909 2.23816C5.19868 2.31909 5.03614 2.36611 4.86805 2.37443C4.69996 2.38275 4.53234 2.35206 4.38232 2.2855L1.45856 1.04382V21.6868L4.38499 20.5328C4.51971 20.4756 4.66806 20.4468 4.81794 20.449Z" fill="#2B3E50" stroke="#2B3E50" stroke-width="0.6"/>
<path d="M14.435 8.07772H5.56588C5.10032 8.07772 4.72266 7.82853 4.72266 7.52216C4.72266 7.21578 5.10032 6.96661 5.56588 6.96661H14.435C14.9005 6.96661 15.2782 7.21578 15.2782 7.52216C15.2782 7.82853 14.9014 8.07772 14.435 8.07772Z" fill="#EB1A22" stroke="#EB1A22" stroke-width="0.5"/>
<path d="M14.435 11.4111H5.56588C5.10032 11.4111 4.72266 11.1625 4.72266 10.8555C4.72266 10.5486 5.10032 10.3 5.56588 10.3H14.435C14.9005 10.3 15.2782 10.5486 15.2782 10.8555C15.2782 11.1625 14.9014 11.4111 14.435 11.4111Z" fill="#EB1A22" stroke="#EB1A22" stroke-width="0.5"/>
<path d="M14.435 15.8556H5.56588C5.10032 15.8556 4.72266 15.6064 4.72266 15.3C4.72266 14.9936 5.10032 14.7444 5.56588 14.7444H14.435C14.9005 14.7444 15.2782 14.9936 15.2782 15.3C15.2782 15.6064 14.9014 15.8556 14.435 15.8556Z" fill="#EB1A22" stroke="#EB1A22" stroke-width="0.5"/>
</svg>
