<svg width="17" height="23" viewBox="0 0 17 23" fill="none" xmlns="http://www.w3.org/2000/svg">
<path d="M15.7666 22.1981C15.637 22.1982 15.5092 22.1674 15.3939 22.1082L12.92 20.8498L11.0846 22.0637C10.9503 22.1526 10.7928 22.2 10.6317 22.2C10.4706 22.2 10.3131 22.1526 10.1788 22.0637L8.39557 20.8843L6.61313 22.0629C6.47882 22.1518 6.3213 22.1992 6.16022 22.1992C5.99914 22.1992 5.84163 22.1518 5.70732 22.0629L3.86956 20.849L1.39336 22.1105C1.26812 22.1744 1.12859 22.2049 0.988131 22.1994C0.847678 22.1938 0.711014 22.1522 0.591242 22.0786C0.471471 22.0051 0.372609 21.9019 0.304135 21.7792C0.235661 21.6564 0.199872 21.5181 0.200198 21.3776V1.02168C0.200266 0.881313 0.236343 0.743307 0.304979 0.620863C0.373616 0.498419 0.472519 0.395631 0.592227 0.322326C0.711935 0.249021 0.848449 0.207653 0.988712 0.202175C1.12897 0.196696 1.26829 0.227292 1.39336 0.291037L3.86726 1.5495L5.70347 0.337132C5.83779 0.248223 5.9953 0.200815 6.15637 0.200815C6.31745 0.200815 6.47497 0.248223 6.60929 0.337132L8.39172 1.51416L10.1742 0.337132C10.3084 0.248385 10.4658 0.20107 10.6267 0.20107C10.7876 0.20107 10.945 0.248385 11.0792 0.337132L12.917 1.55103L15.3932 0.289501C15.5183 0.225727 15.6577 0.195131 15.798 0.200645C15.9383 0.206159 16.0749 0.247595 16.1946 0.320989C16.3144 0.394384 16.4132 0.497283 16.4818 0.619831C16.5504 0.74238 16.5864 0.88048 16.5863 1.02091V21.3768C16.5863 21.5944 16.4999 21.8031 16.346 21.957C16.1921 22.1109 15.9834 22.1973 15.7658 22.1973L15.7666 22.1981ZM3.92411 20.1475C4.08502 20.1475 4.24239 20.1948 4.37663 20.2835L6.16061 21.4613L7.94304 20.2828C8.07727 20.194 8.23464 20.1467 8.39557 20.1467C8.55649 20.1467 8.71386 20.194 8.84809 20.2828L10.629 21.4613L12.4114 20.2828C12.5325 20.2026 12.6727 20.1561 12.8177 20.1479C12.9626 20.1396 13.1072 20.17 13.2366 20.2359L15.7658 21.3776V1.27676L13.2343 2.1672C13.1049 2.2331 12.9603 2.26348 12.8154 2.25525C12.6704 2.24701 12.5302 2.20046 12.4091 2.12034L10.6282 0.940244L8.84425 2.11803C8.70993 2.20694 8.55242 2.25435 8.39135 2.25435C8.23027 2.25435 8.07275 2.20694 7.93843 2.11803L6.156 0.940244L4.37356 2.1188C4.25247 2.19892 4.11228 2.24548 3.96732 2.25371C3.82235 2.26194 3.6778 2.23156 3.54841 2.16567L1.02688 0.936402V21.373L3.55072 20.2305C3.66691 20.1738 3.79485 20.1454 3.92411 20.1475Z" fill="#1F2436" stroke="#1F2436" stroke-width="0.4"/>
<path d="M12.3093 7.86014H4.47885C4.06781 7.86014 3.73438 7.71954 3.73438 7.54667C3.73438 7.3738 4.06781 7.23322 4.47885 7.23322H12.3093C12.7203 7.23322 13.0537 7.3738 13.0537 7.54667C13.0537 7.71954 12.7211 7.86014 12.3093 7.86014Z" fill="#ED1C24" stroke="#ED1C24" stroke-width="0.5"/>
<path d="M12.3093 10.578H4.47885C4.06781 10.578 3.73438 10.4304 3.73438 10.2484C3.73438 10.0663 4.06781 9.91876 4.47885 9.91876H12.3093C12.7203 9.91876 13.0537 10.0663 13.0537 10.2484C13.0537 10.4304 12.7211 10.578 12.3093 10.578Z" fill="#ED1C24" stroke="#ED1C24" stroke-width="0.5"/>
<path d="M12.3093 13.6883H4.47885C4.06781 13.6883 3.73438 13.5477 3.73438 13.3748C3.73438 13.2019 4.06781 13.0613 4.47885 13.0613H12.3093C12.7203 13.0613 13.0537 13.2019 13.0537 13.3748C13.0537 13.5477 12.7211 13.6883 12.3093 13.6883Z" fill="#ED1C24" stroke="#ED1C24" stroke-width="0.5"/>
<path d="M12.3093 16.4041H4.47885C4.06781 16.4041 3.73438 16.2566 3.73438 16.0745C3.73438 15.8924 4.06781 15.7449 4.47885 15.7449H12.3093C12.7203 15.7449 13.0537 15.8924 13.0537 16.0745C13.0537 16.2566 12.7211 16.4041 12.3093 16.4041Z" fill="#ED1C24" stroke="#ED1C24" stroke-width="0.5"/>
</svg>
