<svg xmlns="http://www.w3.org/2000/svg" width="30" height="25.016" viewBox="0 0 30 25.016"><defs><style>.a{fill:#ed1c26;}</style></defs><g transform="translate(0.003)"><path class="a" d="M27.787,0H4.422A2.213,2.213,0,0,0,2.211,2.211v9.646a7.743,7.743,0,1,0,13.256,5.962h12.32A2.213,2.213,0,0,0,30,15.608V2.211A2.213,2.213,0,0,0,27.787,0ZM7.742,24.284a7.013,7.013,0,1,1,7.013-7.013A7.013,7.013,0,0,1,7.742,24.284Zm21.524-8.676a1.48,1.48,0,0,1-1.479,1.479h-12.3A7.74,7.74,0,0,0,2.943,11.2V2.211A1.481,1.481,0,0,1,4.422.732H27.787a1.48,1.48,0,0,1,1.479,1.479Zm0,0" transform="translate(0)"/><path class="a" d="M306.678,167.358a2.739,2.739,0,1,0,2.55,1.738,2.726,2.726,0,0,0-2.55-1.738ZM304.3,172.1a2.007,2.007,0,1,1,.457-3.962,2.733,2.733,0,0,0,0,3.908A2,2,0,0,1,304.3,172.1Zm2.007-2.007a1.017,1.017,0,1,1-.821-1.618A2.005,2.005,0,0,1,306.312,170.1Zm.366,2.007a2,2,0,0,1-.457-.053,2.733,2.733,0,0,0,0-3.908,2.007,2.007,0,1,1,.457,3.961Zm0,0" transform="translate(-283.18 -157.153)"/><path class="a" d="M76.147,55.595h9.762a.366.366,0,1,0,0-.732H76.147a.366.366,0,0,0,0,.732Zm0,0" transform="translate(-71.163 -51.518)"/><path class="a" d="M259.04,54.863h-1.057a.366.366,0,0,0,0,.732h1.057a.366.366,0,1,0,0-.732Zm0,0" transform="translate(-241.911 -51.518)"/><path class="a" d="M76.6,85.117h-.456a.366.366,0,1,0,0,.732H76.6a.366.366,0,1,0,0-.732Zm0,0" transform="translate(-71.163 -79.927)"/><path class="a" d="M112.117,85.117h-6.1a.366.366,0,0,0,0,.732h6.1a.366.366,0,1,0,0-.732Zm0,0" transform="translate(-99.216 -79.927)"/><path class="a" d="M230.635,85.117h-2.9a.366.366,0,0,0,0,.732h2.9a.366.366,0,0,0,0-.732Zm0,0" transform="translate(-213.506 -79.927)"/><path class="a" d="M298.5,332.826l.023,3.639a.355.355,0,0,0,.355.353h0a.355.355,0,0,0,.353-.357l-.022-3.639a.355.355,0,1,0-.711,0Zm0,0" transform="translate(-290.839 -317.779)"/><path class="a" d="M299.359,414.238h0a.355.355,0,0,0-.353.357l0,.346a.355.355,0,0,0,.355.353h0a.355.355,0,0,0,.353-.357l0-.346A.355.355,0,0,0,299.359,414.238Zm0,0" transform="translate(-291.313 -394.706)"/></g></svg>