<svg xmlns="http://www.w3.org/2000/svg" width="106" height="106" viewBox="0 0 28 23.348"><defs><style>.a{fill:#ed1c26;}</style></defs><g transform="translate(0.003)"><path class="a" d="M25.934,0H4.127A2.066,2.066,0,0,0,2.063,2.063v9a7.226,7.226,0,1,0,12.372,5.565h11.5A2.065,2.065,0,0,0,28,14.568V2.063A2.066,2.066,0,0,0,25.934,0ZM7.226,22.665a6.545,6.545,0,1,1,6.545-6.545A6.545,6.545,0,0,1,7.226,22.665Zm20.089-8.1a1.382,1.382,0,0,1-1.38,1.38H14.452a7.224,7.224,0,0,0-11.705-5.5V2.063A1.382,1.382,0,0,1,4.127.683H25.934a1.382,1.382,0,0,1,1.38,1.38Zm0,0" transform="translate(0)"/><path class="a" d="M306.337,167.358a2.557,2.557,0,1,0,2.38,1.622,2.544,2.544,0,0,0-2.38-1.622Zm-2.215,4.43a1.874,1.874,0,1,1,.426-3.7,2.551,2.551,0,0,0,0,3.648A1.871,1.871,0,0,1,304.122,171.788ZM306,169.914a.949.949,0,1,1-.766-1.51A1.872,1.872,0,0,1,306,169.914Zm.341,1.874a1.868,1.868,0,0,1-.426-.05,2.551,2.551,0,0,0,0-3.648,1.873,1.873,0,1,1,.426,3.7Zm0,0" transform="translate(-284.406 -157.833)"/><path class="a" d="M76.123,55.546h9.111a.341.341,0,1,0,0-.683H76.123a.341.341,0,1,0,0,.683Zm0,0" transform="translate(-71.471 -51.741)"/><path class="a" d="M258.945,54.863h-.987a.341.341,0,0,0,0,.683h.987a.341.341,0,1,0,0-.683Zm0,0" transform="translate(-242.959 -51.741)"/><path class="a" d="M76.548,85.117h-.425a.341.341,0,1,0,0,.683h.425a.341.341,0,1,0,0-.683Zm0,0" transform="translate(-71.471 -80.273)"/><path class="a" d="M111.687,85.117H106a.341.341,0,0,0,0,.683h5.689a.341.341,0,1,0,0-.683Zm0,0" transform="translate(-99.646 -80.273)"/><path class="a" d="M230.417,85.117h-2.708a.341.341,0,1,0,0,.683h2.708a.341.341,0,1,0,0-.683Zm0,0" transform="translate(-214.43 -80.273)"/><path class="a" d="M298.5,332.8l.021,3.4a.331.331,0,0,0,.332.329h0a.332.332,0,0,0,.329-.334l-.021-3.4a.332.332,0,1,0-.663,0Zm0,0" transform="translate(-291.35 -318.758)"/><path class="a" d="M299.335,414.238h0a.332.332,0,0,0-.329.334l0,.323a.331.331,0,0,0,.332.329h0a.332.332,0,0,0,.329-.334l0-.323A.332.332,0,0,0,299.335,414.238Zm0,0" transform="translate(-291.825 -396.008)"/></g></svg>