<svg xmlns="http://www.w3.org/2000/svg" width="150" height="150" viewBox="0 0 106 94.95"><defs>
<style>.a{fill:#ed1c26;stroke:#fff;stroke-width:2px;}</style></defs>
<path style="transform: scale(0.7)" class="a" d="M104,85.3v15.6a8.677,8.677,0,0,1-8.667,8.667H8.667A8.677,8.677,0,0,1,0,100.9V85.3a8.677,8.677,0,0,1,8.667-8.667h3.467V31.892a6.392,6.392,0,1,1,12.783,0V71.867a1.733,1.733,0,1,1-3.467,0V31.892a2.925,2.925,0,1,0-5.85,0V76.633H68.395a1.733,1.733,0,0,1,0,3.467H8.667a5.206,5.206,0,0,0-5.2,5.2v15.6a5.206,5.206,0,0,0,5.2,5.2H95.333a5.206,5.206,0,0,0,5.2-5.2V85.3a5.206,5.206,0,0,0-5.2-5.2H80.817a1.733,1.733,0,0,1-1.733-1.733V31.892a6.392,6.392,0,1,1,12.783,0V71.867a1.733,1.733,0,1,1-3.467,0V31.892a2.925,2.925,0,1,0-5.85,0V76.633H95.333A8.677,8.677,0,0,1,104,85.3ZM16.033,91.367a1.733,1.733,0,1,0,0,3.467h4.622a1.733,1.733,0,1,0,0-3.467Zm12.205,0a1.733,1.733,0,1,0,0,3.467H40.517a1.733,1.733,0,1,0,0-3.467Zm-2.672,23.617H13.433a1.733,1.733,0,0,0,0,3.467H25.567a1.733,1.733,0,0,0,0-3.467Zm65,0H78.433a1.733,1.733,0,0,0,0,3.467H90.567a1.733,1.733,0,0,0,0-3.467ZM54.373,58.016a3.25,3.25,0,1,1-2.3-.952A3.253,3.253,0,0,1,54.373,58.016ZM60.041,54.8a1.733,1.733,0,0,0,0-2.451,11.26,11.26,0,0,0-15.933,0A1.733,1.733,0,1,0,46.559,54.8a7.8,7.8,0,0,1,11.031,0A1.734,1.734,0,0,0,60.041,54.8ZM40.124,48.364a16.891,16.891,0,0,1,23.9,0,1.733,1.733,0,0,0,2.451-2.451,20.355,20.355,0,0,0-28.8,0,1.733,1.733,0,0,0,2.451,2.451Z" transform="translate(1 -24.5)"/>
<defs><style>.a{fill:#ed1c26;stroke:#ed1c26;stroke-width:0.3px;}</style></defs><g style="transform:scale(1.5) translate(32px, 32px)"><g transform="translate(0)"><path class="a" d="M12.435,0A12.435,12.435,0,1,0,24.87,12.435,12.435,12.435,0,0,0,12.435,0ZM4.486,3.936a11.625,11.625,0,0,1,15.88,0L3.936,20.367A11.624,11.624,0,0,1,4.486,3.936Zm15.9,17a11.625,11.625,0,0,1-15.88,0L20.934,4.5A11.624,11.624,0,0,1,20.384,20.934Z" transform="translate(0)"/></g></g>

</svg>
