<svg xmlns="http://www.w3.org/2000/svg" width="24" height="24" viewBox="0 0 24 24">
  <g id="phone_1_" data-name="phone (1)" transform="translate(0 0)" opacity="0.8">
    <g id="Group_50" data-name="Group 50" transform="translate(0 0)">
      <g id="Group_49" data-name="Group 49" transform="translate(0 0)">
        <path id="Path_55" data-name="Path 55" d="M23.534,19.084,20.873,17.31l-2.365-1.577a1.048,1.048,0,0,0-1.407.228l-1.464,1.881a1.042,1.042,0,0,1-1.331.276,17.041,17.041,0,0,1-4.759-3.667A17.162,17.162,0,0,1,5.881,9.694a1.042,1.042,0,0,1,.276-1.331L8.039,6.9a1.048,1.048,0,0,0,.228-1.407L6.739,3.2,4.917.467A1.048,1.048,0,0,0,3.506.149L1.4,1.41A2.568,2.568,0,0,0,.238,2.919c-.575,2.1-.691,6.718,6.717,14.126s12.03,7.292,14.125,6.717A2.567,2.567,0,0,0,22.59,22.6l1.261-2.1A1.048,1.048,0,0,0,23.534,19.084Z" transform="translate(0 0)"/>
        <path id="Path_56" data-name="Path 56" d="M282.9,62.62a7.042,7.042,0,0,1,7.034,7.034.414.414,0,1,0,.828,0,7.871,7.871,0,0,0-7.862-7.862.414.414,0,0,0,0,.828Z" transform="translate(-269.241 -58.896)"/>
        <path id="Path_57" data-name="Path 57" d="M282.895,115.584a4.557,4.557,0,0,1,4.552,4.552.414.414,0,1,0,.828,0,5.385,5.385,0,0,0-5.379-5.379.414.414,0,0,0,0,.828Z" transform="translate(-269.24 -109.377)"/>
        <path id="Path_58" data-name="Path 58" d="M282.9,168.551a2.071,2.071,0,0,1,2.069,2.069.414.414,0,1,0,.828,0,2.9,2.9,0,0,0-2.9-2.9.414.414,0,0,0,0,.828Z" transform="translate(-269.241 -159.861)"/>
      </g>
    </g>
  </g>
</svg>
