<svg width="48" height="48" viewBox="0 0 48 48" fill="none" xmlns="http://www.w3.org/2000/svg">
<rect width="48" height="48" rx="8" fill="#F0F6FF"/>
<path d="M34.4064 11.6582H17.1895C16.505 11.6582 15.9502 12.2 15.9502 12.8683V29.948C15.9502 30.6164 16.505 31.1582 17.1895 31.1582H34.4064C35.0908 31.1582 35.6457 30.6164 35.6457 29.948V12.8683C35.6457 12.2 35.0908 11.6582 34.4064 11.6582Z" fill="white"/>
<path d="M34.9864 12.8684C34.9864 12.578 34.7407 12.3158 34.4048 12.3158H17.1885C16.8526 12.3158 16.6068 12.578 16.6068 12.8684V29.9476C16.6068 30.2379 16.8526 30.5001 17.1885 30.5001H34.4048C34.7407 30.5001 34.9864 30.2379 34.9864 29.9476V12.8684ZM36.3023 29.9476C36.3023 30.9939 35.4377 31.8159 34.4048 31.8159H17.1885C16.1556 31.8159 15.291 30.9939 15.291 29.9476V12.8684C15.291 11.822 16.1556 11 17.1885 11H34.4048C35.4377 11 36.3023 11.822 36.3023 12.8684V29.9476Z" fill="#1F2436"/>
<path d="M32.2189 13.75H15.002C14.3175 13.75 13.7627 14.2918 13.7627 14.9601V32.0398C13.7627 32.7082 14.3175 33.25 15.002 33.25H32.2189C32.9033 33.25 33.4582 32.7082 33.4582 32.0398V14.9601C33.4582 14.2918 32.9033 13.75 32.2189 13.75Z" fill="white"/>
<path d="M32.7989 14.9619C32.7989 14.6716 32.5532 14.4094 32.2173 14.4094H15.001C14.6651 14.4094 14.4193 14.6716 14.4193 14.9619V32.0411C14.4193 32.3314 14.6651 32.5937 15.001 32.5937H32.2173C32.5532 32.5937 32.7989 32.3314 32.7989 32.0411V14.9619ZM34.1148 32.0411C34.1148 33.0875 33.2502 33.9095 32.2173 33.9095H15.001C13.9681 33.9095 13.1035 33.0875 13.1035 32.0411V14.9619C13.1035 13.9156 13.9681 13.0936 15.001 13.0936H32.2173C33.2502 13.0936 34.1148 13.9156 34.1148 14.9619V32.0411Z" fill="#1F2436"/>
<path d="M30.0275 15.8418H12.8106C12.1261 15.8418 11.5713 16.3836 11.5713 17.0519V34.1316C11.5713 34.8 12.1261 35.3418 12.8106 35.3418H30.0275C30.7119 35.3418 31.2668 34.8 31.2668 34.1316V17.0519C31.2668 16.3836 30.7119 15.8418 30.0275 15.8418Z" fill="white"/>
<path d="M30.6075 17.052C30.6075 16.7616 30.3618 16.4994 30.0259 16.4994H12.8096C12.4737 16.4994 12.2279 16.7616 12.2279 17.052V34.1311C12.2279 34.4215 12.4737 34.6837 12.8096 34.6837H30.0259C30.3618 34.6837 30.6075 34.4215 30.6075 34.1311V17.052ZM31.9233 34.1311C31.9233 35.1775 31.0588 35.9995 30.0259 35.9995H12.8096C11.7767 35.9995 10.9121 35.1775 10.9121 34.1311V17.052C10.9121 16.0056 11.7767 15.1836 12.8096 15.1836H30.0259C31.0588 15.1836 31.9233 16.0056 31.9233 17.052V34.1311Z" fill="#1F2436"/>
<path d="M21.1379 29.5129C23.1017 29.5129 24.6937 27.9583 24.6937 26.0406C24.6937 24.1229 23.1017 22.5684 21.1379 22.5684C19.174 22.5684 17.582 24.1229 17.582 26.0406C17.582 27.9583 19.174 29.5129 21.1379 29.5129Z" fill="white"/>
<path d="M24.0368 26.0403C24.0366 24.5008 22.7539 23.2262 21.1387 23.2262C19.5235 23.2262 18.2408 24.5007 18.2406 26.0403C18.2406 27.5799 19.5234 28.8553 21.1387 28.8553C22.754 28.8552 24.0368 27.5799 24.0368 26.0403ZM25.3526 26.0403C25.3526 28.3359 23.451 30.171 21.1387 30.1711C18.8263 30.1711 16.9248 28.336 16.9248 26.0403C16.9249 23.7447 18.8264 21.9103 21.1387 21.9103C23.4509 21.9104 25.3525 23.7447 25.3526 26.0403Z" fill="#ED1C24"/>
<path d="M36.1601 21.5513C36.5446 21.51 36.9342 21.5481 37.3029 21.6643C37.6714 21.7805 38.0115 21.9723 38.3009 22.2272C38.5903 22.4821 38.8227 22.7948 38.9811 23.1455C39.1394 23.4962 39.22 23.8764 39.2175 24.2609V24.2994L39.2124 24.338C39.1125 25.1371 38.6963 25.8624 38.0584 26.3597C37.4331 26.8471 36.6429 27.0782 35.8517 27.0107H24.6475V25.6949H35.9039L35.9365 25.6983C36.4097 25.7456 36.8809 25.609 37.2489 25.3223C37.6055 25.0443 37.8346 24.6471 37.8991 24.2146C37.8952 24.0334 37.8572 23.8539 37.7817 23.6869C37.7011 23.5083 37.5818 23.3474 37.4314 23.2149C37.2808 23.0823 37.1023 22.9809 36.9071 22.9193C36.7119 22.8578 36.505 22.8374 36.3006 22.8594L36.1601 21.5513Z" fill="#ED1C24"/>
<path d="M11.3609 27.0124C10.5716 27.0783 9.78395 26.8475 9.16019 26.3613C8.52367 25.8651 8.10729 25.142 8.00627 24.3448L8.00199 24.3122L8.00113 24.2805C7.99034 23.8912 8.0622 23.5037 8.21187 23.1437C8.3615 22.7838 8.58587 22.4596 8.86893 22.1903C9.152 21.9209 9.48807 21.712 9.8558 21.5769C10.2235 21.4419 10.6157 21.3827 11.0071 21.403L10.9386 22.7171C10.7241 22.706 10.5093 22.7386 10.309 22.8122C10.1088 22.8858 9.92763 22.9988 9.77613 23.1429C9.62452 23.2871 9.50613 23.4599 9.42747 23.6492C9.35281 23.8288 9.31661 24.0201 9.31781 24.2128C9.38166 24.6465 9.6115 25.0444 9.96887 25.3231C10.3361 25.6093 10.8063 25.7464 11.2787 25.7L11.3113 25.6966H17.2119V27.0124H11.3609Z" fill="#ED1C24"/>
</svg>
