<svg width="48" height="48" viewBox="0 0 48 48" fill="none" xmlns="http://www.w3.org/2000/svg">
<rect width="48" height="48" rx="8" fill="#F0F6FF"/>
<path d="M30.8601 13.7001C30.8601 12.9539 30.269 12.3501 29.5385 12.3501H28.24L27.7031 13.1727C27.2126 13.9242 26.3878 14.3751 25.5037 14.3751H21.6781C20.8224 14.3751 20.0209 13.9519 19.5253 13.2426L19.4788 13.1727L18.9419 12.3501H17.6434C16.9129 12.3501 16.3217 12.9539 16.3217 13.7001V35.3001C16.3217 36.0462 16.9129 36.6501 17.6434 36.6501H29.5385C30.269 36.6501 30.8602 36.0462 30.8602 35.3001L30.8601 13.7001ZM20.5785 12.4239L20.6262 12.4925C20.8753 12.8273 21.2638 13.0251 21.6782 13.0251H25.5038C25.9452 13.0251 26.3582 12.7996 26.6034 12.4239L26.6512 12.3501H20.5308L20.5785 12.4239ZM32.1818 35.3C32.1818 36.7911 30.9983 38 29.5385 38H17.6434C16.1836 38 15 36.7911 15 35.3V13.7C15 12.2089 16.1836 11 17.6434 11H29.5385C30.9983 11 32.1818 12.2089 32.1818 13.7V35.3Z" fill="#1F2436" stroke="#1F2436" stroke-width="0.2"/>
<path d="M20.2168 24.6469L23.1788 18.6803C23.2647 18.5084 23.4344 18.3834 23.6386 18.3656C23.9511 18.3377 24.229 18.5687 24.2569 18.8812L24.613 22.7683L26.4902 22.746C26.6096 22.7337 26.7335 22.7594 26.844 22.8275C27.1118 22.9927 27.1967 23.3442 27.0315 23.6132L21.8652 32.0183C21.7357 32.227 21.4813 32.3375 21.2313 32.2705C20.9266 32.1902 20.7458 31.8766 20.8272 31.5719L22.4623 25.4705H20.7279C20.6431 25.4682 20.5572 25.4504 20.4757 25.4102C20.1933 25.2718 20.0784 24.9292 20.2168 24.6469Z" fill="#ED1C24"/>
</svg>
