<svg xmlns="http://www.w3.org/2000/svg" width="57.902" height="66.031" viewBox="0 0 57.902 66.031">
  <g id="Group_20145" data-name="Group 20145" transform="translate(0.5 0.5)">
    <path id="bill" d="M55.064,22.219A14.226,14.226,0,1,0,69.29,7.993,14.242,14.242,0,0,0,55.064,22.219Zm26.283,0A12.058,12.058,0,1,1,69.29,10.161,12.071,12.071,0,0,1,81.348,22.219ZM69.29,14.9ZM86.9,43.625V57.444a7.6,7.6,0,0,1-7.587,7.587H37.587A7.6,7.6,0,0,1,30,57.444V4.335A4.34,4.34,0,0,1,34.335,0H69.561A4.34,4.34,0,0,1,73.9,4.335a1.084,1.084,0,1,1-2.168,0,2.17,2.17,0,0,0-2.168-2.168H34.335a2.17,2.17,0,0,0-2.168,2.168V57.444a5.425,5.425,0,0,0,5.419,5.419H74.013a7.563,7.563,0,0,1-2.284-5.419V40.509a1.084,1.084,0,1,1,2.168,0V57.444a5.419,5.419,0,0,0,10.839,0V43.625a2.17,2.17,0,0,0-2.168-2.168H77.961a1.084,1.084,0,1,1,0-2.168h4.606A4.34,4.34,0,0,1,86.9,43.625Zm-47.419-14.5a1.084,1.084,0,0,1,1.084-1.084H49.78a1.084,1.084,0,1,1,0,2.168H40.568A1.084,1.084,0,0,1,39.484,29.129Zm0-12.193a1.084,1.084,0,0,1,1.084-1.084H49.78a1.084,1.084,0,1,1,0,2.168H40.568A1.084,1.084,0,0,1,39.484,16.935ZM64.412,41.322a1.084,1.084,0,0,1-1.084,1.084H40.568a1.084,1.084,0,1,1,0-2.168H63.329A1.084,1.084,0,0,1,64.412,41.322Zm0,11.38a1.084,1.084,0,0,1-1.084,1.084H40.568a1.084,1.084,0,0,1,0-2.168H63.329A1.084,1.084,0,0,1,64.412,52.7Z" transform="translate(-30 0)" fill="#ed1c26" stroke="#fff" stroke-width="1"/>
    <text id="_" data-name="!" transform="translate(37.123 25.828)" fill="#ed1c26" font-size="16" font-family="Lato-Regular, Lato"><tspan x="0" y="0">!</tspan></text>
  </g>
</svg>
