<svg xmlns="http://www.w3.org/2000/svg" width="50.999" height="50.961" viewBox="0 0 50.999 50.961">
  <g id="Group_22120" data-name="Group 22120" transform="translate(-779.59 -359.564)">
    <path id="Subtraction_11" data-name="Subtraction 11" d="M49.091,49.961l-.141,0h-.006l-.137,0H3.931a3.936,3.936,0,0,1-3.69-2.426A1.875,1.875,0,0,1,.083,46.9v-.018A2.626,2.626,0,0,0,0,46.445V16.687a4,4,0,0,1,2.732-3.308.6.6,0,0,0,.451-.652c-.009-1.068-.009-2.137,0-3.27.006-.946.349-1.3,1.265-1.3h.107a8.23,8.23,0,0,0,1.613-.174c3.186-.631,6.426-1.278,9.561-1.9L16.138,6c4-.8,7.6-1.518,11.215-2.232C30.7,3.109,34.174,2.414,37.24,1.8l1.206-.241C40.238,1.2,42.089.833,43.906.472,44.767.3,45.69.145,46.73,0h.1c.757.022.964.537,1.076,1.09.153.764.3,1.545.45,2.3l.109.56c.236,1.23.451,2.339.676,3.456a1.3,1.3,0,0,0,.535.94.812.812,0,0,1,.315.632A1.73,1.73,0,0,1,50,9.24v.021c0,.037,0,.073,0,.109V48.832c0,.043,0,.086,0,.13v.015a1.732,1.732,0,0,1-.021.39.683.683,0,0,1-.636.58A1.788,1.788,0,0,1,49.091,49.961ZM1.109,20.733h0V45.449a4.121,4.121,0,0,0,.719,2.407,2.46,2.46,0,0,0,2.05,1.074c14.773,0,30.05,0,44.515.007a.52.52,0,0,0,.374-.088.48.48,0,0,0,.086-.357c-.017-2.461-.017-5.643,0-8.107,0-.356-.068-.483-.45-.483h-.018c-2.354.01-4.884.012-6.826.012H36.075c-.843,0-1.115-.272-1.115-1.107,0-2.582,0-5.211,0-7.754,0-.869.259-1.121,1.141-1.121l2.962,0,3.228,0c2.565,0,4.451.005,6.115.017h.015a.63.63,0,0,0,.464-.119.694.694,0,0,0,.11-.5c-.022-2.679-.021-5.024,0-7.17a.461.461,0,0,0-.58-.58c-9.129.009-18.948.011-26.838.012H18.672l-13.329,0H5.052c-1.064,0-2.845,0-3.943-.861Zm35.368,10.3a.439.439,0,0,0-.327.087.467.467,0,0,0-.085.344c.017,1.924.013,4.932,0,6.91,0,.333.059.444.413.444,1.68-.008,3.7-.012,5.989-.012,1.954,0,4.024,0,5.988.009.316,0,.4-.082.4-.4-.018-1.953-.018-5.009,0-6.959a.46.46,0,0,0-.082-.339.436.436,0,0,0-.328-.085h-.02c-1.08.01-2.338.012-3.313.012h-5.3c-.975,0-2.233,0-3.315-.012ZM5.048,9.936a.549.549,0,0,0-.393.1.518.518,0,0,0-.094.374c.021,3,.021,6.443,0,9.444a.548.548,0,0,0,.1.4.561.561,0,0,0,.409.1c2.568-.01,5.271-.012,7.339-.012h5.905c.755,0,.828-.329.97-.986.016-.073.034-.151.054-.233.042-.185.1-.37.159-.559a7.617,7.617,0,0,1,2.724-3.821,7.273,7.273,0,0,1,4.362-1.46c.141,0,.289,0,.435.013a7.481,7.481,0,0,1,7,6.23c.043.246.183.819.53.819,2.612,0,4.9-.006,6.982-.006,2.655,0,5,0,6.981.009a.546.546,0,0,0,.39-.094.511.511,0,0,0,.093-.374c-.017-2.984-.017-6.407,0-9.392a.611.611,0,0,0-.106-.443.578.578,0,0,0-.422-.109h-.017c-4.808.009-9.961.011-14.366.011H26.634C19.491,9.947,12.106,9.947,5.048,9.936Zm21.91,4.569c-.1,0-.189,0-.278.005a6.363,6.363,0,0,0-4.339,1.755,7.356,7.356,0,0,0-1.952,3.656c-.043.188-.04.288.006.348s.133.079.311.079h.025c.689-.007,1.525-.01,2.633-.01l1.732,0H30.05c1.077,0,1.852,0,2.513.006h.031c.144,0,.245-.012.293-.073s.047-.153.009-.323a8.061,8.061,0,0,0-1.83-3.7A5.378,5.378,0,0,0,26.958,14.506ZM3.3,14.3h0C2.557,14.554.826,15.355.826,17.2c0,2.085,1.322,2.457,2.289,2.73l.187.053V14.3ZM46.845,1.08a.89.89,0,0,0-.17.02c-2.414.486-5.08,1.009-8.064,1.593-1.891.37-3.677.719-5.372,1.055-2.192.436-7.627,1.476-13.382,2.578l-.011,0C14.3,7.39,8.01,8.593,5.678,9.058L47.81,8.7h.1c.133,0,.248-.006.306-.078s.057-.169.021-.346c-.221-1.035-.436-2.459-.643-3.836l0-.026C47.419,3.295,47.26,2.233,47.1,1.4,47.061,1.178,47.014,1.08,46.845,1.08Z" transform="translate(780.09 360.064)" fill="#ed1c26" stroke="rgba(0,0,0,0)" stroke-width="1"/>
    <path id="Path_16745" data-name="Path 16745" d="M843.249,422.613" transform="translate(-54.375 -53.849)" fill="#fefefe"/>
    <path id="Path_16750" data-name="Path 16750" d="M1057.134,605.917c0,.823,0,.823-.848.823-.823,0-.823,0-.823-.84s0-.828.844-.828C1057.134,605.071,1057.134,605.071,1057.134,605.917Z" transform="translate(-237.076 -210.932)" fill="#ed1c26"/>
  </g>
</svg>
