<svg xmlns="http://www.w3.org/2000/svg" width="57.402" height="60.422" viewBox="0 0 57.402 60.422">
  <g id="Group_22413" data-name="Group 22413" transform="translate(0 0.5)">
    <path id="Subtraction_7" data-name="Subtraction 7" d="M27.115,26.251a13.309,13.309,0,0,1-3.708-.535,16.041,16.041,0,0,1-3.638-1.6c-1.455-.857-2.967-1.77-4.3-2.576l-.079-.048-.19-.115-.015-.009c-.242-.148-.5-.3-.744-.45A9.914,9.914,0,0,0,11,19.8a.544.544,0,0,0-.1-.01c-.16,0-.239.089-.323.244a3.375,3.375,0,0,1-1.291,1.393,3.684,3.684,0,0,1-1.849.445H7.371c-.923-.011-1.879-.017-2.843-.017-1.154,0-2.174.007-3.112.024H1.374A1.379,1.379,0,0,1,0,21.092V.773A1.481,1.481,0,0,1,1.445,0h.043c.9.014,1.81.015,2.5.015H7.491a3.207,3.207,0,0,1,3.11,1.9.465.465,0,0,0,.511.281h.049c.436,0,.848,0,1.246,0s.814,0,1.25,0h1.7c.983,0,1.874,0,2.8-.009h.064a8.646,8.646,0,0,1,2.2.278,8.391,8.391,0,0,1,2.052.846c.8.456,1.725.978,2.832,1.6l.019.012c.859.481,1.633.915,2.413,1.362a2.078,2.078,0,0,0,1.066.285h.019c.806-.005,1.693-.007,2.969-.007H33.5c.551,0,1.116,0,1.659,0a4.833,4.833,0,0,1,3.627,1.36A4.91,4.91,0,0,1,39.954,11.7l.4-.134.041-.014.165-.056.519-.177.118-.041.009,0,.058-.02.182-.062.385-.131.073-.024,1.393-.477L44,10.315l.068-.024.609-.21h0c1.735-.6,3.584-1.235,5.35-1.849a5.277,5.277,0,0,1,1.74-.32,4.231,4.231,0,0,1,3.167,1.432,4.261,4.261,0,0,1,.983,2.365,4.108,4.108,0,0,1-.543,2.5,4.178,4.178,0,0,1-1.932,1.735c-2.084.932-4.178,1.851-6.2,2.739l-.128.057-.233.1c-.75.33-1.881.825-2.994,1.316l-2.156.952-.126.056-.229.1-.874.387-.263.116c-2.251,1-4.8,2.125-7.309,3.211A15.821,15.821,0,0,1,30,25.934,13.476,13.476,0,0,1,27.115,26.251ZM11.374,3.549a.5.5,0,0,0-.368.094.515.515,0,0,0-.092.378c.017,1.48.015,3.335.013,5.267v.1c0,.2,0,.4,0,.593V11.8c0,.252,0,.493,0,.71,0,1.474,0,3.041-.015,4.572a2.545,2.545,0,0,0,.111.765c.066.208.19.462.406.489a12.463,12.463,0,0,1,4.862,2.128c1.319.836,2.727,1.668,3.973,2.4l.015.009.1.058c.13.079.261.155.359.213l.124.072.049.03A13.613,13.613,0,0,0,23.984,24.6a11.142,11.142,0,0,0,3.137.456,12.225,12.225,0,0,0,4.856-1.059c2.541-1.1,5.2-2.273,7.329-3.216l.03-.013.374-.167c1.225-.542,2.144-.947,2.979-1.314.532-.235,1.128-.493,1.7-.742h0l.068-.029.38-.165h0l.051-.022h0a86.7,86.7,0,0,0,8.788-4.168,2.264,2.264,0,0,0,.93-1.505A3.015,3.015,0,0,0,54.406,11a3.644,3.644,0,0,0-.938-1.282,2.667,2.667,0,0,0-1.748-.553,5.136,5.136,0,0,0-.7.053c-8.288,2.77-10.545,3.552-12.691,4.94a11.4,11.4,0,0,1-3.939.781c-.139,0-.254,0-.363-.006-.44-.018-.9-.026-1.449-.026-.387,0-.784,0-1.161.007-.427.006-.808.009-1.161.009H27.034c-.943,0-1.716,0-2.4,0a1.268,1.268,0,0,1-.754-.158.726.726,0,0,1-.244-.62.738.738,0,0,1,.113-.547c.124-.131.355-.135.675-.139l.2-.005c.045,0,.092,0,.145,0h.145l.021,0h5.418c2.058,0,3.68,0,5.191,0a4.372,4.372,0,0,0,1.693-.259A2.109,2.109,0,0,0,38,12.65a2.454,2.454,0,0,0,.509-1.006,5.04,5.04,0,0,0-.062-1.722A2.491,2.491,0,0,0,37.9,8.831a3.453,3.453,0,0,0-2.618-.9c-.99-.009-2.065-.014-3.285-.014-1.15,0-2.306.005-3.432.015h-.021a2.423,2.423,0,0,1-1.406-.544l0,0-.009,0c-.154-.1-.3-.2-.466-.293-.921-.525-1.877-1.023-2.721-1.463l0,0-.086-.044h0c-.861-.451-1.755-.916-2.607-1.4a5.435,5.435,0,0,0-2.9-.625h-.12c-1.193.006-2.154.009-3.033.009-1.312,0-2.586-.005-3.794-.015h-.021ZM1.827,1.4a.665.665,0,0,0-.483.126A.632.632,0,0,0,1.231,2c.013,2.272.011,4.568.011,6.789v4.355c0,2.209.006,4.494-.017,6.753a.609.609,0,0,0,.115.44.711.711,0,0,0,.511.125H1.9c.97-.013,1.932-.015,2.665-.015H6.134c.541,0,1.1,0,1.648,0a1.9,1.9,0,0,0,1.276-.338,1.359,1.359,0,0,0,.391-1.1c0-4.83,0-10.1,0-16.11a1.417,1.417,0,0,0-.393-1.138,1.931,1.931,0,0,0-1.3-.347H7.209l-1.171,0H5.694l-1.327,0c-1,0-1.772-.006-2.492-.02Z" transform="translate(0 33.671)" fill="#ed1c26"/>
    <g id="Group_22123" data-name="Group 22123" transform="translate(21.413 0)">
      <path id="Subtraction_15" data-name="Subtraction 15" d="M17.893,37.812H17.6l-1.278-.617-.44-.213-.673-.326-.519-.247-.16-.078-.481-.234-.169-.083c-.286-.139-.558-.271-.825-.4l-.169-.084-.624-.3c-2.6-1.258-4.747-2.3-6.559-3.18-.024-.013-.049-.024-.075-.036L5.6,32l-.094-.044-.175-.085c-.126-.06-.259-.122-.378-.185l-.113-.052-.383-.186-.406-.2-.278-.135c-1.436-.694-2.439-1.175-3.251-1.558A.8.8,0,0,1,0,28.734C0,22.2,0,15.576,0,9.036a.8.8,0,0,1,.526-.825c4.2-2.017,9.735-4.692,16.752-8.089a.966.966,0,0,1,.938,0c4.749,2.3,10.385,5.026,16.752,8.089a.807.807,0,0,1,.521.825c0,6.54,0,13.168,0,19.7a.773.773,0,0,1-.455.8c-6.083,2.925-11.625,5.6-16.948,8.182a.8.8,0,0,0-.09.042h-.009l0,0-.019.014-.015.007-.013.007-.019.009a.08.08,0,0,1-.024.014Zm4.089-22.137-.013.01a.28.28,0,0,0-.034.014l-.021.014c-.028.014-.058.028-.079.037l-.038.019-.064.032c-.115.052-.2.093-.276.13l-.233.112-.056.028-.244.116c-.654.321-1.507.736-2.3,1.105a.487.487,0,0,0-.331.522c0,3.1,0,6.469,0,10.369,0,2.551,0,5.189,0,7.782V36a.14.14,0,0,0,0,.042l0,.006a.377.377,0,0,0,.06.288l.019-.009c.043-.02.088-.04.128-.056l.015-.01.021-.009.019-.009a.907.907,0,0,0,.122-.056l.1-.048.032-.015c.128-.063.252-.123.374-.178l.286-.14.145-.07.049-.028.06-.028a1.5,1.5,0,0,0,.141-.065l.021-.01c.058-.029.118-.058.175-.083.021-.013.045-.024.064-.033l.03-.014a.559.559,0,0,1,.062-.031l.041-.02c.368-.173.787-.376,1.361-.657l.218-.107.915-.438c3.381-1.634,7.367-3.56,11.315-5.455a.47.47,0,0,0,.312-.494c-.011-4.728-.011-9.53-.011-14.173V13.087l.006,0V9.7c-.256.122-.541.26-.814.393l-.158.077c-.212.1-.425.208-.637.309l-.032.014-.122.056L32.5,10.6c-.254.123-.517.251-.776.372l-.081.042-.406.193-.133.063-.423.2-.047.022-.3.145-.34.163c-.227.111-.408.2-.573.275a.273.273,0,0,0-.158.314v.05a.14.14,0,0,1,0,.042v1.8c0,1.94,0,3.194,0,4.332a.811.811,0,0,1-.521.834c-.624.29-1.267.6-1.964.942l-.041.019-.024.009-.13.06-.1.051c-.327.161-.637.311-.947.457l-.222.107-.291.14a1.3,1.3,0,0,1-.536.154.389.389,0,0,1-.368-.2,1.275,1.275,0,0,1-.115-.6v-.965c-.006-.108-.006-.216-.006-.322v-.513c0-1.375,0-2.8.015-4.191a.548.548,0,0,0-.361-.583c-6.237-3-11.018-5.3-15.987-7.711a.766.766,0,0,0-.336-.094.679.679,0,0,0-.308.084c-.94.459-1.913.934-3.076,1.492-.124.063-.25.123-.361.176l-.026.012-.1.048-.073.035c-.1.047-.173.083-.248.116l-.173.084-.289.14-.051.024L2.6,8.442c-.2.091-.4.187-.624.3l-.038.019-.088.046.024.014a.021.021,0,0,0,.009,0l.006,0a.288.288,0,0,1,.047.025l.009,0,.019.009a.511.511,0,0,0,.06.024l.036.019.019.01c.032.018.06.032.09.046l.013,0A.3.3,0,0,0,2.229,9l.355.172C5.057,10.364,7,11.3,8.69,12.121l.128.062,1.8.867.212.1.5.243,2.21,1.068.041.024a2.117,2.117,0,0,1,.342.186.531.531,0,0,1,.171.662.476.476,0,0,1-.455.313.67.67,0,0,1-.094-.008h-.019a1.443,1.443,0,0,1-.378-.14l-.032-.014c-.447-.212-.834-.4-1.146-.555-.436-.2-.8-.38-1.1-.522l-.229-.112-.186-.093-.011,0c-.391-.184-.692-.328-.923-.443l-.233-.107-.068-.033-.047-.022-.085-.041-.03-.014-.113-.056c-.1-.05-.184-.089-.256-.126l-.09-.042-.583-.282-.735-.356c-1.056-.511-2.238-1.082-3.73-1.8l-1.229-.6L1.148,9.712l-.011.024a.075.075,0,0,0-.015.046c0,1.161,0,2.346,0,3.492V16.91L1.114,23.8c0,.759,0,1.543,0,2.313v2.3c0,.187.09.243.233.317.3.149.622.306,1.049.508l.479.232c.25.123.489.239.716.346s.468.225.648.312l.387.187.075.037.4.187.782.377.748.361.789.382q.9.435,1.806.875c2.161,1.042,4.623,2.233,6.8,3.284l.883.427a.439.439,0,0,0,.192.061c.09,0,.107-.1.107-.252,0-6.08,0-12.248,0-18.332a.37.37,0,0,0-.252-.387c-.387-.168-.769-.357-1.128-.536a.714.714,0,0,1-.351-.35.534.534,0,0,1,.483-.736.976.976,0,0,1,.359.089s0,0,.009,0l0,0,0,0a.088.088,0,0,0,.032.01l.034.019a.317.317,0,0,0,.038.02l.017.008h.009l.1.046.009,0,.009,0,.092.043c.242.11.5.231.742.363a.662.662,0,0,0,.338.1.757.757,0,0,0,.34-.093c.765-.376,1.464-.717,2.338-1.138l.021-.01.024-.011.043-.021.024-.009c.021-.009.043-.02.064-.031l.019-.009.024-.011.071-.032.024-.009.036-.019.019-.009.024-.012.006,0a.286.286,0,0,1,.036-.017l.034-.019L21,14.924l.2-.1.032-.015c.066-.031.133-.064.2-.1a2.349,2.349,0,0,1,.34-.131l.024,0a.582.582,0,0,1,.135-.018.5.5,0,0,1,.457.307.542.542,0,0,1-.182.686,1.155,1.155,0,0,1-.214.121ZM28.158,12.7h0l-.445.215-.261.125c-.759.365-1.475.709-2.2,1.054-.135.065-.135.171-.135.282v.742c0,.24,0,.48,0,.72,0,1.069,0,2.471-.006,3.841,0,.134.006.228.094.228a.408.408,0,0,0,.162-.056c.859-.428,1.748-.852,2.584-1.249a.29.29,0,0,0,.209-.294c-.009-1.4-.006-2.771-.006-4.044,0-.258,0-.516,0-.776V12.7Zm-3.849.411a.391.391,0,0,0,.218.075.249.249,0,0,0,.145-.037c.472-.231,1.122-.547,1.941-.937l.289-.14.271-.131.154-.075.4-.2-.015-.015,0,0-.006,0-.006-.007h0l0,0s0,0,0-.007a.028.028,0,0,0-.009-.008.009.009,0,0,1,0-.007c-.006,0-.009-.006-.009-.008l0,0-2.612-1.262c-1.3-.628-2.751-1.326-4.448-2.147l-1.417-.681-1.436-.695-.6-.293-.5-.242C15.239,5.6,13.638,4.824,12.088,4.07a.4.4,0,0,0-.19-.046.579.579,0,0,0-.256.075c-.464.23-.859.421-1.244.607l-.049.024-.036.017-.068.032-.421.205c-.026.014-.053.027-.079.04l-.028.014-.024.011c-.028.014-.058.028-.083.042s-.071.033-.1.051L9.4,5.194,8.97,5.4h0a.223.223,0,0,1-.051.022l-.006,0-.009,0a.276.276,0,0,0-.186.149c.169.084.359.178.639.313.248.122.526.256.853.41l.34.164.216.1c.177.084.351.169.526.253l.41.2,4.17,2.014,1.167.563.93.449c.346.165.684.329,1.032.5l.41.2.259.124.635.308.212.1c.534.258,1.088.524,1.65.8l.353.168.966.465.321.154.43.205a.055.055,0,0,0,.032.019l.011.009s0,0,.009,0l.009,0,0,0,.011,0ZM17.739,1.175a.566.566,0,0,0-.242.065c-.618.305-1.25.612-1.864.909l-.224.109-.635.306-.22.1-.569.275-.231.114-.154.075-.383.188a.223.223,0,0,0,.171.149.161.161,0,0,0,.034.015l.013,0L16.4,4.92l.494.238,2.554,1.234,2.7,1.3L25.5,9.315l3.358,1.623a.388.388,0,0,0,.2.051.559.559,0,0,0,.242-.07c.876-.429,1.738-.845,2.5-1.212l.276-.133.519-.25.222-.107c.158-.079.325-.161.526-.257l.122-.056.192-.093q-1.8-.867-3.591-1.734L26.6,5.408,23.241,3.783l-1.193-.578-1.317-.638L17.979,1.236A.533.533,0,0,0,17.739,1.175Z" transform="translate(0 0)" fill="#ed1c26" stroke="rgba(0,0,0,0)" stroke-width="1"/>
      <path id="Path_16763" data-name="Path 16763" d="M800.228,582.886a.529.529,0,0,1-.59.553,1.068,1.068,0,0,1-.38-.132q-2.236-1.082-4.474-2.162a1.158,1.158,0,0,1-.312-.191.5.5,0,0,1-.124-.605.508.508,0,0,1,.528-.323.8.8,0,0,1,.281.077q2.34,1.122,4.676,2.251A.591.591,0,0,1,800.228,582.886Z" transform="translate(-791.92 -557.449)" fill="#ed1c26"/>
      <path id="Path_16764" data-name="Path 16764" d="M797.319,610.773a3.314,3.314,0,0,1-.354-.126q-1.127-.538-2.249-1.085c-.4-.2-.538-.47-.4-.782s.463-.41.873-.215q1.161.551,2.316,1.115a.562.562,0,0,1-.187,1.093Z" transform="translate(-791.892 -583.251)" fill="#ed1c26"/>
    </g>
  </g>
</svg>
