<svg id="Group_19561" data-name="Group 19561" xmlns="http://www.w3.org/2000/svg" width="40.17" height="37.435" viewBox="0 0 40.17 37.435">
  <path id="Path_16080" data-name="Path 16080" d="M46.724,41.764H44.7a2,2,0,0,0-1.9-1.464H40.632V35.013a.558.558,0,0,0-.272-.493L25.107,25.71a.563.563,0,0,0-.566,0L9.283,34.52A.568.568,0,0,0,9,35.013v17.62a.569.569,0,0,0,.285.493l15.259,8.81a.569.569,0,0,0,.285.076.6.6,0,0,0,.293-.076l8.03-4.632v3.348a2.41,2.41,0,0,0,2.431,2.417H46.724a2.424,2.424,0,0,0,2.446-2.417V44.219A2.456,2.456,0,0,0,46.724,41.764Zm-3.909-.325a.826.826,0,0,1,.826.826v.055a.826.826,0,0,1-.826.826H39.507a.826.826,0,0,1-.826-.826v-.055a.826.826,0,0,1,.826-.826ZM24.829,26.86l6.341,3.661-14.12,8.152-6.34-3.661Zm-.541,33.6L10.138,52.3V36L24.287,44.15Zm.541-17.293L18.188,39.33l14.12-8.152,6.641,3.834Zm8.322,1.054V55.99l-7.725,4.467V44.15L39.494,36v4.3h.018a2,2,0,0,0-1.9,1.464H35.582A2.443,2.443,0,0,0,33.151,44.219ZM48.032,60.653a1.284,1.284,0,0,1-1.308,1.278H35.582a1.271,1.271,0,0,1-1.292-1.278V44.219A1.3,1.3,0,0,1,35.582,42.9h2.048a1.947,1.947,0,0,0,1.882,1.382h3.283A1.947,1.947,0,0,0,44.676,42.9h2.048a1.316,1.316,0,0,1,1.308,1.316Z" transform="translate(-9 -25.634)" fill="#ed1c26"/>
  <path id="Path_16081" data-name="Path 16081" d="M337.565,281.822h.6a.569.569,0,1,0,0-1.138h-.022v-1.545h1.57a.548.548,0,0,0,.541.385.571.571,0,0,0,.572-.568v-.383a.576.576,0,0,0-.576-.572h-2.681a.568.568,0,0,0-.565.572v2.681a.565.565,0,0,0,.565.568Z" transform="translate(-310.328 -257.478)" fill="#ed1c26"/>
  <path id="Path_16082" data-name="Path 16082" d="M337.569,345.822h2.683a.569.569,0,0,0,.569-.569v-2.683a.569.569,0,0,0-.569-.569h-2.683a.569.569,0,0,0-.569.569v2.683A.569.569,0,0,0,337.569,345.822Zm.569-2.683h1.545v1.545h-1.545Z" transform="translate(-310.328 -316.274)" fill="#ed1c26"/>
  <path id="Path_16083" data-name="Path 16083" d="M338.161,408.684h-.023v-1.545h1.539a.572.572,0,1,0,1.144,0v-.549a.594.594,0,0,0-.575-.591h-2.681a.585.585,0,0,0-.565.591v2.681a.549.549,0,0,0,.565.549h.6a.569.569,0,0,0,0-1.138Z" transform="translate(-310.328 -375.07)" fill="#ed1c26"/>
  <path id="Path_16084" data-name="Path 16084" d="M357.5,284.706l-1.667,1.667-.507-.507a.569.569,0,0,0-.805.8l.91.91a.569.569,0,0,0,.805,0l2.07-2.07a.569.569,0,0,0-.8-.805Z" transform="translate(-326.271 -263.485)" fill="#ed1c26"/>
  <path id="Path_16085" data-name="Path 16085" d="M357.5,413.954l-1.667,1.667-.507-.507a.569.569,0,1,0-.805.805l.91.91a.569.569,0,0,0,.805,0l2.07-2.07a.569.569,0,0,0-.8-.8Z" transform="translate(-326.271 -382.224)" fill="#ed1c26"/>
  <path id="Path_16086" data-name="Path 16086" d="M418.035,295H414.46a.569.569,0,0,0,0,1.139h3.575a.569.569,0,0,0,0-1.139Z" transform="translate(-380.966 -273.096)" fill="#ed1c26"/>
  <path id="Path_16087" data-name="Path 16087" d="M418.035,359H414.46a.569.569,0,1,0,0,1.138h3.575a.569.569,0,1,0,0-1.138Z" transform="translate(-380.966 -331.892)" fill="#ed1c26"/>
  <path id="Path_16088" data-name="Path 16088" d="M418.035,423H414.46a.569.569,0,0,0,0,1.138h3.575a.569.569,0,0,0,0-1.138Z" transform="translate(-380.966 -390.688)" fill="#ed1c26"/>
</svg>
