<svg width="102" height="107" viewBox="0 0 102 107" fill="none" xmlns="http://www.w3.org/2000/svg">
<path d="M48.652 106C46.4463 105.996 44.2522 105.68 42.135 105.061C39.8962 104.396 37.7488 103.456 35.742 102.261C33.184 100.754 30.529 99.1503 28.189 97.7343L28.05 97.6493L27.716 97.4493L27.69 97.4343C27.266 97.1743 26.819 96.9063 26.383 96.6433C24.5036 95.6164 22.4509 94.9449 20.328 94.6623C20.2723 94.6513 20.2158 94.6453 20.159 94.6443C19.877 94.6443 19.738 94.8013 19.592 95.0723C19.0856 96.0887 18.298 96.9383 17.323 97.5203C16.327 98.0604 15.2067 98.3297 14.074 98.3013H13.954C12.331 98.2813 10.654 98.2713 8.954 98.2713C6.926 98.2713 5.134 98.2843 3.485 98.3133H3.415C2.91949 98.359 2.42192 98.2511 1.98987 98.0042C1.55782 97.7573 1.21222 97.3834 1 96.9333L1 61.2263C1.24222 60.7748 1.61244 60.405 2.06416 60.1632C2.51588 59.9214 3.02897 59.8185 3.539 59.8673H3.614C5.2 59.8913 6.8 59.8943 8 59.8943H9.057H9.887H10.417C11.04 59.8943 11.817 59.8943 12.565 59.8943C13.165 59.8943 13.688 59.8943 14.165 59.8943C15.3076 59.8308 16.4425 60.1167 17.4187 60.7138C18.3949 61.311 19.1662 62.1912 19.63 63.2373C19.7011 63.41 19.8291 63.5532 19.9928 63.6431C20.1566 63.733 20.3461 63.7641 20.53 63.7313H20.616C21.382 63.7313 22.107 63.7313 22.806 63.7313C23.505 63.7313 24.237 63.7313 25.006 63.7313H27.988C29.716 63.7313 31.282 63.7313 32.905 63.7163H33.018C34.3243 63.7119 35.6257 63.8759 36.89 64.2043C38.1525 64.5381 39.3651 65.0382 40.496 65.6913C41.896 66.4913 43.527 67.4093 45.473 68.4983L45.507 68.5193C47.017 69.3643 48.377 70.1273 49.748 70.9133C50.3162 71.2458 50.9637 71.4186 51.622 71.4133H51.656C53.072 71.4043 54.631 71.4013 56.873 71.4013H59.873C60.842 71.4013 61.834 71.4013 62.788 71.4013C63.9579 71.3387 65.1281 71.5187 66.2251 71.9302C67.322 72.3417 68.3219 72.9757 69.162 73.7923C69.9453 74.6945 70.5328 75.7496 70.887 76.8907C71.2413 78.0318 71.3547 79.2341 71.22 80.4213C71.457 80.3433 71.686 80.2623 71.915 80.1863L71.986 80.1613L72.275 80.0613L73.188 79.7513L73.395 79.6803H73.41L73.51 79.6443L73.829 79.5353L74.505 79.3043L74.633 79.2613L77.082 78.4223C77.506 78.2743 77.923 78.1313 78.325 77.9933L78.445 77.9523C78.839 77.8143 79.23 77.6813 79.515 77.5833C82.565 76.5333 85.815 75.4123 88.915 74.3343C89.8951 73.9763 90.9286 73.7863 91.972 73.7723C93.0251 73.7738 94.0659 73.999 95.0254 74.4329C95.9849 74.8668 96.8414 75.4996 97.538 76.2893C98.5268 77.4649 99.13 78.9162 99.266 80.4463C99.4237 81.9749 99.0894 83.5138 98.312 84.8393C97.5316 86.1912 96.3406 87.2592 94.912 87.8883C91.25 89.5253 87.569 91.1413 84.012 92.7023L83.787 92.8023L83.378 92.9813C82.06 93.5613 80.073 94.4313 78.116 95.2943C76.861 95.8473 75.573 96.4173 74.326 96.9673L74.104 97.0673L73.704 97.2443L72.168 97.9233L71.706 98.1233C67.751 99.8743 63.274 101.858 58.86 103.767C57.2058 104.492 55.485 105.053 53.722 105.443C52.057 105.811 50.3571 105.998 48.652 106ZM20.989 66.1043C20.7605 66.0715 20.5282 66.1305 20.343 66.2683C20.2035 66.46 20.1453 66.699 20.181 66.9333C20.211 69.5333 20.207 72.7953 20.204 76.1893V76.3573C20.204 76.7173 20.204 77.0573 20.204 77.3983V80.5983C20.204 81.0403 20.204 81.4653 20.204 81.8463C20.212 84.4363 20.212 87.1903 20.178 89.8813C20.1758 90.3369 20.2433 90.7901 20.378 91.2253C20.494 91.5903 20.712 92.0363 21.092 92.0843C24.157 92.4843 26.992 94.1503 29.637 95.8253C31.954 97.2953 34.43 98.7563 36.619 100.046L36.645 100.062L36.818 100.162C37.047 100.3 37.276 100.435 37.449 100.537L37.667 100.664L37.753 100.716C39.4479 101.729 41.2617 102.528 43.153 103.095C44.9435 103.623 46.8003 103.893 48.667 103.895C51.6087 103.866 54.513 103.233 57.2 102.035C61.666 100.103 66.331 98.0403 70.079 96.3833L70.132 96.3613L70.789 96.0683C72.941 95.1153 74.556 94.4033 76.025 93.7583C76.96 93.3463 78.008 92.8923 79.019 92.4583L79.139 92.4083L79.808 92.1183L79.898 92.0803C85.055 89.8523 91.474 87.0803 95.343 84.7553C95.779 84.4467 96.1484 84.0535 96.4291 83.5991C96.7098 83.1446 96.8962 82.6383 96.977 82.1103C97.1274 81.1279 96.9985 80.123 96.605 79.2103C96.228 78.3468 95.6649 77.5771 94.956 76.9563C94.079 76.2795 92.9907 75.9352 91.884 75.9843C91.4731 75.987 91.0628 76.0177 90.656 76.0763C76.09 80.9453 72.124 82.3193 68.356 84.7583C66.1481 85.6221 63.8044 86.087 61.434 86.1313C61.19 86.1313 60.987 86.1313 60.795 86.1203C60.021 86.0893 59.21 86.0743 58.248 86.0743C57.568 86.0743 56.87 86.0803 56.209 86.0863C55.458 86.0963 54.789 86.1013 54.169 86.1013H51.345H49.925H48.51C46.854 86.1013 45.494 86.1013 44.288 86.0953C43.8279 86.1425 43.3644 86.0454 42.962 85.8173C42.809 85.6831 42.6903 85.5142 42.6158 85.3248C42.5414 85.1353 42.5133 84.9308 42.534 84.7283C42.4725 84.3942 42.5443 84.0492 42.734 83.7673C42.952 83.5373 43.357 83.5303 43.921 83.5223L44.274 83.5133C44.353 83.5133 44.435 83.5133 44.529 83.5133H44.784H44.822H54.343C57.96 83.5133 60.811 83.5133 63.466 83.5133C64.4779 83.5596 65.489 83.4053 66.441 83.0593C66.9505 82.8463 67.4059 82.522 67.774 82.1103C68.2052 81.5983 68.5112 80.993 68.668 80.3423C68.8056 79.3349 68.7688 78.3112 68.559 77.3163C68.4059 76.6082 68.0794 75.9492 67.609 75.3983C66.381 74.0093 64.394 73.8333 63.009 73.8213C61.27 73.8053 59.381 73.7973 57.236 73.7973C55.215 73.7973 53.183 73.8063 51.204 73.8243H51.166C50.2616 73.7765 49.3961 73.4416 48.695 72.8683H48.687L48.672 72.8623C48.402 72.6843 48.139 72.5103 47.853 72.3473C46.234 71.4253 44.553 70.5473 43.072 69.7763H43.065L42.915 69.6983C41.4 68.8863 39.826 68.0673 38.327 67.2143C36.7641 66.3828 35.0008 66.0019 33.234 66.1143H33.024C30.924 66.1243 29.238 66.1293 27.694 66.1293C25.388 66.1293 23.149 66.1203 21.027 66.1023H20.989V66.1043ZM4.211 62.3303C3.91003 62.2909 3.60553 62.3701 3.362 62.5513C3.27558 62.6696 3.21341 62.8039 3.17909 62.9463C3.14477 63.0888 3.13896 63.2366 3.162 63.3813C3.185 67.3733 3.181 71.4093 3.181 75.3123V82.9673C3.181 86.8503 3.192 90.8673 3.151 94.8353C3.11554 95.1091 3.18719 95.3861 3.351 95.6083C3.61174 95.7942 3.93389 95.873 4.251 95.8283H4.345C6.05 95.8053 7.745 95.8013 9.029 95.8013H11.035H11.779C12.729 95.8013 13.713 95.8073 14.679 95.8073C15.4734 95.8827 16.2686 95.6717 16.921 95.2123C17.1721 94.9613 17.364 94.6574 17.4829 94.3229C17.6017 93.9883 17.6445 93.6315 17.608 93.2783C17.608 84.7893 17.608 75.5293 17.608 64.9663C17.6468 64.6027 17.6049 64.2349 17.4855 63.8893C17.3661 63.5436 17.172 63.2285 16.917 62.9663C16.2526 62.4951 15.4408 62.2785 14.63 62.3563H13.672C12.988 62.3563 12.29 62.3563 11.614 62.3563H11.014C10.33 62.3563 9.485 62.3563 8.682 62.3563C6.92 62.3563 5.568 62.3453 4.303 62.3213L4.211 62.3303Z" fill="#ED1C26" stroke="white"/>
<path d="M70.076 67.1446H69.561C68.75 66.7536 68.01 66.3956 67.315 66.0596L66.541 65.6846L65.358 65.1126L64.445 64.6776L64.163 64.5406L63.318 64.1296L63.018 63.9846C62.518 63.7396 62.038 63.5086 61.568 63.2846L61.268 63.1376L60.168 62.6136C55.593 60.4026 51.826 58.5746 48.641 57.0256C48.6 57.0036 48.555 56.9826 48.51 56.9626L48.461 56.9396L48.296 56.8616C48.196 56.8116 48.089 56.7616 47.988 56.7126C47.766 56.6076 47.534 56.4976 47.323 56.3866L47.131 56.2946L46.459 55.9676L45.745 55.6236L45.257 55.3856C42.733 54.1656 40.971 53.3216 39.544 52.6486C39.2532 52.5403 39.0062 52.3392 38.8412 52.0763C38.6761 51.8135 38.6023 51.5036 38.631 51.1946C38.639 39.7146 38.639 28.0676 38.631 16.5736C38.6019 16.2636 38.6769 15.9527 38.8442 15.6901C39.0116 15.4275 39.2617 15.2281 39.555 15.1236C46.939 11.5806 56.664 6.87864 68.995 0.908638C69.2473 0.768725 69.5311 0.695312 69.8195 0.695312C70.108 0.695312 70.3918 0.768725 70.644 0.908638C78.99 4.95864 88.894 9.74164 100.084 15.1246C100.374 15.2331 100.621 15.4336 100.786 15.6955C100.952 15.9573 101.027 16.2661 101 16.5746C100.992 28.0676 100.992 39.7156 101 51.1926C101.034 51.4808 100.974 51.7723 100.83 52.0242C100.686 52.2762 100.465 52.4754 100.2 52.5926C89.51 57.7326 79.771 62.4356 70.415 66.9716C70.3609 66.993 70.3081 67.0177 70.257 67.0456H70.242L70.234 67.0536L70.2 67.0776L70.174 67.0896L70.151 67.1016L70.117 67.1176C70.1049 67.1283 70.091 67.1367 70.076 67.1426V67.1446ZM77.261 28.2446L77.238 28.2616C77.2175 28.2683 77.1975 28.2763 77.178 28.2856L77.14 28.3106C77.091 28.3356 77.04 28.3596 77.001 28.3756L76.933 28.4096C76.895 28.4306 76.854 28.4496 76.82 28.4666C76.62 28.5576 76.467 28.6306 76.335 28.6956L75.926 28.8956L75.826 28.9456L75.398 29.1456C74.249 29.7086 72.75 30.4386 71.36 31.0876C71.1717 31.1496 71.0108 31.275 70.9046 31.4424C70.7985 31.6098 70.7537 31.8089 70.778 32.0056C70.786 37.4546 70.786 43.3736 70.786 50.2276C70.786 54.7106 70.786 59.3466 70.794 63.9036V63.9686C70.7877 63.9924 70.785 64.017 70.786 64.0416V64.0516C70.7686 64.1389 70.7689 64.2287 70.7869 64.3158C70.805 64.4029 70.8404 64.4855 70.891 64.5586L70.925 64.5426C71 64.5076 71.079 64.4726 71.15 64.4426L71.176 64.4256L71.214 64.4106L71.248 64.3946C71.3217 64.3666 71.3933 64.3332 71.462 64.2946L71.639 64.2096L71.695 64.1826C71.92 64.0726 72.138 63.9666 72.352 63.8696L72.852 63.6236L73.107 63.5006L73.193 63.4506L73.298 63.4016C73.3826 63.3676 73.4654 63.3292 73.546 63.2866L73.584 63.2696C73.684 63.2186 73.791 63.1696 73.892 63.1236C73.93 63.1016 73.971 63.0826 74.005 63.0646C74.024 63.0566 74.039 63.0486 74.058 63.0406C74.0932 63.0201 74.1296 63.0017 74.167 62.9856C74.193 62.9736 74.216 62.9626 74.238 62.9506C74.884 62.6506 75.62 62.2896 76.631 61.7956L77.014 61.6076L78.622 60.8376C84.564 57.9656 91.569 54.5806 98.506 51.2506C98.682 51.1888 98.8319 51.0693 98.9313 50.9116C99.0308 50.7538 99.0741 50.5671 99.054 50.3816C99.035 42.0736 99.035 33.6336 99.035 25.4736V23.6946L99.046 23.6866V17.7376C98.595 17.9526 98.096 18.1946 97.615 18.4276L97.337 18.5626C96.965 18.7446 96.59 18.9276 96.218 19.1056L96.162 19.1306L95.948 19.2306L95.748 19.3306C95.301 19.5466 94.839 19.7726 94.385 19.9846L94.242 20.0586C94.009 20.1676 93.773 20.2816 93.528 20.3976L93.295 20.5086C93.051 20.624 92.803 20.7423 92.551 20.8636L92.468 20.9026L91.942 21.1566L91.342 21.4436C90.942 21.6436 90.625 21.7926 90.335 21.9276C90.2311 21.9722 90.1462 22.052 90.0954 22.1529C90.0445 22.2539 90.0309 22.3696 90.057 22.4796V22.5666C90.0633 22.5904 90.066 22.615 90.065 22.6396V25.8106C90.057 29.2196 90.057 31.4236 90.073 33.4226C90.1019 33.7336 90.028 34.0454 89.8625 34.3103C89.697 34.5751 89.4492 34.7783 89.157 34.8886C88.057 35.3986 86.93 35.9406 85.705 36.5436L85.634 36.5766L85.593 36.5926L85.367 36.6946L85.187 36.7846C84.612 37.0686 84.068 37.3306 83.523 37.5846L83.132 37.7726L82.621 38.0186C82.3299 38.1758 82.0082 38.2679 81.678 38.2886C81.548 38.2976 81.4181 38.2692 81.3037 38.2069C81.1892 38.1445 81.095 38.0508 81.032 37.9366C80.8805 37.6058 80.8119 37.243 80.832 36.8796V35.1946C80.821 35.0056 80.821 34.8146 80.821 34.6286V33.7286C80.821 31.3116 80.821 28.8126 80.847 26.3626C80.8734 26.1452 80.8249 25.9252 80.7095 25.7391C80.594 25.5529 80.4186 25.4117 80.212 25.3386C69.252 20.0736 60.85 16.0216 52.117 11.7866C51.9356 11.6874 51.7337 11.6313 51.527 11.6226C51.3375 11.6283 51.1521 11.679 50.986 11.7706C49.333 12.5776 47.624 13.4126 45.586 14.3926C45.368 14.5036 45.147 14.6086 44.951 14.7006L44.906 14.7216L44.729 14.8056L44.601 14.8676C44.432 14.9506 44.301 15.0126 44.165 15.0676L43.865 15.2146L43.358 15.4606L43.268 15.5026L43.212 15.5316C42.866 15.6926 42.512 15.8596 42.112 16.0666L42.044 16.0996L41.89 16.1816L41.931 16.2056C41.9354 16.2094 41.9405 16.2122 41.946 16.2136L41.957 16.2186C41.986 16.2307 42.0138 16.2454 42.04 16.2626L42.055 16.2706L42.089 16.2856C42.1231 16.3022 42.1582 16.3165 42.194 16.3286L42.258 16.3616L42.292 16.3786C42.348 16.4106 42.397 16.4356 42.45 16.4596L42.473 16.4676C42.4994 16.4837 42.5272 16.4975 42.556 16.5086L43.179 16.8086C47.525 18.9086 50.939 20.5566 53.91 21.9926L54.135 22.1016L57.29 23.6256L57.662 23.8056L58.548 24.2316L62.432 26.1076L62.503 26.1486C62.7127 26.2393 62.9135 26.3491 63.103 26.4766C63.2821 26.604 63.4105 26.7906 63.4654 27.0034C63.5203 27.2162 63.4982 27.4415 63.403 27.6396C63.3434 27.803 63.2342 27.9437 63.0908 28.0421C62.9474 28.1405 62.7769 28.1917 62.603 28.1886C62.5478 28.1879 62.4926 28.1832 62.438 28.1746H62.415H62.404C62.1719 28.1242 61.9481 28.0414 61.739 27.9286L61.683 27.9046C60.898 27.5326 60.218 27.2046 59.67 26.9296C58.904 26.5706 58.258 26.2606 57.743 26.0116L57.343 25.8116L57.016 25.6486L56.997 25.6406C56.31 25.3176 55.78 25.0636 55.374 24.8626L54.965 24.6736L54.845 24.6146L54.762 24.5756C54.713 24.5506 54.662 24.5266 54.612 24.5026L54.559 24.4776L54.359 24.3776C54.175 24.2906 54.036 24.2216 53.908 24.1556L53.75 24.0826L52.725 23.5826L51.431 22.9656C49.576 22.0656 47.498 21.0656 44.877 19.8026L42.717 18.7536L40.651 17.7626L40.631 17.8036C40.6137 17.827 40.6045 17.8555 40.605 17.8846C40.605 19.9246 40.605 22.0086 40.605 24.0216V30.4116L40.594 42.5116C40.594 43.8446 40.594 45.2236 40.586 46.5756V50.6146C40.586 50.9426 40.744 51.0406 40.995 51.1716C41.517 51.4336 42.088 51.7086 42.839 52.0646C43.121 52.1996 43.399 52.3356 43.68 52.4726C44.119 52.6876 44.54 52.8926 44.938 53.0806C45.351 53.2806 45.761 53.4806 46.076 53.6286C46.301 53.7386 46.53 53.8486 46.756 53.9566L46.887 54.0216L47.582 54.3496L48.957 55.0126L50.272 55.6476L51.658 56.3186C52.7134 56.8286 53.7714 57.341 54.832 57.8556C58.632 59.6866 62.956 61.7806 66.776 63.6276L68.327 64.3776C68.4299 64.439 68.5456 64.4757 68.665 64.4846C68.823 64.4846 68.853 64.3146 68.853 64.0416C68.845 53.3576 68.845 42.5176 68.853 31.8246C68.8673 31.6778 68.8312 31.5306 68.7507 31.407C68.6702 31.2834 68.5501 31.1909 68.41 31.1446C67.73 30.8446 67.058 30.5166 66.427 30.2026C66.1548 30.0774 65.9363 29.8589 65.811 29.5866C65.7534 29.4456 65.731 29.2927 65.7456 29.1411C65.7603 28.9895 65.8116 28.8437 65.8952 28.7163C65.9787 28.5889 66.092 28.4838 66.2253 28.41C66.3585 28.3362 66.5077 28.2959 66.66 28.2926C66.8784 28.3039 67.0926 28.3569 67.291 28.4486C67.291 28.4566 67.299 28.4566 67.306 28.4566L67.314 28.4646L67.322 28.4706C67.3394 28.4802 67.3584 28.4863 67.378 28.4886L67.438 28.5216C67.4599 28.5348 67.4826 28.5465 67.506 28.5566L67.536 28.5706H67.551L67.724 28.6526L67.739 28.6606L67.754 28.6686L67.916 28.7436C68.34 28.9376 68.791 29.1496 69.216 29.3816C69.3938 29.4942 69.5987 29.5564 69.809 29.5616C70.0192 29.5552 70.2248 29.499 70.409 29.3976C71.754 28.7356 72.982 28.1386 74.518 27.3976L74.556 27.3796L74.597 27.3606C74.623 27.3486 74.65 27.3356 74.672 27.3236L74.713 27.3086C74.751 27.2926 74.788 27.2736 74.826 27.2546L74.86 27.2386L74.901 27.2186L75.025 27.1616L75.066 27.1456L75.13 27.1126L75.164 27.0966C75.1784 27.0906 75.1921 27.0833 75.205 27.0746H75.216C75.2366 27.0628 75.258 27.0524 75.28 27.0436L75.34 27.0106L75.54 26.9206L75.889 26.7496L75.945 26.7226C76.061 26.6676 76.178 26.6106 76.294 26.5526C76.4878 26.4605 76.6884 26.3836 76.894 26.3226L76.935 26.3146C77.0125 26.2947 77.0921 26.284 77.172 26.2826C77.3437 26.284 77.5112 26.336 77.6535 26.432C77.7957 26.5281 77.9066 26.6639 77.972 26.8226C78.0713 27.0277 78.0936 27.2616 78.0351 27.4818C77.9766 27.702 77.841 27.8939 77.653 28.0226C77.5356 28.1068 77.4096 28.1782 77.277 28.2356L77.261 28.2446ZM88.116 23.0176L87.331 23.3946L86.873 23.6146C85.54 24.2556 84.281 24.8596 83.004 25.4676C82.767 25.5826 82.767 25.7676 82.767 25.9676V27.2676C82.767 27.6896 82.767 28.1116 82.767 28.5336C82.767 30.4116 82.767 32.8766 82.756 35.2836C82.756 35.5186 82.767 35.6836 82.921 35.6836C83.0221 35.6709 83.1192 35.6368 83.206 35.5836C84.716 34.8316 86.278 34.0836 87.747 33.3836C87.8576 33.3517 87.9541 33.2834 88.0209 33.1897C88.0877 33.0961 88.1209 32.9825 88.115 32.8676C88.1 30.4056 88.104 27.9976 88.104 25.7606C88.104 25.3076 88.104 24.8536 88.104 24.3976V23.0136L88.116 23.0176ZM81.351 23.7396C81.4627 23.8208 81.5961 23.8664 81.734 23.8706C81.8238 23.8754 81.9129 23.8523 81.989 23.8046C82.819 23.3986 83.961 22.8436 85.399 22.1576L85.906 21.9116L86.383 21.6816L86.653 21.5506L87.363 21.2066L87.337 21.1806V21.1726L87.326 21.1646C87.3231 21.1597 87.3194 21.1554 87.315 21.1516V21.1446C87.315 21.1446 87.307 21.1366 87.307 21.1316C87.3032 21.1256 87.2981 21.1205 87.292 21.1166C87.2905 21.1128 87.2905 21.1085 87.292 21.1046C87.281 21.0986 87.277 21.0946 87.277 21.0906L87.269 21.0836C85.827 20.3836 84.317 19.6566 82.679 18.8656C80.388 17.7656 77.845 16.5346 74.863 15.0926L72.373 13.8926L69.849 12.6716L68.786 12.1566L67.903 11.7326C65.42 10.5326 62.603 9.16964 59.884 7.84564C59.7813 7.79096 59.6665 7.76277 59.55 7.76364C59.3915 7.77152 59.2371 7.81638 59.099 7.89464C58.284 8.29464 57.589 8.63464 56.913 8.96064L56.827 9.00264L56.763 9.03364L56.631 9.09464L55.891 9.45564C55.846 9.48064 55.797 9.50364 55.752 9.52664L55.703 9.55064L55.662 9.57064C55.613 9.59464 55.562 9.61964 55.516 9.64464C55.452 9.67364 55.392 9.70364 55.332 9.73364L55.14 9.82464C54.896 9.94364 54.652 10.0646 54.393 10.1936H54.385C54.3567 10.21 54.3265 10.2228 54.295 10.2316H54.284L54.269 10.2396C54.1984 10.256 54.1323 10.2881 54.0757 10.3334C54.0191 10.3788 53.9734 10.4363 53.942 10.5016C54.242 10.6496 54.573 10.8146 55.065 11.0506C55.501 11.2646 55.989 11.4996 56.565 11.7716L57.165 12.0606L57.544 12.2446C57.856 12.3926 58.16 12.5446 58.468 12.6896L59.189 13.0336C61.6717 14.2336 64.1144 15.4133 66.517 16.5726L68.568 17.5626L70.202 18.3516C70.81 18.6406 71.402 18.9296 72.016 19.2256L72.737 19.5756L73.191 19.7936L74.307 20.3356L74.679 20.5136C75.618 20.9666 76.591 21.4346 77.579 21.9136L78.199 22.2136C78.7624 22.4856 79.329 22.758 79.899 23.0306L80.462 23.3016L81.217 23.6626C81.2315 23.6796 81.2512 23.6912 81.273 23.6956L81.292 23.7116C81.3 23.7116 81.3 23.7166 81.307 23.7186L81.322 23.7246H81.33L81.349 23.7326L81.351 23.7396ZM69.806 2.75964C69.6579 2.76587 69.513 2.80516 69.382 2.87464C68.297 3.41064 67.182 3.94964 66.107 4.47464L65.713 4.66664C65.3377 4.84664 64.9657 5.02631 64.597 5.20564L64.21 5.38564L63.21 5.86964L62.804 6.06964L62.531 6.19464C62.306 6.30564 62.084 6.41564 61.859 6.52564C61.881 6.59218 61.9204 6.65161 61.9732 6.6977C62.026 6.74379 62.0901 6.77485 62.159 6.78764C62.1779 6.79894 62.1981 6.808 62.219 6.81464L62.242 6.82064C63.9754 7.6613 65.7107 8.5003 67.448 9.33764L68.316 9.75564L72.804 11.9246L77.54 14.2106L83.44 17.0616L89.34 19.9136C89.4453 19.9739 89.5648 20.0049 89.686 20.0036C89.8349 19.9954 89.9799 19.9533 90.11 19.8806C91.65 19.1266 93.164 18.3956 94.501 17.7516L94.986 17.5186L95.899 17.0796L96.29 16.8906C96.568 16.7516 96.861 16.6076 97.214 16.4396L97.428 16.3396L97.766 16.1756C95.6554 15.1596 93.552 14.144 91.456 13.1286L85.374 10.1946L79.474 7.33864L77.374 6.32364L75.064 5.20764L70.231 2.86564C70.0998 2.79719 69.9541 2.76086 69.806 2.75964Z" fill="#ED1C26" stroke="white" stroke-miterlimit="10"/>
<path d="M53.2321 45.4001C53.2393 45.5353 53.2168 45.6704 53.1663 45.796C53.1158 45.9216 53.0384 46.0347 52.9396 46.1273C52.8409 46.2199 52.723 46.2898 52.5944 46.3321C52.4658 46.3744 52.3295 46.388 52.195 46.3721C51.9597 46.338 51.7331 46.2596 51.527 46.141C48.9077 44.8744 46.287 43.6077 43.665 42.3411C43.4661 42.2586 43.2815 42.1452 43.118 42.0051C42.9667 41.8785 42.8628 41.7044 42.8232 41.5112C42.7836 41.3179 42.8107 41.1169 42.9 40.941C42.9707 40.7577 43.0997 40.6029 43.2673 40.5004C43.4349 40.3978 43.6317 40.3535 43.827 40.3741C43.9986 40.3883 44.1661 40.4341 44.321 40.5091C47.0624 41.8237 49.8017 43.1424 52.5391 44.4651C52.7348 44.5338 52.9053 44.6596 53.0289 44.8263C53.1524 44.9929 53.2232 45.1928 53.2321 45.4001Z" fill="#ED1C26" stroke="white"/>
<path d="M48.168 49.0602C47.9567 48.9979 47.7491 48.9238 47.546 48.8383C46.226 48.2083 44.9084 47.5729 43.593 46.9322C42.883 46.5842 42.648 46.1062 42.893 45.5582C43.149 44.9852 43.7061 44.8382 44.4271 45.1802C45.7871 45.8256 47.1437 46.4789 48.497 47.1403C48.717 47.2177 48.9025 47.3703 49.0208 47.5713C49.139 47.7724 49.1823 48.0087 49.143 48.2386C49.1037 48.4685 48.9845 48.677 48.8062 48.8274C48.628 48.9778 48.4012 49.0603 48.168 49.0602Z" fill="#ED1C26" stroke="white"/>
</svg>
