<svg xmlns="http://www.w3.org/2000/svg" width="76.355" height="71.156" viewBox="0 0 76.355 71.156"><defs><style>.a{fill:#ed1c26;}</style></defs><g transform="translate(-962.711 -477.634)"><path class="a" d="M80.7,56.294h-3.85a3.792,3.792,0,0,0-3.619-2.782h-4.11V43.462a1.06,1.06,0,0,0-.517-.937L39.616,25.779a1.071,1.071,0,0,0-1.076,0l-29,16.746A1.079,1.079,0,0,0,9,43.462V76.953a1.082,1.082,0,0,0,.541.937l29,16.746a1.082,1.082,0,0,0,.541.145,1.138,1.138,0,0,0,.556-.145l15.263-8.8V92.2a4.582,4.582,0,0,0,4.62,4.593H80.7a4.607,4.607,0,0,0,4.65-4.593V60.959a4.668,4.668,0,0,0-4.65-4.665Zm-7.431-.618a1.571,1.571,0,0,1,1.571,1.571v.1a1.571,1.571,0,0,1-1.571,1.571H66.986a1.571,1.571,0,0,1-1.571-1.571v-.1a1.571,1.571,0,0,1,1.571-1.571ZM39.087,27.965l12.052,6.958L24.3,50.419,12.248,43.461Zm-1.028,63.86-26.894-15.5v-31l26.894,15.5Zm1.028-32.869L26.464,51.668,53.3,36.173l12.624,7.288Zm15.819,2V83.334L40.222,91.825v-31l26.74-15.5v8.179H67a3.792,3.792,0,0,0-3.619,2.782h-3.85A4.643,4.643,0,0,0,54.906,60.959ZM83.191,92.2A2.441,2.441,0,0,1,80.7,94.626H59.526A2.416,2.416,0,0,1,57.069,92.2V60.959a2.476,2.476,0,0,1,2.456-2.5h3.892A3.7,3.7,0,0,0,67,61.086h6.24a3.7,3.7,0,0,0,3.577-2.628H80.7a2.5,2.5,0,0,1,2.486,2.5Z" transform="translate(953.711 452)"/><path class="a" d="M338.074,285.264h1.132a1.082,1.082,0,1,0,0-2.164h-.043v-2.937h2.984a1.042,1.042,0,0,0,1.029.731,1.085,1.085,0,0,0,1.088-1.079v-.728A1.1,1.1,0,0,0,343.171,278h-5.1A1.08,1.08,0,0,0,337,279.087v5.1a1.074,1.074,0,0,0,1.074,1.081Z" transform="translate(676.408 238.641)"/><path class="a" d="M338.082,349.265h5.1a1.082,1.082,0,0,0,1.082-1.082v-5.1A1.082,1.082,0,0,0,343.183,342h-5.1A1.082,1.082,0,0,0,337,343.082v5.1a1.082,1.082,0,0,0,1.082,1.082Zm1.082-5.1H342.1V347.1h-2.937Z" transform="translate(676.408 184.533)"/><path class="a" d="M339.206,411.1h-.043v-2.937h2.926a1.088,1.088,0,1,0,2.175,0v-1.043A1.128,1.128,0,0,0,343.17,406h-5.1A1.111,1.111,0,0,0,337,407.124v5.1a1.044,1.044,0,0,0,1.074,1.044h1.133a1.082,1.082,0,0,0,0-2.164Z" transform="translate(676.408 130.425)"/><path class="a" d="M360.334,284.856l-3.169,3.169-.964-.964a1.082,1.082,0,0,0-1.53,1.53l1.729,1.729a1.082,1.082,0,0,0,1.53,0l3.934-3.934a1.082,1.082,0,1,0-1.53-1.53Z" transform="translate(661.736 233.112)"/><path class="a" d="M360.334,414.105l-3.169,3.169-.964-.964a1.082,1.082,0,0,0-1.53,1.53l1.729,1.729a1.082,1.082,0,0,0,1.53,0l3.934-3.934a1.082,1.082,0,1,0-1.53-1.53Z" transform="translate(661.736 123.841)"/><path class="a" d="M421.769,295h-6.8a1.082,1.082,0,1,0,0,2.164h6.8a1.082,1.082,0,0,0,0-2.164Z" transform="translate(611.402 224.268)"/><path class="a" d="M421.769,359h-6.8a1.082,1.082,0,1,0,0,2.164h6.8a1.082,1.082,0,1,0,0-2.164Z" transform="translate(611.402 170.16)"/><path class="a" d="M421.769,423h-6.8a1.082,1.082,0,1,0,0,2.164h6.8a1.082,1.082,0,1,0,0-2.164Z" transform="translate(611.402 116.052)"/></g></svg>