<svg xmlns="http://www.w3.org/2000/svg" width="59.709" height="62.851" viewBox="0 0 59.709 62.851"><defs><style>.a,.b{fill:#ed1c26;}.b{stroke:rgba(0,0,0,0);stroke-miterlimit:10;}</style></defs><g transform="translate(-1185.797 -596.784)"><path class="a" d="M24589.215-3966.993a13.866,13.866,0,0,1-3.859-.556,16.7,16.7,0,0,1-3.785-1.66c-1.514-.892-3.086-1.842-4.473-2.68l-.082-.05-.2-.12-.016-.009c-.252-.154-.516-.312-.773-.468a10.319,10.319,0,0,0-3.586-1.173.538.538,0,0,0-.1-.011c-.166,0-.25.093-.336.253a3.5,3.5,0,0,1-1.344,1.449,3.827,3.827,0,0,1-1.924.462h-.07c-.961-.012-1.955-.018-2.957-.018-1.2,0-2.262.008-3.238.025h-.045a1.434,1.434,0,0,1-1.43-.813V-3993.5a1.541,1.541,0,0,1,1.5-.8h.043c.941.014,1.885.016,2.6.016h1.428c.371,0,.83,0,1.273,0,.355,0,.664,0,.947,0a3.34,3.34,0,0,1,3.236,1.981.483.483,0,0,0,.531.292h.051c.453,0,.883,0,1.3,0s.848,0,1.3,0h1.766c1.023,0,1.949,0,2.91-.009h.066a8.985,8.985,0,0,1,2.293.289,8.757,8.757,0,0,1,2.137.881c.83.474,1.793,1.017,2.945,1.662l.021.012c.893.5,1.7.952,2.51,1.417a2.16,2.16,0,0,0,1.109.3h.02c.84-.005,1.762-.007,3.09-.007h1.777c.574,0,1.16,0,1.725,0a5.031,5.031,0,0,1,3.775,1.416,5.118,5.118,0,0,1,1.219,3.925l.41-.139.043-.015.17-.059.541-.184.123-.042.008,0,.061-.021.189-.064.4-.137.074-.025,1.451-.5.736-.254.07-.024.635-.219h0c1.8-.622,3.729-1.286,5.566-1.924a5.485,5.485,0,0,1,1.811-.333,4.331,4.331,0,0,1,1.037.126,4.312,4.312,0,0,1,2.258,1.364,4.433,4.433,0,0,1,1.023,2.461,4.27,4.27,0,0,1-.564,2.6,4.344,4.344,0,0,1-2.012,1.805c-2.168.969-4.346,1.926-6.455,2.851l-.133.059-.242.106c-.781.343-1.957.858-3.117,1.37l-2.242.991-.133.058-.236.1-.91.4-.273.121c-2.342,1.037-4.994,2.211-7.605,3.342a16.507,16.507,0,0,1-3.043.992A14.021,14.021,0,0,1,24589.215-3966.993Zm-16.379-23.622a.516.516,0,0,0-.383.1.539.539,0,0,0-.1.394c.018,1.54.016,3.471.014,5.48v.1c0,.213,0,.415,0,.616v1.894c0,.262,0,.513,0,.739,0,1.534,0,3.164-.016,4.757a2.643,2.643,0,0,0,.115.8c.068.216.2.48.422.509a12.977,12.977,0,0,1,5.061,2.215c1.371.87,2.838,1.735,4.133,2.5l.016.009.1.061c.135.082.271.161.373.222l.129.075.051.031a14.148,14.148,0,0,0,3.2,1.409,11.589,11.589,0,0,0,3.264.475,12.713,12.713,0,0,0,5.053-1.1c2.645-1.144,5.406-2.365,7.625-3.346l.031-.013.391-.174c1.273-.564,2.23-.986,3.1-1.368.553-.244,1.174-.513,1.773-.772h0l.07-.03.4-.172h0l.053-.023h0a89.931,89.931,0,0,0,9.145-4.337,2.358,2.358,0,0,0,.969-1.566,3.126,3.126,0,0,0-.221-1.719,3.8,3.8,0,0,0-.977-1.334,2.775,2.775,0,0,0-1.818-.576,5.379,5.379,0,0,0-.729.055c-8.623,2.883-10.973,3.7-13.205,5.14a11.847,11.847,0,0,1-4.1.813c-.145,0-.266,0-.379-.007-.459-.018-.937-.027-1.508-.027-.4,0-.816,0-1.207.007-.445.006-.842.009-1.207.009h-3.354c-.982,0-1.787,0-2.5,0a1.316,1.316,0,0,1-.785-.165.759.759,0,0,1-.254-.645.766.766,0,0,1,.117-.569c.129-.136.369-.14.7-.145l.209-.005c.047,0,.1,0,.152,0h.15l.021,0h5.639c2.141,0,3.83,0,5.4,0a4.542,4.542,0,0,0,1.76-.269,2.169,2.169,0,0,0,.789-.562,2.536,2.536,0,0,0,.531-1.047,5.31,5.31,0,0,0-.064-1.792,2.592,2.592,0,0,0-.564-1.136,3.589,3.589,0,0,0-2.723-.934c-1.029-.01-2.148-.014-3.418-.014-1.2,0-2.4.005-3.572.016h-.021a2.524,2.524,0,0,1-1.465-.566l0,0-.008,0c-.16-.105-.316-.208-.486-.3-.957-.546-1.951-1.064-2.83-1.522l0,0-.09-.046h0c-.9-.469-1.826-.953-2.713-1.458a5.658,5.658,0,0,0-3.016-.65h-.125c-1.24.006-2.242.009-3.156.009-1.365,0-2.691-.005-3.947-.016h-.021Zm-9.934-2.235a.694.694,0,0,0-.5.131.661.661,0,0,0-.117.491c.014,2.364.012,4.753.012,7.064q0,1.109,0,2.217c0,.742,0,1.487,0,2.314,0,2.3.006,4.676-.02,7.027a.627.627,0,0,0,.121.458.741.741,0,0,0,.531.13h.055c1.01-.014,2.012-.016,2.773-.016h1.629c.563,0,1.145,0,1.715,0a1.975,1.975,0,0,0,1.326-.352,1.41,1.41,0,0,0,.408-1.145c0-5.026,0-10.509,0-16.763a1.47,1.47,0,0,0-.41-1.184,2.006,2.006,0,0,0-1.354-.361h-.566l-1.221,0h-.357l-1.381,0c-1.043,0-1.844-.006-2.594-.021Z" transform="translate(-23375.203 4626.628)"/><g transform="translate(439.471 260.995)"><path class="b" d="M19312.15-4298.652h-.307l-1.33-.643-.457-.222-.7-.339-.539-.257-.168-.081-.5-.243-.176-.086c-.3-.145-.58-.282-.857-.415l-.176-.087-.65-.311c-2.709-1.309-4.939-2.391-6.824-3.309l-.078-.038-.029-.014-.1-.046-.184-.088c-.131-.062-.268-.127-.393-.193l-.117-.054-.4-.194-.422-.2-.291-.141c-1.494-.722-2.537-1.222-3.381-1.621a.836.836,0,0,1-.543-.863c0-6.8,0-13.692,0-20.5a.83.83,0,0,1,.547-.858c4.371-2.1,10.129-4.882,17.432-8.417a1.181,1.181,0,0,1,.484-.126,1.2,1.2,0,0,1,.49.126c4.941,2.4,10.807,5.23,17.432,8.417a.841.841,0,0,1,.543.858c-.006,6.805-.006,13.7,0,20.5a.8.8,0,0,1-.475.83c-6.328,3.043-12.1,5.828-17.635,8.514a.809.809,0,0,0-.094.044h-.008l-.006,0-.02.014-.016.007-.014.007-.02.01a.093.093,0,0,1-.023.015Zm4.254-23.034-.014.01a.213.213,0,0,0-.035.015l-.023.015c-.029.015-.059.029-.082.039l-.039.02-.068.034c-.119.054-.209.1-.285.136l-.244.116-.057.029-.254.121c-.68.333-1.568.766-2.391,1.15a.508.508,0,0,0-.346.543c.006,3.226.006,6.731.006,10.789,0,2.654,0,5.4,0,8.1v.039a.166.166,0,0,0,0,.043l0,.006a.393.393,0,0,0,.061.3l.021-.01c.045-.021.092-.042.133-.058l.016-.01.023-.009.02-.01a1.042,1.042,0,0,0,.127-.059l.1-.05.033-.016c.135-.065.264-.128.391-.186l.3-.146.15-.073.053-.029.063-.029c.051-.02.1-.045.146-.068l.021-.01c.061-.03.123-.061.182-.086.023-.013.047-.024.068-.035l.029-.014c.021-.012.041-.022.064-.033l.043-.021c.383-.18.818-.391,1.416-.684l.229-.111.951-.456c3.518-1.7,7.666-3.7,11.773-5.676a.489.489,0,0,0,.324-.514c-.01-4.919-.01-9.916-.01-14.748v-1.053l.006,0v-3.522c-.268.127-.562.271-.848.409l-.164.08-.662.322-.035.015-.125.058-.121.059c-.266.128-.539.262-.807.388l-.086.044-.422.2-.139.066-.439.21-.049.023-.311.15-.354.17c-.236.116-.426.207-.6.286a.284.284,0,0,0-.164.327v.052a.166.166,0,0,1,0,.043v1.877c0,2.018,0,3.324.006,4.507a.845.845,0,0,1-.543.868c-.65.3-1.318.623-2.043.98l-.043.02-.025.01-.135.063-.107.053c-.34.168-.662.324-.984.476l-.232.111-.3.146a1.361,1.361,0,0,1-.559.16.405.405,0,0,1-.383-.208,1.321,1.321,0,0,1-.121-.626v-1c-.006-.112-.006-.225-.006-.335v-.534c0-1.431,0-2.911.016-4.361a.57.57,0,0,0-.375-.606c-6.49-3.117-11.465-5.517-16.635-8.024a.806.806,0,0,0-.35-.1.708.708,0,0,0-.32.087c-.979.478-1.99.972-3.2,1.552-.129.066-.26.128-.375.183l-.027.013-.1.05-.076.037c-.1.049-.18.086-.258.121l-.18.087-.3.146-.053.025-.035.017c-.2.1-.412.194-.648.317l-.039.02-.092.048.023.015.01,0,.006,0a.3.3,0,0,1,.049.026l.01,0,.02.009c.021.01.043.019.063.025l.039.02.02.01c.033.019.063.034.092.048l.014,0a.284.284,0,0,0,.049.024l.369.179c2.574,1.241,4.6,2.219,6.355,3.069l.133.064,1.867.9.221.107.525.252,2.3,1.111.043.024a2.237,2.237,0,0,1,.355.194.551.551,0,0,1,.178.689.5.5,0,0,1-.475.325.705.705,0,0,1-.1-.008h-.02a1.485,1.485,0,0,1-.393-.146l-.033-.015c-.467-.22-.869-.415-1.193-.577-.453-.213-.836-.4-1.141-.543l-.238-.117-.193-.1-.01,0c-.408-.191-.723-.342-.961-.461l-.242-.112-.072-.035-.049-.023-.09-.043-.031-.015-.117-.058c-.109-.052-.191-.092-.266-.131l-.094-.043-.607-.294-.766-.37c-1.1-.532-2.328-1.126-3.881-1.873l-1.279-.621-1.223-.587-.01.024a.079.079,0,0,0-.016.048c0,1.208,0,2.441,0,3.634v3.784l-.006,7.166c0,.79,0,1.606,0,2.406v2.392c0,.194.092.252.242.33.309.155.646.318,1.092.529l.5.242c.26.127.51.249.744.36s.488.234.674.325l.4.194.078.039.412.194.814.393.777.376.82.4q.938.453,1.881.91c2.248,1.084,4.811,2.324,7.072,3.417l.918.444a.456.456,0,0,0,.2.063c.094,0,.111-.1.111-.262,0-6.326,0-12.744,0-19.075a.386.386,0,0,0-.262-.4c-.4-.175-.8-.372-1.174-.558a.745.745,0,0,1-.365-.364.532.532,0,0,1,.016-.456.533.533,0,0,1,.486-.311,1.012,1.012,0,0,1,.373.092s.006,0,.01,0l0,0,.006,0a.078.078,0,0,0,.033.011l.035.02a.235.235,0,0,0,.039.021l.018.008h.01l.1.048.01,0,.01,0,.1.044c.25.115.518.24.77.377a.691.691,0,0,0,.354.107.794.794,0,0,0,.354-.1c.795-.392,1.523-.746,2.432-1.184l.023-.011.023-.011.045-.022.023-.009c.023-.009.045-.021.068-.032l.02-.01.023-.012.074-.034.023-.01.039-.02.02-.01a.154.154,0,0,0,.025-.013l.006,0a.328.328,0,0,1,.037-.018l.037-.02.117-.053.207-.1.033-.016c.068-.033.139-.066.207-.1a2.459,2.459,0,0,1,.354-.136l.023,0a.615.615,0,0,1,.141-.019.518.518,0,0,1,.477.32.564.564,0,0,1-.189.713,1.239,1.239,0,0,1-.223.126Zm6.426-3.1h0l-.463.223-.271.13c-.789.379-1.533.737-2.289,1.1-.141.068-.141.178-.141.293v.772c0,.25,0,.5,0,.75,0,1.112,0,2.571-.006,4,0,.139.006.238.1.238a.425.425,0,0,0,.168-.058c.895-.445,1.82-.887,2.689-1.3a.3.3,0,0,0,.217-.306c-.008-1.458-.006-2.884-.006-4.208,0-.268,0-.537,0-.807v-.821Zm-4,.427a.4.4,0,0,0,.227.078.253.253,0,0,0,.15-.039c.492-.24,1.168-.569,2.02-.975l.3-.146.281-.136.16-.078.422-.2-.016-.015,0,0-.006,0-.006-.008h0l0,0s-.006,0-.006-.007a.026.026,0,0,0-.008-.009.014.014,0,0,1,0-.007c-.006,0-.008-.006-.008-.008l0,0-2.719-1.313c-1.355-.654-2.861-1.38-4.627-2.234l-1.475-.708-1.494-.723-.631-.3-.521-.251c-1.471-.711-3.137-1.517-4.748-2.3a.415.415,0,0,0-.2-.048.6.6,0,0,0-.268.078c-.482.239-.895.438-1.295.631l-.051.025-.037.018-.072.034-.437.213-.082.042-.029.014-.023.012c-.029.014-.061.029-.088.044s-.074.035-.109.053l-.113.054c-.145.07-.289.142-.441.218h-.006a.215.215,0,0,1-.053.022l-.006,0-.01,0a.284.284,0,0,0-.193.155c.176.087.373.185.664.325.258.126.549.266.889.427l.354.171.225.109.547.264.428.2q2.2,1.066,4.338,2.1l1.215.586.967.467c.359.171.711.342,1.074.518l.428.207.268.129.662.321.219.105c.557.268,1.133.545,1.717.831l.367.175,1.006.484.334.161.445.214a.07.07,0,0,0,.035.02l.01.01.01,0,.008,0,.006,0,.01,0Zm-6.836-12.419a.588.588,0,0,0-.252.068c-.643.317-1.3.637-1.939.946l-.234.113-.66.319-.229.106-.592.287-.24.119-.16.078-.4.2a.235.235,0,0,0,.178.155.2.2,0,0,0,.037.016l.012,0q1.541.747,3.084,1.491l.512.248,2.658,1.284,2.8,1.354,3.492,1.688,3.492,1.688a.412.412,0,0,0,.205.053.587.587,0,0,0,.252-.073c.912-.446,1.809-.879,2.6-1.261l.287-.138.539-.26.232-.112c.164-.083.338-.167.547-.267l.127-.058.2-.1-3.736-1.8-3.6-1.738-3.494-1.691-1.24-.6-1.371-.664-2.863-1.386A.55.55,0,0,0,19311.99-4336.773Z" transform="translate(-18524.924 4674.286)"/><path class="a" d="M800.469,583a.55.55,0,0,1-.614.576,1.107,1.107,0,0,1-.4-.137q-2.327-1.126-4.655-2.25a1.211,1.211,0,0,1-.324-.2.516.516,0,0,1-.129-.63.529.529,0,0,1,.549-.336.829.829,0,0,1,.292.08q2.435,1.167,4.866,2.342A.616.616,0,0,1,800.469,583Z" transform="translate(-23.217 -220.244)"/><path class="a" d="M797.443,610.866a3.465,3.465,0,0,1-.368-.132q-1.173-.559-2.34-1.128c-.42-.206-.56-.489-.415-.814s.481-.427.908-.224q1.208.573,2.41,1.161a.585.585,0,0,1-.194,1.137Z" transform="translate(-23.189 -245.94)"/></g></g></svg>