<svg xmlns="http://www.w3.org/2000/svg" width="65.715" height="61.324" viewBox="0 0 65.715 61.324"><defs><style>.a{opacity:0.5;}.b{fill:#1c293b;stroke:#fff;}</style></defs><g class="a" transform="translate(0.5 0.515)"><path class="b" d="M69.774,51.62H66.511a3.214,3.214,0,0,0-3.068-2.358H59.96V40.744a.9.9,0,0,0-.438-.794L34.949,25.757a.907.907,0,0,0-.912,0L9.456,39.95A.914.914,0,0,0,9,40.744V69.13a.917.917,0,0,0,.458.794L34.042,84.117a.917.917,0,0,0,.459.123.964.964,0,0,0,.472-.123l12.936-7.461V82.05a3.883,3.883,0,0,0,3.916,3.893H69.774a3.9,3.9,0,0,0,3.941-3.893V55.574a3.956,3.956,0,0,0-3.941-3.954Zm-6.3-.524a1.331,1.331,0,0,1,1.331,1.331v.089a1.331,1.331,0,0,1-1.331,1.331H58.147a1.331,1.331,0,0,1-1.331-1.331v-.089A1.331,1.331,0,0,1,58.147,51.1ZM34.5,27.61l10.215,5.9L21.967,46.64l-10.215-5.9Zm-.872,54.125L10.834,68.6V42.33L33.628,55.464ZM34.5,53.876,23.8,47.7,46.549,34.566l10.7,6.177Zm13.408,1.7V74.538l-12.445,7.2V55.464L58.126,42.33v6.932h.028a3.214,3.214,0,0,0-3.068,2.358H51.823A3.935,3.935,0,0,0,47.908,55.574ZM71.881,82.05a2.069,2.069,0,0,1-2.107,2.059H51.823a2.047,2.047,0,0,1-2.082-2.059V55.574a2.1,2.1,0,0,1,2.082-2.12h3.3a3.137,3.137,0,0,0,3.032,2.227h5.289a3.136,3.136,0,0,0,3.032-2.227h3.3a2.12,2.12,0,0,1,2.107,2.12Z" transform="translate(-9 -25.634)"/><path class="b" d="M337.91,284.157h.96a.917.917,0,1,0,0-1.834h-.036v-2.489h2.529a.883.883,0,0,0,.872.619.92.92,0,0,0,.922-.915v-.617a.929.929,0,0,0-.927-.921h-4.32a.915.915,0,0,0-.91.921v4.32a.911.911,0,0,0,.91.916Z" transform="translate(-294.031 -244.939)"/><path class="b" d="M337.917,348.157h4.323a.917.917,0,0,0,.917-.917v-4.323a.917.917,0,0,0-.917-.917h-4.323a.917.917,0,0,0-.917.917v4.323A.917.917,0,0,0,337.917,348.157Zm.917-4.323h2.489v2.489h-2.489Z" transform="translate(-294.031 -300.555)"/><path class="b" d="M338.87,410.323h-.036v-2.489h2.48a.922.922,0,1,0,1.844,0v-.884a.956.956,0,0,0-.927-.952h-4.32a.942.942,0,0,0-.91.952v4.32a.885.885,0,0,0,.91.885h.96a.917.917,0,0,0,0-1.834Z" transform="translate(-294.031 -356.171)"/><path class="b" d="M359.423,284.808l-2.686,2.686-.817-.817a.917.917,0,0,0-1.3,1.3l1.466,1.465a.917.917,0,0,0,1.3,0l3.334-3.334a.917.917,0,1,0-1.3-1.3Z" transform="translate(-309.112 -250.622)"/><path class="b" d="M359.423,414.057l-2.686,2.686-.817-.817a.917.917,0,0,0-1.3,1.3l1.466,1.465a.917.917,0,0,0,1.3,0l3.334-3.334a.917.917,0,1,0-1.3-1.3Z" transform="translate(-309.112 -362.939)"/><path class="b" d="M420.568,295h-5.76a.917.917,0,0,0,0,1.834h5.76a.917.917,0,0,0,0-1.834Z" transform="translate(-360.849 -259.713)"/><path class="b" d="M420.568,359h-5.76a.917.917,0,0,0,0,1.834h5.76a.917.917,0,0,0,0-1.834Z" transform="translate(-360.849 -315.329)"/><path class="b" d="M420.568,423h-5.76a.917.917,0,0,0,0,1.834h5.76a.917.917,0,1,0,0-1.834Z" transform="translate(-360.849 -370.944)"/></g></svg>