<svg xmlns="http://www.w3.org/2000/svg" width="101" height="106.306" viewBox="0 0 101 106.306">
  <g id="Group_22376" data-name="Group 22376" transform="translate(-1185.297 -596.784)">
    <path id="Subtraction_7" data-name="Subtraction 7" d="M47.652,46.133a23.389,23.389,0,0,1-6.517-.939,28.19,28.19,0,0,1-6.393-2.8c-2.558-1.507-5.213-3.111-7.553-4.527l-.139-.085-.334-.2-.026-.015c-.424-.26-.871-.528-1.307-.791a17.423,17.423,0,0,0-6.055-1.981.956.956,0,0,0-.169-.018c-.282,0-.421.157-.567.428a5.932,5.932,0,0,1-2.269,2.448,6.475,6.475,0,0,1-3.249.781h-.12c-1.623-.02-3.3-.03-5-.03-2.028,0-3.82.013-5.469.042H2.415A2.424,2.424,0,0,1,0,37.066V1.359A2.6,2.6,0,0,1,2.539,0h.075C4.2.024,5.8.027,7,.027H8.057l.83,0h.53c.623,0,1.4,0,2.148,0,.6,0,1.123,0,1.6,0A5.636,5.636,0,0,1,18.63,3.37a.818.818,0,0,0,.9.494h.086c.766,0,1.491,0,2.19,0s1.431,0,2.2,0h2.982c1.728,0,3.294,0,4.917-.015h.113a15.2,15.2,0,0,1,3.872.488,14.746,14.746,0,0,1,3.606,1.487c1.4.8,3.031,1.718,4.977,2.807l.034.021c1.51.845,2.87,1.608,4.241,2.394a3.652,3.652,0,0,0,1.874.5h.034c1.416-.009,2.975-.012,5.217-.012h3c.969,0,1.961,0,2.915,0a8.493,8.493,0,0,1,6.374,2.391,8.628,8.628,0,0,1,2.058,6.629c.237-.078.466-.159.695-.235l.071-.025.289-.1.913-.31.207-.071.015,0,.1-.036.319-.109.676-.231.128-.043,2.449-.839c.424-.148.841-.291,1.243-.429l.12-.041c.394-.138.785-.271,1.07-.369l0,0c3.05-1.05,6.3-2.171,9.4-3.249a9.274,9.274,0,0,1,3.057-.562,7.436,7.436,0,0,1,5.566,2.517,7.488,7.488,0,0,1,1.728,4.157,7.219,7.219,0,0,1-.954,4.393,7.343,7.343,0,0,1-3.4,3.049c-3.662,1.637-7.343,3.253-10.9,4.814l-.225.1-.409.179c-1.318.58-3.305,1.45-5.262,2.313-1.255.553-2.543,1.123-3.79,1.673l-.222.1-.4.177-1.536.679-.462.2c-3.955,1.751-8.432,3.735-12.846,5.644a27.8,27.8,0,0,1-5.138,1.676A23.683,23.683,0,0,1,47.652,46.133ZM19.989,6.237a.874.874,0,0,0-.646.164.9.9,0,0,0-.162.665c.03,2.6.026,5.862.023,9.256v.168c0,.36,0,.7,0,1.041v3.2c0,.442,0,.867,0,1.248.008,2.59.008,5.344-.026,8.035a4.473,4.473,0,0,0,.2,1.344c.116.365.334.811.714.859,3.065.4,5.9,2.066,8.545,3.741,2.317,1.47,4.793,2.931,6.982,4.221l.026.016.173.1c.229.138.458.273.631.375l.218.127.086.052a23.924,23.924,0,0,0,5.4,2.379,19.58,19.58,0,0,0,5.514.8A21.484,21.484,0,0,0,56.2,42.168c4.466-1.932,9.131-3.995,12.879-5.652l.053-.022.657-.293c2.152-.953,3.767-1.665,5.236-2.31.935-.412,1.983-.866,2.994-1.3h0l.12-.05.669-.29h0l.09-.038,0,0c5.157-2.228,11.576-5,15.445-7.325a3.978,3.978,0,0,0,1.634-2.645,5.3,5.3,0,0,0-.372-2.9,6.4,6.4,0,0,0-1.649-2.254,4.688,4.688,0,0,0-3.072-.972,9.027,9.027,0,0,0-1.228.092c-14.566,4.869-18.532,6.243-22.3,8.682a20.028,20.028,0,0,1-6.922,1.373c-.244,0-.447,0-.639-.011-.774-.031-1.585-.046-2.547-.046-.68,0-1.378.006-2.039.012-.751.01-1.42.015-2.04.015H50.345l-1.42,0H47.51c-1.656,0-3.016,0-4.222-.006a2.228,2.228,0,0,1-1.326-.278,1.276,1.276,0,0,1-.428-1.089,1.3,1.3,0,0,1,.2-.961c.218-.23.623-.237,1.187-.245l.353-.009c.079,0,.161,0,.255,0h.255l.038,0h9.521c3.617,0,6.468,0,9.123,0a7.683,7.683,0,0,0,2.975-.454,3.706,3.706,0,0,0,1.333-.949,4.313,4.313,0,0,0,.894-1.768,8.857,8.857,0,0,0-.109-3.026,4.379,4.379,0,0,0-.95-1.918c-1.228-1.389-3.215-1.565-4.6-1.577-1.739-.016-3.628-.024-5.773-.024-2.021,0-4.053.009-6.032.027h-.038a4.259,4.259,0,0,1-2.471-.956l-.008,0-.015-.006c-.27-.178-.533-.352-.819-.515-1.619-.922-3.3-1.8-4.781-2.571l-.007,0-.15-.078,0,0C40.4,9.019,38.826,8.2,37.327,7.347a9.552,9.552,0,0,0-5.093-1.1h-.21c-2.1.01-3.786.015-5.33.015-2.306,0-4.545-.009-6.667-.027h-.038ZM3.211,2.463a1.168,1.168,0,0,0-.849.221,1.111,1.111,0,0,0-.2.83c.023,3.992.019,8.028.019,11.931V23.1c0,3.883.011,7.9-.03,11.868a1.071,1.071,0,0,0,.2.773,1.25,1.25,0,0,0,.9.22h.094c1.705-.023,3.4-.027,4.684-.027l2.006,0h.744c.95,0,1.934.006,2.9.006a3.345,3.345,0,0,0,2.242-.595,2.388,2.388,0,0,0,.687-1.934c0-8.489,0-17.749,0-28.312a2.49,2.49,0,0,0-.691-2,3.393,3.393,0,0,0-2.287-.61h-.958c-.684,0-1.382,0-2.058,0h-.6c-.684,0-1.529,0-2.332,0-1.762,0-3.114-.011-4.379-.035Z" transform="translate(1185.797 656.457)" fill="#ed1c26" stroke="#fff" stroke-width="1"/>
    <g id="Group_22123" data-name="Group 22123" transform="translate(1223.428 597.284)">
      <path id="Subtraction_15" data-name="Subtraction 15" d="M31.445,66.45h-.515c-.811-.391-1.551-.749-2.246-1.085l-.774-.375-1.183-.572-.913-.435-.282-.137-.845-.411-.3-.145c-.5-.245-.98-.476-1.45-.7l-.3-.147-1.1-.524c-4.575-2.211-8.342-4.039-11.527-5.588-.041-.022-.086-.043-.131-.063l-.049-.023-.165-.078c-.1-.05-.207-.1-.308-.149-.222-.105-.454-.215-.665-.326L8.5,55.6l-.672-.327-.714-.344-.488-.238c-2.524-1.22-4.286-2.064-5.713-2.737A1.412,1.412,0,0,1,0,50.5C.008,39.02.008,27.373,0,15.879a1.4,1.4,0,0,1,.924-1.45C8.308,10.886,18.033,6.184,30.364.214a1.7,1.7,0,0,1,1.649,0c8.346,4.05,18.25,8.833,29.44,14.216a1.418,1.418,0,0,1,.916,1.45c-.008,11.493-.008,23.141,0,34.618a1.358,1.358,0,0,1-.8,1.4c-10.69,5.14-20.429,9.843-29.785,14.379a1.406,1.406,0,0,0-.158.074h-.015l-.008.008-.034.024-.026.012-.023.012-.034.016a.141.141,0,0,1-.041.025Zm7.185-38.9-.023.017a.492.492,0,0,0-.06.024l-.038.025c-.049.025-.1.049-.139.065l-.068.034c-.038.021-.079.04-.113.057-.2.091-.353.164-.485.229l-.409.2-.1.05-.428.2c-1.149.563-2.648,1.293-4.038,1.942a.856.856,0,0,0-.582.918c.008,5.449.008,11.368.008,18.222,0,4.483,0,9.119.008,13.676v.065a.246.246,0,0,0-.008.073l0,.01a.662.662,0,0,0,.105.507l.034-.016c.075-.035.154-.07.225-.1l.026-.017.038-.015.034-.016a1.6,1.6,0,0,0,.214-.1l.177-.085.056-.027c.225-.11.443-.216.657-.313l.5-.246.255-.123.086-.05.105-.049a2.641,2.641,0,0,0,.248-.115l.038-.017c.1-.051.207-.1.308-.146.038-.022.079-.041.113-.059.019-.008.034-.016.053-.024a.981.981,0,0,1,.109-.055c.026-.012.049-.023.071-.035.646-.3,1.382-.661,2.393-1.155l.383-.188,1.608-.77c5.942-2.872,12.947-6.257,19.884-9.587a.827.827,0,0,0,.548-.869c-.019-8.308-.019-16.748-.019-24.908V23l.011-.008V17.043c-.451.215-.95.457-1.431.69l-.278.135c-.372.182-.747.365-1.119.543l-.056.025-.214.1-.2.1c-.447.216-.909.442-1.363.654l-.143.074c-.233.109-.469.223-.714.339l-.233.111q-.366.173-.744.355l-.083.039-.526.254-.6.287c-.4.2-.717.349-1.007.484a.48.48,0,0,0-.278.552v.087a.246.246,0,0,1,.008.073v3.171c-.008,3.409-.008,5.613.008,7.612a1.426,1.426,0,0,1-.916,1.466c-1.1.51-2.227,1.052-3.452,1.655l-.071.033-.041.016L46.736,36l-.18.09c-.575.284-1.119.546-1.664.8l-.391.188-.511.246a2.287,2.287,0,0,1-.943.27.684.684,0,0,1-.646-.352,2.241,2.241,0,0,1-.2-1.057V34.5c-.011-.189-.011-.38-.011-.566v-.9c0-2.417,0-4.916.026-7.366a.963.963,0,0,0-.635-1.024c-10.96-5.265-19.362-9.317-28.095-13.552a1.347,1.347,0,0,0-.59-.164,1.194,1.194,0,0,0-.541.148c-1.653.807-3.362,1.642-5.4,2.622-.218.111-.439.216-.635.308l-.045.021-.177.084-.128.062c-.169.083-.3.145-.436.2l-.3.147-.507.246-.09.042-.056.029c-.346.161-.7.328-1.1.535l-.068.033-.154.082.041.024a.037.037,0,0,0,.015.008l.011.005a.505.505,0,0,1,.083.044l.015.008.034.015a.9.9,0,0,0,.105.043l.064.033.034.017c.056.032.105.057.158.081l.023.008a.52.52,0,0,0,.083.041l.623.3c4.346,2.1,7.76,3.748,10.731,5.184l.225.109,3.155,1.524.372.18.886.426,3.884,1.876.071.041a3.721,3.721,0,0,1,.6.328.932.932,0,0,1,.3,1.163.836.836,0,0,1-.8.549,1.176,1.176,0,0,1-.165-.014l-.023,0h-.011a2.536,2.536,0,0,1-.665-.246l-.056-.024c-.785-.372-1.465-.7-2.013-.975-.766-.359-1.412-.669-1.927-.918l-.4-.2-.327-.163-.019-.008c-.687-.323-1.217-.577-1.623-.778l-.409-.189-.12-.059-.083-.039c-.049-.025-.1-.049-.15-.073l-.053-.025-.2-.1c-.184-.087-.323-.156-.451-.222l-.158-.073-1.025-.5L12.8,22.271c-1.855-.9-3.933-1.9-6.554-3.163l-2.16-1.049-2.066-.991L2,17.109a.132.132,0,0,0-.026.081c0,2.04,0,4.124,0,6.137v6.39l-.011,12.1c0,1.333,0,2.712-.008,4.064v4.039c0,.328.158.426.409.557.522.262,1.093.537,1.844.893.282.135.56.271.841.408.439.215.86.42,1.258.608.413.2.823.4,1.138.548.225.11.454.22.68.328l.131.065.695.328,1.375.663,1.315.635,1.386.671q1.583.765,3.174,1.537c3.8,1.831,8.124,3.925,11.944,5.772l1.551.75a.772.772,0,0,0,.338.107c.158,0,.188-.17.188-.443-.008-10.684-.008-21.524,0-32.217a.65.65,0,0,0-.443-.68c-.68-.3-1.352-.628-1.983-.942a1.256,1.256,0,0,1-.616-.616.939.939,0,0,1,.849-1.294,1.715,1.715,0,0,1,.631.156c0,.008.008.008.015.008l.008.008.008.006a.154.154,0,0,0,.056.018l.06.033a.558.558,0,0,0,.068.035l.03.014h.015l.173.082.015.008.015.008.162.075c.424.194.875.406,1.3.638a1.163,1.163,0,0,0,.593.18,1.33,1.33,0,0,0,.6-.164c1.345-.662,2.573-1.259,4.109-2l.038-.018.041-.019c.026-.012.053-.025.075-.037l.041-.015c.038-.016.075-.035.113-.054l.034-.016.041-.02.124-.057.041-.016.064-.033.034-.016a.242.242,0,0,0,.041-.022l.011,0a.5.5,0,0,1,.064-.031l.06-.033.2-.09.349-.171.056-.027c.116-.055.233-.112.349-.17a4.127,4.127,0,0,1,.6-.23l.041-.008a1.022,1.022,0,0,1,.237-.032.873.873,0,0,1,.8.54.952.952,0,0,1-.319,1.2,2.031,2.031,0,0,1-.376.213Zm10.855-5.227h0L48.7,22.7l-.458.22c-1.333.641-2.592,1.245-3.869,1.853-.237.115-.237.3-.237.5v1.3c0,.422,0,.844,0,1.266,0,1.878,0,4.343-.011,6.75,0,.235.011.4.165.4a.717.717,0,0,0,.285-.1c1.51-.752,3.072-1.5,4.541-2.2a.51.51,0,0,0,.368-.516c-.015-2.462-.011-4.87-.011-7.107,0-.453,0-.907,0-1.363V22.319Zm-6.765.722a.687.687,0,0,0,.383.131.437.437,0,0,0,.255-.066c.83-.406,1.972-.961,3.41-1.647l.507-.246.477-.23.27-.131.71-.344-.026-.026,0-.008-.011-.008a.054.054,0,0,0-.011-.013h0l0-.007s-.008-.008-.008-.013a.05.05,0,0,0-.015-.015.016.016,0,0,1,0-.012c-.011-.006-.015-.01-.015-.014l-.008-.007c-1.442-.7-2.952-1.427-4.59-2.218-2.291-1.1-4.834-2.331-7.816-3.773l-2.49-1.2-2.524-1.221-1.063-.515-.883-.424c-2.483-1.2-5.3-2.563-8.019-3.887a.7.7,0,0,0-.334-.082,1.017,1.017,0,0,0-.451.131c-.815.4-1.51.74-2.186,1.066l-.086.042-.064.031L18,8.4l-.74.361c-.045.025-.094.048-.139.071l-.049.024-.041.02c-.049.024-.1.049-.146.074-.064.029-.124.059-.184.089l-.192.091c-.244.119-.488.24-.747.369h-.008a.391.391,0,0,1-.09.038l-.011,0-.015.008a.484.484,0,0,0-.327.262c.3.148.631.313,1.123.549.436.214.924.449,1.5.721l.6.289.379.184c.312.148.616.3.924.445l.721.344q3.724,1.8,7.328,3.539l2.051.99,1.634.789c.608.289,1.2.578,1.814.874l.721.35.454.218,1.116.542.372.178c.939.453,1.912.921,2.9,1.4l.62.3q.845.408,1.7.817l.563.271.755.361a.1.1,0,0,0,.056.033l.019.016c.008,0,.008.005.015.007l.015.006.008,0,.019.008ZM31.175,2.065a.994.994,0,0,0-.424.115c-1.085.536-2.2,1.075-3.275,1.6l-.394.192q-.563.27-1.116.539l-.387.18-1,.484-.406.2L23.9,5.5c-.225.111-.447.221-.672.331a.391.391,0,0,0,.3.262.283.283,0,0,0,.06.027l.023.006q2.6,1.261,5.206,2.517l.868.418,4.488,2.169,4.736,2.286,5.9,2.851,5.9,2.852a.682.682,0,0,0,.346.09.982.982,0,0,0,.424-.123c1.54-.754,3.054-1.485,4.391-2.129l.485-.233.913-.439.391-.189c.278-.139.571-.283.924-.451l.214-.1.338-.164q-3.166-1.524-6.31-3.047L46.743,9.5l-5.9-2.856-2.1-1.015L36.433,4.513,31.6,2.171A.936.936,0,0,0,31.175,2.065Z" transform="translate(0 0)" fill="#ed1c26" stroke="#fff" stroke-width="1"/>
      <path id="Path_16763" data-name="Path 16763" d="M804.723,585.054a.929.929,0,0,1-1.037.972,1.878,1.878,0,0,1-.668-.231q-3.929-1.9-7.862-3.8a2.039,2.039,0,0,1-.547-.336.872.872,0,0,1-.218-1.064.893.893,0,0,1,.927-.567,1.4,1.4,0,0,1,.494.135q4.112,1.972,8.218,3.956A1.038,1.038,0,0,1,804.723,585.054Z" transform="translate(-790.122 -540.349)" fill="#ed1c26" stroke="#fff" stroke-width="1"/>
      <path id="Path_16764" data-name="Path 16764" d="M799.633,612.523a5.911,5.911,0,0,1-.622-.222q-1.98-.945-3.953-1.906c-.71-.348-.945-.826-.7-1.374.256-.573.813-.72,1.534-.378q2.04.968,4.07,1.96a.988.988,0,0,1-.328,1.92Z" transform="translate(-790.096 -564.157)" fill="#ed1c26" stroke="#fff" stroke-width="1"/>
    </g>
  </g>
</svg>
