<svg xmlns="http://www.w3.org/2000/svg" width="35" height="37.958" viewBox="0 0 35 37.958">
  <g id="relocation" transform="translate(-409.25 -702.565)">
    <g id="mpin" transform="translate(412.492 702.961)">
      <path id="Path_16775" data-name="Path 16775" d="M25.834,14.4A11.956,11.956,0,0,0,14.308,0,11.962,11.962,0,0,0,2.782,14.4c1.239,5.842,6.252,11.516,9.243,14.475a3.217,3.217,0,0,0,4.566,0C19.582,25.914,24.595,20.239,25.834,14.4ZM14.308,2.49a9.471,9.471,0,0,1,9.1,11.365A20.887,20.887,0,0,1,19.84,21.28a44.972,44.972,0,0,1-5,5.825.732.732,0,0,1-1.069,0,44.966,44.966,0,0,1-5-5.825,20.892,20.892,0,0,1-3.568-7.425A9.477,9.477,0,0,1,14.308,2.49Z" transform="translate(0 0)" fill="#ed1c26" stroke="#fff" stroke-width="0.8" fill-rule="evenodd"/>
    </g>
    <path id="relocate" d="M5.009,22.258a1.186,1.186,0,0,1-.193,1.666,2.519,2.519,0,0,0-1.194,1.838,2.044,2.044,0,0,0,.7,1.391,8.132,8.132,0,0,0,2.475,1.609,25.441,25.441,0,0,0,7.9,1.877v-.726a1.186,1.186,0,0,1,1.967-.893L19.031,31.1a1.186,1.186,0,0,1,0,1.785l-2.372,2.076a1.186,1.186,0,0,1-1.967-.893V33.021a27.986,27.986,0,0,1-8.878-2.1,10.443,10.443,0,0,1-3.2-2.12,4.382,4.382,0,0,1-1.364-3.04,4.821,4.821,0,0,1,2.093-3.7A1.186,1.186,0,0,1,5.009,22.258Zm26.481,0a1.186,1.186,0,0,1,1.666-.193,4.821,4.821,0,0,1,2.093,3.7c0,2.179-1.847,3.812-4.027,4.9a26.386,26.386,0,0,1-8.9,2.306,1.186,1.186,0,1,1-.239-2.36,24.08,24.08,0,0,0,8.076-2.067c2.045-1.025,2.718-2.062,2.718-2.784a2.519,2.519,0,0,0-1.194-1.838A1.186,1.186,0,0,1,31.491,22.258Z" transform="translate(408.5 704.75)" fill="#ed1c26" stroke="#fff" stroke-width="1" fill-rule="evenodd"/>
    <path id="Path_16773" data-name="Path 16773" d="M15,12.63a1.657,1.657,0,0,1-.163.71,2.686,2.686,0,0,1-.443.664,2.935,2.935,0,0,1-1.068.768,3.269,3.269,0,0,1-1.269.247,5.425,5.425,0,0,1-2.122-.475A11.434,11.434,0,0,1,7.7,13.255a18.715,18.715,0,0,1-2.135-1.823A18.5,18.5,0,0,1,3.745,9.3a11.606,11.606,0,0,1-1.276-2.22A5.483,5.483,0,0,1,2,4.955,3.368,3.368,0,0,1,2.234,3.7a3,3,0,0,1,.749-1.087A1.907,1.907,0,0,1,4.337,2a1.223,1.223,0,0,1,.527.117,1.061,1.061,0,0,1,.436.365L6.811,4.61a2.228,2.228,0,0,1,.26.456,1.029,1.029,0,0,1,.091.4.884.884,0,0,1-.137.462,2.214,2.214,0,0,1-.365.462L6.166,6.9a.348.348,0,0,0-.1.26.591.591,0,0,0,.02.15c.02.052.039.091.052.13a5.4,5.4,0,0,0,.605.833c.293.339.605.684.944,1.029s.69.664,1.035.957a5,5,0,0,0,.84.6c.033.013.072.033.117.052a.45.45,0,0,0,.163.026.358.358,0,0,0,.267-.111l.495-.488a2,2,0,0,1,.469-.365.867.867,0,0,1,.462-.137,1.039,1.039,0,0,1,.4.085,2.518,2.518,0,0,1,.456.254l2.155,1.53a.987.987,0,0,1,.358.417A1.336,1.336,0,0,1,15,12.63Z" transform="translate(418.16 707.49)" fill="none" stroke="#ed1c26" stroke-width="1"/>
  </g>
</svg>
