<svg xmlns="http://www.w3.org/2000/svg" width="25.551" height="24.497" viewBox="0 0 25.551 24.497"><defs><style>.a{fill:#ed1c26;}</style></defs><g transform="translate(-670.282 -255.606)"><path class="a" d="M19.391,12.5a5.8,5.8,0,0,1-4.025-1.694,1.232,1.232,0,0,0-.912-.37h-.014c-1.034.007-2.088.009-3.417.009H8.513l-.812,0v.025H.752a.81.81,0,0,1-.6-.163A.826.826,0,0,1,0,9.694,11.214,11.214,0,0,1,.452,6.726a9.705,9.705,0,0,1,1.3-2.69A9.434,9.434,0,0,1,4.133,1.6,8.879,8.879,0,0,1,7.231.251,9.949,9.949,0,0,1,9.413,0a8.64,8.64,0,0,1,2.711.432,9.639,9.639,0,0,1,2.547,1.3.112.112,0,0,1,.024.018l0,0,.008.006,0,0,.01.006.031.019.015.011a1.626,1.626,0,0,1,.16.127.24.24,0,0,0,.152.08.262.262,0,0,0,.17-.1A5.836,5.836,0,0,1,19.544.124c.168,0,.313,0,.446.012a5.443,5.443,0,0,1,1.7.395,6.217,6.217,0,0,1,1.53.9A6.375,6.375,0,0,1,24.45,2.74a5.806,5.806,0,0,1,.795,1.6,6.6,6.6,0,0,1,.276,2.585,6.167,6.167,0,0,1-.707,2.36,5.953,5.953,0,0,1-1.527,1.845,6.114,6.114,0,0,1-2.231,1.135A6.325,6.325,0,0,1,19.391,12.5Zm.126-11.26H19.5A4.891,4.891,0,0,0,16,2.727a5.086,5.086,0,0,0-1.454,3.561,5.019,5.019,0,0,0,4.945,5.072h.017a5.018,5.018,0,0,0,4.944-5.029A5.123,5.123,0,0,0,22.87,2.6,4.846,4.846,0,0,0,19.517,1.241ZM9.374,1.13A8.769,8.769,0,0,0,8,1.238a7.756,7.756,0,0,0-2.144.654,7.984,7.984,0,0,0-1.87,1.255A8.676,8.676,0,0,0,2.837,4.4,8.365,8.365,0,0,0,1.986,5.81a8.939,8.939,0,0,0-.563,1.555,10.422,10.422,0,0,0-.3,1.688c-.011.118-.009.19.032.231a.264.264,0,0,0,.208.059h.007c1.19-.006,2.442-.009,3.434-.009H6.23l.713,0h.714V9.321h2.929c.9,0,2.137,0,3.355.006h.007c.123,0,.176-.013.2-.046s0-.1-.053-.213a7.248,7.248,0,0,1-.508-1.5,6.077,6.077,0,0,1-.137-1.49A5.923,5.923,0,0,1,13.688,4.6a7.091,7.091,0,0,1,.619-1.456c.095-.177.08-.248-.075-.361A8.389,8.389,0,0,0,11.9,1.54,7.89,7.89,0,0,0,9.374,1.13Z" transform="translate(670.283 267.602)"/><path class="a" d="M6.255,12.556h0a6.144,6.144,0,0,1-2.418-.492,6.244,6.244,0,0,1-1.983-1.342A6.338,6.338,0,0,1,0,6.288,6.074,6.074,0,0,1,.476,3.872,6.361,6.361,0,0,1,3.818.508,6.208,6.208,0,0,1,6.272,0h.012A6.17,6.17,0,0,1,8.717.5a6.341,6.341,0,0,1,3.34,3.348,6.254,6.254,0,0,1-1.34,6.86,6.285,6.285,0,0,1-4.423,1.852ZM6.273,1.19a5.007,5.007,0,0,0-1.972.4A5.157,5.157,0,0,0,1.588,4.306a5.05,5.05,0,0,0,1.08,5.555,5.1,5.1,0,0,0,3.588,1.5h.031A5.072,5.072,0,0,0,10.953,8.27a5.1,5.1,0,0,0,.406-1.978,5.056,5.056,0,0,0-1.477-3.6,5.074,5.074,0,0,0-3.6-1.5Z" transform="translate(674.051 255.606)"/><path class="a" d="M15.595,16.875H9.4a.44.44,0,0,0,0,.88h6.19a.44.44,0,1,0,0-.88Z" transform="translate(677.318 256.732)"/></g></svg>