<svg xmlns="http://www.w3.org/2000/svg" width="24" height="24.157" viewBox="0 0 24 24.157">
  <g id="remote-sm" transform="translate(-66.9 -66)">
    <path id="Path_79245" data-name="Path 79245" d="M71.6,74.622v1.221H69.29c-.171,0-.309.208-.309.463v.157c0,.257.138.463.309.463h5.632c.171,0,.309-.208.309-.463v-.157c0-.257-.138-.463-.309-.463H72.683V74.622h3.805a1.682,1.682,0,0,0,1.613-1.74V67.74A1.682,1.682,0,0,0,76.489,66H68.513A1.682,1.682,0,0,0,66.9,67.74v5.145a1.682,1.682,0,0,0,1.613,1.74H71.6Zm-3.618-1.737V67.74a.605.605,0,0,1,.53-.658h7.976a.605.605,0,0,1,.53.658v5.145a.605.605,0,0,1-.53.658H68.513A.609.609,0,0,1,67.983,72.885ZM89.633,79H80.226a1.336,1.336,0,0,0-1.264,1.4v6a1.337,1.337,0,0,0,1.264,1.4H84.4v1.28H82.072c-.162,0-.295.2-.295.441v.2c0,.244.133.441.295.441h5.662c.162,0,.295-.2.295-.441v-.2c0-.244-.133-.441-.295-.441H85.482V87.8h4.154A1.336,1.336,0,0,0,90.9,86.4v-6A1.345,1.345,0,0,0,89.633,79ZM79.5,68.211h8.958v7.667a.541.541,0,1,0,1.083,0v-8.75H79.5a.541.541,0,0,0,0,1.083ZM77.909,88.295H68.951V80.628a.541.541,0,0,0-1.083,0V89.38H77.909a.543.543,0,0,0,0-1.085Z" fill="#ed1c24"/>
    <path id="Path_79246" data-name="Path 79246" d="M141.186,138.6h-7.563a.624.624,0,0,1-.622-.622v-4.357a.624.624,0,0,1,.622-.622h7.563a.624.624,0,0,1,.622.622v4.357A.624.624,0,0,1,141.186,138.6Z" transform="translate(-52.398 -52.438)" fill="#fff"/>
  </g>
</svg>
