<svg xmlns="http://www.w3.org/2000/svg" width="104" height="104.667" viewBox="0 0 104 104.667">
  <g id="remote-lg" transform="translate(-65.9 -65)">
    <path id="Path_79245" data-name="Path 79245" d="M86.879,102.645v5.187H77.056c-.725,0-1.311.886-1.311,1.967v.667c0,1.093.587,1.967,1.311,1.967h23.936c.725,0,1.311-.886,1.311-1.967V109.8c0-1.093-.587-1.967-1.311-1.967H91.48v-5.187h16.172a7.151,7.151,0,0,0,6.855-7.4V73.4a7.15,7.15,0,0,0-6.855-7.4h-33.9A7.151,7.151,0,0,0,66.9,73.4V95.261a7.15,7.15,0,0,0,6.855,7.4H86.879ZM71.5,95.261V73.4A2.572,2.572,0,0,1,73.755,70.6h33.9a2.572,2.572,0,0,1,2.254,2.795V95.261a2.572,2.572,0,0,1-2.254,2.8h-33.9A2.587,2.587,0,0,1,71.5,95.261Zm92.016,25.972H123.536a5.677,5.677,0,0,0-5.371,5.947v25.511a5.684,5.684,0,0,0,5.371,5.947h17.725v5.44h-9.88c-.69,0-1.254.84-1.254,1.875v.84c0,1.035.564,1.875,1.254,1.875h24.062c.69,0,1.254-.84,1.254-1.875v-.84c0-1.035-.564-1.875-1.254-1.875h-9.57v-5.44h17.656a5.677,5.677,0,0,0,5.371-5.947V127.179C168.877,123.9,166.473,121.233,163.517,121.233ZM120.43,75.4H158.5v32.585a2.3,2.3,0,0,0,4.6,0V70.8H120.43a2.3,2.3,0,0,0,0,4.6Zm-6.74,85.357H75.619V128.169a2.3,2.3,0,0,0-4.6,0v37.2H113.69a2.306,2.306,0,0,0,0-4.612Z" transform="translate(0 0)" fill="#ed1c24" stroke="#fff" stroke-width="2"/>
    <path id="Path_79246" data-name="Path 79246" d="M167.789,156.81H135.646A2.653,2.653,0,0,1,133,154.164V135.646A2.653,2.653,0,0,1,135.646,133h32.143a2.653,2.653,0,0,1,2.646,2.646v18.519A2.653,2.653,0,0,1,167.789,156.81Z" transform="translate(-7.869 -5.112)" fill="#fff" stroke="#fff" stroke-width="2"/>
  </g>
</svg>
