<svg xmlns="http://www.w3.org/2000/svg" width="120" height="118.61" viewBox="0 0 120 118.61"><defs><style>.a,.c{fill:#ed1c26;}.a{stroke:#fff;stroke-width:2px;}.b{fill:#fff;}.c{stroke:#ed1c26;stroke-width:0.3px;}</style></defs><g transform="translate(-120 -337.39)"><g transform="translate(121 338.426)"><path class="a" d="M102.358,17.646,99.238,1.915A1.733,1.733,0,0,0,97.2.552h0L11.32,17.627H8.667a1.733,1.733,0,0,0-1.733,1.733V28.2A8.646,8.646,0,0,0,0,36.694V95.627a8.677,8.677,0,0,0,8.667,8.667h93.6A1.733,1.733,0,0,0,104,102.56v-83.2A1.733,1.733,0,0,0,102.358,17.646ZM96.172,4.291l2.649,13.336H29.1ZM4.969,33.016l.009.007a5.3,5.3,0,0,1,1.955-1.231v9.785c-.038-.012-.076-.021-.114-.035a5.1,5.1,0,0,1-.65-.314,3.127,3.127,0,0,1-.315-.173,5.35,5.35,0,0,1-.867-.679A5.214,5.214,0,0,1,4.969,33.016Zm95.564,47.011H76.267V66.16h24.267Zm0-17.333h-26A1.733,1.733,0,0,0,72.8,64.427V81.76a1.733,1.733,0,0,0,1.733,1.733h26v17.333H8.667a5.2,5.2,0,0,1-5.2-5.2v-52c.078.059.165.1.244.154.153.107.31.2.468.3a8.712,8.712,0,0,0,.9.482c.173.078.347.154.52.22a8.347,8.347,0,0,0,1.021.309c.161.04.317.09.48.12a8.663,8.663,0,0,0,1.562.153h91.867Zm-57.077-20.8a12.133,12.133,0,0,1,24.021,0Zm57.077,0H70.964a15.6,15.6,0,0,0-31,0H10.4v-20.8h90.133Z" transform="translate(0 -0.518)"/></g><g transform="translate(205.934 362.468)"><path class="a" d="M402.4,111.482H392v3.467h8.667v8.667h3.467v-10.4A1.733,1.733,0,0,0,402.4,111.482Z" transform="translate(-392 -111.482)"/></g><g transform="translate(134.866 362.468)"><path class="a" d="M65.733,111.482A1.733,1.733,0,0,0,64,113.215v10.4h3.467v-8.667h8.667v-3.467Z" transform="translate(-64 -111.482)"/></g><g transform="translate(200.733 409.268)"><rect class="a" width="3.467" height="3.467"/></g><rect class="b" width="61" height="61" rx="30.5" transform="translate(179 395)"/><g transform="translate(181.869 397.87)"><path class="c" d="M27.63,0a27.63,27.63,0,1,0,27.63,27.63A27.63,27.63,0,0,0,27.63,0ZM9.969,8.747a25.83,25.83,0,0,1,35.285,0L8.746,45.254A25.829,25.829,0,0,1,9.969,8.747ZM45.292,46.514a25.83,25.83,0,0,1-35.285,0L46.514,10.007A25.829,25.829,0,0,1,45.292,46.514Z" transform="translate(0)"/></g></g></svg>