<svg xmlns="http://www.w3.org/2000/svg" width="90.227" height="109.999" viewBox="0 0 90.227 109.999">
  <g id="Group_22377" data-name="Group 22377" transform="translate(-907.702 -467.036)">
    <path id="Subtraction_19" data-name="Subtraction 19" d="M12.209,87.656a2.754,2.754,0,0,1-2.854-2.322C6.966,76.327,3.844,64.517.879,53.041a33.954,33.954,0,0,1-.834-7.285v-.009C.028,45.293.015,44.98,0,44.672A44.508,44.508,0,0,1,10.713,15.331,43.381,43.381,0,0,1,37.677.431,45.5,45.5,0,0,1,43.911,0,45.041,45.041,0,0,1,59.6,2.816,45.9,45.9,0,0,1,83.261,22.641a44.594,44.594,0,0,1,5.493,15.2,37.965,37.965,0,0,1,.211,10.519A68.044,68.044,0,0,1,86.914,58.7c-1.648,6.17-3.317,12.531-4.79,18.144l-.073.277-.2.775c-.325,1.244-.651,2.483-.954,3.637q-.317,1.209-.635,2.418c-.578,2.192-1.544,3.127-3.231,3.127a7.118,7.118,0,0,1-1.736-.249c-.262-.068-.526-.134-.8-.2l-.1-.026-.217-.054-.131-.035-.026-.006h-.006c-1.6-.4-3.251-.811-4.85-1.3a10.409,10.409,0,0,1-7.024-12.531c.52-2.065,1.084-4.2,1.628-6.269l.094-.359.12-.457.065-.246c.286-1.089.61-2.322.917-3.5a12.035,12.035,0,0,1,3.856-6.4,10.292,10.292,0,0,1,6.617-2.263,14.382,14.382,0,0,1,3.49.455c.359.091.74.18,1.045.252l.065.015.035.008a23.669,23.669,0,0,1,2.992.845,2.543,2.543,0,0,0,.9.206c.592,0,.913-.379,1.142-1.353a43.366,43.366,0,0,0,1.191-12.6,34.909,34.909,0,0,0-3.033-12.26,45.224,45.224,0,0,0-13.114-17.3,39.377,39.377,0,0,0-9.11-5.328A45.36,45.36,0,0,0,50.231,3.156a43.591,43.591,0,0,0-6.376-.479A40.371,40.371,0,0,0,16.539,13.237,42.076,42.076,0,0,0,3.16,38.935a29.42,29.42,0,0,0,.851,13.122c.278.874.613,1.2,1.238,1.2a3.117,3.117,0,0,0,.736-.107c.694-.17,1.4-.371,2.126-.58l.008,0a21.18,21.18,0,0,1,5.826-1.1c.339,0,.666.014.973.043a11.691,11.691,0,0,1,3.49.888,12.051,12.051,0,0,1,3.036,1.867,11.575,11.575,0,0,1,3.8,5.948c1.008,3.886,2,7.845,2.939,11.766a11.283,11.283,0,0,1-1.094,8.053A11.8,11.8,0,0,1,20.8,85.444,61.516,61.516,0,0,1,13.45,87.5,5.591,5.591,0,0,1,12.209,87.656Zm1.7-33.326A18.177,18.177,0,0,0,8.377,55.5l-.038.012c-.909.293-1.845.6-2.782.811a.634.634,0,0,0-.452.332.587.587,0,0,0,.037.527c0,.87,3.49,14.324,5.575,22.362l.018.067c.395,1.519.75,2.892,1.056,4.079.169.66.432.941.88.941a3.068,3.068,0,0,0,.716-.131c.664-.181,1.359-.358,1.97-.515l.183-.047c1.18-.3,2.4-.616,3.614-.974a8.408,8.408,0,0,0,4.506-3.18,9.679,9.679,0,0,0,1.7-5.625c-.006-.042-.009-.093-.014-.157l0-.051,0-.057,0-.039a7.614,7.614,0,0,0-.19-1.3l-.282-1.1L24.6,70.429l-.025-.1c-.874-3.4-1.777-6.926-2.771-10.4A7.351,7.351,0,0,0,19.639,56.4,8.464,8.464,0,0,0,15.9,54.554,8.609,8.609,0,0,0,13.907,54.33Zm61.548,1.915A7.928,7.928,0,0,0,68,62.228c-1.158,4.191-2.226,8.371-3.027,11.544a7.616,7.616,0,0,0,.658,5.584,7.745,7.745,0,0,0,4.4,3.552c1.022.339,2.085.616,3.112.883l.032.008c.323.084.658.171.986.259a9.613,9.613,0,0,0,2.118.441c.9,0,1.077-.65,1.589-2.578,1.91-7.18,3.828-14.432,5.868-22.173a3.357,3.357,0,0,1,.143-.4,1.248,1.248,0,0,0,.14-.955.776.776,0,0,0-.54-.354c-.619-.162-1.248-.342-1.855-.516l-.025-.007a28.916,28.916,0,0,0-6.131-1.274Z" transform="translate(908.202 467.536)" fill="#d12c1e" stroke="#fff" stroke-width="1"/>
    <path id="Subtraction_20" data-name="Subtraction 20" d="M23.28,14.014c-.088,0-.178,0-.266,0-1.488-.035-3.1-.051-5.082-.051-1.189,0-2.417.006-3.5.011-1.165.005-2.367.011-3.556.011-1.327,0-2.49-.007-3.552-.021a7.585,7.585,0,0,1-5.5-2.114A6.893,6.893,0,0,1,0,6.792,6.556,6.556,0,0,1,2.04,2.012,7.691,7.691,0,0,1,7.2.038C8.127.012,9.121,0,10.332,0c.849,0,1.7.006,2.61.012h.019c.983.007,2,.013,3.083.013.42.022.891.032,1.439.032.607,0,1.227-.012,1.884-.026h.062C20.053.017,20.759,0,21.479,0a29.672,29.672,0,0,1,3.646.191A6.4,6.4,0,0,1,28.4,1.519a6.967,6.967,0,0,1,2.045,2.812A1.854,1.854,0,0,0,32.459,5.7l.195,0c1.019-.032,2.124-.047,3.378-.047s2.528.015,3.753.03l.342,0a2.211,2.211,0,0,1,1.619.42,1.333,1.333,0,0,1,.291,1.022c-.052,1.1-.755,1.185-1.6,1.185h-.318c-1.312.007-2.67.014-4.025.014-1.426,0-2.676-.008-3.822-.024H32.21A1.528,1.528,0,0,0,30.581,9.33a8.221,8.221,0,0,1-2.889,3.5A7.962,7.962,0,0,1,23.28,14.014ZM10.557,2.887c-1.258,0-2.29.007-3.246.023A4.892,4.892,0,0,0,4.093,4.05,3.878,3.878,0,0,0,2.781,6.883,3.987,3.987,0,0,0,3.887,9.788a4.42,4.42,0,0,0,3.16,1.361c2.846.057,5.69.086,8.452.086,2.73,0,5.539-.029,8.35-.086a4.431,4.431,0,0,0,3.166-1.388A4.026,4.026,0,0,0,28.13,6.869a3.9,3.9,0,0,0-1.36-2.8,4.994,4.994,0,0,0-3.216-1.163c-.942-.015-1.947-.022-3.16-.022-.853,0-1.721,0-2.56.007h-.112c-.72,0-1.465.006-2.2.007-.856,0-1.758,0-2.484-.006C12.229,2.891,11.389,2.887,10.557,2.887Z" transform="translate(936.396 562.522)" fill="#d12c1e" stroke="#fff" stroke-width="1"/>
  </g>
</svg>
