<svg xmlns="http://www.w3.org/2000/svg" width="29" height="25.312" viewBox="0 0 29 25.312">
  <g id="Group_22130" data-name="Group 22130" transform="translate(-417 -559.688)">
    <g id="Group_22129" data-name="Group 22129">
      <path id="global-svgrepo-com" d="M15,2.672h-.03a12.329,12.329,0,0,0,0,24.658H15a12.33,12.33,0,1,0,0-24.66Zm.493,7.379a18.145,18.145,0,0,0,3.8-.507,22.056,22.056,0,0,1,.635,4.965H15.5V10.051Zm0-.986V3.737c1.329.368,2.676,2.141,3.535,4.859A17.115,17.115,0,0,1,15.5,9.065Zm-.986-5.34v5.34a17.073,17.073,0,0,1-3.564-.476c.866-2.735,2.225-4.514,3.564-4.862Zm0,6.325v4.459H10.04a22.038,22.038,0,0,1,.636-4.971,18.175,18.175,0,0,0,3.834.512ZM9.047,14.509H3.671a11.3,11.3,0,0,1,2.565-6.7A18.081,18.081,0,0,0,9.72,9.28a23.247,23.247,0,0,0-.673,5.229Zm0,.986a23.246,23.246,0,0,0,.673,5.228,18.167,18.167,0,0,0-3.484,1.471,11.283,11.283,0,0,1-2.565-6.7Zm.993,0h4.469v4.454a18.133,18.133,0,0,0-3.835.513A22.066,22.066,0,0,1,10.04,15.5Zm4.469,5.439v5.345c-1.34-.35-2.7-2.131-3.565-4.869A17.082,17.082,0,0,1,14.509,20.934Zm.986,5.334V20.935a17.179,17.179,0,0,1,3.536.47C18.172,24.126,16.825,25.9,15.5,26.268Zm0-6.319V15.5h4.439a22.07,22.07,0,0,1-.633,4.96,18.1,18.1,0,0,0-3.805-.507ZM20.926,15.5h5.407a11.286,11.286,0,0,1-2.565,6.7,18.253,18.253,0,0,0-3.513-1.479,23.23,23.23,0,0,0,.672-5.218Zm0-.986a23.265,23.265,0,0,0-.673-5.223,18.208,18.208,0,0,0,3.511-1.478,11.289,11.289,0,0,1,2.568,6.7H20.926Zm2.159-7.455a17.232,17.232,0,0,1-3.1,1.281,11.066,11.066,0,0,0-2.343-4.364,11.35,11.35,0,0,1,5.442,3.083ZM12.322,3.981A11.072,11.072,0,0,0,9.99,8.326a17.181,17.181,0,0,1-3.07-1.272,11.34,11.34,0,0,1,5.4-3.073ZM6.916,22.946a17.147,17.147,0,0,1,3.073-1.274,11.069,11.069,0,0,0,2.333,4.35,11.339,11.339,0,0,1-5.406-3.077Zm10.728,3.085a11.059,11.059,0,0,0,2.345-4.367,17.114,17.114,0,0,1,3.1,1.283,11.331,11.331,0,0,1-5.445,3.084Z" transform="translate(414.328 557.016)" fill="#ed1c26"/>
      <circle id="Ellipse_1" data-name="Ellipse 1" cx="8" cy="8" r="8" transform="translate(430 569)" fill="#fff"/>
      <path id="Path_16765" data-name="Path 16765" d="M12,10.177a1.275,1.275,0,0,1-.125.546,2.066,2.066,0,0,1-.341.511,2.258,2.258,0,0,1-.821.591,2.515,2.515,0,0,1-.976.19A4.173,4.173,0,0,1,8.1,11.649a8.8,8.8,0,0,1-1.723-.991,14.4,14.4,0,0,1-1.642-1.4,14.228,14.228,0,0,1-1.4-1.637,8.927,8.927,0,0,1-.981-1.708A4.218,4.218,0,0,1,2,4.273a2.59,2.59,0,0,1,.18-.966,2.3,2.3,0,0,1,.576-.836A1.467,1.467,0,0,1,3.8,2a.941.941,0,0,1,.406.09.816.816,0,0,1,.336.28L5.7,4.008a1.714,1.714,0,0,1,.2.351.792.792,0,0,1,.07.305.68.68,0,0,1-.105.356,1.7,1.7,0,0,1-.28.356l-.381.4a.268.268,0,0,0-.08.2.455.455,0,0,0,.015.115c.015.04.03.07.04.1a4.155,4.155,0,0,0,.466.641c.225.26.466.526.726.791s.531.511.8.736a3.843,3.843,0,0,0,.646.461c.025.01.055.025.09.04a.346.346,0,0,0,.125.02.275.275,0,0,0,.205-.085l.381-.376a1.536,1.536,0,0,1,.361-.28.667.667,0,0,1,.356-.105.8.8,0,0,1,.305.065,1.937,1.937,0,0,1,.351.2l1.657,1.177a.76.76,0,0,1,.275.32A1.027,1.027,0,0,1,12,10.177Z" transform="translate(432.16 570.49)" fill="none" stroke="#ed1c26" stroke-width="1"/>
    </g>
  </g>
</svg>
