<svg width="43" height="16" viewBox="0 0 43 16" fill="none" xmlns="http://www.w3.org/2000/svg">
<path d="M23.7039 14.8727C23.6181 14.8727 23.5303 14.8727 23.4446 14.8727C21.994 14.8377 20.4226 14.8218 18.4905 14.8218C17.3314 14.8218 16.1344 14.8277 15.0786 14.8327C13.943 14.8377 12.7712 14.8437 11.6122 14.8437C10.3186 14.8437 9.18486 14.8367 8.14959 14.8227C7.16363 14.855 6.18133 14.6849 5.26055 14.3223C4.33976 13.9597 3.4991 13.4121 2.78807 12.7115C2.17646 12.0346 1.7039 11.2386 1.39845 10.3708C1.093 9.50309 0.960901 8.58131 1.01 7.66024C1.00636 6.7677 1.18089 5.88382 1.52287 5.06291C1.86485 4.242 2.36706 3.50138 2.99863 2.88657C4.37912 1.61388 6.17156 0.911393 8.02872 0.915187C8.93238 0.889221 9.90135 0.877237 11.0819 0.877237C11.9095 0.877237 12.7391 0.883229 13.6261 0.889221H13.6447C14.6029 0.896212 15.5943 0.902204 16.65 0.902204C17.0595 0.924175 17.5186 0.934161 18.0528 0.934161C18.6445 0.934161 19.2489 0.922177 19.8894 0.908196H19.9498C20.5581 0.894214 21.2463 0.877237 21.9482 0.877237C23.1356 0.866017 24.3226 0.92972 25.5024 1.06798C26.667 1.19433 27.7734 1.65394 28.6949 2.39423C29.5804 3.14267 30.2663 4.10885 30.6885 5.2025C30.7995 5.63479 31.0594 6.01134 31.4203 6.26263C31.7811 6.51392 32.2185 6.62298 32.6517 6.56969H32.8418C33.8352 6.53773 34.9124 6.52275 36.1348 6.52275C37.3572 6.52275 38.5991 6.53773 39.7933 6.55271H40.1267C40.6861 6.47541 41.2528 6.62602 41.7049 6.97216C41.818 7.11326 41.9015 7.27669 41.9503 7.45227C41.9991 7.62785 42.0121 7.81184 41.9886 7.9928C41.9379 9.09135 41.2526 9.17624 40.4289 9.17624H40.1189C38.8399 9.18323 37.5161 9.19022 36.1952 9.19022C34.8051 9.19022 33.5866 9.18223 32.4695 9.16625H32.409C32.0693 9.12478 31.7259 9.2044 31.4368 9.39172C31.1476 9.57905 30.9301 9.86266 30.821 10.1949C30.221 11.6076 29.2451 12.8189 28.0048 13.6903C26.7146 14.5063 25.2195 14.9174 23.7039 14.8727ZM11.3012 3.76041C10.0749 3.76041 9.06885 3.76741 8.13692 3.78338C6.99174 3.76465 5.87823 4.16877 4.99994 4.92188C4.60703 5.27693 4.29044 5.71177 4.07027 6.19882C3.8501 6.68587 3.73115 7.21448 3.72098 7.75112C3.7019 8.28402 3.7875 8.81542 3.97271 9.31378C4.15791 9.81214 4.43895 10.2673 4.79913 10.6523C5.19782 11.0783 5.67585 11.4181 6.20496 11.6516C6.73406 11.885 7.30349 12.0074 7.87957 12.0115C10.6539 12.0684 13.4263 12.0974 16.1188 12.0974C18.78 12.0974 21.5183 12.0684 24.2585 12.0115C24.8374 12.0041 25.4089 11.8776 25.9391 11.6395C26.4692 11.4013 26.9473 11.0564 27.3448 10.6253C27.7033 10.2414 27.9839 9.78841 28.1705 9.29268C28.357 8.79695 28.4458 8.26825 28.4317 7.73714C28.41 7.20277 28.2811 6.67871 28.053 6.19762C27.8249 5.71653 27.5025 5.28872 27.106 4.94085C26.227 4.18778 25.1168 3.77649 23.971 3.77939C23.0527 3.76441 22.073 3.75742 20.8905 3.75742C20.059 3.75742 19.2129 3.75742 18.395 3.76441H18.2858C17.5839 3.76441 16.8577 3.7704 16.1412 3.7714C15.3067 3.7714 14.4274 3.7714 13.7197 3.76541C12.9311 3.76441 12.1122 3.76041 11.3012 3.76041Z" fill="#D12C1E" stroke="white" stroke-miterlimit="10"/>
</svg>
