<svg xmlns="http://www.w3.org/2000/svg" width="33.15" height="32.58" viewBox="0 0 33.15 32.58"><defs><style>.a{fill:rgba(237,28,38,0.1);}.b{fill:#ed1c26;}.c{fill:#fff;}</style></defs><path class="a" d="M45.735,30.97H27.717a.9.9,0,0,1-.967-.824V8.824A.9.9,0,0,1,27.717,8H45.735a.9.9,0,0,1,.967.824V30.146A.9.9,0,0,1,45.735,30.97Z" transform="translate(-26.508 -7.758)"/><path class="b" d="M109.812,86.3h6.227a.562.562,0,0,1,0,1.124h-6.227a.562.562,0,1,1,0-1.124Z" transform="translate(-106.383 -68.672)"/><path class="b" d="M43.977,29.45H25.959a1.133,1.133,0,0,1-1.209-1.033V7.033A1.133,1.133,0,0,1,25.959,6H43.977a1.133,1.133,0,0,1,1.209,1.033V28.417A1.133,1.133,0,0,1,43.977,29.45ZM25.959,6.413a.68.68,0,0,0-.726.62V28.417a.68.68,0,0,0,.726.62H43.977a.68.68,0,0,0,.726-.62V7.033a.68.68,0,0,0-.726-.62Z" transform="translate(-24.75 -6)"/><g transform="translate(2.867 4.148)"><path class="b" d="M109.812,130.9h6.227a.562.562,0,1,1,0,1.124h-6.227a.562.562,0,1,1,0-1.124Z" transform="translate(-109.25 -121.813)"/><path class="b" d="M49,153.2H62.62a.543.543,0,0,1,.543.543v.037a.543.543,0,0,1-.543.543H49a.543.543,0,0,1-.543-.543v-.037A.543.543,0,0,1,49,153.2Z" transform="translate(-48.461 -148.811)"/><path class="b" d="M49,197.8H62.62a.543.543,0,0,1,.543.543v.037a.543.543,0,0,1-.543.543H49a.543.543,0,0,1-.543-.543v-.037A.543.543,0,0,1,49,197.8Z" transform="translate(-48.461 -197.804)"/></g><g transform="translate(10.937 10.366)"><circle class="c" cx="10.93" cy="10.93" r="10.93" transform="translate(0.354 0.353)"/><path class="b" d="M142.653,172.188A10.785,10.785,0,1,1,153.438,161.4a10.8,10.8,0,0,1-10.785,10.785Zm0-20.7a9.917,9.917,0,1,0,9.917,9.917,9.928,9.928,0,0,0-9.917-9.917Z" transform="translate(-131.868 -150.618)"/><path class="b" d="M16.518,15.518,19.539,12.5a.708.708,0,1,0-1-1l-3.022,3.022-3.022-3.022a.708.708,0,1,0-1,1l3.022,3.022-3.022,3.022a.708.708,0,1,0,1,1l3.022-3.022,3.022,3.022a.708.708,0,1,0,1-1Z" transform="translate(-4.679 -4.388)"/></g></svg>