<svg width="89" height="90" viewBox="0 0 89 90" fill="none" xmlns="http://www.w3.org/2000/svg">
<path d="M12.9048 88.8727C12.2435 88.9058 11.5936 88.6861 11.08 88.2558C10.5664 87.8256 10.2253 87.2151 10.1223 86.5417C7.79309 77.4997 4.74928 65.6438 1.85854 54.1232C1.3319 51.7228 1.05928 49.2707 1.04542 46.8098V46.8008C1.02885 46.345 1.01617 46.0308 1.00155 45.7216C0.912963 34.9264 4.62318 24.4633 11.4462 16.2666C18.1368 8.13681 27.4899 2.815 37.7349 1.30865C39.7489 1.02118 41.7796 0.876615 43.8128 0.875978C49.0342 0.874443 54.214 1.83175 59.1089 3.70293C68.7992 7.39577 76.9498 14.4277 82.1773 23.605C84.8502 28.313 86.6651 33.4843 87.5327 38.8641C88.0769 42.3571 88.1462 45.9112 87.7384 49.424C87.3336 52.9321 86.665 56.4025 85.7388 59.8042C84.1321 65.9981 82.5049 72.3839 81.0688 78.0187L80.9976 78.2968L80.8026 79.0748C80.4857 80.3236 80.1679 81.5674 79.8725 82.7259C79.6665 83.535 79.4601 84.3442 79.2534 85.1533C78.6899 87.3538 77.7481 88.2925 76.1033 88.2925C75.5313 88.2813 74.9628 88.1973 74.4108 88.0425C74.1553 87.9742 73.898 87.908 73.6308 87.8417L73.5333 87.8156L73.3218 87.7614L73.194 87.7263L73.1687 87.7203H73.1628C71.6029 87.3187 69.9933 86.9061 68.4343 86.4152C65.9418 85.6259 63.84 83.879 62.5649 81.5367C61.2899 79.1945 60.9394 76.4367 61.5862 73.8355C62.0932 71.7625 62.6431 69.6192 63.1735 67.5421L63.2651 67.1817L63.3821 66.723L63.4455 66.476C63.7243 65.3828 64.0402 64.145 64.3395 62.9624C64.8989 60.4643 66.2155 58.2142 68.0989 56.5375C69.9259 55.0281 72.2082 54.2244 74.5502 54.2657C75.6983 54.274 76.841 54.4274 77.9528 54.7225C78.3028 54.8138 78.6743 54.9032 78.9716 54.9755L79.035 54.9905L79.0691 54.9986C80.0585 55.2152 81.0329 55.4986 81.9862 55.8468C82.264 55.9703 82.5614 56.0404 82.8636 56.0536C83.4408 56.0536 83.7538 55.6732 83.9771 54.6954C84.9628 50.5602 85.354 46.2985 85.1382 42.0464C84.8875 37.7928 83.8854 33.6221 82.1812 29.7387C79.352 22.9666 74.9637 17.0058 69.3956 12.3715C66.6815 10.1863 63.6941 8.38724 60.5138 7.02278C57.1338 5.58506 53.5937 4.58458 49.9745 4.04425C47.9166 3.72749 45.8389 3.56677 43.7582 3.56338C33.9052 3.54018 24.4021 7.32299 17.1263 14.1644C9.94952 20.9026 5.32736 30.0442 4.08241 39.9623C3.3902 44.3615 3.67385 48.865 4.9121 53.1353C5.18313 54.0127 5.50974 54.34 6.11909 54.34C6.36159 54.3338 6.60249 54.2978 6.83666 54.2326C7.51328 54.0619 8.20159 53.8601 8.90941 53.6503H8.91721C10.7509 53.0098 12.663 52.6381 14.5973 52.5461C14.9278 52.5461 15.2466 52.5601 15.5459 52.5892C16.718 52.7036 17.8658 53.0044 18.9485 53.4807C20.0199 53.9509 21.0175 54.5826 21.9085 55.3549C23.717 56.8996 25.0122 58.9871 25.6133 61.3261C26.5961 65.2272 27.5632 69.2016 28.4787 73.1378C29.1108 75.8754 28.7306 78.7573 27.4121 81.2221C26.0739 83.7365 23.8953 85.6658 21.2806 86.6521C18.9358 87.4922 16.5425 88.1815 14.1147 88.7161C13.7183 88.8148 13.3125 88.8673 12.9048 88.8727ZM14.5622 55.4172C12.7159 55.5166 10.8961 55.9129 9.16875 56.5917L9.1317 56.6038C8.24547 56.8979 7.33291 57.2061 6.41938 57.4179C6.32602 57.435 6.23771 57.4739 6.1613 57.5317C6.08488 57.5895 6.02241 57.6646 5.9787 57.7512C5.94414 57.8362 5.9294 57.9283 5.93566 58.0201C5.94193 58.112 5.96902 58.2011 6.01477 58.2803C6.01477 59.1536 9.41736 72.6599 11.4501 80.7292L11.4677 80.7964C11.8528 82.3214 12.1989 83.6997 12.4972 84.8913C12.662 85.5539 12.9184 85.836 13.3552 85.836C13.5921 85.8208 13.8265 85.7767 14.0533 85.7045C14.7006 85.5228 15.3782 85.3451 15.9739 85.1875L16.1524 85.1403C17.3028 84.8391 18.4922 84.5219 19.6758 84.1625C21.4472 83.6372 22.9948 82.5126 24.069 80.9701C25.1764 79.3102 25.7556 77.3369 25.7264 75.3232C25.7206 75.2811 25.7176 75.2299 25.7128 75.1656V75.1144V75.0572V75.0181C25.6876 74.5784 25.6257 74.1417 25.5275 73.713L25.2526 72.6087L24.9854 71.5788L24.9611 71.4784C24.109 68.0652 23.2286 64.5254 22.2595 61.0379C21.9 59.6732 21.1674 58.4435 20.1487 57.4952C19.1027 56.5741 17.8495 55.9371 16.5033 55.642C15.8664 55.4894 15.2142 55.4139 14.5603 55.4172H14.5622ZM74.5687 57.3396C72.8872 57.3898 71.2675 58.0034 69.9554 59.0874C68.6433 60.1714 67.7105 61.6665 67.2985 63.3459C66.1695 67.5532 65.1282 71.7494 64.3473 74.9348C63.8589 76.8192 64.0884 78.8245 64.9888 80.5405C65.9312 82.2433 67.4633 83.5169 69.2786 84.1063C70.275 84.4466 71.3114 84.7247 72.3127 84.9927L72.3439 85.0007C72.6588 85.0851 72.9854 85.1724 73.3052 85.2607C73.9751 85.4878 74.6678 85.6364 75.3701 85.7035C76.2476 85.7035 76.4202 85.0509 76.9193 83.1154C78.7815 75.9075 80.6515 68.6273 82.6404 60.8562C82.6786 60.7195 82.7251 60.5854 82.7798 60.4547C82.8632 60.3122 82.9183 60.1541 82.9417 59.9895C82.9651 59.8249 82.9565 59.6571 82.9163 59.496C82.8585 59.4013 82.7815 59.3205 82.6907 59.2592C82.5998 59.1979 82.4972 59.1574 82.3898 59.1406C81.7863 58.978 81.1731 58.7973 80.5813 58.6226L80.5569 58.6156C78.6153 57.9677 76.611 57.5389 74.5795 57.3366L74.5687 57.3396Z" fill="#D12C1E" stroke="white" stroke-miterlimit="10"/>
</svg>
