<svg width="22" height="20" viewBox="0 0 22 20" fill="none" xmlns="http://www.w3.org/2000/svg">
<path d="M1.20642 8.5777H2.4822C2.27532 9.19054 1.82707 9.66719 1.20642 9.83742V8.5777ZM19.3777 8.5777H20.6535V9.83742C20.0329 9.63315 19.5501 9.15649 19.3777 8.5777ZM3.72351 8.5777H18.1364C18.3778 9.83743 19.3777 10.8248 20.6535 11.0631V15.9658C19.3777 16.2041 18.3778 17.1915 18.1364 18.4512H3.72351C3.48214 17.1915 2.4822 16.2041 1.20642 15.9658V11.0631C2.4822 10.8248 3.48214 9.83743 3.72351 8.5777ZM20.6535 17.1915V18.4512H19.3777C19.5501 17.8384 20.0329 17.3617 20.6535 17.1915ZM1.20642 17.1915C1.82707 17.3958 2.3098 17.8724 2.4822 18.4512H1.20642V17.1915ZM19.4122 0.202227C19.2053 -0.0360994 18.8261 -0.0701457 18.5847 0.134134C18.3433 0.338414 18.3088 0.712927 18.5157 0.951253L19.7225 2.34717H8.93009C7.58534 2.34717 6.61988 2.68763 5.99923 3.36856C5.37858 4.08354 5.37858 4.90066 5.41306 5.13899V7.38607H0.930571C0.413361 7.38607 -0.000408173 7.79463 -0.000408173 8.30533V18.7236C-0.000408173 19.2343 0.413361 19.6429 0.930571 19.6429H20.9294C21.4466 19.6429 21.8604 19.2343 21.8604 18.7236V8.30533C21.8604 7.79463 21.4466 7.38607 20.9294 7.38607H6.58541V5.0028C6.58541 5.0028 6.55092 4.52615 6.89573 4.11759C7.27502 3.70903 7.96463 3.50475 8.89561 3.50475H19.6881L18.4812 4.90066C18.2744 5.13899 18.3088 5.5135 18.5502 5.71778C18.6536 5.81992 18.7916 5.85397 18.9295 5.85397C19.1019 5.85397 19.2743 5.78588 19.3777 5.64969L21.4121 3.30047C21.5845 3.09619 21.5845 2.75573 21.4121 2.55145L19.4122 0.202227Z" fill="#2C3E50"/>
<path d="M11.0756 10.9606C12.4893 10.9606 13.6272 12.0841 13.6272 13.48C13.6272 14.8759 12.4893 15.9995 11.0756 15.9995C9.66188 15.9995 8.52402 14.8759 8.52402 13.48C8.52402 12.0841 9.66188 10.9606 11.0756 10.9606ZM11.0756 9.80298C9.00675 9.80298 7.31719 11.4713 7.31719 13.5141C7.31719 15.5569 9.00675 17.2251 11.0756 17.2251C13.1444 17.2251 14.834 15.5569 14.834 13.5141C14.834 11.4713 13.1444 9.80298 11.0756 9.80298Z" fill="#EC1B24"/>
</svg>
