<svg width="24" height="25" viewBox="0 0 24 25" fill="none" xmlns="http://www.w3.org/2000/svg">
<path fill-rule="evenodd" clip-rule="evenodd" d="M5.34946 0C2.94732 0 1 2.12002 1 4.7352V16.2648C1 18.8799 2.94732 21 5.34946 21H7.50001C7.95254 21 8.31932 20.6007 8.31932 20.108C8.31932 19.6154 7.95254 19.216 7.50001 19.216H5.34946C3.85233 19.216 2.63867 17.8947 2.63867 16.2648V4.7352C2.63867 3.10529 3.85233 1.78399 5.34946 1.78399H15.6505C17.1477 1.78399 18.3613 3.10529 18.3613 4.7352V6.5C18.3613 6.99266 18.7282 7.39197 19.1807 7.39197C19.6331 7.39197 20 6.99266 20 6.5V4.7352C20 2.12002 18.0526 0 15.6505 0H5.34946ZM5.82481 9.60781C5.3723 9.60781 5.00548 10.0071 5.00548 10.4998C5.00548 10.9924 5.3723 11.3918 5.82481 11.3918H9.71739C10.1699 11.3918 10.5367 10.9924 10.5367 10.4998C10.5367 10.0071 10.1699 9.60781 9.71739 9.60781H5.82481ZM5.00548 6.30211C5.00548 5.80947 5.3723 5.4101 5.82481 5.4101H12.6084C13.0609 5.4101 13.4277 5.80947 13.4277 6.30211C13.4277 6.79475 13.0609 7.19411 12.6084 7.19411H5.82481C5.3723 7.19411 5.00548 6.79475 5.00548 6.30211Z" fill="#1F2436"/>
<g clip-path="url(#clip0_5576_3098)">
<path d="M20.8125 14.1875C20.625 14.1875 20.3438 14.1875 20.25 14.1875C20.25 14 20.0625 13.625 19.875 13.4375C19.6875 13.25 19.3125 13.0625 18.8438 13.0625C18.6562 13.0625 18.4687 13.0625 18.2812 13.1563C18.1875 12.9688 18.0938 12.875 18 12.6875C17.8125 12.5 17.5313 12.3125 16.9688 12.3125C16.7812 12.3125 16.5938 12.3125 16.5 12.4062V10.8125C16.5 10.25 16.125 9.5 15.1875 9.5C14.8125 9.5 14.4375 9.6875 14.1562 9.875C13.6875 10.4375 13.6875 11.1875 13.6875 11.1875V15.2187C13.125 15.3125 12.6562 15.5 12.375 15.7812C11.8125 16.4375 11.8125 17.2812 11.8125 18.4062C11.8125 18.5938 11.8125 18.875 11.8125 19.0625C11.8125 20.375 12.4688 21.0313 13.125 21.6875L13.4062 22.0625C14.625 23.1875 15.6563 23.5625 18.1875 23.5625C20.9063 23.5625 22.125 22.0625 22.125 18.7812V16.4375C22.125 15.7813 21.9375 14.4688 20.8125 14.1875ZM21.1875 16.4375V18.875C21.1875 22.0625 19.9688 22.7188 18.1875 22.7188C15.9375 22.7188 15.0938 22.4375 14.1562 21.5C14.0625 21.4063 13.9687 21.3125 13.7812 21.125C13.125 20.375 12.75 20 12.75 19.0625C12.75 18.875 12.75 18.5938 12.75 18.4062C12.75 17.4688 12.75 16.8125 13.0313 16.4375C13.125 16.3438 13.4062 16.25 13.6875 16.25V16.7187L13.4062 18.125C13.4062 18.2187 13.4063 18.2187 13.5 18.3125C13.5938 18.4062 13.6875 18.3125 13.6875 18.3125L14.625 17.1875C14.625 17.0937 14.625 17 14.625 17V11.1875C14.625 11.0937 14.625 10.7188 14.8125 10.5313C14.9062 10.5313 15 10.4375 15.1875 10.4375C15.4687 10.4375 15.5625 10.7187 15.5625 10.8125V13.7188V14.8437C15.5625 15.125 15.75 15.4063 16.0312 15.4063C16.3125 15.4063 16.5 15.125 16.5 14.9375V13.7188C16.5 13.625 16.5937 13.25 16.9688 13.25C17.25 13.25 17.4375 13.3438 17.4375 13.625V14.8437C17.4375 15.125 17.625 15.4063 17.9062 15.4063C18.1875 15.4063 18.375 15.125 18.375 14.9375V14.2812C18.375 14.1875 18.4687 14 18.8438 14C19.0313 14 19.125 14.0938 19.125 14.0938C19.3125 14.1875 19.3125 14.4688 19.3125 14.4688V15.2187C19.3125 15.5 19.5 15.6875 19.6875 15.6875C19.9687 15.6875 20.1562 15.5937 20.1562 15.3125C20.1562 15.2187 20.25 15.125 20.3438 15.0313C20.3438 15.0313 20.4375 15.0313 20.5313 15.0313C21.0938 15.2188 21.1875 16.1563 21.1875 16.4375C21.1875 16.3438 21.1875 16.3438 21.1875 16.4375Z" fill="#ED1C24"/>
<path d="M21.1875 16.4375V18.875C21.1875 22.0625 19.9688 22.7188 18.1875 22.7188C15.9375 22.7188 15.0938 22.4375 14.1562 21.5C14.0625 21.4063 13.9687 21.3125 13.7812 21.125C13.125 20.375 12.75 20 12.75 19.0625C12.75 18.875 12.75 18.5938 12.75 18.4062C12.75 17.4688 12.75 16.8125 13.0313 16.4375C13.125 16.3438 13.4062 16.25 13.6875 16.25V16.7187L13.4062 18.125C13.4062 18.2187 13.4063 18.2187 13.5 18.3125C13.5938 18.4062 13.6875 18.3125 13.6875 18.3125L14.625 17.1875C14.625 17.0937 14.625 17 14.625 17V11.1875C14.625 11.0937 14.625 10.7188 14.8125 10.5313C14.9062 10.5313 15 10.4375 15.1875 10.4375C15.4687 10.4375 15.5625 10.7187 15.5625 10.8125V13.7188V14.8437C15.5625 15.125 15.75 15.4063 16.0312 15.4063C16.3125 15.4063 16.5 15.125 16.5 14.9375V13.7188C16.5 13.625 16.5937 13.25 16.9688 13.25C17.25 13.25 17.4375 13.3438 17.4375 13.625V14.8437C17.4375 15.125 17.625 15.4063 17.9062 15.4063C18.1875 15.4063 18.375 15.125 18.375 14.9375V14.2812C18.375 14.1875 18.4687 14 18.8438 14C19.0313 14 19.125 14.0938 19.125 14.0938C19.3125 14.1875 19.3125 14.4688 19.3125 14.4688V15.2187C19.3125 15.5 19.5 15.6875 19.6875 15.6875C19.9687 15.6875 20.1562 15.5937 20.1562 15.3125C20.1562 15.2187 20.25 15.125 20.3438 15.0313C20.3438 15.0313 20.4375 15.0313 20.5313 15.0313C21.0938 15.2188 21.1875 16.1563 21.1875 16.4375ZM21.1875 16.4375C21.1875 16.3438 21.1875 16.3438 21.1875 16.4375ZM20.8125 14.1875C20.625 14.1875 20.3438 14.1875 20.25 14.1875C20.25 14 20.0625 13.625 19.875 13.4375C19.6875 13.25 19.3125 13.0625 18.8438 13.0625C18.6562 13.0625 18.4687 13.0625 18.2812 13.1563C18.1875 12.9688 18.0938 12.875 18 12.6875C17.8125 12.5 17.5313 12.3125 16.9688 12.3125C16.7812 12.3125 16.5938 12.3125 16.5 12.4062V10.8125C16.5 10.25 16.125 9.5 15.1875 9.5C14.8125 9.5 14.4375 9.6875 14.1562 9.875C13.6875 10.4375 13.6875 11.1875 13.6875 11.1875V15.2187C13.125 15.3125 12.6562 15.5 12.375 15.7812C11.8125 16.4375 11.8125 17.2812 11.8125 18.4062C11.8125 18.5938 11.8125 18.875 11.8125 19.0625C11.8125 20.375 12.4688 21.0313 13.125 21.6875L13.4062 22.0625C14.625 23.1875 15.6563 23.5625 18.1875 23.5625C20.9063 23.5625 22.125 22.0625 22.125 18.7812V16.4375C22.125 15.7813 21.9375 14.4688 20.8125 14.1875Z" stroke="#ED1C24" stroke-width="0.2"/>
</g>
<defs>
<clipPath id="clip0_5576_3098">
<rect width="15" height="15" fill="white" transform="translate(9 9.5)"/>
</clipPath>
</defs>
</svg>
