<svg xmlns="http://www.w3.org/2000/svg" width="25.239" height="23.082" viewBox="0 0 25.239 23.082">
  <g id="service-issue-sm" transform="translate(-2.234 1.25)">
    <path id="Vector" d="M10.774,19.143a7.376,7.376,0,0,1,10.752-.037M7.539,14.651A11.8,11.8,0,0,1,16.106,10.9M3.224,10.629A17.7,17.7,0,0,1,16.107,5m.06,20.648a1.475,1.475,0,1,1,1.475-1.475A1.475,1.475,0,0,1,16.167,25.648Z" transform="translate(0 -4.515)" fill="none" stroke="#ed1c24" stroke-linecap="round" stroke-linejoin="round" stroke-width="1.4"/>
    <g id="help" transform="translate(22.275 -1)">
      <path id="Path_79248" data-name="Path 79248" d="M7.743,6.317h-.7V5.3a1.224,1.224,0,0,1,.842-1.193A1.748,1.748,0,0,0,9.147,2.457,1.839,1.839,0,0,0,7.392.667a1.668,1.668,0,0,0-1.263.526A1.787,1.787,0,0,0,5.6,2.422H4.9A2.283,2.283,0,0,1,5.637.7,2.408,2.408,0,0,1,7.392,0,2.542,2.542,0,0,1,9.848,2.492,2.443,2.443,0,0,1,8.094,4.843a.54.54,0,0,0-.351.526Z" transform="translate(-4.9)" fill="#ed1c24" stroke="#ed1c24" stroke-width="0.5"/>
      <path id="Path_79249" data-name="Path 79249" d="M10.7,20a.7.7,0,1,1-.7.7A.7.7,0,0,1,10.7,20Z" transform="translate(-8.21 -11.981)" fill="#ed1c24" stroke="#ed1c24" stroke-width="0.5"/>
    </g>
  </g>
</svg>
