<svg xmlns="http://www.w3.org/2000/svg" width="99.12" height="90.951" viewBox="0 0 99.12 90.951">
  <g id="service-issue-lg" transform="translate(-1.104 1)">
    <path id="Vector" d="M33.738,62.163a29.811,29.811,0,0,1,43.455-.151M20.664,44.007A47.688,47.688,0,0,1,55.289,28.843M3.224,27.749A71.549,71.549,0,0,1,55.295,5m.243,83.451A5.961,5.961,0,1,1,61.5,82.49,5.961,5.961,0,0,1,55.538,88.451Z" transform="translate(0 0)" fill="none" stroke="#ed1c24" stroke-linecap="round" stroke-linejoin="round" stroke-width="3"/>
    <g id="help" transform="translate(75.323 -1)">
      <path id="Path_79248" data-name="Path 79248" d="M16.389,25.532H13.552V21.418a4.946,4.946,0,0,1,3.4-4.823,7.066,7.066,0,0,0,5.106-6.667A7.433,7.433,0,0,0,14.971,2.7,6.743,6.743,0,0,0,9.865,4.823,7.223,7.223,0,0,0,7.737,9.787H4.9a9.227,9.227,0,0,1,2.979-6.95A9.732,9.732,0,0,1,14.971,0,10.274,10.274,0,0,1,24.9,10.071a9.872,9.872,0,0,1-7.092,9.5A2.183,2.183,0,0,0,16.389,21.7Z" transform="translate(0)" fill="#ed1c24"/>
      <path id="Path_79249" data-name="Path 79249" d="M12.837,20A2.837,2.837,0,1,1,10,22.837,2.845,2.845,0,0,1,12.837,20Z" transform="translate(2.134 8.369)" fill="#ed1c24"/>
    </g>
  </g>
</svg>
