<svg xmlns="http://www.w3.org/2000/svg" width="52.836" height="47.9" viewBox="0 0 52.836 47.9">
  <g id="Group_160613" data-name="Group 160613" transform="translate(-96.936 -326.736)">
    <g id="Path_79124" data-name="Path 79124" transform="translate(-6315.642 16892)" fill="#fff" stroke-linecap="round" stroke-linejoin="round">
      <path d="M 6457.17822265625 -16531.30078125 L 6453.67822265625 -16531.30078125 L 6450.73828125 -16531.30078125 L 6447.23828125 -16531.30078125 L 6447.23828125 -16534.80078125 L 6447.23828125 -16539.599609375 L 6445.962890625 -16539.599609375 L 6438.61669921875 -16539.599609375 L 6443.24462890625 -16545.3046875 L 6449.4697265625 -16552.978515625 L 6452.18798828125 -16556.328125 L 6454.90625 -16552.978515625 L 6461.13134765625 -16545.3046875 L 6465.75927734375 -16539.599609375 L 6458.4130859375 -16539.599609375 L 6457.17822265625 -16539.599609375 L 6457.17822265625 -16534.80078125 L 6457.17822265625 -16531.30078125 Z" stroke="none"/>
      <path d="M 6453.67822265625 -16534.80078125 L 6453.67822265625 -16543.099609375 L 6458.4130859375 -16543.099609375 L 6452.18798828125 -16550.7734375 L 6445.962890625 -16543.099609375 L 6450.73828125 -16543.099609375 L 6450.73828125 -16534.80078125 L 6453.67822265625 -16534.80078125 M 6453.67822265625 -16527.80078125 L 6450.73828125 -16527.80078125 C 6446.8720703125 -16527.80078125 6443.73828125 -16530.935546875 6443.73828125 -16534.80078125 L 6443.73828125 -16536.462890625 C 6441.9677734375 -16537.056640625 6440.4736328125 -16538.345703125 6439.6435546875 -16540.087890625 C 6438.482421875 -16542.525390625 6438.826171875 -16545.4140625 6440.52685546875 -16547.509765625 L 6446.751953125 -16555.18359375 C 6448.0810546875 -16556.822265625 6450.078125 -16557.7734375 6452.18798828125 -16557.7734375 C 6454.2978515625 -16557.7734375 6456.294921875 -16556.822265625 6457.6240234375 -16555.18359375 L 6463.84912109375 -16547.509765625 C 6465.5498046875 -16545.4140625 6465.8935546875 -16542.525390625 6464.732421875 -16540.087890625 C 6463.90869140625 -16538.359375 6462.43115234375 -16537.076171875 6460.67822265625 -16536.4765625 L 6460.67822265625 -16534.80078125 C 6460.67822265625 -16530.935546875 6457.54443359375 -16527.80078125 6453.67822265625 -16527.80078125 Z" stroke="none" fill="#fff"/>
    </g>
    <g id="Group_160608" data-name="Group 160608" transform="translate(17.561 -308.824) rotate(50)">
      <g id="Ellipse_563" data-name="Ellipse 563" transform="translate(554.63 327.773)" fill="rgba(255,255,255,0)" stroke="#ed1c26" stroke-width="1">
        <circle cx="17" cy="17" r="17" stroke="none"/>
        <circle cx="17" cy="17" r="16.5" fill="none"/>
      </g>
      <line id="Line_1060" data-name="Line 1060" y2="9.718" transform="translate(563.873 349.417)" fill="#fff" stroke="#ed1c26" stroke-linecap="round" stroke-width="1"/>
      <line id="Line_1061" data-name="Line 1061" y2="10.66" transform="translate(577.284 349.417)" fill="#fff" stroke="#ed1c26" stroke-linecap="round" stroke-width="1"/>
      <path id="Path_79120" data-name="Path 79120" d="M6758.518-16591.111s2.783.234,2.7,6.035" transform="translate(-6194.467 16933.732)" fill="none" stroke="#ed1c26" stroke-linecap="round" stroke-width="1"/>
      <g id="Ellipse_562" data-name="Ellipse 562" transform="translate(561.898 341.299)" fill="#ed1c26" stroke="#ed1c26" stroke-width="1">
        <circle cx="1.287" cy="1.287" r="1.287" stroke="none"/>
        <circle cx="1.287" cy="1.287" r="0.787" fill="none"/>
      </g>
      <path id="Path_79120-2" data-name="Path 79120" d="M6761.221-16591.111s-2.783.234-2.7,6.035" transform="translate(-6183.974 16933.732)" fill="none" stroke="#ed1c26" stroke-linecap="round" stroke-width="1"/>
      <g id="Ellipse_562-2" data-name="Ellipse 562" transform="translate(575.996 341.902)" fill="#ed1c26" stroke="#ed1c26" stroke-width="1">
        <circle cx="1.287" cy="1.287" r="1.287" stroke="none"/>
        <circle cx="1.287" cy="1.287" r="0.787" fill="none"/>
      </g>
      <path id="Path_79120-3" data-name="Path 79120" d="M6758.518-16591.111s2.783.234,2.7,6.035,0,.184,0,.184" transform="translate(-6192.152 16931.24)" fill="none" stroke="#ed1c26" stroke-linecap="round" stroke-width="1"/>
      <g id="Ellipse_562-3" data-name="Ellipse 562" transform="translate(564.213 338.653)" fill="#ed1c26" stroke="#ed1c26" stroke-width="1">
        <circle cx="1.287" cy="1.287" r="1.287" stroke="none"/>
        <circle cx="1.287" cy="1.287" r="0.787" fill="none"/>
      </g>
      <g id="Ellipse_562-4" data-name="Ellipse 562" transform="translate(569.599 337)" fill="#ed1c26" stroke="#ed1c26" stroke-width="1">
        <circle cx="1.287" cy="1.287" r="1.287" stroke="none"/>
        <circle cx="1.287" cy="1.287" r="0.787" fill="none"/>
      </g>
      <path id="Path_79120-4" data-name="Path 79120" d="M6761.221-16591.111s-2.783.234-2.7,6.035,0,.184,0,.184" transform="translate(-6185.792 16931.24)" fill="none" stroke="#ed1c26" stroke-linecap="round" stroke-width="1"/>
      <g id="Ellipse_562-5" data-name="Ellipse 562" transform="translate(574.142 338.909)" fill="#ed1c26" stroke="#ed1c26" stroke-width="1">
        <circle cx="1.287" cy="1.287" r="1.287" stroke="none"/>
        <circle cx="1.287" cy="1.287" r="0.787" fill="none"/>
      </g>
      <path id="Path_79121" data-name="Path 79121" d="M6799-16613.994v10.076" transform="translate(-6228.09 16952.865)" fill="none" stroke="#ed1c26" stroke-linecap="round" stroke-width="1"/>
      <path id="Path_79122" data-name="Path 79122" d="M6757.23-16559.158s-1.915.129-1.452,1.381,10.052,2.85,13.422,0c.673-1.256-1.272-1.381-1.272-1.381" transform="translate(-6191.958 16907.145)" fill="none" stroke="#ed1c26" stroke-linecap="round" stroke-linejoin="round" stroke-width="1"/>
    </g>
    <g id="Group_160609" data-name="Group 160609" transform="translate(-17 1)">
      <g id="Path_79125" data-name="Path 79125" transform="translate(-6294.188 16889.809)" fill="#fff" stroke-linecap="round" stroke-linejoin="round">
        <path d="M 6451.34375 -16532.404296875 L 6449.34375 -16532.404296875 L 6448.0556640625 -16532.404296875 L 6446.0556640625 -16532.404296875 L 6446.0556640625 -16534.404296875 L 6446.0556640625 -16540.91015625 L 6445.962890625 -16540.91015625 L 6443.15234375 -16540.91015625 L 6444.0732421875 -16543.56640625 L 6446.80078125 -16551.431640625 L 6448.6904296875 -16556.87890625 L 6450.580078125 -16551.431640625 L 6453.3076171875 -16543.56640625 L 6454.228515625 -16540.91015625 L 6451.41796875 -16540.91015625 L 6451.34375 -16540.91015625 L 6451.34375 -16534.404296875 L 6451.34375 -16532.404296875 Z" stroke="none"/>
        <path d="M 6449.34375 -16534.404296875 L 6449.34375 -16542.91015625 L 6451.41796875 -16542.91015625 L 6448.6904296875 -16550.775390625 L 6445.962890625 -16542.91015625 L 6448.0556640625 -16542.91015625 L 6448.0556640625 -16534.404296875 L 6449.34375 -16534.404296875 M 6449.34375 -16530.404296875 L 6448.0556640625 -16530.404296875 C 6445.8466796875 -16530.404296875 6444.0556640625 -16532.1953125 6444.0556640625 -16534.404296875 L 6444.0556640625 -16539.39453125 C 6443.52685546875 -16539.681640625 6443.0625 -16540.087890625 6442.7041015625 -16540.591796875 C 6441.95361328125 -16541.64453125 6441.759765625 -16542.998046875 6442.18359375 -16544.220703125 L 6444.9111328125 -16552.0859375 C 6445.4697265625 -16553.6953125 6446.986328125 -16554.775390625 6448.6904296875 -16554.775390625 C 6450.39453125 -16554.775390625 6451.9111328125 -16553.6953125 6452.4697265625 -16552.0859375 L 6455.197265625 -16544.220703125 C 6455.62109375 -16542.998046875 6455.42724609375 -16541.64453125 6454.6767578125 -16540.591796875 C 6454.32275390625 -16540.09375 6453.86474609375 -16539.689453125 6453.34375 -16539.404296875 L 6453.34375 -16534.404296875 C 6453.34375 -16532.1953125 6451.552734375 -16530.404296875 6449.34375 -16530.404296875 Z" stroke="none" fill="#fff"/>
      </g>
      <g id="Path_79123" data-name="Path 79123" transform="translate(-6297.188 16892.773)" fill="#fff" stroke-linecap="round" stroke-linejoin="round">
        <path d="M 6452.9384765625 -16536.8671875 L 6452.4384765625 -16536.8671875 L 6449.970703125 -16536.8671875 L 6449.470703125 -16536.8671875 L 6449.470703125 -16537.3671875 L 6449.470703125 -16543.83203125 L 6445.96240234375 -16543.83203125 L 6444.9130859375 -16543.83203125 L 6445.57421875 -16544.646484375 L 6450.79931640625 -16551.087890625 L 6451.1875 -16551.56640625 L 6451.57568359375 -16551.087890625 L 6456.80078125 -16544.646484375 L 6457.4619140625 -16543.83203125 L 6456.41259765625 -16543.83203125 L 6452.9384765625 -16543.83203125 L 6452.9384765625 -16537.3671875 L 6452.9384765625 -16536.8671875 Z" stroke="none"/>
        <path d="M 6452.4384765625 -16537.3671875 L 6452.4384765625 -16544.33203125 L 6456.41259765625 -16544.33203125 L 6451.1875 -16550.7734375 L 6445.96240234375 -16544.33203125 L 6449.970703125 -16544.33203125 L 6449.970703125 -16537.3671875 L 6452.4384765625 -16537.3671875 M 6452.4384765625 -16536.3671875 L 6449.970703125 -16536.3671875 C 6449.41845703125 -16536.3671875 6448.970703125 -16536.814453125 6448.970703125 -16537.3671875 L 6448.970703125 -16543.33203125 L 6445.96240234375 -16543.33203125 C 6445.57666015625 -16543.33203125 6445.2255859375 -16543.5546875 6445.0595703125 -16543.90234375 C 6444.8935546875 -16544.25 6444.94287109375 -16544.662109375 6445.185546875 -16544.962890625 L 6450.41064453125 -16551.404296875 C 6450.6005859375 -16551.63671875 6450.88623046875 -16551.7734375 6451.1875 -16551.7734375 C 6451.48876953125 -16551.7734375 6451.7744140625 -16551.63671875 6451.96435546875 -16551.404296875 L 6457.189453125 -16544.962890625 C 6457.43212890625 -16544.662109375 6457.4814453125 -16544.25 6457.3154296875 -16543.90234375 C 6457.1494140625 -16543.5546875 6456.79833984375 -16543.33203125 6456.41259765625 -16543.33203125 L 6453.4384765625 -16543.33203125 L 6453.4384765625 -16537.3671875 C 6453.4384765625 -16536.814453125 6452.99072265625 -16536.3671875 6452.4384765625 -16536.3671875 Z" stroke="none" fill="#ed1c26"/>
      </g>
    </g>
  </g>
</svg>
