<svg xmlns="http://www.w3.org/2000/svg" width="25.979" height="21.718" viewBox="0 0 25.979 21.718">
  <g id="service-dis-sm" transform="translate(-2.234 -4.01)">
    <path id="Vector" d="M10.547,18.719a7.155,7.155,0,0,1,10.429-.036M7.409,14.362a11.445,11.445,0,0,1,8.31-3.639m-12.5-.263A17.172,17.172,0,0,1,15.721,5M21.5,10.722l2.861-2.861m0,0L27.224,5M24.362,7.861,21.5,5m2.861,2.861,2.861,2.861M15.779,25.028A1.431,1.431,0,1,1,17.21,23.6,1.431,1.431,0,0,1,15.779,25.028Z" transform="translate(0)" fill="none" stroke="#ed1c24" stroke-linecap="round" stroke-linejoin="round" stroke-width="1.4"/>
  </g>
</svg>
