<svg xmlns="http://www.w3.org/2000/svg" width="104.241" height="87.072" viewBox="0 0 104.241 87.072">
  <g id="service-dis-lg" transform="translate(-1.104 -2.879)">
    <path id="Vector" d="M33.738,62.163a29.811,29.811,0,0,1,43.455-.151M20.664,44.007A47.688,47.688,0,0,1,55.289,28.843M3.224,27.749A71.549,71.549,0,0,1,55.295,5M79.381,28.843,91.3,16.921m0,0L103.224,5M91.3,16.921,79.381,5M91.3,16.921l11.922,11.921M55.538,88.451A5.961,5.961,0,1,1,61.5,82.49,5.961,5.961,0,0,1,55.538,88.451Z" transform="translate(0 0)" fill="none" stroke="#ed1c24" stroke-linecap="round" stroke-linejoin="round" stroke-width="3"/>
  </g>
</svg>
