<svg width="24" height="23" viewBox="0 0 24 23" fill="none" xmlns="http://www.w3.org/2000/svg">
<path fill-rule="evenodd" clip-rule="evenodd" d="M5.34946 0C2.94732 0 1 2.12002 1 4.7352V16.2648C1 18.8799 2.94732 21 5.34946 21H8.50001C8.95254 21 9.31932 20.6007 9.31932 20.108C9.31932 19.6154 8.95254 19.216 8.50001 19.216H5.34946C3.85233 19.216 2.63867 17.8947 2.63867 16.2648V4.7352C2.63867 3.10529 3.85233 1.78399 5.34946 1.78399H15.6505C17.1477 1.78399 18.3613 3.10529 18.3613 4.7352V8.5C18.3613 8.99266 18.7282 9.39197 19.1807 9.39197C19.6331 9.39197 20 8.99266 20 8.5V4.7352C20 2.12002 18.0526 0 15.6505 0H5.34946ZM5.82481 9.60781C5.3723 9.60781 5.00548 10.0071 5.00548 10.4998C5.00548 10.9924 5.3723 11.3918 5.82481 11.3918H9.71739C10.1699 11.3918 10.5367 10.9924 10.5367 10.4998C10.5367 10.0071 10.1699 9.60781 9.71739 9.60781H5.82481ZM5.00548 6.30211C5.00548 5.80947 5.3723 5.4101 5.82481 5.4101H12.6084C13.0609 5.4101 13.4277 5.80947 13.4277 6.30211C13.4277 6.79475 13.0609 7.19411 12.6084 7.19411H5.82481C5.3723 7.19411 5.00548 6.79475 5.00548 6.30211Z" fill="#1F2436"/>
<path d="M17.7754 11.1366C18.4122 10.4892 19.4433 10.4892 20.0801 11.1366L22.7305 13.8309C23.3685 14.4802 23.3688 15.5343 22.7305 16.1834L17.6338 21.3641C17.2837 21.72 16.7941 21.8943 16.3037 21.8397L13.6406 21.5438C13.0429 21.4772 12.567 20.9963 12.501 20.3827L12.21 17.6756C12.156 17.1738 12.3286 16.6744 12.6787 16.3182L17.7754 11.1366ZM18.7852 12.827L14.165 17.5243L14.0986 17.5916L14.1084 17.6854L14.3066 19.5243L14.3232 19.6844L14.4834 19.702L16.292 19.9032L16.3887 19.9139L16.4561 19.8446L21.0771 15.1473L21.2148 15.0067L21.0771 14.867L19.0703 12.827L18.9277 12.6815L18.7852 12.827Z" fill="#ED1C24" stroke="white" stroke-width="0.4"/>
</svg>
