<svg xmlns="http://www.w3.org/2000/svg" width="26.06" height="28.882" viewBox="0 0 26.06 28.882">
  <g id="Group_22709" data-name="Group 22709" transform="translate(-1146.638 -523.69)">
    <g id="Group_22709-2" data-name="Group 22709" transform="translate(1156.666 523.69)">
      <path id="Path_79024" data-name="Path 79024" d="M201.3,102.769c0-.279-.1-.373-.376-.373-.674,0-1.348-.005-2.021,0-.149,0-.183-.034-.183-.183.006-1.72,0-3.44,0-5.159,0-.28-.095-.375-.374-.375-.674,0-1.348,0-2.021,0-.145,0-.186-.029-.185-.181.007-1.523,0-3.047,0-4.57,0-.306-.088-.4-.39-.4h-4.937c-.314,0-.4.086-.4.4,0,1.523,0,3.047,0,4.57,0,.145-.042.172-.176.171-.668-.007-1.336,0-2,0-.316,0-.4.085-.4.4q0,2.58,0,5.159c0,.125-.03.156-.156.155-.674-.007-1.348,0-2.021,0-.318,0-.4.084-.4.4q0,2.732,0,5.463c0,.343.078.422.417.422h15.224c.3,0,.391-.091.391-.377q0-2.767,0-5.534m-3.051.2c.475-.025.474-.028.474.439v.143c0,.155,0,.31,0,.464,0,.078-.022.1-.1.1-.475.026-.475.028-.475-.44,0-.2,0-.4,0-.607,0-.078.022-.1.1-.1m-2.585-5.712h.018c.466-.023.466-.023.466.446v.268c0,.472,0,.47-.483.431-.068-.006-.092-.021-.091-.091q0-.482,0-.964c0-.069.02-.1.09-.09m-2.383-5.142c.29,0,.29,0,.29.282s0,.289-.3.289c-.272,0-.272,0-.272-.282s0-.29.283-.29m-2.288.149c0-.106.011-.156.14-.152.387.01.775.009,1.163,0,.118,0,.137.037.133.141-.008.22,0,.44,0,.66,0,.236.1.342.333.344q.528,0,1.056,0a.292.292,0,0,0,.328-.331c0-.232.006-.464,0-.7,0-.1.031-.117.121-.116.394,0,.787.007,1.181,0,.116,0,.135.034.135.14,0,.72,0,1.44,0,2.16,0,.7,0,1.4,0,2.107,0,.12-.01.172-.157.172q-2.138-.011-4.276,0c-.13,0-.153-.038-.152-.158q.007-2.134,0-4.267m2.58,11.751c0,.078-.021.1-.1.1-.475.025-.474.028-.474-.439v-.143c0-.155,0-.31,0-.464,0-.078.022-.1.1-.1.475-.026.475-.028.475.439,0,.2,0,.4,0,.607m-3.151-6.2v-.125c0-.472,0-.47.483-.431.068.006.092.022.091.091q0,.482,0,.964c0,.069-.021.1-.091.09h-.018c-.465.023-.465.023-.465-.446Zm-2.478,5.158c.475-.025.474-.028.474.439v.143c0,.155,0,.31,0,.464,0,.078-.022.1-.1.1-.475.026-.475.028-.475-.44,0-.2,0-.4,0-.607,0-.078.021-.1.1-.1m2.336,5.148q-2.147-.007-4.294,0c-.115,0-.147-.027-.147-.145q.006-2.428,0-4.856c0-.115.027-.149.145-.147.387.008.775.006,1.163,0,.1,0,.13.026.128.127-.006.411,0,.821,0,1.232,0,.256.1.356.356.357q.51,0,1.02,0c.234,0,.339-.106.341-.337,0-.417,0-.833,0-1.25,0-.1.022-.131.126-.13.388.006.775.01,1.163,0,.139,0,.148.051.147.163,0,.809,0,1.619,0,2.428s0,1.607,0,2.41c0,.114-.026.148-.145.147m-1.736-5.713c-.126,0-.127-.052-.127-.146,0-.809,0-1.619,0-2.428s0-1.607,0-2.41c0-.134.031-.168.165-.164.381.01.763.007,1.145,0,.1,0,.129.028.127.128-.006.411,0,.821,0,1.232,0,.255.1.355.357.356q.51,0,1.02,0c.233,0,.339-.106.34-.338,0-.417,0-.833,0-1.25,0-.1.024-.13.127-.129q.59.009,1.181,0c.1,0,.128.025.128.127q0,2.446,0,4.892c0,.1-.026.128-.127.128q-2.165-.005-4.33,0m7.033,5.585c0,.1-.026.128-.127.128q-2.165-.005-4.33,0c-.126,0-.127-.052-.127-.146,0-.815,0-1.631,0-2.446,0-.8,0-1.6,0-2.393,0-.134.031-.168.165-.164.381.01.763.007,1.145,0,.1,0,.129.028.127.128-.006.411,0,.821,0,1.232,0,.255.1.355.357.356.34,0,.68,0,1.02,0,.233,0,.339-.106.34-.338,0-.417,0-.833,0-1.25,0-.1.024-.13.127-.129q.59.009,1.181,0c.1,0,.128.025.128.127q0,2.446,0,4.892m-1.848-5.584c-.14,0-.162-.041-.161-.168q.007-2.41,0-4.821c0-.14.041-.164.168-.161.369.009.74.011,1.109,0,.142,0,.163.042.161.169-.008.4,0,.8,0,1.2,0,.247.1.351.342.353q.519,0,1.038,0c.231,0,.336-.107.337-.341,0-.411.006-.821,0-1.232,0-.121.036-.146.149-.144.382.007.763.008,1.145,0,.122,0,.144.037.143.149,0,.809,0,1.619,0,2.428s0,1.607,0,2.41c0,.139-.04.162-.168.161q-2.129-.007-4.258,0m7,5.584c0,.1-.026.128-.127.128q-2.165-.005-4.33,0c-.126,0-.127-.052-.127-.146,0-.815,0-1.631,0-2.446,0-.8,0-1.6,0-2.393,0-.134.031-.168.165-.164.381.01.763.007,1.145,0,.1,0,.128.028.127.128-.006.411,0,.821,0,1.232,0,.255.1.355.357.356.34,0,.68,0,1.02,0,.233,0,.338-.106.34-.338,0-.417,0-.833,0-1.25,0-.1.024-.13.127-.129q.59.009,1.181,0c.1,0,.128.025.128.127q0,2.446,0,4.892" transform="translate(-185.271 -91.539)" fill="#ed1c26"/>
      <path id="Path_79025" data-name="Path 79025" d="M207.459,149.593c-.1,0-.2.006-.3,0a.282.282,0,0,1-.273-.292.278.278,0,0,1,.273-.274c.2-.008.4-.009.605,0a.277.277,0,0,1,.264.282.282.282,0,0,1-.265.283c-.1.008-.2,0-.3,0" transform="translate(-203.447 -139.88)" fill="#ed1c26"/>
      <path id="Path_79026" data-name="Path 79026" d="M207.457,154.983c-.1,0-.2.006-.3,0a.282.282,0,0,1-.272-.276.278.278,0,0,1,.275-.29c.2-.008.392-.008.587,0a.279.279,0,0,1,.281.285.283.283,0,0,1-.284.283c-.095.006-.19,0-.285,0h0" transform="translate(-203.446 -144.414)" fill="#ed1c26"/>
      <path id="Path_79027" data-name="Path 79027" d="M239.869,149.593c-.1,0-.2.006-.3,0a.282.282,0,0,1-.273-.292.277.277,0,0,1,.273-.274c.2-.008.4-.009.605,0a.277.277,0,0,1,.264.282.288.288,0,0,1-.264.284.294.294,0,0,1-.036,0h-.267Z" transform="translate(-230.704 -139.88)" fill="#ed1c26"/>
      <path id="Path_79028" data-name="Path 79028" d="M239.864,154.424c.095,0,.19,0,.285,0a.284.284,0,0,1,.287.28.279.279,0,0,1-.278.288c-.2.008-.392.008-.588,0a.279.279,0,0,1-.278-.287.283.283,0,0,1,.286-.28c.095-.005.19,0,.285,0" transform="translate(-230.704 -144.425)" fill="#ed1c26"/>
      <path id="Path_79029" data-name="Path 79029" d="M191.233,185.531c-.095,0-.19.006-.285,0a.282.282,0,0,1-.27-.278.278.278,0,0,1,.277-.288c.2-.008.392-.008.588,0a.279.279,0,0,1,.279.287.284.284,0,0,1-.286.281c-.1.006-.2,0-.3,0h0" transform="translate(-189.819 -170.105)" fill="#ed1c26"/>
      <path id="Path_79030" data-name="Path 79030" d="M191.25,190.921c-.095,0-.19,0-.285,0a.284.284,0,0,1-.287-.28.278.278,0,0,1,.277-.287c.2-.008.392-.008.588,0a.279.279,0,0,1,.278.287.284.284,0,0,1-.287.28c-.095.005-.19,0-.285,0" transform="translate(-189.819 -174.637)" fill="#ed1c26"/>
      <path id="Path_79031" data-name="Path 79031" d="M223.654,184.971c.1,0,.2-.006.3,0a.282.282,0,0,1,.275.291.278.278,0,0,1-.272.275c-.2.008-.4.009-.605,0a.277.277,0,0,1-.266-.281.286.286,0,0,1,.263-.285.294.294,0,0,1,.036,0h.267Z" transform="translate(-217.076 -170.114)" fill="#ed1c26"/>
      <path id="Path_79032" data-name="Path 79032" d="M223.66,190.922c-.095,0-.19,0-.285,0a.284.284,0,0,1-.287-.28.278.278,0,0,1,.277-.287c.2-.008.392-.008.588,0a.279.279,0,0,1,.278.287.284.284,0,0,1-.286.28c-.095.005-.19,0-.285,0" transform="translate(-217.076 -174.638)" fill="#ed1c26"/>
      <path id="Path_79033" data-name="Path 79033" d="M256.068,185.532c-.095,0-.19,0-.285,0a.284.284,0,0,1-.286-.281.279.279,0,0,1,.278-.287c.2-.007.392-.008.588,0a.279.279,0,0,1,.277.288.282.282,0,0,1-.27.278c-.1.008-.2,0-.3,0Z" transform="translate(-244.332 -170.105)" fill="#ed1c26"/>
      <path id="Path_79034" data-name="Path 79034" d="M256.063,190.92c-.1,0-.2.007-.3,0a.281.281,0,0,1-.263-.284.276.276,0,0,1,.266-.28c.2-.009.4-.009.605,0a.278.278,0,0,1,.272.275.283.283,0,0,1-.275.291c-.1.007-.2,0-.3,0Z" transform="translate(-244.332 -174.637)" fill="#ed1c26"/>
      <path id="Path_79035" data-name="Path 79035" d="M223.666,113.1c.095,0,.19-.005.285,0a.282.282,0,0,1,.28.286.277.277,0,0,1-.266.28c-.2.009-.4.009-.605,0a.277.277,0,0,1-.271-.276.281.281,0,0,1,.275-.29c.1-.007.2,0,.3,0" transform="translate(-217.076 -109.667)" fill="#ed1c26"/>
      <path id="Path_79036" data-name="Path 79036" d="M223.66,118.486c.095,0,.19,0,.285,0a.284.284,0,0,1,.286.28.279.279,0,0,1-.279.287c-.2.008-.392.008-.588,0a.279.279,0,0,1-.277-.288.283.283,0,0,1,.287-.279c.095-.005.19,0,.285,0" transform="translate(-217.075 -114.2)" fill="#ed1c26"/>
    </g>
    <path id="Path_79037" data-name="Path 79037" d="M20.13,14.645q-5.875-.006-11.751,0c-.235,0-.523.094-.69-.039s-.116-.424-.157-.648q-.752-4.069-1.5-8.139-.327-1.782-.65-3.565a.893.893,0,0,0-.569-.736Q2.973.792,1.131.066A.816.816,0,0,0,.3.181C.156.287.106.455,0,.585V.977a1.09,1.09,0,0,0,.722.666c.983.372,1.958.766,2.937,1.146a.308.308,0,0,1,.233.265c.414,2.3.839,4.592,1.262,6.888q.516,2.805,1.031,5.611a.813.813,0,0,0,.822.7c.112,0,.224,0,.359,0-.032.1-.054.176-.081.25-.255.713-.515,1.425-.766,2.14a.679.679,0,0,0,.688.975c.164,0,.329,0,.524,0a2.426,2.426,0,0,0,.1,3.314,2.409,2.409,0,0,0,4.049-1.141,2.442,2.442,0,0,0-.518-2.154h5.218a2.4,2.4,0,0,0,.153,3.323,2.365,2.365,0,0,0,3.095.211,2.321,2.321,0,0,0,.951-1.518,2.409,2.409,0,0,0-.575-2.037c.289,0,.532.011.773,0a.668.668,0,0,0,.032-1.335,2.428,2.428,0,0,0-.294-.01H8.078c.219-.607.438-1.184.632-1.769a.313.313,0,0,1,.361-.251q5.851.01,11.7,0m-2.355,3.906a1.07,1.07,0,0,1-.011,2.141,1.07,1.07,0,1,1,.011-2.141m-8.891,0A1.071,1.071,0,1,1,9.539,22.3a1.071,1.071,0,0,1-.012-2.142" transform="translate(1147.138 528.327)" fill="#ed1c26" stroke="#fff" stroke-width="1"/>
  </g>
</svg>
