<svg xmlns="http://www.w3.org/2000/svg" width="106" height="106" viewBox="0 0 20.9 25"><defs><style>.a{fill:#ed1c26;stroke:#fff;stroke-width:0.4px;}</style></defs><g transform="translate(-42.467 0.2)"><g transform="translate(42.667)"><path class="a" d="M63.017,5.275,57.892.15A.516.516,0,0,0,57.53,0h-12.3a2.565,2.565,0,0,0-2.562,2.562V22.038A2.565,2.565,0,0,0,45.229,24.6H60.6a2.565,2.565,0,0,0,2.562-2.562V5.637A.516.516,0,0,0,63.017,5.275Zm-.875,16.763A1.539,1.539,0,0,1,60.6,23.575H45.229a1.539,1.539,0,0,1-1.538-1.538V2.562a1.539,1.539,0,0,1,1.538-1.538H57.317L62.142,5.85Z" transform="translate(-42.667)"/></g><g transform="translate(44.717 5.125)"><path class="a" d="M95.071,106.667h-6.15a3.591,3.591,0,0,0-3.588,3.588V120.5a3.591,3.591,0,0,0,3.588,3.588h6.15a3.591,3.591,0,0,0,3.588-3.588v-10.25A3.591,3.591,0,0,0,95.071,106.667ZM97.633,120.5a2.565,2.565,0,0,1-2.562,2.562h-6.15a2.565,2.565,0,0,1-2.562-2.562v-10.25a2.565,2.565,0,0,1,2.563-2.562h6.15a2.565,2.565,0,0,1,2.562,2.563Z" transform="translate(-85.333 -106.667)"/></g><g transform="translate(48.817 17.425)"><path class="a" d="M171.179,362.667a.513.513,0,0,0-.513.512v4.1a.513.513,0,0,0,1.025,0v-4.1A.513.513,0,0,0,171.179,362.667Z" transform="translate(-170.666 -362.667)"/></g><g transform="translate(52.917 17.425)"><path class="a" d="M256.512,362.667a.513.513,0,0,0-.512.512v4.1a.512.512,0,1,0,1.025,0v-4.1A.513.513,0,0,0,256.512,362.667Z" transform="translate(-256 -362.667)"/></g><g transform="translate(48.817 5.125)"><path class="a" d="M171.179,106.667a.513.513,0,0,0-.513.512v4.1a.513.513,0,0,0,1.025,0v-4.1A.513.513,0,0,0,171.179,106.667Z" transform="translate(-170.666 -106.667)"/></g><g transform="translate(52.917 5.125)"><path class="a" d="M256.512,106.667a.513.513,0,0,0-.512.512v4.1a.512.512,0,1,0,1.025,0v-4.1A.513.513,0,0,0,256.512,106.667Z" transform="translate(-256 -106.667)"/></g><g transform="translate(44.717 13.325)"><path class="a" d="M87.9,277.333h-2.05a.513.513,0,1,0,0,1.025H87.9a.513.513,0,0,0,0-1.025Z" transform="translate(-85.333 -277.333)"/></g><g transform="translate(54.967 13.325)"><path class="a" d="M301.229,277.333h-2.05a.513.513,0,0,0,0,1.025h2.05a.513.513,0,0,0,0-1.025Z" transform="translate(-298.666 -277.333)"/></g></g></svg>