<svg xmlns="http://www.w3.org/2000/svg" width="108" height="142.666" viewBox="0 0 108 142.666"><defs><style>.a{fill:#ed1c26;stroke:#fff;stroke-width:4px;}</style></defs><g transform="translate(-62 2)"><g transform="translate(64)"><path class="a" d="M126.7,43.513a2.887,2.887,0,0,0-2.043-.846h-49.1A11.567,11.567,0,0,0,64,54.222v104a11.567,11.567,0,0,0,11.556,11.556h69.333a11.567,11.567,0,0,0,11.556-11.556V74.445A2.887,2.887,0,0,0,155.6,72.4Zm23.969,114.709A5.785,5.785,0,0,1,144.889,164H75.556a5.785,5.785,0,0,1-5.778-5.778v-104a5.785,5.785,0,0,1,5.778-5.778h47.9l27.207,27.2Z" transform="translate(-64 -31.111)"/><path class="a" d="M128,222v46.222a8.676,8.676,0,0,0,8.667,8.667h40.444a8.676,8.676,0,0,0,8.667-8.667V222a8.676,8.676,0,0,0-8.667-8.667H136.667A8.676,8.676,0,0,0,128,222Zm17.333,49.111h-8.667a2.891,2.891,0,0,1-2.889-2.889v-8.667h11.556Zm17.333,0H151.111V259.555h11.556ZM180,268.222a2.891,2.891,0,0,1-2.889,2.889h-8.667V256.666a2.887,2.887,0,0,0-2.889-2.889H133.778V236.444H180Zm-11.556-49.111h8.667A2.891,2.891,0,0,1,180,222v8.667H168.444Zm-17.333,0h11.556v11.555H151.111Zm-5.778,11.555H133.778V222a2.891,2.891,0,0,1,2.889-2.889h8.667Z" transform="translate(-110.667 -155.555)"/><path class="a" d="M213.82,29.735,184.92.846A2.886,2.886,0,0,0,182.877,0H130.889a2.889,2.889,0,0,0,0,5.778h50.793l27.207,27.2v85.38a2.889,2.889,0,0,0,5.778,0V31.778A2.888,2.888,0,0,0,213.82,29.735Z" transform="translate(-110.667)"/></g></g></svg>