<svg xmlns="http://www.w3.org/2000/svg" width="23.68" height="31.573" viewBox="0 0 23.68 31.573">
  <g id="sim" transform="translate(-64)">
    <g id="Group_19817" data-name="Group 19817" transform="translate(64)">
      <g id="Group_19816" data-name="Group 19816">
        <path id="Path_16278" data-name="Path 16278" d="M78.276,42.86a.657.657,0,0,0-.465-.193H66.631A2.634,2.634,0,0,0,64,45.3v23.68a2.634,2.634,0,0,0,2.631,2.631H82.418a2.634,2.634,0,0,0,2.631-2.631V49.9a.657.657,0,0,0-.193-.465Zm5.457,26.118a1.317,1.317,0,0,1-1.316,1.316H66.631a1.317,1.317,0,0,1-1.316-1.316V45.3a1.317,1.317,0,0,1,1.316-1.316H77.538l6.195,6.192Z" transform="translate(-64 -40.036)" fill="#ed1c26"/>
        <path id="Path_16279" data-name="Path 16279" d="M128,215.306v10.524a1.975,1.975,0,0,0,1.973,1.973h9.209a1.975,1.975,0,0,0,1.973-1.973V215.306a1.975,1.975,0,0,0-1.973-1.973h-9.209A1.976,1.976,0,0,0,128,215.306Zm3.947,11.182h-1.973a.658.658,0,0,1-.658-.658v-1.973h2.631Zm3.947,0h-2.631v-2.631h2.631Zm3.947-.658a.658.658,0,0,1-.658.658h-1.973V223.2a.657.657,0,0,0-.658-.658h-7.236V218.6H139.84Zm-2.631-11.182h1.973a.658.658,0,0,1,.658.658v1.973h-2.631Zm-3.947,0h2.631v2.631h-2.631Zm-1.316,2.631h-2.631v-1.973a.658.658,0,0,1,.658-.658h1.973Z" transform="translate(-124.053 -200.177)" fill="#ed1c26"/>
        <path id="Path_16280" data-name="Path 16280" d="M147.541,6.77,140.96.193A.657.657,0,0,0,140.5,0H128.658a.658.658,0,0,0,0,1.316h11.565l6.195,6.192v19.44a.658.658,0,0,0,1.316,0V7.236A.657.657,0,0,0,147.541,6.77Z" transform="translate(-124.053)" fill="#ed1c26"/>
      </g>
    </g>
  </g>
</svg>
