<svg xmlns="http://www.w3.org/2000/svg" width="106" height="106" viewBox="0 0 28.87 28.879"><defs><style>.a,.b{fill:#ed1c26;}.a{stroke:#fff;}</style></defs><g transform="translate(0.443 0.533)"><g transform="translate(0.057 1.734)"><g transform="translate(0)"><path class="a" d="M17.071,55.946A12.281,12.281,0,0,1,2.491,48.4,12.144,12.144,0,0,1,2.3,40.256a12.364,12.364,0,0,1,3.318-5.192l-.279,2.319,1.628.2.616-5.112-5.048-.6L2.347,33.5l2.263.268a14.012,14.012,0,0,0-3.864,5.98,13.914,13.914,0,0,0,16.74,17.786Z" transform="translate(-0.057 -31.871)"/></g></g><g transform="translate(9.677 0)"><g transform="translate(0 0)"><path class="a" d="M194.316,18.68A13.916,13.916,0,0,0,176.937.687l.508,1.559A12.273,12.273,0,0,1,188.783,23.6l.3-2.522-1.628-.2-.616,5.112,5.048.6.193-1.629-2.07-.245A13.956,13.956,0,0,0,194.316,18.68Z" transform="translate(-176.937 0)"/></g></g><g transform="translate(7.744 5.356)"><g transform="translate(0)"><path class="b" d="M71.644,42.77a.352.352,0,0,0-.249-.1H65.409A1.41,1.41,0,0,0,64,44.076v12.68a1.41,1.41,0,0,0,1.409,1.409h8.453a1.41,1.41,0,0,0,1.409-1.409V46.541a.352.352,0,0,0-.1-.249Zm2.922,13.986a.705.705,0,0,1-.7.7H65.409a.705.705,0,0,1-.7-.7V44.076a.705.705,0,0,1,.7-.7h5.841l3.317,3.316Z" transform="translate(-64 -41.258)"/><path class="b" d="M128,214.39v5.636a1.058,1.058,0,0,0,1.057,1.057h4.931a1.058,1.058,0,0,0,1.057-1.057V214.39a1.058,1.058,0,0,0-1.057-1.057h-4.931A1.058,1.058,0,0,0,128,214.39Zm2.113,5.988h-1.057a.352.352,0,0,1-.352-.352v-1.057h1.409Zm2.113,0h-1.409v-1.409h1.409Zm2.113-.352a.352.352,0,0,1-.352.352h-1.057v-1.761a.352.352,0,0,0-.352-.352H128.7v-2.113h5.636Zm-1.409-5.988h1.057a.352.352,0,0,1,.352.352v1.057h-1.409Zm-2.113,0h1.409v1.409h-1.409Zm-.7,1.409H128.7V214.39a.352.352,0,0,1,.352-.352h1.057Z" transform="translate(-125.887 -206.289)"/><path class="b" d="M138.463,3.625,134.94.1a.352.352,0,0,0-.249-.1h-6.339a.352.352,0,0,0,0,.7h6.193l3.317,3.316V14.43a.352.352,0,1,0,.7,0V3.874A.352.352,0,0,0,138.463,3.625Z" transform="translate(-125.887 0)"/></g></g></g></svg>