<svg xmlns="http://www.w3.org/2000/svg" width="432.716" height="260.008" viewBox="0 0 432.716 260.008">
  <g id="Group_22537" data-name="Group 22537" transform="translate(-285.61 -195.992)">
    <path id="Path_78910" data-name="Path 78910" d="M740.078,412.839H415.145a5.2,5.2,0,1,0,0,10.4h9.2V547.695a5.2,5.2,0,0,0,10.4,0l.079-124.451H695.624L719.67,547.695a5.2,5.2,0,1,0,10.4,0l1.514-124.451h8.491a5.2,5.2,0,0,0,0-10.4Z" transform="translate(-76.011 -97.981)" fill="#9895bd" opacity="0.4"/>
    <path id="Path_78911" data-name="Path 78911" d="M467.571,371.845v22.03H412.379a11.021,11.021,0,0,1-.766-22.03q.383-.013.766,0Z" transform="translate(-72.113 -80.167)" fill="#f2f2f2"/>
    <path id="Path_78912" data-name="Path 78912" d="M468.016,393.32a.848.848,0,0,1-.847.847H410.484a11.608,11.608,0,1,1,0-23.216h56.684a.847.847,0,1,1,0,1.695H410.484a9.913,9.913,0,0,0,0,19.827h56.684A.848.848,0,0,1,468.016,393.32Z" transform="translate(-71.202 -79.781)"/>
    <path id="Path_78913" data-name="Path 78913" d="M473.038,380.58h-59.31a.169.169,0,1,1,0-.339h59.314a.169.169,0,1,1,0,.339Z" transform="translate(-77.58 -83.817)" fill="#ccc"/>
    <path id="Path_78914" data-name="Path 78914" d="M473.038,387.771h-59.31a.169.169,0,1,1,0-.339h59.314a.169.169,0,1,1,0,.339Z" transform="translate(-77.58 -86.942)" fill="#ccc"/>
    <path id="Path_78915" data-name="Path 78915" d="M473.038,394.963h-59.31a.169.169,0,0,1,0-.339h59.314a.169.169,0,1,1,0,.339Z" transform="translate(-77.58 -90.066)" fill="#ccc"/>
    <path id="Path_78916" data-name="Path 78916" d="M473.038,402.154h-59.31a.169.169,0,1,1,0-.339h59.314a.169.169,0,1,1,0,.339Z" transform="translate(-77.58 -93.191)" fill="#ccc"/>
    <path id="Path_78917" data-name="Path 78917" d="M449.173,330.8v22.03H393.981a11.021,11.021,0,0,1-.766-22.03q.383-.013.766,0Z" transform="translate(-64.12 -62.335)" fill="#f2f2f2"/>
    <path id="Path_78918" data-name="Path 78918" d="M449.618,352.279a.848.848,0,0,1-.847.847H392.087a11.608,11.608,0,0,1,0-23.216h56.684a.847.847,0,0,1,0,1.695H392.087a9.913,9.913,0,0,0,0,19.827h56.684a.848.848,0,0,1,.847.847Z" transform="translate(-63.209 -61.95)"/>
    <path id="Path_78919" data-name="Path 78919" d="M454.64,339.538H395.33a.169.169,0,1,1,0-.339H454.64a.169.169,0,1,1,0,.339Z" transform="translate(-69.587 -65.986)" fill="#ccc"/>
    <path id="Path_78920" data-name="Path 78920" d="M454.64,346.73H395.33a.169.169,0,1,1,0-.339H454.64a.169.169,0,1,1,0,.339Z" transform="translate(-69.587 -69.11)" fill="#ccc"/>
    <path id="Path_78921" data-name="Path 78921" d="M454.64,353.922H395.33a.169.169,0,1,1,0-.339H454.64a.169.169,0,1,1,0,.339Z" transform="translate(-69.587 -72.235)" fill="#ccc"/>
    <path id="Path_78922" data-name="Path 78922" d="M454.64,361.113H395.33a.169.169,0,1,1,0-.339H454.64a.169.169,0,1,1,0,.339Z" transform="translate(-69.587 -75.359)" fill="#ccc"/>
    <path id="Path_78923" data-name="Path 78923" d="M553,533.467V514.259a3.2,3.2,0,0,0-3.2-3.2h-72.83a3.2,3.2,0,0,0-3.2,3.2v19.208Z" transform="translate(-103.741 -140.655)" fill="#9895bd" opacity="0.4"/>
    <rect id="Rectangle_19072" data-name="Rectangle 19072" width="79.232" height="24.81" transform="translate(370.026 400.015)" fill="#9895bd" opacity="0.4"/>
    <path id="Path_78924" data-name="Path 78924" d="M473.768,620.029v19.208a3.2,3.2,0,0,0,3.2,3.2H549.8a3.2,3.2,0,0,0,3.2-3.2V620.029Z" transform="translate(-103.741 -188.001)" fill="#9895bd" opacity="0.4"/>
    <circle id="Ellipse_523" data-name="Ellipse 523" cx="2.401" cy="2.401" r="2.401" transform="translate(406.842 380.007)" fill="#fff"/>
    <circle id="Ellipse_524" data-name="Ellipse 524" cx="2.401" cy="2.401" r="2.401" transform="translate(406.842 412.02)" fill="#fff"/>
    <circle id="Ellipse_525" data-name="Ellipse 525" cx="2.401" cy="2.401" r="2.401" transform="translate(406.971 443.354)" fill="#fff"/>
    <path id="Path_78925" data-name="Path 78925" d="M546.823,472.325v22.03H491.63a11.021,11.021,0,0,1-.767-22.03q.383-.013.767,0Z" transform="translate(-106.547 -123.824)" fill="#f2f2f2"/>
    <path id="Path_78926" data-name="Path 78926" d="M547.262,493.8a.848.848,0,0,1-.847.847H489.731a11.608,11.608,0,1,1-.014-23.216h56.7a.847.847,0,0,1,0,1.695H489.731a9.913,9.913,0,0,0,0,19.827h56.684a.848.848,0,0,1,.847.847Z" transform="translate(-105.63 -123.438)"/>
    <path id="Path_78927" data-name="Path 78927" d="M552.29,481.06H492.98a.169.169,0,0,1,0-.339H552.29a.169.169,0,1,1,0,.339Z" transform="translate(-112.014 -127.475)" fill="#ccc"/>
    <path id="Path_78928" data-name="Path 78928" d="M552.29,488.251H492.98a.169.169,0,0,1,0-.339H552.29a.169.169,0,1,1,0,.339Z" transform="translate(-112.014 -130.599)" fill="#ccc"/>
    <path id="Path_78929" data-name="Path 78929" d="M552.29,495.443H492.98a.169.169,0,0,1,0-.339H552.29a.169.169,0,1,1,0,.339Z" transform="translate(-112.014 -133.724)" fill="#ccc"/>
    <path id="Path_78930" data-name="Path 78930" d="M552.29,502.635H492.98a.169.169,0,0,1,0-.339H552.29a.169.169,0,1,1,0,.339Z" transform="translate(-112.014 -136.849)" fill="#ccc"/>
    <path id="Path_78931" data-name="Path 78931" d="M458.1,317.812H432.956a1.554,1.554,0,0,0-.688.16l-6.347,3.177a1.157,1.157,0,0,0,0,2.129l6.347,3.177a1.554,1.554,0,0,0,.688.16H458.1a1.32,1.32,0,0,0,1.393-1.225v-6.355a1.32,1.32,0,0,0-1.393-1.224Z" transform="translate(-82.646 -56.692)" fill="#3f3d56"/>
    <path id="Path_78932" data-name="Path 78932" d="M480.911,319.037v6.355a1.32,1.32,0,0,1-1.393,1.225h-5.01v-8.8h5.01A1.32,1.32,0,0,1,480.911,319.037Z" transform="translate(-104.063 -56.692)" fill="#96ba3a"/>
    <path id="Path_78938" data-name="Path 78938" d="M709.318,400.87l-2.655-1.118-1.821-13.31H680.587L678.613,399.7l-2.375,1.188a.564.564,0,0,0,.252,1.069H709.1a.564.564,0,0,0,.219-1.084Z" transform="translate(-191.575 -86.512)" fill="#e6e6e6"/>
    <path id="Path_78939" data-name="Path 78939" d="M717.842,374.852H598.7a2.36,2.36,0,0,1-2.355-2.36v-16.8H720.2v16.8a2.361,2.361,0,0,1-2.355,2.36Z" transform="translate(-156.997 -73.151)" fill="#ccc"/>
    <path id="Path_78940" data-name="Path 78940" d="M720.239,312.315H596.15V240.427A2.849,2.849,0,0,1,599,237.582h118.4a2.849,2.849,0,0,1,2.846,2.846Z" transform="translate(-156.914 -21.835)" fill="#3f3d56"/>
    <path id="Path_78941" data-name="Path 78941" d="M716.836,311.106H607.57a2.2,2.2,0,0,1-2.194-2.194V249a2.2,2.2,0,0,1,2.194-2.194H716.836A2.2,2.2,0,0,1,719.03,249v59.911a2.2,2.2,0,0,1-2.194,2.194Z" transform="translate(-160.923 -25.844)" fill="#fff"/>
    <path id="Path_78942" data-name="Path 78942" d="M749.924,396.547a6.569,6.569,0,0,1,9.99,1.285l14.78-2.628,3.787,8.592-20.924,3.418a6.6,6.6,0,0,1-7.634-10.667Z" transform="translate(-222.79 -90.145)" fill="#ffb6b6"/>
    <path id="Path_78943" data-name="Path 78943" d="M775.776,383.773l15.408-.192,1.95-.026,31.348-.395s8.513-8.121,15.925-16.483l-1.039-7.515a30.7,30.7,0,0,0-10.294-19.01c-10.617,7.094-16.773,21.136-16.773,21.136l-19.437,4.649-1.945.465-12.077,2.886Z" transform="translate(-234.958 -66.399)" fill="#ed1c24"/>
    <path id="Path_78944" data-name="Path 78944" d="M865.561,498.962H836.8c0,1.232-31.44,2.233-31.44,2.233a11.488,11.488,0,0,0-1.884,1.786,11.083,11.083,0,0,0-2.59,7.144v1.786a11.167,11.167,0,0,0,11.162,11.162h53.512a11.172,11.172,0,0,0,11.163-11.163v-1.786A11.178,11.178,0,0,0,865.561,498.962Z" transform="translate(-245.868 -135.399)" fill="#e4e4e4"/>
    <rect id="Rectangle_19073" data-name="Rectangle 19073" width="11.609" height="67.008" transform="translate(587.169 387.229)" fill="#e4e4e4"/>
    <path id="Path_78945" data-name="Path 78945" d="M799.312,649.976c0,1.254,17.592.485,39.292.485s39.292.769,39.292-.485-17.592-11.2-39.292-11.2S799.312,648.721,799.312,649.976Z" transform="translate(-245.185 -196.146)" fill="#e4e4e4"/>
    <path id="Path_78946" data-name="Path 78946" d="M665.39,381.857h-8.64l-4.11-33.325h12.751Z" transform="translate(-119.061 64.316)" fill="#ffb6b6"/>
    <path id="Path_78947" data-name="Path 78947" d="M768.015,651.25H740.156V650.9A10.844,10.844,0,0,1,751,640.053h17.017Z" transform="translate(-219.482 -196.701)"/>
    <path id="Path_78948" data-name="Path 78948" d="M620.235,381.857H611.6l-4.11-33.325h12.751Z" transform="translate(-99.441 64.316)" fill="#ffb6b6"/>
    <path id="Path_78949" data-name="Path 78949" d="M722.86,651.25H695V650.9a10.844,10.844,0,0,1,10.843-10.843h17.017Z" transform="translate(-199.863 -196.701)"/>
    <circle id="Ellipse_526" data-name="Ellipse 526" cx="15.022" cy="15.022" r="15.022" transform="translate(583.166 224.271)" fill="#ffb6b6"/>
    <path id="Path_78950" data-name="Path 78950" d="M850.967,457.563s5.041,26.653-14.138,30.047-46.862,5.78-46.862,5.78l-12.432,58-16.7-1.491s2.221-69.823,7.684-75.286S808.506,452.8,808.506,452.8Z" transform="translate(-228.466 -115.342)" fill="#2f2e41"/>
    <path id="Path_78951" data-name="Path 78951" d="M793.3,441.471l-8.388,8.414s-60.564,9.755-62.9,23.743c-3.527,21.119-7.694,67.043-7.694,67.043l18.209-1.366,7.141-52.2,29.134-6.627,33.147-18.064Z" transform="translate(-208.257 -110.421)" fill="#2f2e41"/>
    <path id="Path_78952" data-name="Path 78952" d="M879.1,255.046c-1.483-2.8-3.367-8.374-6.36-9.408a23.794,23.794,0,0,0-5.123-1.091l-5.087,1.957,2.769-2.154q-.809-.048-1.616-.079l-3.433,1.32,1.756-1.366c-3.2-.033-6.5.3-8.983,2.248-2.114,1.661-4.208,7.952-4.547,10.619a20.313,20.313,0,0,0,.373,7.652l.869.827a10.673,10.673,0,0,0,.682-2.171,10.282,10.282,0,0,1,4.921-6.677l.047-.027a9.225,9.225,0,0,1,4.9-.723l7.941.286c1.911.069,3.968.19,5.457,1.388a8.985,8.985,0,0,1,2.182,3.161,66.917,66.917,0,0,1,2.186,7.128s.818-1.064,1.21-.272a27.372,27.372,0,0,0,1.139-6.353,12.447,12.447,0,0,0-1.284-6.266Z" transform="translate(-266.458 -24.721)" fill="#2f2e41"/>
    <path id="Path_78953" data-name="Path 78953" d="M981.845,290.87A6.569,6.569,0,0,0,975.9,299l-12.08,8.911,3.625,8.662,16.883-12.824a6.6,6.6,0,0,0-2.482-12.88Z" transform="translate(-316.66 -44.98)" fill="#ffb6b6"/>
    <path id="Path_78954" data-name="Path 78954" d="M944.229,316.046,913.945,349.68s-14.482-4.636-25.683-9.663l-5.032-15.454a30.73,30.73,0,0,1-1.471-11.121c15.527-4.132,33.587,11.242,33.587,11.242l22.669-17.757Z" transform="translate(-280.988 -51.964)" fill="#ed1c24"/>
    <path id="Path_78955" data-name="Path 78955" d="M854.029,400.147c-5.4-1.866-10.99-3.8-17.016-4.521l-.259-.031.071-.251c6.238-21.9,4.681-35.914,1.624-56.961a21.258,21.258,0,0,1,12.186-22.339l.037-.017,17.211-1.094.039,0,12.517,3.681A8.586,8.586,0,0,1,886.586,327c-.136,6.922.152,14.649.456,22.831.683,18.354,1.389,37.333-2.619,49.648l-.021.065-.053.042a20.414,20.414,0,0,1-13.053,4.585C865.678,404.171,859.945,402.191,854.029,400.147Z" transform="translate(-261.452 -55.442)" fill="#ed1c24"/>
    <path id="Path_78956" data-name="Path 78956" d="M542.427,661.188H110.962a.825.825,0,0,1,0-1.6H542.427a.825.825,0,0,1,0,1.6Z" transform="translate(175.273 -205.188)" fill="#ccc"/>
    <g id="Group_22535" data-name="Group 22535" transform="translate(387.195 195.992)">
      <path id="Path_78875" data-name="Path 78875" d="M28.309,46.146.383,47.009a.278.278,0,0,1-.149-.039.394.394,0,0,1-.122-.114.586.586,0,0,1-.082-.172A.753.753,0,0,1,0,46.47V.551A.753.753,0,0,1,.03.337.587.587,0,0,1,.112.165.393.393,0,0,1,.234.051.279.279,0,0,1,.383.012L28.309.875a.264.264,0,0,1,.138.046.406.406,0,0,1,.113.117.616.616,0,0,1,.076.171.769.769,0,0,1,.028.207V45.605a.769.769,0,0,1-.028.207.615.615,0,0,1-.076.171.406.406,0,0,1-.113.117.264.264,0,0,1-.138.046Z" transform="translate(0 0)" fill="#f4799f"/>
      <path id="Path_78877" data-name="Path 78877" d="M7.4,11.431.377,11.376a.281.281,0,0,1-.147-.044.411.411,0,0,1-.12-.118.61.61,0,0,1-.081-.174A.763.763,0,0,1,0,10.826V.547A.754.754,0,0,1,.03.335.59.59,0,0,1,.111.163.394.394,0,0,1,.231.048.275.275,0,0,1,.377.009L7.4.17a.277.277,0,0,1,.144.046.414.414,0,0,1,.118.119.617.617,0,0,1,.079.174A.77.77,0,0,1,7.772.72V10.893a.76.76,0,0,1-.029.21.6.6,0,0,1-.079.171.4.4,0,0,1-.118.115A.271.271,0,0,1,7.4,11.431ZM.377.227A.165.165,0,0,0,.289.251.237.237,0,0,0,.217.32a.352.352,0,0,0-.049.1A.452.452,0,0,0,.151.55V10.827a.458.458,0,0,0,.018.128.366.366,0,0,0,.049.1.248.248,0,0,0,.072.071.169.169,0,0,0,.088.027l7.025.057a.162.162,0,0,0,.086-.025.237.237,0,0,0,.071-.069.359.359,0,0,0,.048-.1.456.456,0,0,0,.018-.126V.716A.461.461,0,0,0,7.607.589a.37.37,0,0,0-.048-.1A.249.249,0,0,0,7.489.414.166.166,0,0,0,7.4.386Z" transform="translate(5.285 6.178)" fill="#f2f2f2"/>
      <path id="Path_78878" data-name="Path 78878" d="M7.4,11.339.342,11.3a.255.255,0,0,1-.133-.04A.371.371,0,0,1,.1,11.149a.548.548,0,0,1-.073-.157A.686.686,0,0,1,0,10.8V.493A.678.678,0,0,1,.027.3.531.531,0,0,1,.1.147a.356.356,0,0,1,.108-.1A.249.249,0,0,1,.342.007L7.4.156A.251.251,0,0,1,7.535.2.373.373,0,0,1,7.641.3a.553.553,0,0,1,.072.157.689.689,0,0,1,.026.191v10.2a.682.682,0,0,1-.026.19.537.537,0,0,1-.072.155.359.359,0,0,1-.106.1.246.246,0,0,1-.13.038Z" transform="translate(3.278 7.503)" fill="#fff"/>
      <path id="Path_78879" data-name="Path 78879" d="M22,.977.341.987A.253.253,0,0,1,.209.948.367.367,0,0,1,.1.842.545.545,0,0,1,.027.685.7.7,0,0,1,.027.3.544.544,0,0,1,.1.145.368.368,0,0,1,.209.039.253.253,0,0,1,.341,0L22,.019a.234.234,0,0,1,.125.038.352.352,0,0,1,.1.1A.537.537,0,0,1,22.3.312a.7.7,0,0,1,0,.373.537.537,0,0,1-.069.152.35.35,0,0,1-.1.1A.234.234,0,0,1,22,.977Z" transform="translate(3.278 22.853)" fill="#fff"/>
      <path id="Path_78880" data-name="Path 78880" d="M16.885.966.342,1.047a.252.252,0,0,1-.133-.038A.364.364,0,0,1,.1.9.543.543,0,0,1,.027.748a.7.7,0,0,1,0-.384A.548.548,0,0,1,.1.206.369.369,0,0,1,.209.1.254.254,0,0,1,.342.061L16.885,0a.237.237,0,0,1,.127.037.353.353,0,0,1,.1.1.536.536,0,0,1,.07.153.7.7,0,0,1,0,.375.54.54,0,0,1-.07.154.358.358,0,0,1-.1.1A.239.239,0,0,1,16.885.966Z" transform="translate(3.278 26.19)" fill="#fff" opacity="0.5"/>
      <path id="Path_78881" data-name="Path 78881" d="M9.755,1.128.331.976A.245.245,0,0,1,.2.936.367.367,0,0,1,.1.83.55.55,0,0,1,.026.675.69.69,0,0,1,0,.485.681.681,0,0,1,.026.3.53.53,0,0,1,.1.144.349.349,0,0,1,.2.042.239.239,0,0,1,.331.006L9.755.169a.237.237,0,0,1,.125.04.359.359,0,0,1,.1.1.547.547,0,0,1,.069.153.689.689,0,0,1,.025.187.679.679,0,0,1-.025.186.527.527,0,0,1-.069.151.342.342,0,0,1-.1.1A.231.231,0,0,1,9.755,1.128Z" transform="translate(15.454 10.565)" fill="#fff"/>
      <path id="Path_78882" data-name="Path 78882" d="M7.426,1.057.331.975A.245.245,0,0,1,.2.935.365.365,0,0,1,.1.83.547.547,0,0,1,.026.675.7.7,0,0,1,.026.3.532.532,0,0,1,.1.143.352.352,0,0,1,.2.041.24.24,0,0,1,.331,0L7.426.1a.238.238,0,0,1,.126.039.36.36,0,0,1,.1.1.544.544,0,0,1,.069.154A.688.688,0,0,1,7.75.58a.68.68,0,0,1-.025.187.529.529,0,0,1-.069.152.347.347,0,0,1-.1.1A.234.234,0,0,1,7.426,1.057Z" transform="translate(15.454 13.909)" fill="#fff"/>
      <path id="Path_78883" data-name="Path 78883" d="M22,.961l-21.66.2a.251.251,0,0,1-.133-.037.363.363,0,0,1-.109-.1A.539.539,0,0,1,.027.866a.7.7,0,0,1,0-.384A.549.549,0,0,1,.1.325.373.373,0,0,1,.209.218.255.255,0,0,1,.341.178L22,0a.232.232,0,0,1,.125.037.346.346,0,0,1,.1.1A.531.531,0,0,1,22.3.293a.7.7,0,0,1,0,.373.542.542,0,0,1-.069.153.355.355,0,0,1-.1.1A.235.235,0,0,1,22,.961Z" transform="translate(3.278 29.47)" fill="#fff"/>
      <path id="Path_78884" data-name="Path 78884" d="M16.885.969.341,1.2a.25.25,0,0,1-.133-.037.362.362,0,0,1-.109-.1A.535.535,0,0,1,.027.9.684.684,0,0,1,0,.71.691.691,0,0,1,.027.518.552.552,0,0,1,.1.36.375.375,0,0,1,.209.253.255.255,0,0,1,.341.212L16.885,0a.235.235,0,0,1,.127.036.348.348,0,0,1,.1.1.529.529,0,0,1,.07.152.7.7,0,0,1,0,.375.547.547,0,0,1-.07.154.362.362,0,0,1-.1.1A.241.241,0,0,1,16.885.969Z" transform="translate(3.278 32.833)" fill="#fff" opacity="0.5"/>
      <path id="Path_78885" data-name="Path 78885" d="M22,.964l-21.66.4a.249.249,0,0,1-.133-.036.359.359,0,0,1-.109-.1.533.533,0,0,1-.073-.156A.683.683,0,0,1,0,.875.693.693,0,0,1,.027.682.555.555,0,0,1,.1.524.377.377,0,0,1,.209.417.257.257,0,0,1,.341.376L22,.006a.23.23,0,0,1,.125.035.342.342,0,0,1,.1.1A.526.526,0,0,1,22.3.293a.679.679,0,0,1,.025.186A.689.689,0,0,1,22.3.666a.547.547,0,0,1-.069.153.361.361,0,0,1-.1.1A.237.237,0,0,1,22,.964Z" transform="translate(3.278 36.067)" fill="#fff"/>
      <path id="Path_78886" data-name="Path 78886" d="M22,.965l-21.66.5a.249.249,0,0,1-.133-.036.357.357,0,0,1-.109-.1.53.53,0,0,1-.073-.155A.682.682,0,0,1,0,.975.694.694,0,0,1,.027.782.557.557,0,0,1,.1.624.38.38,0,0,1,.209.516.257.257,0,0,1,.341.474L22,.007a.23.23,0,0,1,.125.035.34.34,0,0,1,.1.1A.524.524,0,0,1,22.3.293a.678.678,0,0,1,.025.186A.69.69,0,0,1,22.3.666a.549.549,0,0,1-.069.154.363.363,0,0,1-.1.1A.238.238,0,0,1,22,.965Z" transform="translate(3.278 39.366)" fill="#fff" opacity="0.5"/>
    </g>
    <g id="Group_22536" data-name="Group 22536" transform="translate(11668.109 14906.723)">
      <path id="Path_78957" data-name="Path 78957" d="M614.09,247.957a11.27,11.27,0,1,1-3.287-8A11.3,11.3,0,0,1,614.09,247.957Z" transform="translate(-11749.947 -14895.384)" fill="#f2f2f2"/>
      <circle id="Ellipse_527" data-name="Ellipse 527" cx="11.3" cy="11.3" r="11.3" transform="translate(-11145.256 -14654.361)" fill="#fff"/>
      <path id="Path_78960" data-name="Path 78960" d="M724.864,299.41a10.615,10.615,0,0,1-.758,2.418c-1.993,4.217,3.683,2.842,5.712,2.842,2.218,0,4.34,1.166,4.016-4.016a4.111,4.111,0,0,0-4.016-4.016C727.923,296.638,725.26,297.48,724.864,299.41Z" transform="translate(-11863.432 -14946.891)" fill="#2f2e41"/>
      <circle id="Ellipse_528" data-name="Ellipse 528" cx="3.263" cy="3.263" r="3.263" transform="translate(-11137.21 -14648.749)" fill="#ffb6b6"/>
      <path id="Path_78961" data-name="Path 78961" d="M738.128,303.5a3.738,3.738,0,0,1,5.683,3.262,8.676,8.676,0,0,1-5.183.1l-.419-1.025-.247,1.026a1.511,1.511,0,0,1-1.623,0A3.817,3.817,0,0,1,738.128,303.5Z" transform="translate(-11874.29 -14952.315)" fill="#2f2e41"/>
      <path id="Path_78962" data-name="Path 78962" d="M730.765,371.577a11.3,11.3,0,0,1-15.809,1.143l.969-2.7a2.908,2.908,0,0,1,2.47-1.7l.617-.038,1.47-1.268s3.961-.141,3.9-.209l2.4,1.443,0-.01.943.058a2.907,2.907,0,0,1,2.47,1.7Z" transform="translate(-11855.936 -15007.125)" fill="#96ba3a"/>
      <path id="Path_78973" data-name="Path 78973" d="M695.184,289.5a11.441,11.441,0,1,1,11.441-11.441A11.441,11.441,0,0,1,695.184,289.5Zm0-22.6a11.158,11.158,0,1,0,11.158,11.158A11.158,11.158,0,0,0,695.184,266.9Z" transform="translate(-11829.141 -14921.12)" fill="#3f3d56"/>
      <circle id="Ellipse_530" data-name="Ellipse 530" cx="11.3" cy="11.3" r="11.3" transform="translate(-11184.749 -14677.858)" fill="#fff"/>
      <circle id="Ellipse_531" data-name="Ellipse 531" cx="3.685" cy="3.685" r="3.685" transform="translate(-11176.611 -14672.775)" fill="#ffb8b8"/>
      <path id="bf427902-b9bf-4946-b5d7-5c1c7e04535e" d="M466.411,129.239a1.272,1.272,0,0,0-1.151-2,2.968,2.968,0,0,0-3.633-.3,1.842,1.842,0,0,0-1.547,1.132.686.686,0,0,0-.96.5,5.215,5.215,0,0,0,0,3.168,6.2,6.2,0,0,0,.767,1.667s-.4-1.862,1.9-2.029,4.415-1.609,4.607.225.4,1.006.4,1.006S468.618,129.989,466.411,129.239Z" transform="translate(-11636.094 -14800.764)" fill="#2f2e41"/>
      <path id="Path_78974" data-name="Path 78974" d="M449.729,205.577a11.3,11.3,0,0,1-15.809,1.143l.969-2.7a2.908,2.908,0,0,1,2.47-1.7l.617-.038,1.47-1.268s3.961-.141,3.9-.209l2.4,1.443,0-.01.943.058a2.907,2.907,0,0,1,2.47,1.7Z" transform="translate(-11614.681 -14864.623)" fill="#96ba3a"/>
      <path id="Path_78975" data-name="Path 78975" d="M416.184,123.5a11.441,11.441,0,1,1,11.441-11.441A11.441,11.441,0,0,1,416.184,123.5Zm0-22.6a11.158,11.158,0,1,0,11.158,11.158A11.158,11.158,0,0,0,416.184,100.9Z" transform="translate(-11589.633 -14778.617)" fill="#3f3d56"/>
      <circle id="Ellipse_532" data-name="Ellipse 532" cx="11.3" cy="11.3" r="11.3" transform="translate(-11211.123 -14660.023)" fill="#fff"/>
      <path id="Path_78976" data-name="Path 78976" d="M261.054,260.154a5.075,5.075,0,0,1,3-3.358,5.217,5.217,0,0,1,4.726,1.364c2.021,2.014,2.514,8.933,1.126,11.119-.276-.015-1.229-.025-1.509-.036l-.4-1.318v1.3q-.668-.021-1.346-.029a5.859,5.859,0,0,1-5.785-5.715A13.432,13.432,0,0,1,261.054,260.154Z" transform="translate(-11466.115 -14912.553)" fill="#2f2e41"/>
      <circle id="Ellipse_533" data-name="Ellipse 533" cx="3.22" cy="3.22" r="3.22" transform="translate(-11203.212 -14653.904)" fill="#9e616a"/>
      <path id="Path_78977" data-name="Path 78977" d="M278.429,262.351l3.708-1.857h0a4.66,4.66,0,0,1,2.73,3.861l.092,1.107-1.553-.4-.17-1.416-.264,1.305-.717-.182.007-2.2-.717,2.2-2.559-.588Z" transform="translate(-11481.199 -14915.863)" fill="#2f2e41"/>
      <path id="Path_78978" data-name="Path 78978" d="M262.609,331.323a11.3,11.3,0,0,1-15.809,1.143l.969-2.7a2.908,2.908,0,0,1,2.47-1.7l.617-.038,1.47-1.268s3.961-.141,3.9-.209l2.4,1.443,0-.01.943.058a2.907,2.907,0,0,1,2.47,1.7Z" transform="translate(-11454.048 -14972.569)" fill="#96ba3a"/>
      <path id="Path_78979" data-name="Path 78979" d="M229.861,249.5A11.441,11.441,0,1,1,241.3,238.058,11.441,11.441,0,0,1,229.861,249.5Zm0-22.6a11.158,11.158,0,1,0,11.158,11.158A11.158,11.158,0,0,0,229.861,226.9Z" transform="translate(-11429.685 -14886.782)" fill="#3f3d56"/>
      <path id="Path_78982" data-name="Path 78982" d="M323.334,399.99H308.943a1.456,1.456,0,0,1-1.455-1.455v-8.863a1.456,1.456,0,0,1,1.455-1.455h14.391a1.456,1.456,0,0,1,1.455,1.455v8.863A1.456,1.456,0,0,1,323.334,399.99Z" transform="translate(-11506.146 -15025.507)" fill="#e6e6e6"/>
      <path id="Path_78983" data-name="Path 78983" d="M324.311,405.772h-7.661a1.364,1.364,0,0,1-1.362-1.362v-6.765a1.364,1.364,0,0,1,1.362-1.362h12.368a1.364,1.364,0,0,1,1.362,1.362V399.7A6.075,6.075,0,0,1,324.311,405.772Z" transform="translate(-11512.84 -15032.431)" fill="#fff"/>
      <path id="Path_78984" data-name="Path 78984" d="M341.57,418.535h-9.9a.323.323,0,1,1,0-.646h9.9a.323.323,0,1,1,0,.646Z" transform="translate(-11526.627 -15050.979)"/>
      <path id="Path_78985" data-name="Path 78985" d="M333.218,427.548h-1.549a.323.323,0,1,1,0-.646h1.549a.323.323,0,0,1,0,.646Z" transform="translate(-11526.627 -15058.716)"/>
      <path id="Path_78986" data-name="Path 78986" d="M335.961,436.561h-4.291a.323.323,0,1,1,0-.646h4.291a.323.323,0,0,1,0,.646Z" transform="translate(-11526.627 -15066.454)"/>
      <circle id="Ellipse_534" data-name="Ellipse 534" cx="3.044" cy="3.044" r="3.044" transform="translate(-11202.203 -14640.511)" fill="#3f3d56"/>
      <path id="Path_78987" data-name="Path 78987" d="M587.334,115.99H572.943a1.456,1.456,0,0,1-1.455-1.455v-8.863a1.456,1.456,0,0,1,1.455-1.455h14.391a1.456,1.456,0,0,1,1.455,1.455v8.863A1.456,1.456,0,0,1,587.334,115.99Z" transform="translate(-11732.776 -14781.708)" fill="#e6e6e6"/>
      <path id="Path_78988" data-name="Path 78988" d="M588.311,121.772h-7.661a1.364,1.364,0,0,1-1.362-1.362v-6.765a1.364,1.364,0,0,1,1.362-1.362h12.368a1.364,1.364,0,0,1,1.362,1.362V115.7A6.075,6.075,0,0,1,588.311,121.772Z" transform="translate(-11739.471 -14788.631)" fill="#fff"/>
      <path id="Path_78989" data-name="Path 78989" d="M605.57,134.535h-9.9a.323.323,0,0,1,0-.646h9.9a.323.323,0,0,1,0,.646Z" transform="translate(-11753.257 -14807.18)"/>
      <path id="Path_78990" data-name="Path 78990" d="M597.218,143.548h-1.549a.323.323,0,0,1,0-.646h1.549a.323.323,0,0,1,0,.646Z" transform="translate(-11753.257 -14814.917)"/>
      <path id="Path_78991" data-name="Path 78991" d="M599.961,152.561h-4.292a.323.323,0,0,1,0-.646h4.292a.323.323,0,0,1,0,.646Z" transform="translate(-11753.257 -14822.654)"/>
      <circle id="Ellipse_535" data-name="Ellipse 535" cx="3.044" cy="3.044" r="3.044" transform="translate(-11164.834 -14670.095)" fill="#3f3d56"/>
    </g>
  </g>
</svg>
