<svg xmlns="http://www.w3.org/2000/svg"  viewBox="0 0 57.129 24.061">
  <g id="tingg_" data-name="tingg " transform="translate(19929.227 -18660.285)">
    <path id="Path_79137" data-name="Path 79137" d="M19.82,7.378a.556.556,0,0,1,.7.384,11.3,11.3,0,0,1-.576,7.813l.128.128a13.279,13.279,0,0,0,1.537-.833,16.626,16.626,0,0,1,1.537-1.217q.953.67,1.921,1.345a2.316,2.316,0,0,1,.256.448,10.82,10.82,0,0,1-5.251,3.394,9.008,9.008,0,0,0-2.049.512,10.876,10.876,0,0,0,3.33,1.473,12.578,12.578,0,0,1-.384,2.946,11.176,11.176,0,0,1-7.108-4.483,9.285,9.285,0,0,0,0,2.177,11.172,11.172,0,0,1,.256,1.665l-2.433,1.025a.505.505,0,0,1-.256-.128,11.14,11.14,0,0,1-.384-5.507,27.122,27.122,0,0,1,.768-2.818A15.986,15.986,0,0,0,8.677,17.88,10.9,10.9,0,0,1,6.5,16.087a10.646,10.646,0,0,1,7.3-3.842,7.455,7.455,0,0,0-3.33-1.537,8.31,8.31,0,0,1,.512-3.074,11.878,11.878,0,0,1,6.98,4.611,9.807,9.807,0,0,0-.32-3.714Q18.714,7.9,19.82,7.378ZM15.978,14.55A5.711,5.711,0,0,1,17,15a2.071,2.071,0,0,1,.064,1.217,2.837,2.837,0,0,0-.9.512Q14.121,15.789,15.978,14.55Z" transform="translate(-19935.727 18652.926)" fill="#0fd17f" fill-rule="evenodd" opacity="0.978"/>
    <path id="Path_79138" data-name="Path 79138" d="M209.831,15.468q2.315-.106,1.985,2.177a1.7,1.7,0,0,1-2.5.576,1.9,1.9,0,0,1-.32-1.985A1.635,1.635,0,0,1,209.831,15.468Z" transform="translate(-20112.162 18645.859)" fill-rule="evenodd" opacity="0.864"/>
    <path id="Path_79139" data-name="Path 79139" d="M162.165,28.5h2.305v2.562h1.793v2.305H164.47q-.032,1.922.064,3.842a.938.938,0,0,0,.448.576,6.463,6.463,0,0,0,1.281.064v2.177a5.741,5.741,0,0,1-2.69-.064,2.36,2.36,0,0,1-1.473-1.857q-.1-2.369-.064-4.739H160.5V31.062A5.243,5.243,0,0,0,161.653,31l.32-.32A6.865,6.865,0,0,0,162.165,28.5Z" transform="translate(-20070.002 18634.492)" fill-rule="evenodd" opacity="0.923"/>
    <path id="Path_79140" data-name="Path 79140" d="M243.727,47.146a3.17,3.17,0,0,1,3.906,2.562q.1,3.265.064,6.532h-2.562q.032-2.946-.064-5.892a1.616,1.616,0,0,0-2.241-.7,1.8,1.8,0,0,0-.576.833q-.1,2.881-.064,5.763h-2.562q.062-4.3-.128-8.581l.128-.256a11.671,11.671,0,0,1,2.433-.128,3.2,3.2,0,0,0,.064.9A3.865,3.865,0,0,1,243.727,47.146Z" transform="translate(-20138.885 18618.281)" fill-rule="evenodd" opacity="0.902"/>
    <path id="Path_79141" data-name="Path 79141" d="M311.867,47.452a3.952,3.952,0,0,1,2.626.768,3.7,3.7,0,0,1,.192-.512,10.486,10.486,0,0,1,2.305-.128q.032,4.675-.064,9.35a4.114,4.114,0,0,1-3.266,3.138,4.94,4.94,0,0,1-4.739-1.345,2.852,2.852,0,0,1-.768-1.921q1.148-.281,2.305-.512a1.671,1.671,0,0,0,1.985,1.537q2.389-.16,2.049-2.562a3.216,3.216,0,0,1-3.01.833,4.113,4.113,0,0,1-3.266-3.138,4.4,4.4,0,0,1,2.754-5.315A3.147,3.147,0,0,0,311.867,47.452Zm.256,2.305q3.189.094,2.241,3.2a2.117,2.117,0,0,1-2.5.833,1.866,1.866,0,0,1-1.153-1.985A1.921,1.921,0,0,1,312.124,49.757Z" transform="translate(-20198.699 18617.975)" fill-rule="evenodd" opacity="0.914"/>
    <path id="Path_79142" data-name="Path 79142" d="M386.086,47.364a3.986,3.986,0,0,1,2.818.768q.143-.286.256-.576a20.8,20.8,0,0,1,2.305-.064q.032,4.419-.064,8.837a3.878,3.878,0,0,1-3.394,3.65,5.385,5.385,0,0,1-4.355-1.025,4.358,4.358,0,0,1-1.153-2.241,11.97,11.97,0,0,0,2.241-.64q1.008,2.542,3.522,1.345a2.753,2.753,0,0,0,.7-2.241,3.7,3.7,0,0,1-4.163.448,4.255,4.255,0,0,1-2.241-4.547A4.33,4.33,0,0,1,386.086,47.364Zm.384,2.305q3.432.064,2.241,3.33a2.223,2.223,0,0,1-2.754.512,2.429,2.429,0,0,1-.7-.9A2.213,2.213,0,0,1,386.47,49.67Z" transform="translate(-20263.57 18618.063)" fill-rule="evenodd" opacity="0.912"/>
    <path id="Path_79143" data-name="Path 79143" d="M211.5,48.5h2.433v8.965H211.5Z" transform="translate(-20114.471 18617.055)" fill-rule="evenodd" opacity="0.937"/>
    <path id="Path_79144" data-name="Path 79144" d="M2.669-26.391v1.657a.831.831,0,0,1,.612-.28.843.843,0,0,1,.656.294,1.05,1.05,0,0,1,.262.728,1.072,1.072,0,0,1-.264.744.852.852,0,0,1-.662.292.842.842,0,0,1-.6-.26v.2h-.45v-3.38ZM3.74-23.971a.673.673,0,0,0-.152-.456.487.487,0,0,0-.386-.18.518.518,0,0,0-.4.174.647.647,0,0,0-.154.448.656.656,0,0,0,.152.454.506.506,0,0,0,.4.174.5.5,0,0,0,.388-.174A.639.639,0,0,0,3.74-23.971Zm1.534.6L4.4-24.96H4.92l.6,1.121.556-1.121h.508L5.028-21.95H4.513Zm4.509-1.5v.6a1.1,1.1,0,0,0-.276-.258.538.538,0,0,0-.282-.072.556.556,0,0,0-.422.178.625.625,0,0,0-.168.446.639.639,0,0,0,.162.45.547.547,0,0,0,.418.176.572.572,0,0,0,.286-.07,1.135,1.135,0,0,0,.282-.264v.594a1.182,1.182,0,0,1-.548.142,1.049,1.049,0,0,1-.756-.292.975.975,0,0,1-.3-.73.988.988,0,0,1,.308-.736,1.043,1.043,0,0,1,.756-.3A1.13,1.13,0,0,1,9.783-24.876Zm2.269,1h-1.4a.592.592,0,0,0,.156.382.476.476,0,0,0,.354.14.461.461,0,0,0,.278-.08,1.139,1.139,0,0,0,.246-.3l.38.212a1.513,1.513,0,0,1-.186.257.99.99,0,0,1-.21.176.843.843,0,0,1-.242.1,1.179,1.179,0,0,1-.282.032.917.917,0,0,1-.7-.28,1.051,1.051,0,0,1-.264-.748,1.08,1.08,0,0,1,.256-.748.883.883,0,0,1,.684-.282.875.875,0,0,1,.68.274,1.078,1.078,0,0,1,.248.754Zm-.462-.368a.431.431,0,0,0-.454-.36.467.467,0,0,0-.154.025.441.441,0,0,0-.131.072.457.457,0,0,0-.1.113.525.525,0,0,0-.064.15Zm1.462-2.143v3.38H12.6v-3.38Zm1.078,0v3.38h-.45v-3.38Zm1.078,1.431v1.119q0,.484.382.484t.382-.484V-24.96h.45v1.129a1.256,1.256,0,0,1-.058.4.679.679,0,0,1-.194.274.853.853,0,0,1-.58.2.85.85,0,0,1-.578-.2.69.69,0,0,1-.2-.274,1.115,1.115,0,0,1-.056-.4V-24.96ZM17.5-26.391v3.38h-.45v-3.38Zm2.065,1.431h.452v1.949h-.452v-.2a.864.864,0,0,1-.6.26.862.862,0,0,1-.668-.292,1.087,1.087,0,0,1-.262-.744,1.053,1.053,0,0,1,.262-.73.845.845,0,0,1,.656-.292.829.829,0,0,1,.61.28Zm-1.069.969a.679.679,0,0,0,.15.456.492.492,0,0,0,.388.178.517.517,0,0,0,.4-.172.666.666,0,0,0,.154-.452.666.666,0,0,0-.154-.452.509.509,0,0,0-.4-.174.5.5,0,0,0-.388.176A.649.649,0,0,0,18.495-23.991Zm2.147-.969h.452v.18a.738.738,0,0,1,.532-.234.672.672,0,0,1,.53.214.877.877,0,0,1,.164.594v1.195h-.452V-24.1a.714.714,0,0,0-.08-.4.323.323,0,0,0-.284-.112.347.347,0,0,0-.318.148,1.019,1.019,0,0,0-.092.51v.941h-.452Zm2.769.42v1.529h-.45V-24.54h-.192v-.42h.192v-.714h.45v.714h.35v.42Z" transform="translate(-19895.939 18706.295)"/>
  </g>
</svg>
