<svg width="190" height="38" viewBox="0 0 190 38" fill="none" xmlns="http://www.w3.org/2000/svg">
<path fill-rule="evenodd" clip-rule="evenodd" d="M173.596 0.0917969L187.962 8.5918L189.41 9.44922L187.729 9.52246L178.287 9.93164C170.028 10.29 162.569 14.9747 158.66 22.2588L158.229 23.0615L157.784 22.2686C152.886 31.3504 143.286 37.5224 132.244 37.5225H57.1709C46.1286 37.5225 36.5281 31.3506 31.6299 22.2686L31.1553 23.1143L30.7422 22.2354C27.3604 15.029 20.2522 10.3003 12.2988 9.9668L1.68652 9.52246L0 9.45117L1.45215 8.5918L15.8184 0.0917969L15.9736 0L16.1523 0.0283203L41.1035 4.02832L41.8115 4.14258L41.46 4.76758L39.3506 8.52246H150.063L147.954 4.76758L147.603 4.14258L148.311 4.02832L173.262 0.0283203L173.44 0L173.596 0.0917969Z" fill="white"/>
</svg>
