<svg xmlns="http://www.w3.org/2000/svg" width="74.059" height="74.002" viewBox="0 0 74.059 74.002"><defs><style>.a,.c{fill:#ed1c26;}.a{stroke:rgba(0,0,0,0);stroke-miterlimit:10;}.b{fill:#fefefe;}</style></defs><g transform="translate(-374.439 -467.498)"><g transform="translate(-405.15 107.934)"><path class="a" d="M20205.879-4111.934l-.207,0h-.008l-.2,0h-65.572a5.751,5.751,0,0,1-5.391-3.544,2.766,2.766,0,0,1-.23-.919l0-.011v-.015a3.838,3.838,0,0,0-.119-.642v-43.482a5.837,5.837,0,0,1,3.992-4.833.879.879,0,0,0,.658-.953c-.014-1.561-.014-3.123,0-4.777.008-1.383.51-1.9,1.848-1.9h.156a12.008,12.008,0,0,0,2.357-.254c4.656-.922,9.391-1.867,13.971-2.781l.6-.12c5.846-1.167,11.113-2.219,16.389-3.261,4.887-.965,9.965-1.979,14.445-2.875l1.764-.353c2.617-.522,5.322-1.063,7.977-1.59,1.258-.251,2.607-.477,4.127-.689h.143c1.105.032,1.408.784,1.572,1.592.223,1.116.443,2.257.656,3.361l.16.819c.344,1.8.658,3.418.988,5.05a1.9,1.9,0,0,0,.781,1.374,1.183,1.183,0,0,1,.461.923,2.5,2.5,0,0,1,.014.382v.031c0,.054,0,.107,0,.16v57.661c0,.063,0,.126,0,.189l0,.022a2.54,2.54,0,0,1-.031.569,1,1,0,0,1-.93.847A2.576,2.576,0,0,1,20205.879-4111.934Zm-70.111-42.707h0v36.113a6.021,6.021,0,0,0,1.051,3.517,3.6,3.6,0,0,0,3,1.569c21.586,0,43.908,0,65.045.01a.761.761,0,0,0,.547-.128.708.708,0,0,0,.127-.521c-.025-3.6-.025-8.246,0-11.846,0-.521-.1-.705-.658-.705h-.025c-3.439.015-7.137.017-9.975.017h-8.014c-1.232,0-1.629-.4-1.629-1.618,0-3.773,0-7.615,0-11.33,0-1.271.379-1.638,1.668-1.638l4.328,0,4.717,0c3.748,0,6.5.008,8.934.025h.023a.922.922,0,0,0,.678-.174,1.023,1.023,0,0,0,.16-.729c-.033-3.915-.031-7.341.006-10.477a.933.933,0,0,0-.162-.68.941.941,0,0,0-.686-.167c-13.338.013-27.686.016-39.215.018h-4.248c-6.484,0-13.08,0-19.477.006h-.426c-1.555,0-4.158,0-5.762-1.258Zm51.68,15.047a.641.641,0,0,0-.477.127.684.684,0,0,0-.125.5c.025,2.811.02,7.207,0,10.1,0,.487.086.649.6.649,2.455-.012,5.4-.018,8.752-.018,2.855,0,5.881,0,8.75.013.463,0,.582-.12.582-.583-.027-2.853-.027-7.32,0-10.168a.676.676,0,0,0-.121-.5.637.637,0,0,0-.479-.124h-.029c-1.578.015-3.416.017-4.842.017h-7.744c-1.424,0-3.262,0-4.844-.017Zm-45.924-30.824a.806.806,0,0,0-.574.139.762.762,0,0,0-.137.546c.031,4.385.031,9.415,0,13.8a.8.8,0,0,0,.143.588.819.819,0,0,0,.6.147c3.752-.015,7.7-.017,10.725-.017h8.629c1.1,0,1.209-.481,1.418-1.44.023-.107.049-.221.078-.34.061-.27.145-.54.232-.816a11.124,11.124,0,0,1,3.98-5.583,10.624,10.624,0,0,1,6.373-2.134c.207,0,.422.006.637.02a10.991,10.991,0,0,1,6.717,2.752,10.9,10.9,0,0,1,3.512,6.351c.063.36.268,1.2.775,1.2,3.816-.006,7.154-.009,10.2-.009,3.881,0,7.313,0,10.2.014a.8.8,0,0,0,.57-.138.746.746,0,0,0,.135-.546c-.025-4.361-.025-9.362,0-13.723a.89.89,0,0,0-.154-.647.844.844,0,0,0-.617-.159h-.025c-7.025.014-14.555.016-20.992.016h-10.881C20162.629-4170.4,20151.838-4170.4,20141.523-4170.417Zm32.016,6.676c-.141,0-.277,0-.406.008a9.3,9.3,0,0,0-6.34,2.564,10.743,10.743,0,0,0-2.852,5.342c-.062.274-.059.421.008.508s.2.116.455.116h.037c1.006-.01,2.229-.014,3.848-.014l2.531,0h.08l2.115,0h2.346l2.7,0c1.574,0,2.707,0,3.672.008h.045c.211,0,.357-.018.428-.107s.068-.223.014-.472a11.793,11.793,0,0,0-2.674-5.4A7.86,7.86,0,0,0,20173.539-4163.741Zm-34.564-.307h0c-1.088.377-3.617,1.547-3.617,4.25,0,3.046,1.932,3.591,3.344,3.989l.273.078v-8.317Zm63.623-19.311a1.3,1.3,0,0,0-.248.03c-3.527.711-7.424,1.475-11.783,2.327-2.764.541-5.373,1.051-7.85,1.542-3.2.637-11.145,2.157-19.553,3.767l-.018,0c-8.105,1.551-17.295,3.31-20.7,3.989l61.563-.517h.141c.2,0,.363-.009.447-.114s.084-.248.031-.505c-.322-1.512-.637-3.593-.939-5.605l-.006-.038c-.246-1.643-.479-3.195-.709-4.414C20202.914-4183.215,20202.844-4183.358,20202.6-4183.358Z" transform="translate(-19354.059 4545)"/><path class="b" d="M843.249,422.613" transform="translate(-50.324 -49.837)"/><path class="c" d="M1057.9,606.307c0,1.2,0,1.2-1.239,1.2-1.2,0-1.2,0-1.2-1.228,0-1.21,0-1.21,1.234-1.21C1057.9,605.071,1057.9,605.071,1057.9,606.307Z" transform="translate(-219.413 -195.217)"/></g></g></svg>