<svg width="24" height="24" viewBox="0 0 24 24" fill="none" xmlns="http://www.w3.org/2000/svg">
<path d="M1.16992 6.76181C4.14829 4.09788 8.00402 2.62512 11.9999 2.62512C15.9958 2.62512 19.8516 4.09788 22.8299 6.76181" stroke="white" stroke-width="2" stroke-linecap="round" stroke-linejoin="round"/>
<path d="M3.66992 11.1635C5.89438 8.98314 8.88506 7.76184 11.9999 7.76184C15.1148 7.76184 18.1055 8.98314 20.3299 11.1635" stroke="white" stroke-width="2" stroke-linecap="round" stroke-linejoin="round"/>
<path d="M6.58496 14.3748C8.03099 12.9574 9.97512 12.1635 12 12.1635C14.0248 12.1635 15.9689 12.9574 17.415 14.3748" stroke="white" stroke-width="2" stroke-linecap="round" stroke-linejoin="round"/>
<path d="M9.5 18.8749C9.5 17.4942 10.6193 16.3749 12 16.3749V16.3749C13.3807 16.3749 14.5 17.4942 14.5 18.8749V18.8749C14.5 20.2556 13.3807 21.3749 12 21.3749V21.3749C10.6193 21.3749 9.5 20.2556 9.5 18.8749V18.8749Z" fill="white"/>
</svg>
