<svg width="24" height="24" viewBox="0 0 24 24" fill="none" xmlns="http://www.w3.org/2000/svg">
<path d="M1.16992 6.76184C4.14829 4.09791 8.00402 2.62515 11.9999 2.62515C15.9958 2.62515 19.8516 4.09791 22.8299 6.76184" stroke="#1F2436" stroke-width="2" stroke-linecap="round" stroke-linejoin="round"/>
<path d="M3.66992 11.1635C5.89438 8.98314 8.88506 7.76184 11.9999 7.76184C15.1148 7.76184 18.1055 8.98314 20.3299 11.1635" stroke="#1F2436" stroke-width="2" stroke-linecap="round" stroke-linejoin="round"/>
<path d="M6.58496 14.3749C8.03099 12.9575 9.97512 12.1635 12 12.1635C14.0248 12.1635 15.9689 12.9575 17.415 14.3749" stroke="#1F2436" stroke-width="2" stroke-linecap="round" stroke-linejoin="round"/>
<path d="M9.5 18.8748C9.5 17.4941 10.6193 16.3748 12 16.3748V16.3748C13.3807 16.3748 14.5 17.4941 14.5 18.8748V18.8748C14.5 20.2556 13.3807 21.3748 12 21.3748V21.3748C10.6193 21.3748 9.5 20.2556 9.5 18.8748V18.8748Z" fill="#1F2436"/>
</svg>
